<?xml version="1.0" encoding="UTF-8" standalone="no"?>
<svg
   xmlns:dc="http://purl.org/dc/elements/1.1/"
   xmlns:cc="http://creativecommons.org/ns#"
   xmlns:rdf="http://www.w3.org/1999/02/22-rdf-syntax-ns#"
   xmlns:svg="http://www.w3.org/2000/svg"
   xmlns="http://www.w3.org/2000/svg"
   xmlns:sodipodi="http://sodipodi.sourceforge.net/DTD/sodipodi-0.dtd"
   xmlns:inkscape="http://www.inkscape.org/namespaces/inkscape"
   width="250"
   height="350"
   viewBox="0 0 2.6041666 3.6458333"
   version="1.1"
   id="SVGRoot"
   sodipodi:docname="birb.svg"
   inkscape:version="1.0.1 (3bc2e813f5, 2020-09-07)">
  <defs
     id="defs504">
    <clipPath
       clipPathUnits="userSpaceOnUse"
       id="clipPath573">
      <path
         style="fill:none;stroke:#000000;stroke-width:0.0104167px;stroke-linecap:butt;stroke-linejoin:miter;stroke-opacity:1"
         d="M 0.91545103,0.10522425 2.0834403,0.03156728 2.4938149,0.79970435 2.1886646,2.3675458 1.978216,3.8617302 1.3153032,4.5035982 0.18940366,3.7038939 0.07365698,0.98910801 0.09470183,0.11574668 Z"
         id="path575" />
    </clipPath>
    <clipPath
       clipPathUnits="userSpaceOnUse"
       id="clipPath606">
      <path
         style="fill:none;stroke:#000000;stroke-width:0.0104167px;stroke-linecap:butt;stroke-linejoin:miter;stroke-opacity:1"
         d="M 0.13679153,3.0199362 1.8414245,2.9041895 1.3784377,-0.01052243 0.03156728,0.06313455 -0.09470183,0.58925584 Z"
         id="path608" />
    </clipPath>
    <clipPath
       clipPathUnits="userSpaceOnUse"
       id="clipPath639">
      <path
         style="fill:none;stroke:#000000;stroke-width:0.0104167px;stroke-linecap:butt;stroke-linejoin:miter;stroke-opacity:1"
         d="M 0.70500253,0.11574668 0.07365698,0.75761465 -0.12626911,0.88388376 0.18940366,1.2732135 0.6103007,1.4205274 0.51559886,2.2307543 0.78918193,2.3254561 1.8519469,2.3780683 2.0413505,1.3258256 1.9571711,0.02104485 0.6944801,-0.03156728 Z"
         id="path641" />
    </clipPath>
    <clipPath
       clipPathUnits="userSpaceOnUse"
       id="clipPath672">
      <path
         style="fill:none;stroke:#000000;stroke-width:0.0104167px;stroke-linecap:butt;stroke-linejoin:miter;stroke-opacity:1"
         d="M 0.2420158,0.21044852 0.11574668,1.7572451 0.38932975,2.9778465 1.7046329,2.9252344 2.0518731,1.5257517 1.8414245,0.91545103 1.5783637,0.3261952 0.86283891,0.06313455 0.52612128,-0.13679153 Z"
         id="path674" />
    </clipPath>
    <clipPath
       clipPathUnits="userSpaceOnUse"
       id="clipPath706">
      <path
         style="fill:none;stroke:#000000;stroke-width:0.0104167px;stroke-linecap:butt;stroke-linejoin:miter;stroke-opacity:1"
         d="M -0.3261952,1.8414245 1.0522425,1.9256039 1.9571711,1.6414984 1.8835142,0.34724005 1.2942583,-0.12626911 0.16835881,0.08417941 Z"
         id="path708" />
    </clipPath>
  </defs>
  <sodipodi:namedview
     id="base"
     pagecolor="#ffffff"
     bordercolor="#666666"
     borderopacity="1.0"
     inkscape:pageopacity="0.0"
     inkscape:pageshadow="2"
     inkscape:zoom="0.98994949"
     inkscape:cx="276.02196"
     inkscape:cy="192.74279"
     inkscape:document-units="in"
     inkscape:current-layer="layer1"
     inkscape:document-rotation="0"
     showgrid="false"
     inkscape:window-width="1280"
     inkscape:window-height="737"
     inkscape:window-x="-8"
     inkscape:window-y="-8"
     inkscape:window-maximized="1"
     units="px" />
  <metadata
     id="metadata507">
    <rdf:RDF>
      <cc:Work
         rdf:about="">
        <dc:format>image/svg+xml</dc:format>
        <dc:type
           rdf:resource="http://purl.org/dc/dcmitype/StillImage" />
        <dc:title></dc:title>
      </cc:Work>
    </rdf:RDF>
  </metadata>
  <g
     inkscape:groupmode="layer"
     id="layer3"
     inkscape:label="clip"
     style="display:inline" />
  <g
     inkscape:label="Layer 1"
     inkscape:groupmode="layer"
     id="layer1"
     style="display:inline">
    <path
       style="fill:#000000;stroke-width:0.00157346"
       d="m 0.57202782,0.9576436 c 0.008004,-0.008954 0.0122554,-0.0226589 0.0171054,-0.05514 l 0.003984,-0.0266812 -0.004746,-0.0201841 c -0.002612,-0.0111011 -0.006154,-0.0289359 -0.007874,-0.0396327 -0.001721,-0.0106968 -0.003764,-0.023343 -0.004542,-0.0281027 -7.7911e-4,-0.00476 -0.001189,-0.008901 -9.0631e-4,-0.009204 8.9438e-4,-9.6991e-4 0.008846,0.0158055 0.0111206,0.0234635 0.001208,0.004076 0.003649,0.0168725 0.005421,0.0284378 0.003697,0.0241225 0.009694,0.0527008 0.0130246,0.0620499 0.005895,0.0165445 0.0169714,0.0335338 0.0250901,0.0384839 0.005055,0.003081 0.005057,0.003089 9.6593e-4,0.003097 -0.009397,1.415e-5 -0.0241046,-0.0161832 -0.0307143,-0.0338236 l -0.002949,-0.007867 -0.00103,0.0173081 c -0.001546,0.0260103 -0.00895,0.0422161 -0.0224133,0.0490579 l -0.00488,0.00248 z m -0.0190726,-0.003593 c -0.002333,-0.003061 -0.006068,-0.0110737 -0.008295,-0.0178046 -0.003788,-0.0114505 -0.004093,-0.0146627 -0.004735,-0.0498994 -3.7727e-4,-0.0207135 -0.00124,-0.0366447 -0.001916,-0.0354029 -6.7575e-4,0.00124 -0.00634,0.0174814 -0.0125842,0.0360874 -0.0152018,0.0452985 -0.0180387,0.0505312 -0.0305943,0.0564331 -0.0104567,0.004915 -0.0120261,0.004063 -0.004357,-0.002365 0.007813,-0.00655 0.0128775,-0.0158087 0.0201085,-0.036758 0.002838,-0.008221 0.008292,-0.0230906 0.0121215,-0.0330425 0.0152606,-0.0396621 0.0165159,-0.0450883 0.0174715,-0.0755261 9.2221e-4,-0.0293827 0.003987,-0.0482597 0.0105998,-0.0652986 0.00517,-0.0133216 0.005298,-0.008541 8.0296e-4,0.0299301 -0.002123,0.0181544 -0.003486,0.0349283 -0.003037,0.0372751 4.4918e-4,0.002345 -3.446e-5,0.009073 -0.001077,0.0149477 -0.0012,0.006746 -0.001829,0.025792 -0.001709,0.0516999 2.0459e-4,0.044805 0.00217,0.0637658 0.008592,0.0828873 0.002107,0.006276 0.003613,0.0116349 0.003343,0.011908 -2.6812e-4,2.732e-4 -0.002397,-0.002007 -0.004733,-0.00507 z m -0.0834532,-0.010768 c -0.002639,-0.004363 -0.003077,-0.007887 -0.002985,-0.0239953 9.552e-5,-0.0170573 6.5985e-4,-0.020706 0.005846,-0.0377629 0.010058,-0.0330819 0.0148412,-0.0497889 0.0207227,-0.0723792 0.0112382,-0.0431656 0.0255829,-0.0806997 0.0351783,-0.0920475 0.003287,-0.003888 0.003283,-0.003772 -4.1738e-4,0.0102274 -0.002059,0.007789 -0.007972,0.0254899 -0.0131415,0.0393366 -0.009705,0.0259964 -0.0345717,0.11144404 -0.0397885,0.13672092 -0.003216,0.0155897 -0.003844,0.0318627 -0.001534,0.0399105 0.001876,0.00654 8.086e-5,0.006535 -0.003881,-1.052e-5 z m 0.0963234,-0.0133744 c -0.002349,-0.004053 -0.006066,-0.0248023 -0.007226,-0.0403509 -0.002365,-0.0316699 0.002341,-0.0870557 0.008552,-0.10069951 0.002174,-0.004774 0.002198,-0.004704 0.001093,0.002977 -6.2408e-4,0.004327 -9.9774e-4,0.0374286 -8.3079e-4,0.0735593 1.6541e-4,0.0361307 3.021e-5,0.065692 -3.0051e-4,0.065692 -3.3072e-4,0 -9.1028e-4,-5.3265e-4 -0.001284,-0.001181 z m 0.0735702,-0.003434 c 0.005257,-0.005809 0.007035,-0.0144473 0.007106,-0.0345288 6.638e-5,-0.0187161 -1.111e-4,-0.0197917 -0.004541,-0.0275355 -0.002536,-0.004432 -0.006871,-0.0137234 -0.009634,-0.0206464 -0.002763,-0.006923 -0.007107,-0.0167305 -0.009653,-0.0217943 -0.002548,-0.005064 -0.004406,-0.009428 -0.004133,-0.009699 8.7848e-4,-8.7053e-4 0.006749,0.004585 0.0110816,0.0103009 0.002317,0.003057 0.009159,0.0154474 0.0152057,0.0275355 0.009394,0.0187805 0.0127949,0.0238844 0.0233685,0.0350734 0.0118794,0.0125703 0.0126231,0.0130743 0.0185841,0.0125878 0.005981,-4.8892e-4 0.006204,-7.0755e-4 0.006075,-0.006014 -2.5813e-4,-0.0105823 -0.004272,-0.0291351 -0.006978,-0.0322558 -0.001503,-0.001729 -0.00821,-0.0112895 -0.0149108,-0.0212418 -0.0132079,-0.019618 -0.0134575,-0.0190253 -0.003009,0.007133 0.003816,0.009548 0.006935,0.0183806 0.006935,0.0196275 0,0.00403 -0.0145395,-0.0207656 -0.0222876,-0.0380089 -0.008325,-0.0185265 -0.02408,-0.0609182 -0.0230306,-0.0619675 0.001002,-0.001002 0.0114223,0.0132615 0.0152542,0.0208741 0.001844,0.003665 0.009624,0.0149934 0.0172882,0.0251755 0.007664,0.0101821 0.0185897,0.0256875 0.0242799,0.0344568 0.0102341,0.015773 0.0160767,0.0212315 0.0258874,0.0241857 0.003697,0.001113 0.003236,0.001316 -0.003271,0.001431 -0.004167,7.442e-5 -0.009054,-6.5588e-4 -0.0108594,-0.001622 -0.002858,-0.00153 -0.00314,-0.001387 -0.002182,0.001109 0.002341,0.006099 0.002814,0.0162384 0.001018,0.0216878 -0.00522,0.0158171 -0.0211997,0.0135263 -0.0384247,-0.005508 -0.004865,-0.005376 -0.008837,-0.009477 -0.008827,-0.009113 1.101e-5,3.638e-4 0.001065,0.004556 0.002341,0.009316 0.004786,0.017832 0.001713,0.0337004 -0.007721,0.0398829 -0.005491,0.003597 -0.008384,0.003339 -0.00496,-4.4122e-4 z M 0.49034728,0.89843861 c 0.003319,-0.0209107 0.006828,-0.0343813 0.0201936,-0.077493 0.006918,-0.0223135 0.0302171,-0.0811618 0.03159,-0.0797888 3.4051e-4,3.405e-4 -0.001908,0.008697 -0.004996,0.018569 -0.0155861,0.0498199 -0.0200406,0.0649642 -0.0257857,0.0876611 -0.003438,0.0135831 -0.007954,0.0289447 -0.0100358,0.0341372 -0.007801,0.0194606 -0.0125258,0.0267476 -0.0109661,0.0169145 z m 0.12262618,-0.0274189 c -0.006231,-0.0215793 -0.008986,-0.0331228 -0.0111981,-0.0469272 -0.002616,-0.0163303 -0.003339,-0.055098 -9.7786e-4,-0.0526323 0.001729,0.001805 0.007194,0.0281528 0.00945,0.0455517 0.002977,0.0229567 0.006587,0.0609436 0.00586,0.0616699 -3.9337e-4,3.9333e-4 -0.001805,-0.003053 -0.003132,-0.007662 z m 0.10890964,-0.007094 c 0.003335,-0.006417 0.001805,-0.0102683 -0.0129694,-0.0325846 -0.008116,-0.0122606 -0.0175824,-0.027935 -0.0210359,-0.0348321 -0.006732,-0.0134436 -0.0139627,-0.0333283 -0.0126108,-0.0346802 9.0631e-4,-9.0631e-4 0.0137548,0.0192988 0.0255893,0.0402351 0.004158,0.007356 0.010186,0.0172688 0.0133959,0.0220285 0.0145971,0.0216465 0.0173848,0.0326553 0.009992,0.0394554 -0.003927,0.003613 -0.004053,0.003633 -0.002361,3.779e-4 z M 0.6898822,0.82027061 c -0.008175,-0.008373 -0.0177839,-0.0238037 -0.0159598,-0.0256283 4.4918e-4,-4.4918e-4 0.004213,0.002707 0.008366,0.007009 0.007996,0.008284 0.0188612,0.0250304 0.0172715,0.0266204 -5.2073e-4,5.2073e-4 -0.004875,-0.003081 -0.009678,-0.008001 z M 0.658708,0.78641374 c -0.004559,-0.004003 -0.0137107,-0.0223846 -0.0137107,-0.0275399 0,-0.002878 0.008368,0.006471 0.012843,0.0143463 0.005642,0.009929 0.006994,0.0111023 0.0148158,0.0128557 l 0.00617,0.001383 -0.004429,0.001797 c -0.006815,0.002763 -0.009956,0.002194 -0.0156891,-0.002842 z M 0.609055,0.77133884 c -0.003558,-0.004522 -0.005719,-0.009958 -0.004461,-0.0112156 4.3726e-4,-4.3726e-4 0.00322,0.001852 0.006186,0.00509 l 0.005393,0.005884 0.00353,-0.00353 c 0.004426,-0.004426 0.005777,-0.003295 0.003005,0.002516 -0.002953,0.00619 -0.00931,0.006775 -0.0136519,0.001256 z M 0.5895646,0.75806064 c -0.004275,-0.003363 -0.008214,-0.011303 -0.007167,-0.0144457 3.6014e-4,-0.001081 0.00291,0.001316 0.005668,0.005322 0.002759,0.004008 0.006438,0.007739 0.00818,0.008292 0.001741,5.5253e-4 0.002759,0.001662 0.002266,0.002465 -0.001427,0.002309 -0.004688,0.001717 -0.008945,-0.001634 z M 0.6659443,0.74495214 C 0.6614913,0.73939514 0.6553818,0.72996944 0.6523683,0.72400604 0.6453733,0.71016494 0.6078164,0.65546624 0.5898249,0.63291724 0.5747786,0.61405924 0.5657302,0.60476524 0.5562704,0.59845204 c -0.005443,-0.003633 -0.005704,-0.004081 -0.002361,-0.00405 0.00488,4.484e-5 0.0156084,0.00495 0.0229956,0.010514 l 0.005841,0.0044 -0.008194,-0.0116874 c -0.004507,-0.006428 -0.00787,-0.0120114 -0.007474,-0.0124073 0.001276,-0.001276 0.00836,0.00421 0.0125897,0.009755 0.002262,0.002965 0.004532,0.008114 0.005045,0.0114398 6.5588e-4,0.004253 0.00415,0.0101515 0.0117832,0.0198871 0.005969,0.007612 0.0180204,0.0242513 0.0267814,0.0369762 0.008761,0.0127249 0.0197293,0.028567 0.0243742,0.0352049 0.008115,0.011598 0.0278726,0.0521217 0.0268728,0.0551202 -2.6625e-4,7.9898e-4 -0.004128,-0.003093 -0.008581,-0.008652 z M 0.5724765,0.73640514 C 0.5670615,0.73184814 0.5584331,0.71486084 0.5584919,0.70887124 l 3.494e-5,-0.003574 0.003208,0.003935 c 0.001765,0.002162 0.006346,0.008713 0.0101821,0.0145546 0.003836,0.005841 0.00753,0.0106209 0.008208,0.0106209 6.7973e-4,0 0.002806,-0.001101 0.004731,-0.002449 0.004765,-0.003339 0.004515,1.03e-6 -3.6511e-4,0.004881 -0.00486,0.00486 -0.005763,0.004828 -0.0120138,-4.3328e-4 z M 0.496305,0.72499094 C 0.4782873,0.72171194 0.4387246,0.70790024 0.4214712,0.69886464 0.4108101,0.69328164 0.4035811,0.68711684 0.3891533,0.67130454 0.3864703,0.66836254 0.3803923,0.66241954 0.3756437,0.65809234 0.3708957,0.65376534 0.3619735,0.64261914 0.3558166,0.63332304 0.3436446,0.61494524 0.3349115,0.60363664 0.3105445,0.57469884 0.2869725,0.54670544 0.2735766,0.52985524 0.2748936,0.52985524 c 0.003279,0 0.0183635,0.0120674 0.0259757,0.0207827 0.0262142,0.0300127 0.0414562,0.0489363 0.0538973,0.0669157 0.0313253,0.0452701 0.0393286,0.0550835 0.051174,0.0627461 0.015536,0.0100501 0.0352479,0.0188695 0.0699073,0.0312776 0.0475596,0.0170263 0.0503442,0.018852 0.0204571,0.0134136 z M 0.4537842,0.63290844 c -0.004348,-0.002107 -0.0103661,-0.006409 -0.0133744,-0.009564 -0.005056,-0.005303 -0.005177,-0.005648 -0.001594,-0.004557 0.004034,0.001228 0.0346305,0.0159212 0.035994,0.0172847 4.2931e-4,4.293e-4 -0.002349,7.5128e-4 -0.006171,7.1948e-4 -0.004041,-3.339e-5 -0.010258,-0.001658 -0.0148546,-0.003883 z M 0.478997,0.635039 C 0.4584723,0.6238556 0.4623813,0.6216121 0.486078,0.630975 0.492568,0.633539 0.498174,0.63591 0.4985346,0.636244 0.5001206,0.637707 0.4818255,0.63658029 0.478997,0.635039 Z M 0.5256502,0.5990764 c -0.006592,-0.004775 -0.008994,-0.009242 -0.003776,-0.007023 0.001514,6.4395e-4 0.005439,0.001936 0.008721,0.00287 0.008083,0.002302 0.0111039,1.8107e-4 0.0122264,-0.008586 l 8.8643e-4,-0.006921 0.002655,0.00585 c 0.003546,0.007817 0.003359,0.0101109 -0.001208,0.0146766 -0.005219,0.005219 -0.0114855,0.00494 -0.0195035,-8.6656e-4 z m 0.0516881,-0.0164257 -0.005507,-0.002035 0.009441,-0.001089 c 0.0173976,-0.002007 0.0178758,-0.00221 0.0195353,-0.008221 8.3873e-4,-0.003037 0.004282,-0.00918 0.007652,-0.0136519 0.007512,-0.009968 0.009789,-0.0141345 0.009789,-0.0179171 0,-0.002687 -0.001248,-0.002862 -0.0160989,-0.002266 -0.0186008,7.4731e-4 -0.0204063,0.001908 -0.0190202,0.0122181 7.3936e-4,0.005501 8.276e-5,0.007649 -0.004428,0.0144771 -0.002914,0.00441 -0.006744,0.0103534 -0.008513,0.0132087 -0.002858,0.004609 -0.003967,0.005175 -0.00992,0.005049 -0.003756,-7.962e-5 -0.007765,-0.001204 -0.009117,-0.002556 -0.00217,-0.00217 -0.001781,-0.002397 0.003816,-0.00225 0.008226,2.1565e-4 0.0113567,-0.002596 0.0113567,-0.0101928 0,-0.003355 7.0755e-4,-0.006101 0.001574,-0.006101 8.6656e-4,0 0.001574,0.001216 0.001574,0.002699 0,0.001487 0.002476,-0.001145 0.005507,-0.005847 0.006141,-0.009532 0.007109,-0.0136423 0.002755,-0.0116902 -0.006999,0.003136 -0.0175367,0.002556 -0.0262857,-0.001451 -0.004798,-0.002198 -0.008724,-0.004281 -0.008724,-0.004631 0,-3.506e-4 0.005137,-3.0779e-4 0.0114155,9.52e-5 0.007995,5.1278e-4 0.0130982,2.958e-5 0.0170319,-0.001614 l 0.005616,-0.002345 1.3892e-4,-0.012862 c 1.1739e-4,-0.0108689 -2.0312e-4,-0.0125782 -0.002067,-0.0110299 -0.004699,0.0039 -0.0337075,0.003752 -0.0337075,-1.7264e-4 0,-8.268e-4 0.003009,-0.001554 0.006687,-0.001618 0.003677,-6.403e-5 0.0119975,-0.001681 0.0184883,-0.003589 0.0105597,-0.003108 0.0118011,-0.003884 0.0118011,-0.007357 0,-0.003236 -6.5588e-4,-0.003796 -0.003935,-0.003351 -0.0124602,0.001685 -0.0254395,0.001956 -0.0245475,5.1278e-4 5.4061e-4,-8.7451e-4 0.003275,-0.002083 0.006077,-0.002691 0.007443,-0.00161 0.0194964,-0.008033 0.020634,-0.0109969 5.406e-4,-0.001407 9.9376e-4,-0.006929 0.00101,-0.0122674 l 2.643e-5,-0.009705 0.003267,0.005104 c 0.005087,0.007943 0.005701,0.0169484 0.001538,0.022577 l -0.003446,0.004663 0.003228,0.004102 c 0.003864,0.004914 0.004051,0.007328 7.7513e-4,0.0100485 -0.00281,0.002333 -0.002071,0.0104758 0.00194,0.0214092 l 0.002401,0.006538 0.00653,-0.002059 c 0.003593,-0.001133 0.009891,-0.002926 0.0139981,-0.003987 0.007932,-0.002051 0.007611,-0.001558 0.011501,-0.0176667 0.001848,-0.007653 0.003391,-0.006081 0.004482,0.004562 7.9501e-4,0.007741 4.9688e-4,0.0112307 -0.001165,0.0137664 -0.001479,0.002258 -0.00198,0.006024 -0.001487,0.0112267 6.3998e-4,0.006785 -1.2068e-4,0.009604 -0.005704,0.021121 -0.003546,0.00731 -0.006443,0.0141734 -0.006443,0.0152522 0,0.006329 -0.0191843,0.009125 -0.0314692,0.004585 z m -0.1646664,-0.005003 c 0.002556,-0.008526 0.004503,-0.0199821 0.008125,-0.0477942 0.00956,-0.073385 0.0172179,-0.10015254 0.042767,-0.14947879 0.012905,-0.0249151 0.014646,-0.0275776 0.014646,-0.0223982 0,0.005207 -0.004101,0.0162698 -0.0153027,0.0412797 -0.0189824,0.0423819 -0.0255615,0.0676739 -0.0327436,0.12587687 -0.00314,0.0254542 -0.006217,0.0384684 -0.0110379,0.0466941 -0.004318,0.007368 -0.007881,0.0105812 -0.006454,0.005821 z m 0.13269203,-0.0108852 c -0.006979,-0.00256 -0.0196379,-0.0121 -0.0171551,-0.0129276 0.001757,-5.8433e-4 0.0330632,0.0117315 0.0356764,0.0140363 0.002437,0.002151 -0.0119903,0.001288 -0.0185213,-0.001109 z m 0.0414152,-0.002222 c 0,-0.001757 0.009896,-0.003888 0.0128966,-0.002779 0.001224,4.5315e-4 2.6374e-4,0.001471 -0.002377,0.00252 -0.005424,0.002158 -0.0105184,0.002282 -0.0105184,2.5886e-4 z M 0.2553494,0.52056233 c -0.006176,-0.003335 -0.0170219,-0.007994 -0.0241007,-0.0103514 -0.007759,-0.002584 -0.0125949,-0.005004 -0.0121767,-0.006094 0.001666,-0.004342 -0.0537308,0.001602 -0.0948907,0.0101841 -0.03480306,0.007255 -0.05560905,0.0109536 -0.05821807,0.010349 -0.0029216,-6.7973e-4 0.01244545,-0.007795 0.02382996,-0.0110347 0.04873581,-0.0138721 0.12642998,-0.0217311 0.16026507,-0.0162114 0.0151254,0.002468 0.0105243,0.004021 -0.0125877,0.00425 l -0.0165215,1.635e-4 0.0110931,0.002015 c 0.0154152,0.002798 0.0259721,0.008696 0.0341221,0.0190575 0.004053,0.005152 0.002361,0.004788 -0.0108149,-0.002325 z m 0.26865526,0.003307 c -0.001065,-0.001991 -0.00165,-0.004821 -0.0013,-0.00629 4.77e-4,-0.002003 0.001109,-0.001526 0.002512,0.001896 0.002357,0.005747 0.001387,0.009257 -0.001212,0.004395 z m -0.46029273,-0.006722 c 0.0045447,-0.005022 0.02171524,-0.0140617 0.03424496,-0.0180292 0.01466511,-0.004644 0.05141145,-0.0120106 0.08601583,-0.0172445 0.0304655,-0.004608 0.0584878,-0.0103228 0.0690368,-0.0140788 0.009218,-0.003283 0.011239,-0.003037 0.006489,7.8308e-4 -0.00662,0.005327 -0.0159626,0.00978 -0.0283222,0.0134996 -0.00649,0.001952 -0.0102079,0.003589 -0.008261,0.003637 0.005916,1.408e-4 0.003967,0.002751 -0.00345,0.004618 -0.008483,0.002135 -0.0134643,0.002254 -0.0134643,3.1793e-4 0,-7.9501e-4 0.001948,-0.00217 0.004327,-0.003065 0.005168,-0.001936 0.004031,-0.001825 -0.0310761,0.003017 -0.0447581,0.006175 -0.09377376,0.0181719 -0.11132224,0.0272465 -0.0066204,0.003423 -0.0077784,0.003232 -0.0042183,-7.0358e-4 z m 0.34434006,-0.0112529 c -0.005256,-0.005428 -0.0131605,-0.0148356 -0.0175653,-0.0209067 -0.0180407,-0.0248671 -0.0367906,-0.0381473 -0.0560408,-0.0396924 -0.0127189,-0.001022 -0.0378861,0.004121 -0.0563727,0.0115173 -0.007763,0.003105 -0.0144437,0.005319 -0.0148452,0.004918 -0.001216,-0.001216 0.014148,-0.0118023 0.0220531,-0.0151906 0.0113189,-0.004852 0.0251624,-0.008029 0.0393008,-0.00902 0.0250543,-0.001757 0.0396613,0.004503 0.0525031,0.0224971 0.004127,0.005783 0.0128143,0.015897 0.0193048,0.0224757 0.0114727,0.0116282 0.0229042,0.0282152 0.0217765,0.0315984 -3.0667e-4,9.1823e-4 -0.004858,-0.002767 -0.0101143,-0.008197 z m 0.196238,0.004686 c 0.001037,-0.001948 0.006019,-0.007849 0.0110697,-0.0131148 0.00505,-0.005266 0.009182,-0.0108431 0.009182,-0.0123942 0,-0.00155 0.002906,-0.008084 0.006458,-0.0145188 0.003554,-0.006435 0.006153,-0.0120042 0.00578,-0.0123771 -3.7286e-4,-3.7286e-4 -0.00357,7.1948e-4 -0.007107,0.002429 -0.003538,0.001709 -0.0105625,0.003494 -0.0156143,0.003971 l -0.009186,8.6656e-4 0.0103101,-0.005178 c 0.0192102,-0.009649 0.0300155,-0.0212605 0.0347375,-0.0373292 l 0.002059,-0.007005 0.00103,0.005027 c 0.001566,0.007661 -0.001109,0.0185459 -0.006476,0.0263473 -0.002659,0.003864 -0.005507,0.007025 -0.006331,0.007025 -8.2283e-4,0 -0.001499,0.003097 -0.001499,0.006883 0,0.003784 -0.001061,0.009893 -0.002361,0.0135724 -0.0013,0.003681 -0.002361,0.009112 -0.002361,0.0120738 0,0.005838 -0.004686,0.0113861 -0.0133744,0.0158358 -0.002596,0.001328 -0.007301,0.004444 -0.010454,0.006922 -0.006909,0.005428 -0.008372,0.005669 -0.005864,9.6594e-4 z m -0.31410848,-0.007718 c -0.00511,-0.002794 -0.007081,-0.006283 -0.007081,-0.0125309 0,-0.004477 9.8979e-4,-0.006657 0.004146,-0.00914 0.0103741,-0.00816 0.0227519,6.893e-5 0.0211281,0.014047 -3.8594e-4,0.003323 -0.008135,0.009433 -0.0118997,0.009385 -0.001729,-2.206e-5 -0.004563,-8.1488e-4 -0.006293,-0.001761 z m 0.003935,-0.0138248 c 0,-0.002127 -0.00287,-0.003597 -0.004746,-0.002437 -8.7848e-4,5.4458e-4 -0.001193,0.001646 -6.9563e-4,0.002453 0.001181,0.001912 0.00544,0.0019 0.00544,-1.59e-5 z m 0.22215811,0.0113145 c 0.005128,-0.005499 0.007554,-0.010225 0.007617,-0.0148444 4.862e-5,-0.003542 1.1409e-4,-0.003558 0.002361,-5.8831e-4 0.003578,0.004728 0.00279,0.008162 -0.003248,0.0142012 -0.006844,0.006844 -0.0130163,0.007975 -0.006728,0.001232 z m -0.0207553,-0.0119967 c 0,-3.2396e-4 0.00488,-0.004299 0.0108443,-0.008833 0.0114461,-0.008702 0.0139273,-0.0120265 0.0146905,-0.0196868 l 4.6906e-4,-0.00472 0.002699,0.004972 c 0.003514,0.006472 0.001427,0.0129419 -0.006,0.0186072 -0.007943,0.006058 -0.0227042,0.0123393 -0.0227042,0.009661 z m 0.004234,-0.022746 c 0.012228,-0.0119716 0.0163644,-0.0183687 0.0165711,-0.0256259 1.5435e-4,-0.005428 0.003077,-0.00523 0.004432,3.0016e-4 0.002472,0.010091 -0.005187,0.0238148 -0.0167524,0.0300159 -0.0153146,0.008211 -0.0163084,0.007115 -0.004251,-0.00469 z m 0.0413965,0.0100402 c 0,-3.89e-4 0.004779,-0.004048 0.0106209,-0.008132 0.0196049,-0.0137047 0.0285833,-0.0246357 0.0286811,-0.0349175 1.92e-5,-0.002015 7.3538e-4,-0.0032 0.00161,-0.002659 0.002699,0.00167 0.001781,0.016246 -0.001419,0.0224844 -0.004454,0.008685 -0.009249,0.0123989 -0.0238304,0.0184569 -0.0128962,0.005358 -0.0156593,0.006199 -0.0156593,0.004768 z m -0.009441,-0.020485 c 0,-4.0545e-4 0.009569,-0.008946 0.0212649,-0.01898 0.0218802,-0.0187705 0.0318854,-0.0301733 0.0355086,-0.040468 0.002902,-0.008244 0.004991,-0.007361 0.003729,0.001574 -0.002631,0.0185901 -0.0152057,0.0333267 -0.0419134,0.0491172 -0.0150396,0.008892 -0.0185869,0.0105633 -0.0185869,0.008757 z m -0.039397,-0.008593 c 8.9438e-4,-0.00167 0.007291,-0.009153 0.0142163,-0.0166276 0.008036,-0.008674 0.0125913,-0.014881 0.0125913,-0.0171563 0,-0.005457 -0.001514,-0.005862 -0.006881,-0.00184 -0.005448,0.004082 -0.0173403,0.0103391 -0.0196494,0.0103391 -8.1489e-4,0 0.004922,-0.006312 0.0127483,-0.0140275 0.0131705,-0.0129841 0.0141571,-0.0143888 0.0132583,-0.0188814 -0.001018,-0.005088 1.7745e-4,-0.006145 0.003355,-0.002965 0.002631,0.002631 0.002357,0.009952 -5.883e-4,0.015641 -0.002278,0.004401 -0.002258,0.005024 2.1163e-4,0.007754 0.003609,0.003989 0.002147,0.0126343 -0.003367,0.0198589 -0.003983,0.005221 -0.0236471,0.020869 -0.0262901,0.0209198 -6.7974e-4,1.26e-5 -5.0483e-4,-0.001344 3.8971e-4,-0.003013 z m 0.11649512,-0.0131812 c 0,-3.8235e-4 0.007573,-0.005918 0.0168287,-0.0123004 0.0188965,-0.013031 0.0321295,-0.0255217 0.0368578,-0.0347899 0.003685,-0.007223 0.003132,-0.008695 -0.002019,-0.005391 -0.003717,0.002381 -0.0224331,0.008907 -0.0255551,0.008907 -9.3016e-4,0 0.00326,-0.003287 0.009307,-0.007308 0.0219951,-0.0146166 0.0369595,-0.0302862 0.0369595,-0.0387018 0,-0.002302 -0.001984,-0.001304 -0.009515,0.004788 -0.009906,0.008015 -0.0356915,0.0232886 -0.0370406,0.0219394 -4.2533e-4,-4.2533e-4 0.005095,-0.005856 0.0122694,-0.0120662 0.033225,-0.028761 0.0311846,-0.0264996 0.0391148,-0.0433597 0.004078,-0.008671 0.00944,-0.0214306 0.011914,-0.0283536 l 0.004499,-0.0125878 5.1278e-4,0.007081 c 0.001085,0.0149915 -0.007626,0.0410956 -0.0177084,0.0530782 -0.002663,0.003168 -0.003383,0.005221 -0.002381,0.006805 0.004055,0.006409 6.8768e-4,0.0173506 -0.008976,0.0291796 -0.003546,0.004341 -0.005275,0.00811 -0.005275,0.011505 0,0.005834 -0.006196,0.0194646 -0.0116214,0.0255651 -0.006732,0.00757 -0.0177692,0.0149756 -0.0295238,0.01981 -0.013002,0.005348 -0.0186461,0.007224 -0.0186461,0.006199 z m -0.0437779,-0.0337394 c 0.0212196,-0.0215479 0.0253623,-0.0284362 0.0255512,-0.0424833 7.27e-5,-0.005409 3.4531e-4,-0.009834 6.042e-4,-0.009834 0.001757,-7.1e-7 0.005034,0.0122924 0.005034,0.0188934 0,0.0100855 -0.004177,0.0184581 -0.013857,0.0277736 -0.007199,0.006929 -0.0316008,0.0241384 -0.0342255,0.0241384 -7.2346e-4,0 0.006878,-0.00832 0.0168919,-0.0184883 z m -0.0333216,0.0112553 c 0,-0.002747 0.0194097,-0.0301479 0.0305438,-0.0431181 0.0227988,-0.026558 0.0292479,-0.0372123 0.0292479,-0.0483177 0,-0.00792 0.002278,-0.007792 0.004499,2.5344e-4 0.002127,0.007702 -5.7638e-4,0.0180582 -0.007493,0.0287197 -0.005202,0.008018 -0.0541843,0.0634018 -0.0560733,0.0634018 -3.975e-4,0 -7.2346e-4,-4.2136e-4 -7.2346e-4,-9.3811e-4 z m -0.0377633,-0.0146373 c 0,-7.7911e-4 0.004248,-0.006103 0.009441,-0.0118325 0.005193,-0.00573 0.009441,-0.0118786 0.009441,-0.0136642 0,-0.004509 0.00382,-0.002894 0.004393,0.001856 5.8035e-4,0.00483 -0.004978,0.0124292 -0.0143014,0.019548 -0.007562,0.005774 -0.008973,0.006417 -0.008973,0.004091 z m 0,-0.0190524 c 0,-9.5401e-4 0.002985,-0.00612 0.006638,-0.0114819 0.005197,-0.007631 0.006605,-0.0110999 0.006487,-0.0159749 l -1.5073e-4,-0.006227 0.002953,0.003649 c 0.003836,0.004737 0.003729,0.008574 -4.5315e-4,0.0160103 -0.003518,0.006259 -0.015476,0.0170966 -0.015476,0.0140255 z m 0.0472693,-0.006749 c -1.6635e-4,-0.003184 0.014394,-0.0274345 0.0276838,-0.0461046 0.0191183,-0.0268585 0.0319553,-0.0527825 0.0320901,-0.0648053 4.313e-5,-0.003852 2.1656e-4,-0.003981 0.001769,-0.001312 0.001026,0.001769 0.001419,0.007629 9.7388e-4,0.0145614 -9.7786e-4,0.0152371 -0.007578,0.0286215 -0.0255007,0.0517109 -0.007389,0.009519 -0.0162026,0.0212025 -0.0195854,0.0259622 -0.00726,0.0102162 -0.0173363,0.0217709 -0.0174294,0.0199877 z m -0.0621807,-0.0231341 c 0.002075,-0.0161235 0.0372505,-0.1351144 0.0519336,-0.17567701 0.003037,-0.008386 0.0100588,-0.0301725 0.0156072,-0.0484153 0.0117061,-0.03848831 0.01949,-0.05799586 0.0259745,-0.06509518 0.005532,-0.0060573 0.009538,-0.0067956 0.004904,-9.0392e-4 -0.001793,0.0022801 -0.00326,0.0050481 -0.00326,0.0061509 0,0.0021107 -0.0290373,0.08955405 -0.0462503,0.13928028 -0.005561,0.0160639 -0.0137521,0.0422621 -0.0182029,0.0582181 -0.0102492,0.0367421 -0.0228104,0.0754764 -0.0277772,0.0856553 l -0.00384,0.007867 z m 0.1636041,-0.0323163 c 0.003462,-0.003196 0.0145033,-0.0127531 0.0245371,-0.0212382 0.0308034,-0.0260492 0.0403987,-0.0385531 0.0442321,-0.0576413 0.002166,-0.0107938 0.004339,-0.00819 0.004373,0.005244 3.808e-5,0.0153488 -0.006391,0.0260826 -0.0261943,0.0437329 -0.0201757,0.0179823 -0.0648699,0.0464499 -0.0469479,0.0299026 z m -0.002628,-0.0253989 c 0.002361,-0.00441 0.0197714,-0.0233482 0.044615,-0.0485272 0.0175999,-0.0178376 0.0223687,-0.0236416 0.0249008,-0.0303061 0.003582,-0.009422 0.003915,-0.0168228 0.001002,-0.022073 -0.001988,-0.003578 -0.002111,-0.003498 -0.007734,0.004973 -0.009565,0.0144063 -0.0688097,0.0737564 -0.0688097,0.0689325 0,-0.002775 0.0304655,-0.039116 0.0511183,-0.0609794 0.0158847,-0.0168156 0.0202023,-0.0224204 0.0234722,-0.0304671 0.005413,-0.0133208 0.006327,-0.0190603 0.003621,-0.0227261 -0.00289,-0.003915 -0.004543,-0.002695 -0.010386,0.007659 -0.005007,0.008871 -0.0175013,0.0240315 -0.0404719,0.049106 -0.0136467,0.0148965 -0.0332059,0.0329499 -0.0344024,0.0317534 -8.1886e-4,-8.1886e-4 0.014452,-0.0199046 0.050322,-0.0628987 0.0394324,-0.0472639 0.0432399,-0.0523594 0.043329,-0.0579841 l 6.297e-5,-0.003978 0.002425,0.004477 c 0.003049,0.00563 0.001157,0.0109322 -0.006591,0.0184402 -0.005842,0.005662 -0.00669,0.007765 -0.003132,0.007765 0.00401,0 0.007172,0.006611 0.00713,0.0149048 -3.192e-5,0.00628 -0.001157,0.009665 -0.005463,0.0164225 l -0.005423,0.008512 0.005463,0.006047 c 0.006885,0.007621 0.00734,0.0158163 0.001522,0.0274878 -0.005921,0.0118822 -0.0331896,0.0409744 -0.054788,0.0584523 -0.0223878,0.0181166 -0.024072,0.019277 -0.0217872,0.0150078 z m -0.0642432,6.3998e-4 c 0,-0.001204 0.009901,-0.0257551 0.0154911,-0.0384096 0.008935,-0.020227 0.0128962,-0.0342589 0.0142147,-0.0503587 l 0.001137,-0.0138641 0.002675,0.008546 c 0.004373,0.0139738 0.003558,0.0264837 -0.002699,0.0415002 -0.008585,0.0206046 -0.0308177,0.0585411 -0.0308177,0.052586 z m -0.0401713,-0.0176638 c 6.5985e-4,-0.001729 0.00858,-0.0229725 0.0175963,-0.0472038 0.0420971,-0.11313816 0.0420292,-0.11292554 0.0411897,-0.12917113 -2.8668e-4,-0.0055476 -7.08e-5,-0.01008547 4.8097e-4,-0.01008348 0.002643,9.42e-6 0.00608,0.01157333 0.00608,0.02046907 0,0.0127146 -0.002878,0.0234293 -0.012715,0.0473127 -0.004428,0.0107517 -0.0136312,0.033915 -0.0204528,0.0514743 -0.0115288,0.0296772 -0.0278817,0.06513 -0.0317228,0.0687758 -0.001149,0.001089 -0.001288,6.0818e-4 -4.5315e-4,-0.001574 z m 0.0181413,-0.001391 c 0,-6.6781e-4 0.005808,-0.0126661 0.0129054,-0.026661 0.0189112,-0.0372879 0.0215904,-0.042953 0.0273208,-0.0577698 0.008263,-0.0213658 0.0100517,-0.0369873 0.006117,-0.0534295 -9.2221e-4,-0.003848 -8.5463e-4,-0.003832 0.003073,7.7116e-4 0.005673,0.006648 0.007855,0.0185626 0.005639,0.0307867 -0.002186,0.0120567 -0.008107,0.0287546 -0.01523,0.0429483 -0.009381,0.018695 -0.0398252,0.0671258 -0.0398252,0.0633541 z m 0.0621006,-0.0607728 c 0.005022,-0.0165545 0.0353727,-0.0586084 0.0562429,-0.0779306 0.0171451,-0.0158735 0.0381194,-0.0267437 0.044602,-0.023116 0.002226,0.001244 0.001773,0.001677 -0.002639,0.002516 -0.0124133,0.002369 -0.0437327,0.0310367 -0.0627727,0.0574616 -0.0138482,0.0192197 -0.0297766,0.0393215 -0.0337874,0.0426411 -0.002631,0.002178 -0.002751,0.002063 -0.001646,-0.001574 z m -0.0557324,-0.0508629 c -2.1044e-4,-0.003717 0.007408,-0.0301674 0.0157781,-0.0547812 0.006516,-0.01916128 0.009822,-0.03159957 0.0106631,-0.04012329 l 0.00122,-0.01235307 0.002846,0.0093274 c 0.002639,0.0086501 0.002675,0.01020273 4.7303e-4,0.02138014 -0.002449,0.01242399 -0.0182267,0.05390599 -0.0263255,0.06920738 -0.00252,0.00476 -0.004614,0.008064 -0.004655,0.007343 z"
       id="path724" />
  </g>
</svg>
