<?xml version="1.0" encoding="UTF-8" standalone="no"?>
<svg
   xmlns:dc="http://purl.org/dc/elements/1.1/"
   xmlns:cc="http://creativecommons.org/ns#"
   xmlns:rdf="http://www.w3.org/1999/02/22-rdf-syntax-ns#"
   xmlns:svg="http://www.w3.org/2000/svg"
   xmlns="http://www.w3.org/2000/svg"
   xmlns:sodipodi="http://sodipodi.sourceforge.net/DTD/sodipodi-0.dtd"
   xmlns:inkscape="http://www.inkscape.org/namespaces/inkscape"
   width="0.73159802in"
   height="1.1048684in"
   viewBox="0 0 0.73159802 1.1048684"
   version="1.1"
   id="SVGRoot"
   sodipodi:docname="bust_neck.svg"
   inkscape:version="1.0.1 (3bc2e813f5, 2020-09-07)">
  <defs
     id="defs21406">
    <clipPath
       clipPathUnits="userSpaceOnUse"
       id="clipPath21464">
      <rect
         style="fill:#b49ddf;stroke-width:0.0104167"
         id="rect21466"
         width="0.74404788"
         height="1.1160718"
         x="0.054001968"
         y="0.65049428" />
    </clipPath>
  </defs>
  <sodipodi:namedview
     id="base"
     pagecolor="#ffffff"
     bordercolor="#666666"
     borderopacity="1.0"
     inkscape:pageopacity="0.0"
     inkscape:pageshadow="2"
     inkscape:zoom="7.9195959"
     inkscape:cx="29.414076"
     inkscape:cy="31.629232"
     inkscape:document-units="in"
     inkscape:current-layer="layer33"
     inkscape:document-rotation="0"
     showgrid="false"
     inkscape:window-width="1280"
     inkscape:window-height="737"
     inkscape:window-x="-8"
     inkscape:window-y="-8"
     inkscape:window-maximized="1"
     fit-margin-top="0"
     fit-margin-left="0"
     fit-margin-right="0"
     fit-margin-bottom="0"
     inkscape:pagecheckerboard="true" />
  <metadata
     id="metadata21409">
    <rdf:RDF>
      <cc:Work
         rdf:about="">
        <dc:format>image/svg+xml</dc:format>
        <dc:type
           rdf:resource="http://purl.org/dc/dcmitype/StillImage" />
        <dc:title></dc:title>
      </cc:Work>
    </rdf:RDF>
  </metadata>
  <g
     inkscape:groupmode="layer"
     id="layer33"
     inkscape:label="Layer 0"
     transform="translate(0.00372024,-0.00744072)">
    <path
       style="fill:#ffffff;stroke:none;stroke-width:0.0104167px;stroke-linecap:butt;stroke-linejoin:miter;stroke-opacity:1;fill-opacity:1"
       d="M 0.66182319,0.09819664 0.23829556,0.02059375 0.08966629,0.06531406 l 0.03025197,0.09470183 0.0473509,0.0394591 0.10127834,0.25911473 0.0683958,0.15520579 0.0263061,0.10653955 -0.14994457,0.013153 -0.007892,0.32751054 0.0407744,0.032883 0.38275324,-0.00132 0.0670805,0.00132 V 0.71770446 l -0.0854947,-0.0368285 0.0552427,-0.18151184 0.0355132,-0.0723417 -0.0697111,-0.1617823 -0.001315,-0.073657 0.0144683,-0.0762876 z"
       id="path21477" />
  </g>
  <g
     inkscape:label="Layer 1"
     inkscape:groupmode="layer"
     id="layer1"
     transform="translate(-0.04656149,-0.02177404)"
     sodipodi:insensitive="true">
    <path
       style="fill:#000000;stroke-width:0.0104167"
       d="m 0.37319843,1.7475325 c -0.1412545,-0.00937 -0.058282,-0.021331 0.098722,-0.014234 0.1400863,0.00633 0.2191378,-5.792e-4 0.2082439,-0.018206 -0.00336,-0.00544 -0.022242,-0.00989 -0.041956,-0.00989 -0.044319,0 -0.044436,0.00128 0.00461,-0.050796 0.037901,-0.040243 0.074129,-0.056145 0.074129,-0.032537 0,0.00573 -0.00469,0.010417 -0.010417,0.010417 -0.00573,0 -0.010417,0.00914 -0.010417,0.020316 0,0.011174 -0.0082,0.025094 -0.018229,0.030933 -0.010026,0.00584 -0.012646,0.01076 -0.00582,0.010934 0.00682,1.739e-4 0.015501,-0.00469 0.019283,-0.01081 0.00378,-0.00612 0.01314,-0.00872 0.020795,-0.00579 0.00765,0.00294 0.016012,-0.0026 0.018571,-0.012311 0.00337,-0.012789 0.00499,-0.011296 0.00586,0.00542 7.343e-4,0.01402 -0.00799,0.028101 -0.022229,0.035892 -0.022666,0.012398 -0.022073,0.013211 0.018,0.02468 0.039252,0.011233 0.035457,0.012225 -0.071933,0.018796 -0.1175923,0.0072 -0.1394876,0.00698 -0.2872131,-0.00282 z M 0.26139293,1.559369 c 2.374e-4,-0.171875 2.374e-4,-0.171875 0.00843,-0.057292 0.00451,0.063021 0.0044,0.1403646 -2.374e-4,0.171875 -0.00624,0.042373 -0.00837,0.012537 -0.0082,-0.114583 z m 0.4881973,-0.00382 c -0.00139,-0.1756907 -0.00139,-0.1756907 -0.2019126,-0.1729918 -0.2654453,0.00357 -0.2786459,0.00285 -0.2786459,-0.015157 0,-0.029567 0.031684,-0.047619 0.083579,-0.047619 0.058281,0 0.057409,-0.014166 -0.00982,-0.1594055 -0.018041,-0.038975 -0.046085,-0.1092877 -0.062321,-0.15625 -0.046166,-0.13353533 -0.074653,-0.19383346 -0.088976,-0.18833715 -0.019487,0.007478 -0.040041,-0.0237087 -0.042518,-0.0645122 -0.00121,-0.0200192 -0.00592,-0.0397485 -0.010456,-0.0438427 -0.00453,-0.004094 -0.00443,-8.6042e-4 2.418e-4,0.007186 0.00575,0.009919 0.00456,0.0122031 -0.00371,0.007093 -0.031603,-0.0195317 0.07325,-0.0594062 0.1488886,-0.0566206 0.034287,0.001263 0.036412,0.002343 0.01113,0.005656 -0.017187,0.002252 -0.038281,0.006911 -0.046875,0.0103526 -0.00859,0.003441 -0.022656,0.007126 -0.03125,0.008187 -0.00859,0.001061 -0.027344,0.003553 -0.041667,0.005537 -0.027948,0.003871 0.1134462,0.0137818 0.3776041,0.0264666 0.1600291,0.007685 0.1930113,0.0168689 0.1518757,0.0422921 -0.00819,0.005064 -0.010008,0.001853 -0.00554,-0.009802 0.00592,-0.0154324 -0.00445,-0.0173397 -0.094584,-0.0173877 -0.055679,-2.963e-5 -0.1481106,-0.003139 -0.2054022,-0.006909 -0.096811,-0.006371 -0.103146,-0.005619 -0.089712,0.010661 0.00795,0.009634 0.01791,0.035009 0.022132,0.0563886 0.00422,0.0213796 0.01132,0.0476205 0.015771,0.058313 0.022236,0.0534171 -0.041622,-0.0116377 -0.068573,-0.0698584 -0.019838,-0.042854 -0.029862,-0.0562729 -0.030182,-0.0404015 -2.63e-4,0.0130704 -0.00775,0.0265554 -0.016641,0.0299666 -0.062003,0.023793 0.04215,0.16545146 0.1707374,0.23221925 0.093092,0.048337 0.1832756,1.386e-4 0.2570726,-0.13739175 0.031061,-0.0578859 0.031061,-0.0578859 0.031061,-0.004264 0,0.0410938 0.00903,0.0715845 0.038634,0.13050296 0.038104,0.075827 0.038406,0.077398 0.022025,0.11458329 -0.018263,0.041455 -0.059065,0.1492581 -0.070451,0.1861399 -0.00637,0.020638 -0.00357,0.023437 0.02344,0.023437 0.052707,0 0.059269,0.019501 0.059269,0.1761185 0,0.077874 -0.00289,0.1626836 -0.00642,0.1884649 -0.00353,0.025781 -0.00705,-0.032186 -0.00781,-0.128815 z M 0.32871063,1.3447422 c -0.00346,-0.00346 -0.012446,-0.00383 -0.019965,-8.219e-4 -0.00831,0.00333 -0.00584,0.00579 0.00629,0.00629 0.010981,4.52e-4 0.017133,-0.00201 0.013672,-0.00547 z m 0.067925,-6.053e-4 c -0.00716,-0.00289 -0.01888,-0.00289 -0.026042,0 -0.00716,0.00289 -0.0013,0.00525 0.013021,0.00525 0.014323,0 0.020182,-0.00236 0.013021,-0.00525 z m 0.2302013,-0.00292 c 0.020256,-0.0077 0.046094,-0.046645 0.040009,-0.060303 -5.918e-4,-0.00133 0.00612,-0.019634 0.014912,-0.040679 0.015988,-0.038264 0.015988,-0.038264 -0.015543,-0.00673 -0.039341,0.039341 -0.1244557,0.096292 -0.1463644,0.097934 -0.00904,6.779e-4 -0.00238,0.00481 0.014807,0.00918 0.04525,0.011514 0.06316,0.01163 0.09218,5.969e-4 z m -0.099696,-0.03075 c 0.073999,-0.037439 0.1466649,-0.1006904 0.1888592,-0.1643921 0.039693,-0.059926 0.039823,-0.071024 0.00171,-0.14628919 -0.016769,-0.033114 -0.033644,-0.072942 -0.037501,-0.088507 -0.00724,-0.0292027 -0.048761,0.017134 -0.095372,0.10642449 -0.00748,0.014323 -0.013623,0.020017 -0.013658,0.012654 -5e-5,-0.010354 -0.005,-0.010745 -0.021852,-0.00173 -0.023498,0.012576 -0.1272089,0.00905 -0.1593746,-0.00542 -0.022549,-0.010144 -0.018862,0.029796 0.010819,0.1172215 0.030411,0.089572 0.012924,0.110099 -0.02627,0.030838 -0.019146,-0.038717 -0.03868,-0.072786 -0.043409,-0.075709 -0.00473,-0.00292 0.010398,0.033443 0.033615,0.080812 0.023218,0.047369 0.044618,0.103704 0.047557,0.1251884 0.00678,0.049542 0.03087,0.051411 0.1148761,0.00891 z m -0.1063978,-0.029295 c -0.00565,-0.014846 -0.00446,-0.016042 0.00583,-0.00583 0.00712,0.00707 0.01032,0.015471 0.00711,0.018678 -0.00321,0.00321 -0.00903,-0.00257 -0.012943,-0.012847 z m 0.042611,-0.1575195 c -0.02078,-0.022962 -0.022633,-0.053867 -0.00323,-0.053867 0.014091,0 0.037964,0.023067 0.053904,0.052083 0.00554,0.010081 -3.679e-4,0.00833 -0.016645,-0.00493 -0.013875,-0.011306 -0.019369,-0.013884 -0.012207,-0.00573 0.00716,0.00816 0.013021,0.018578 0.013021,0.023161 0,0.014329 -0.016875,0.00914 -0.034844,-0.010716 z m -0.1005724,-0.109883 c 0,-0.00216 -0.0082,-0.010366 -0.018229,-0.018229 -0.016521,-0.012957 -0.01689,-0.012589 -0.00393,0.00393 0.013608,0.017352 0.022162,0.02287 0.022162,0.014296 z M 0.19940523,0.7442648 c -0.00249,-0.004297 -0.00893,-0.007813 -0.014321,-0.007813 -0.011476,0 -0.013238,0.0347583 -0.00232,0.0456806 0.00849,0.00849 0.023582,-0.0258629 0.016637,-0.0378676 z m 0.2909807,0.15167369 c 0.010026,-0.00262 0.026432,-0.00262 0.036458,0 0.010026,0.00262 0.00182,0.004764 -0.018229,0.004764 -0.020052,0 -0.028255,-0.002144 -0.018229,-0.004764 z m -0.023437,-0.0243272 c -0.011087,-0.007348 -0.00259,-0.00882 0.029248,-0.005069 0.028452,0.003352 0.042522,0.001482 0.038448,-0.00511 -0.00353,-0.005718 -0.023727,-0.0111469 -0.044873,-0.0120638 -0.038448,-0.001667 -0.038448,-0.001667 -0.00391,-0.005919 0.035085,-0.00432 0.068879,0.0127834 0.058486,0.0295997 -0.00766,0.0123997 -0.057925,0.0114658 -0.077396,-0.001438 z m 0,-0.0827458 c -0.014323,-0.0110222 -0.01901,-0.0186695 -0.010417,-0.016994 0.024655,0.004807 0.072917,0.0260077 0.072917,0.0320314 0,0.0127248 -0.038443,0.003475 -0.0625,-0.0150374 z m 0.072917,2.85e-4 c 0,-0.005391 0.00469,-0.0126989 0.010417,-0.0162398 0.00573,-0.003541 0.010417,8.7e-4 0.010417,0.009802 0,0.008932 -0.00469,0.0162397 -0.010417,0.0162397 -0.00573,0 -0.010417,-0.004411 -0.010417,-0.009802 z M 0.35149703,0.54500115 c -0.00239,-0.002173 -0.039152,-0.007148 -0.0817,-0.0110554 -0.1048248,-0.009626 -0.1674316,-0.0448082 -0.1674316,-0.0940877 0,-0.0238104 -0.00712,-0.0390262 -0.023437,-0.0500934 -0.021783,-0.0147734 -0.020312,-0.0150788 0.020833,-0.004327 0.044133,0.0115326 0.053917,0.0247014 0.033513,0.0451061 -0.00592,0.005917 -0.00761,0.0189663 -0.00376,0.0289984 0.00539,0.0140472 0.00892,0.0151274 0.015368,0.004699 0.00601,-0.009725 0.0114,-0.005568 0.019126,0.0147516 0.00592,0.0155611 0.013998,0.0282929 0.017959,0.0282929 0.00396,0 0.00424,-0.00296 6.243e-4,-0.006578 -0.00362,-0.003618 -0.00189,-0.0153366 0.00384,-0.0260417 0.00822,-0.0153686 0.00678,-0.0194637 -0.00685,-0.0194637 -0.013851,0 -0.014803,-0.002969 -0.00481,-0.0150058 0.00685,-0.008253 0.019142,-0.0124392 0.027317,-0.009302 0.010531,0.004041 0.014863,-0.002212 0.014863,-0.0214525 0,-0.0149359 -0.00454,-0.0271561 -0.01009,-0.0271561 -0.00555,0 -0.00739,0.007031 -0.00409,0.015625 0.00988,0.0257497 -0.031468,0.0186055 -0.058431,-0.0100956 -0.01329,-0.0141463 -0.028169,-0.0232447 -0.033066,-0.0202186 -0.0049,0.003026 -0.00897,-6.3395e-4 -0.00906,-0.008134 -1.276e-4,-0.0109093 -0.00194,-0.0108229 -0.00907,4.3261e-4 -0.00572,0.009025 -0.00927,-0.003736 -0.00991,-0.0355922 -5.483e-4,-0.0273132 -0.00584,-0.0545033 -0.011759,-0.0604224 -0.030213,-0.0302127 0.00727,-0.09632 0.057894,-0.10210112 0.022541,-0.002574 0.034472,-0.0124655 0.046898,-0.0388822 0.020743,-0.0440959 0.045676,-0.0629999 0.073496,-0.0557248 0.011778,0.00308 0.024451,0.001412 0.028162,-0.003706 0.022388,-0.0308841 0.072278,-0.0510288 0.1213296,-0.0489918 0.1021722,0.004243 0.1601256,0.0160621 0.1829293,0.037307 0.012473,0.0116207 0.036964,0.0215973 0.054423,0.0221702 0.018253,5.9896e-4 0.03394,0.007683 0.036911,0.0166667 0.00427,0.0129202 0.0024,0.0133399 -0.010833,0.002424 -0.0088,-0.00726 -0.023555,-0.010301 -0.03279,-0.006757 -0.01013,0.003887 -0.029567,-0.004307 -0.048995,-0.0206536 -0.017712,-0.0149034 -0.044765,-0.0270971 -0.060118,-0.0270971 -0.015354,0 -0.041947,-0.004006 -0.059097,-0.008903 -0.01715,-0.004897 -0.040556,-0.005486 -0.052015,-0.001309 -0.011458,0.004177 -0.029837,0.002902 -0.040842,-0.002832 -0.01513,-0.007884 -0.02303,-0.006295 -0.032398,0.006517 -0.00681,0.009319 -0.017158,0.0169439 -0.022987,0.0169439 -0.00583,0 -0.016208,0.00676 -0.023065,0.0150229 -0.00686,0.008263 -0.026821,0.0164657 -0.044364,0.0182292 -0.020796,0.00209 -0.037284,0.0122691 -0.047378,0.029248 -0.015482,0.0260417 -0.015482,0.0260417 0.00655,0 0.018707,-0.0221082 0.023596,-0.0236816 0.032369,-0.0104167 0.016011,0.0242086 0.012108,0.0344337 -0.023778,0.0622956 -0.018303,0.0142105 -0.0275,0.0185155 -0.020437,0.009567 0.01343,-0.0170171 -0.018711,-0.0225892 -0.035198,-0.006102 -0.00394,0.003936 -0.018094,0.007157 -0.031462,0.007157 -0.017593,0 -0.024306,0.005923 -0.024306,0.0214481 0,0.0117964 -0.00472,0.0185306 -0.01049,0.0149648 -0.018348,-0.0113396 -0.021047,0.0194667 -0.00548,0.0625455 0.00828,0.0229167 0.015262,0.0331554 0.015514,0.0227527 2.515e-4,-0.0104027 -0.00453,-0.0282407 -0.010635,-0.03964 -0.0061,-0.0113993 -0.00898,-0.0263255 -0.0064,-0.0331694 0.00258,-0.006844 0.00962,-7.2459e-4 0.01564,0.0135983 0.00983,0.023401 0.011012,0.0238411 0.011605,0.00434 0.00108,-0.0356059 0.00966,-0.0354239 0.07962,0.00169 0.068676,0.0364334 0.097713,0.0233204 0.051249,-0.0231437 -0.022748,-0.0227484 -0.019307,-0.0336937 0.013021,-0.0414164 0.015755,-0.003764 0.03377,-0.0108476 0.040032,-0.0157421 0.016671,-0.0130299 0.037768,0.0365757 0.022184,0.0521605 -0.015276,0.0152756 -0.042183,0.0152152 -0.032734,-7.396e-5 0.00417,-0.006751 0.00188,-0.009971 -0.00537,-0.007552 -0.023504,0.007835 -0.016477,0.0245072 0.0117,0.0277616 0.03882,0.004484 0.065581,-0.0355138 0.050428,-0.0753706 -0.00587,-0.0154406 -0.01537,-0.0251717 -0.02111,-0.0216242 -0.00574,0.003547 -0.010436,0.002267 -0.010436,-0.002845 0,-0.0228907 0.015283,-0.0199204 0.043696,0.008493 0.030594,0.0305939 0.070887,0.029418 0.070887,-0.002069 0,-0.007744 -0.00465,-0.007468 -0.014698,8.7229e-4 -0.011324,0.009398 -0.016489,0.009093 -0.022503,-0.001329 -0.00429,-0.00744 -0.00397,-0.0100517 7.183e-4,-0.005805 0.00469,0.004247 0.014398,0.002848 0.021576,-0.00311 0.021787,-0.0180819 0.02961,0.009844 0.0091,0.0325026 -0.010043,0.0110973 -0.01342,0.020177 -0.0075,0.020177 0.016923,0 0.031889,-0.0232584 0.036866,-0.0572917 0.00457,-0.03125 0.00457,-0.03125 0.00613,0.003348 0.00187,0.0413971 -0.018118,0.0643601 -0.056016,0.0643601 -0.017359,0 -0.038588,0.0115333 -0.056476,0.0306825 -0.020549,0.0219975 -0.035,0.029025 -0.051054,0.0248267 -0.01778,-0.00465 -0.022393,-0.001247 -0.022393,0.0165194 0,0.0123063 -0.007,0.025063 -0.015565,0.0283481 -0.00856,0.003285 -0.0133,0.009638 -0.010531,0.0141178 0.00277,0.00448 -0.00282,0.0145354 -0.012427,0.022346 -0.015249,0.0124024 -0.016595,0.0118922 -0.010629,-0.004028 0.00951,-0.0253745 2.632e-4,-0.022828 -0.01402,0.003861 -0.00721,0.0134664 -0.00763,0.0195 -0.00109,0.0154551 0.00591,-0.003649 0.013821,-0.001644 0.017592,0.004457 0.00477,0.007724 0.011284,0.007417 0.021438,-0.00101 0.00802,-0.006657 0.012214,-0.0159352 0.00932,-0.0206194 -0.00289,-0.004684 -4.996e-4,-0.0114609 0.00532,-0.0150595 0.019385,-0.0119805 0.010913,0.0256107 -0.010627,0.0471499 -0.011667,0.0116673 -0.018665,0.0253364 -0.015551,0.0303759 0.00311,0.005039 7.483e-4,0.022089 -0.00526,0.037888 -0.01196,0.0314557 -0.00408,0.0876061 0.012302,0.0876061 0.00566,0 0.00731,-0.009375 0.00368,-0.0208333 -0.00895,-0.0282128 0.00678,-0.0262087 0.040648,0.005176 0.033607,0.0311463 0.1415254,0.050099 0.1418034,0.0249037 1.166e-4,-0.0105612 0.00229,-0.0111065 0.00806,-0.002024 0.00435,0.006837 0.035915,0.0141537 0.070153,0.0162595 0.042978,0.002643 0.029732,0.004439 -0.042785,0.005798 -0.057769,0.001083 -0.1069878,1.9156e-4 -0.109375,-0.001982 z M 0.18049013,0.35103562 c -0.00354,-0.005729 -0.010849,-0.0104167 -0.01624,-0.0104167 -0.00539,0 -0.0098,0.004687 -0.0098,0.0104167 0,0.005729 0.00731,0.0104167 0.01624,0.0104167 0.00893,0 0.013343,-0.004688 0.0098,-0.0104167 z m -0.065799,-0.0230903 c -0.00747,-0.007475 -0.012326,-0.00809 -0.012326,-0.001563 0,0.013904 0.012319,0.0262228 0.019271,0.0192708 0.00296,-0.00296 -1.649e-4,-0.0109288 -0.00694,-0.0177078 z m 0.069361,-0.006922 c 0.010317,-0.006539 0.00736,-0.0101248 -0.011285,-0.0136891 -0.016493,-0.003153 -0.025263,-2.187e-5 -0.025263,0.009019 0,0.0157238 0.015902,0.0177556 0.036548,0.00467 z m -0.00318,-0.0361771 c -0.023687,-0.0101028 -0.027466,-0.0152699 -0.01624,-0.0222078 0.0092,-0.005689 0.016145,-0.004495 0.018717,0.003219 0.00225,0.006744 0.010337,0.0122609 0.017976,0.0122609 0.00764,0 0.016253,0.005859 0.019143,0.0130208 0.00372,0.009223 0.00549,0.00943 0.00608,7.0927e-4 0.0015,-0.02251 -0.05841,-0.0581038 -0.065723,-0.0390454 -0.00342,0.00892 -0.012116,0.0132211 -0.019318,0.009557 -0.0072,-0.003664 -0.00203,0.00307 0.011497,0.0149648 0.013525,0.0118948 0.032275,0.0214155 0.041667,0.0211571 0.00939,-2.5844e-4 0.00318,-0.006395 -0.013794,-0.0136357 z m 0.093012,-0.0989164 c -0.00587,-0.006179 -0.025684,0.009481 -0.025684,0.0202977 0,0.005617 0.00656,0.004168 0.014574,-0.003219 0.00802,-0.007387 0.013015,-0.0150728 0.01111,-0.0170787 z m 0.3417012,0.34538715 c 0.010135,-0.002641 0.024198,-0.002467 0.03125,3.8594e-4 0.00705,0.002853 -0.00124,0.005014 -0.018427,0.004802 -0.017187,-2.1228e-4 -0.022958,-0.002547 -0.012823,-0.005188 z m 0.052639,-0.0579736 c -0.00171,-0.0505524 5.492e-4,-0.0561436 0.030517,-0.0754327 0.030745,-0.0197891 0.058179,-0.0599322 0.028367,-0.0415072 -0.00877,0.005421 -0.010818,0.004126 -0.00595,-0.003758 0.0044,-0.007126 8.157e-4,-0.0120261 -0.00881,-0.0120261 -0.018556,0 -0.021691,-0.0162348 -0.00511,-0.0264806 0.00612,-0.003782 0.00852,-0.0136773 0.00533,-0.0219891 -0.00324,-0.008439 -0.00125,-0.0123022 0.0045,-0.008748 0.01446,0.008937 0.012826,0.0334461 -0.00272,0.0408404 -0.00716,0.003406 -0.0021,0.004138 0.01124,0.001628 0.017817,-0.003352 0.022745,-6.1583e-4 0.018556,0.0103012 -0.00314,0.008176 -0.00131,0.014865 0.00406,0.014865 0.00537,0 0.00677,0.0078 0.00311,0.0173338 -0.0047,0.0122609 -0.00279,0.0149484 0.00654,0.009183 0.00762,-0.004713 0.01133,-0.0208115 0.00878,-0.0381671 -0.0048,-0.0327229 0.00649,-0.0407108 0.017388,-0.0123029 0.00954,0.0248591 -0.025712,0.068834 -0.064609,0.0805968 -0.01895,0.005731 -0.034532,0.0186483 -0.037696,0.03125 -0.00537,0.0213802 -0.00532,0.0213833 0.010468,6.4792e-4 0.014807,-0.0194493 0.015411,-0.0180653 0.00909,0.0208333 -0.014177,0.0871996 -0.030312,0.0935149 -0.033044,0.0129323 z m -0.2323682,0.0105048 c 2.999e-4,-0.0248943 0.029211,-0.0963381 0.037937,-0.09375 0.00858,0.002545 0.00924,0.0116424 0.00543,0.0755208 -0.00187,0.0313289 -0.04374,0.0489296 -0.04337,0.0182292 z m 0.1207996,-0.0481921 c -0.016199,-0.0178994 -0.016263,-0.0200936 -7.625e-4,-0.0260417 0.043679,-0.0167611 0.081136,0.006758 0.053992,0.033902 -0.016838,0.0168377 -0.033044,0.0144445 -0.0532295,-0.00786 z m 0.050474,-0.0124235 c -0.0033,-0.005333 -0.016263,-0.009548 -0.028816,-0.009366 -0.022072,3.2042e-4 -0.022173,8.2313e-4 -0.00306,0.0152913 0.020362,0.0154131 0.042517,0.0112944 0.031875,-0.005925 z m -0.2778397,-0.0135157 c -0.014033,-0.0106603 -0.01515,-0.0163098 -0.00521,-0.0263275 0.00996,-0.0100313 0.00899,-0.0113592 -0.00452,-0.006219 -0.024965,0.0095 -0.032839,-0.0110901 -0.012153,-0.0317763 0.019405,-0.0194046 0.1226687,-0.0156679 0.1577192,0.005707 0.013487,0.008225 0.010853,0.009144 -0.011614,0.004053 -0.021131,-0.004788 -0.028234,-0.002821 -0.026042,0.007212 0.00198,0.009047 -0.012159,0.0159787 -0.041062,0.0201361 -0.024243,0.003487 -0.047179,0.009442 -0.05097,0.0132327 -0.013579,0.0135793 0.030996,0.0209869 0.060125,0.009992 0.016343,-0.006169 0.029714,-0.007437 0.029714,-0.002818 0,0.0226185 -0.06876,0.0274948 -0.095992,0.006808 z m 0.2105751,-0.0326396 c 0.00713,-0.008594 0.0288,-0.015625 0.04815,-0.015625 0.024329,0 0.035183,0.00482 0.035183,0.015625 0,0.0116354 -0.012295,0.015625 -0.04815,0.015625 -0.041619,0 -0.046391,-0.002119 -0.035183,-0.015625 z m 0.1166666,0.003125 c -0.00687,-0.006875 -0.0125,-0.035 -0.0125,-0.0625 0,-0.0349393 -0.00422,-0.05 -0.01401,-0.05 -0.00771,0 -0.022833,-0.009748 -0.033615,-0.0216625 -0.013679,-0.0151153 -0.027696,-0.0200442 -0.046376,-0.0163081 -0.014724,0.002945 -0.032803,0.001627 -0.040175,-0.00293 -0.020447,-0.0126371 0.013086,-0.0223805 0.050957,-0.0148062 0.023631,0.004726 0.031136,0.002416 0.031136,-0.009585 0,-0.008697 0.00688,-0.0184532 0.015291,-0.0216805 0.018216,-0.00699 0.031556,0.009624 0.01563,0.019467 -0.020582,0.0127203 -0.00623,0.051597 0.021162,0.0573336 0.027373,0.005732 0.031382,0.0267981 0.015813,0.0830883 -0.00488,0.0176535 -0.00402,0.0215663 0.00267,0.0121474 0.00797,-0.0112151 0.011154,-0.0105486 0.016529,0.003456 0.013859,0.0361164 0.00213,0.0486154 -0.022509,0.02398 z m -0.60625,-0.0226828 c 0,-0.002163 0.00714,-0.009857 0.015864,-0.0170984 0.013264,-0.0110082 0.014788,-0.0103637 0.0093,0.003933 -0.0056,0.0146014 -0.025166,0.0248357 -0.025164,0.0131654 z m 0.7080729,-0.0654248 c 0.020861,-0.0103455 0.011675,-0.0557786 -0.013189,-0.0652317 -0.040443,-0.0153765 -0.083649,-0.10451228 -0.044192,-0.0911696 0.00592,0.002002 0.010766,0.0126015 0.010766,0.0235539 0,0.0279477 0.013454,0.0456454 0.043339,0.0570075 0.028121,0.0106915 0.032801,0.0731887 0.00588,0.0785099 -0.0073,0.001444 -0.00848,2.4229e-4 -0.0026,-0.00267 z m -0.025112,-0.0421723 c -0.00565,-0.0148458 -0.00446,-0.0160423 0.00583,-0.005831 0.00712,0.007066 0.01032,0.0154713 0.00711,0.0186784 -0.00321,0.003207 -0.00903,-0.002574 -0.012943,-0.0128474 z m -0.256675,-0.0496526 c -4.384e-4,-1.5167e-4 -0.00237,-0.008501 -0.00429,-0.0185546 -0.00192,-0.0100533 4.552e-4,-0.0158362 0.00529,-0.0128509 0.00483,0.002985 0.011508,0.001019 0.014838,-0.00437 0.00333,-0.005389 -0.00221,-0.0119022 -0.012301,-0.0144737 -0.010096,-0.002571 -0.00358,-0.004098 0.014483,-0.003393 0.018062,7.0562e-4 0.030719,0.004728 0.028128,0.008939 -0.00259,0.004211 0.00841,0.005988 0.024452,0.003949 0.01604,-0.002039 0.022132,-0.001513 0.013539,0.001168 -0.025271,0.007884 -0.037495,0.023686 -0.018323,0.023686 0.0094,0 0.019246,0.003516 0.021877,0.007813 0.00334,0.005452 -0.074544,0.0126358 -0.087685,0.008087 z m 0.033376,-0.0228145 c 0.012963,-0.0157146 0.012111,-0.016166 -0.00914,-0.004842 -0.024239,0.0129157 -0.030208,0.0221723 -0.014296,0.0221723 0.00503,0 0.015575,-0.007799 0.023436,-0.0173303 z m 0.1278849,-0.0363624 c -0.00442,-0.00715 -0.00288,-0.00921 0.00381,-0.005081 0.00618,0.00382 0.013392,-0.001315 0.016026,-0.0114114 0.00364,-0.0139693 0.00508,-0.012755 0.006,0.005081 0.00128,0.0249196 -0.013455,0.0314318 -0.025828,0.0114114 z m -0.1524587,-0.0209786 c 0.00605,-0.006053 0.017154,-0.008956 0.024669,-0.006451 0.0078,0.002601 0.00308,0.007322 -0.011006,0.0110057 -0.017326,0.004531 -0.021393,0.003175 -0.013664,-0.004555 z m -0.091338,-0.0362976 c -0.014354,-0.007564 -0.019029,-0.0137213 -0.010417,-0.013718 0.01796,6.84e-6 0.048691,0.0174021 0.041365,0.0234147 -0.0027,0.002215 -0.016625,-0.002149 -0.030948,-0.0096967 z m 0.1296874,0.007813 c -0.00544,-0.005173 -0.019271,-0.0116606 -0.030729,-0.0144167 -0.019762,-0.004753 -0.019693,-0.005073 0.00133,-0.006219 0.012189,-6.6459e-4 0.027997,0.005823 0.03513,0.0144167 0.014141,0.0170383 0.010179,0.0213392 -0.00573,0.006219 z"
       id="path21435"
       clip-path="url(#clipPath21464)"
       transform="translate(-0.00744048,-0.62872024)" />
  </g>
</svg>
