<?xml version="1.0" encoding="UTF-8" standalone="no"?>
<svg
   xmlns:dc="http://purl.org/dc/elements/1.1/"
   xmlns:cc="http://creativecommons.org/ns#"
   xmlns:rdf="http://www.w3.org/1999/02/22-rdf-syntax-ns#"
   xmlns:svg="http://www.w3.org/2000/svg"
   xmlns="http://www.w3.org/2000/svg"
   xmlns:sodipodi="http://sodipodi.sourceforge.net/DTD/sodipodi-0.dtd"
   xmlns:inkscape="http://www.inkscape.org/namespaces/inkscape"
   width="250"
   height="350"
   viewBox="0 0 2.6041666 3.6458333"
   version="1.1"
   id="SVGRoot"
   sodipodi:docname="butterfly_4.svg"
   inkscape:version="1.0.1 (3bc2e813f5, 2020-09-07)">
  <defs
     id="defs504">
    <clipPath
       clipPathUnits="userSpaceOnUse"
       id="clipPath573">
      <path
         style="fill:none;stroke:#000000;stroke-width:0.0104167px;stroke-linecap:butt;stroke-linejoin:miter;stroke-opacity:1"
         d="M 0.91545103,0.10522425 2.0834403,0.03156728 2.4938149,0.79970435 2.1886646,2.3675458 1.978216,3.8617302 1.3153032,4.5035982 0.18940366,3.7038939 0.07365698,0.98910801 0.09470183,0.11574668 Z"
         id="path575" />
    </clipPath>
    <clipPath
       clipPathUnits="userSpaceOnUse"
       id="clipPath606">
      <path
         style="fill:none;stroke:#000000;stroke-width:0.0104167px;stroke-linecap:butt;stroke-linejoin:miter;stroke-opacity:1"
         d="M 0.13679153,3.0199362 1.8414245,2.9041895 1.3784377,-0.01052243 0.03156728,0.06313455 -0.09470183,0.58925584 Z"
         id="path608" />
    </clipPath>
    <clipPath
       clipPathUnits="userSpaceOnUse"
       id="clipPath639">
      <path
         style="fill:none;stroke:#000000;stroke-width:0.0104167px;stroke-linecap:butt;stroke-linejoin:miter;stroke-opacity:1"
         d="M 0.70500253,0.11574668 0.07365698,0.75761465 -0.12626911,0.88388376 0.18940366,1.2732135 0.6103007,1.4205274 0.51559886,2.2307543 0.78918193,2.3254561 1.8519469,2.3780683 2.0413505,1.3258256 1.9571711,0.02104485 0.6944801,-0.03156728 Z"
         id="path641" />
    </clipPath>
    <clipPath
       clipPathUnits="userSpaceOnUse"
       id="clipPath672">
      <path
         style="fill:none;stroke:#000000;stroke-width:0.0104167px;stroke-linecap:butt;stroke-linejoin:miter;stroke-opacity:1"
         d="M 0.2420158,0.21044852 0.11574668,1.7572451 0.38932975,2.9778465 1.7046329,2.9252344 2.0518731,1.5257517 1.8414245,0.91545103 1.5783637,0.3261952 0.86283891,0.06313455 0.52612128,-0.13679153 Z"
         id="path674" />
    </clipPath>
    <clipPath
       clipPathUnits="userSpaceOnUse"
       id="clipPath706">
      <path
         style="fill:none;stroke:#000000;stroke-width:0.0104167px;stroke-linecap:butt;stroke-linejoin:miter;stroke-opacity:1"
         d="M -0.3261952,1.8414245 1.0522425,1.9256039 1.9571711,1.6414984 1.8835142,0.34724005 1.2942583,-0.12626911 0.16835881,0.08417941 Z"
         id="path708" />
    </clipPath>
    <clipPath
       clipPathUnits="userSpaceOnUse"
       id="clipPath788">
      <path
         style="fill:none;stroke:#000000;stroke-width:0.0104167px;stroke-linecap:butt;stroke-linejoin:miter;stroke-opacity:1"
         d="M 0.03156728,0.86283891 0.55242735,0.87336133 0.78918193,0.77339829 0.76287587,0.09996304 0.55242735,0.01052243 0.07891819,0.11048547 Z"
         id="path790" />
    </clipPath>
    <clipPath
       clipPathUnits="userSpaceOnUse"
       id="clipPath821">
      <path
         style="fill:none;stroke:#000000;stroke-width:0.0104167px;stroke-linecap:butt;stroke-linejoin:miter;stroke-opacity:1"
         d="M 0.14205274,0.84705527 0.6523904,0.82601042 0.59977826,1.4047437 0.25779943,1.4310499 -0.01578364,1.0364589 Z"
         id="path823" />
    </clipPath>
    <clipPath
       clipPathUnits="userSpaceOnUse"
       id="clipPath854">
      <path
         style="fill:none;stroke:#000000;stroke-width:0.0104167px;stroke-linecap:butt;stroke-linejoin:miter;stroke-opacity:1"
         d="M -0.04735092,0.48929279 H 0.54190492 L 0.51033764,0.02630606 -0.02104485,-0.05787334 Z"
         id="path856" />
    </clipPath>
  </defs>
  <sodipodi:namedview
     id="base"
     pagecolor="#ffffff"
     bordercolor="#666666"
     borderopacity="1.0"
     inkscape:pageopacity="0.0"
     inkscape:pageshadow="2"
     inkscape:zoom="1.979899"
     inkscape:cx="119.25168"
     inkscape:cy="112.94957"
     inkscape:document-units="in"
     inkscape:current-layer="layer1"
     inkscape:document-rotation="0"
     showgrid="false"
     inkscape:window-width="1280"
     inkscape:window-height="737"
     inkscape:window-x="-8"
     inkscape:window-y="-8"
     inkscape:window-maximized="1"
     units="px" />
  <metadata
     id="metadata507">
    <rdf:RDF>
      <cc:Work
         rdf:about="">
        <dc:format>image/svg+xml</dc:format>
        <dc:type
           rdf:resource="http://purl.org/dc/dcmitype/StillImage" />
        <dc:title></dc:title>
      </cc:Work>
    </rdf:RDF>
  </metadata>
  <g
     inkscape:groupmode="layer"
     id="layer3"
     inkscape:label="clip"
     style="display:none" />
  <g
     inkscape:label="Layer 1"
     inkscape:groupmode="layer"
     id="layer1"
     style="display:inline">
    <path
       style="display:inline;fill:#000000;stroke-width:0.00218254"
       d="m -0.22844005,0.59209817 c -0.0139202,-0.001422 -0.0281196,-0.007922 -0.0455758,-0.0208448 -0.009991,-0.007394 -0.0222954,-0.0158979 -0.0273533,-0.0188994 -0.0156047,-0.009258 -0.0175737,-0.0115923 -0.0209967,-0.0248874 -0.00374,-0.0145507 -0.002371,-0.0216746 0.006801,-0.0351863 0.004494,-0.006628 0.004742,-0.007717 0.001509,-0.006725 -0.0260319,0.007997 -0.0604337,0.010271 -0.0734086,0.00485 -0.003966,-0.001659 -0.0144881,-0.009592 -0.0233925,-0.0176298 -0.008902,-0.00804 -0.0222501,-0.0180232 -0.0296596,-0.0221822 -0.0155282,-0.008719 -0.0261904,-0.0197066 -0.0322462,-0.0332388 -0.003524,-0.007856 -0.006219,-0.0103679 -0.0156866,-0.0145518 -0.008924,-0.003944 -0.012434,-0.007016 -0.0159679,-0.0139374 -0.00249,-0.004882 -0.006725,-0.0103248 -0.009409,-0.0120945 -0.002683,-0.001767 -0.007329,-0.007188 -0.0103141,-0.0120439 -0.00401,-0.00652 -0.00915,-0.0106804 -0.019643,-0.015914 -0.0122486,-0.006111 -0.0149031,-0.008535 -0.0192205,-0.0175716 -0.004138,-0.008654 -0.006801,-0.0112377 -0.0152782,-0.01479 -0.0183529,-0.007695 -0.0246869,-0.0116754 -0.0332356,-0.0209062 -0.0135279,-0.0146078 -0.0142672,-0.0340676 -0.001336,-0.0351378 0.003147,-2.6001e-4 0.0126592,9.8861e-4 0.0211509,0.002769 0.0194609,0.004096 0.0413004,0.004074 0.0664443,-5.613e-5 0.0276583,-0.004548 0.0411269,-0.004063 0.0657826,0.00236 0.0118347,0.003083 0.0318981,0.006456 0.0445843,0.007491 0.0257312,0.002101 0.0329295,0.004764 0.0670844,0.024799 0.0138016,0.008094 0.0242925,0.0126043 0.0327377,0.0140721 0.006833,0.001185 0.0125935,0.002015 0.0127939,0.001832 2.0079e-4,-1.8063e-4 -0.002694,-0.003762 -0.006445,-0.007943 -0.005593,-0.006262 -0.008741,-0.007814 -0.0176513,-0.00873 l -0.0108443,-0.00111 -0.007146,-0.0141864 c -0.0103571,-0.020544 -0.0392613,-0.0472937 -0.0640969,-0.0593117 -0.0223245,-0.0108023 -0.0348609,-0.0206561 -0.0349158,-0.0274448 -2.134e-5,-0.002705 9.4244e-4,-0.004914 0.002145,-0.004914 0.001196,0 0.002177,9.8228e-4 0.002177,0.002188 0,0.001196 0.001063,0.002188 0.00236,0.002188 0.001294,0 0.006456,0.003331 0.0114587,0.007415 0.005001,0.004074 0.0148245,0.0108454 0.0218244,0.0150432 0.0167396,0.0100339 0.0474845,0.0365529 0.0543303,0.0468562 0.002986,0.004494 0.007943,0.0126172 0.0110081,0.0180534 0.005475,0.0097 0.005777,0.009872 0.0161382,0.00956 0.005809,-1.774e-4 0.0118035,-4.5049e-4 0.0133242,-6.0698e-4 0.004786,-4.9264e-4 -0.006715,-0.0197993 -0.0222652,-0.0373881 -0.007965,-0.008999 -0.0195288,-0.0237353 -0.0257044,-0.0327377 -0.006175,-0.008999 -0.0174552,-0.0245112 -0.0250674,-0.0344632 -0.0127713,-0.0166987 -0.0213814,-0.033574 -0.0185663,-0.0363891 0.002975,-0.002975 0.006768,-5.7615e-4 0.008945,0.005647 0.001304,0.003751 0.0109003,0.019712 0.0213168,0.0354665 0.0104218,0.0157545 0.0213308,0.0322829 0.0242537,0.0367296 0.002921,0.004451 0.0128241,0.0163117 0.0220022,0.0263661 0.0113778,0.0124652 0.017937,0.0217748 0.0206174,0.0292641 0.002554,0.007135 0.005755,0.0118143 0.009139,0.0133544 l 0.005206,0.002371 -0.005378,-0.007922 c -0.002953,-0.004354 -0.008342,-0.0178087 -0.0119802,-0.0298989 -0.003632,-0.0120902 -0.009129,-0.0278749 -0.0122076,-0.0350775 -0.0193661,-0.0452848 -0.0190071,-0.0439354 -0.0191398,-0.0720238 l -1.2964e-4,-0.0261801 -0.0122594,-0.0174606 c -0.0138178,-0.01968079 -0.0198144,-0.03049277 -0.0179467,-0.03236045 0.001929,-0.0019292 0.0257701,0.0107344 0.034322,0.01824848 0.004171,0.0036647 0.0102386,0.01127868 0.0134794,0.01693141 0.008838,0.0153989 0.0159205,0.0220314 0.0307115,0.0287716 0.0201744,0.009193 0.0340116,0.0238753 0.0401558,0.0426088 0.005054,0.0154086 0.0101739,0.022096 0.0383517,0.0500484 0.004925,0.004893 0.0107236,0.0123251 0.0128855,0.0165273 0.002156,0.004203 0.00859,0.012059 0.0142985,0.0174606 0.00735,0.006962 0.0111364,0.012684 0.0130009,0.019643 0.001444,0.005399 0.005184,0.0157147 0.008298,0.0229172 0.007404,0.0171039 0.008902,0.039881 0.003665,0.0556657 l -0.00374,0.0112539 0.007577,0.006941 c 0.004171,0.003815 0.0107828,0.0133145 0.0146994,0.0211034 0.003912,0.007792 0.0112129,0.0205462 0.0162148,0.028348 0.0141293,0.0220411 0.0151488,0.0257378 0.0137197,0.0497651 -0.001541,0.0259521 -0.006359,0.0428437 -0.0135452,0.0475556 -0.004893,0.003212 -0.005885,0.003136 -0.0135548,-9.9042e-4 -0.004548,-0.002446 -0.0139126,-0.005551 -0.0208006,-0.006887 -0.0108648,-0.002112 -0.0143114,-0.00416 -0.0260061,-0.0153881 -0.007415,-0.007124 -0.0138739,-0.0125557 -0.0143545,-0.0120751 -4.8024e-4,4.8047e-4 0.002382,0.006909 0.006359,0.0142942 0.003977,0.007383 0.009937,0.0184608 0.013238,0.02462 0.00582,0.0108551 0.007619,0.0220895 0.004333,0.0269943 -8.8214e-4,0.001315 -0.004548,0.003804 -0.008148,0.00554 -0.004041,0.001951 -0.006305,0.004548 -0.005927,0.006801 0.001391,0.00818 -0.0235725,0.0190416 -0.0399079,0.0173679 z m 0.0158235,-0.006197 c 0.009463,-0.002533 0.004786,-0.005173 -0.009193,-0.005173 -0.0139116,0 -0.0155131,-6.9612e-4 -0.0214472,-0.009323 -0.001466,-0.002123 -0.006585,-0.004462 -0.0113842,-0.005184 -0.006219,-9.3519e-4 -0.011547,-0.003988 -0.0185448,-0.0106266 -0.005399,-0.00512 -0.0129437,-0.0108831 -0.01676,-0.0128004 -0.003815,-0.001918 -0.00762,-0.005702 -0.008439,-0.008417 -0.002123,-0.006973 -0.007533,-0.0125741 -0.0121301,-0.0125741 -0.002156,0 -0.005023,-0.001714 -0.00637,-0.003815 -0.002199,-0.003417 -0.002296,-0.003362 -9.6326e-4,5.4567e-4 8.2092e-4,0.002404 0.002414,0.007555 0.003546,0.0114618 0.001552,0.005378 0.005852,0.009657 0.0177688,0.0177128 0.008643,0.005841 0.020059,0.0142457 0.0253616,0.0186817 0.0195202,0.0163289 0.0422262,0.023897 0.0585627,0.0195191 z m 0.0168958,-0.0160476 c 0.001854,-0.003578 0.006294,-0.008029 0.009883,-0.009872 0.003621,-0.001875 0.006509,-0.00514 0.006509,-0.00735 0,-0.006326 -0.004796,-0.0186558 -0.007986,-0.0205666 -0.001606,-9.5964e-4 -0.002921,-0.002986 -0.002921,-0.004494 0,-0.001509 -0.003438,-0.00846 -0.007641,-0.0154334 -0.004203,-0.006973 -0.007641,-0.0140398 -0.007641,-0.0156953 0,-0.001659 -9.9042e-4,-0.003007 -0.002199,-0.003007 -0.001207,0 -0.00623,-0.00859 -0.0111429,-0.0190966 -0.00679,-0.0144925 -0.009387,-0.0232697 -0.0107861,-0.036401 -0.001455,-0.0136809 -0.00388,-0.0215269 -0.0115965,-0.0374765 -0.0122065,-0.0252484 -0.0242763,-0.0442642 -0.0292275,-0.0460489 -0.004182,-0.001509 -0.0267141,-0.02462 -0.0267141,-0.0274006 0,-0.001692 -0.004246,-0.003675 -0.0151133,-0.00707 -0.004451,-0.001391 -0.00402,-5.3553e-4 0.002727,0.005388 0.005766,0.005065 0.008018,0.008816 0.008018,0.013363 0,0.005551 -7.8729e-4,0.006326 -0.006478,0.006326 -0.003557,0 -0.0128565,-0.003514 -0.0206594,-0.007803 -0.0105943,-0.005819 -0.019324,-0.008611 -0.0344502,-0.0109941 -0.0235111,-0.003707 -0.0344502,-0.006854 -0.0344502,-0.009894 0,-0.001185 0.001714,-0.001638 0.003815,-0.001001 0.002101,6.3716e-4 0.0123434,0.002199 0.0227621,0.003459 0.0210247,0.002554 0.0331214,0.006251 0.0468508,0.0142941 0.0112787,0.006607 0.01217,0.00665 0.0112926,4.7486e-4 -8.789e-4,-0.006186 -0.016025,-0.0141541 -0.0305854,-0.0160854 -0.011713,-0.001552 -0.0142619,-0.005195 -0.003632,-0.005195 h 0.006854 l -0.008083,-0.005485 c -0.004441,-0.003017 -0.0167493,-0.0100123 -0.0273424,-0.0155508 -0.0182593,-0.009538 -0.0204923,-0.0101524 -0.0429666,-0.0117302 -0.0130386,-9.1528e-4 -0.0310521,-0.00374 -0.0400319,-0.006272 -0.0198564,-0.005604 -0.0445164,-0.006003 -0.0764458,-0.001229 -0.0227211,0.003395 -0.0387505,0.002522 -0.0583698,-0.00319 -0.00818,-0.002382 -0.008719,-9.9586e-4 -0.003718,0.009538 0.006326,0.0133231 0.013877,0.0183153 0.0345548,0.0228343 0.0178335,0.003901 0.019975,0.004979 0.0315252,0.015871 0.006812,0.006434 0.0163613,0.0134438 0.0212144,0.0155864 0.00596,0.00263 0.0107128,0.007027 0.0146369,0.0135214 0.007641,0.0126473 0.0165618,0.0163106 0.0397226,0.0163106 0.0137273,0 0.0234712,-0.001628 0.0417476,-0.006984 0.0329371,-0.009657 0.0573308,-0.009915 0.0838607,-8.8914e-4 0.0265924,0.009042 0.0576596,0.0251504 0.0545373,0.0282736 -6.1087e-4,6.1076e-4 -0.008956,-0.002727 -0.018548,-0.007425 -0.0214882,-0.0105188 -0.0520542,-0.0195881 -0.0709094,-0.0210377 -0.011381,-8.7568e-4 -0.0195806,3.0543e-4 -0.0414685,0.005971 -0.0189134,0.004893 -0.0327388,0.007135 -0.0450725,0.007307 l -0.0177904,2.425e-4 0.003158,0.007641 c 0.007329,0.0177515 0.020793,0.0322312 0.033518,0.0360528 0.003007,9.0154e-4 0.0102171,0.004117 0.0160423,0.007146 l 0.0105835,0.005507 0.0210603,-0.006057 c 0.0115837,-0.003331 0.0313733,-0.009269 0.0439775,-0.0132078 0.0219074,-0.006833 0.0340924,-0.008794 0.0496529,-0.007986 0.0133458,6.9719e-4 0.007113,0.004107 -0.009818,0.005378 -0.009301,6.9612e-4 -0.0242806,0.003696 -0.0332842,0.006671 -0.0326041,0.0107667 -0.0635678,0.0188768 -0.072069,0.0188768 -0.00817,0 -0.008687,3.8628e-4 -0.008687,0.006445 0,0.0134147 0.008051,0.0219279 0.0207348,0.0219279 0.003169,0 0.006812,0.00222 0.009172,0.005615 0.0108529,0.0155389 0.0118466,0.0161469 0.0304098,0.0185944 0.0172246,0.002274 0.0186667,0.002101 0.0480158,-0.005799 0.0559309,-0.0150572 0.054921,-0.014861 0.0657092,-0.0127422 0.0168894,0.00332 0.0143416,0.007436 -0.004602,0.007436 -0.0233527,0 -0.0495301,0.008449 -0.0588849,0.0190018 -0.003783,0.004268 -0.007663,0.009096 -0.008611,0.0107236 -0.002586,0.004419 0.001951,0.0111396 0.011644,0.017258 0.006208,0.003923 0.008633,0.006951 0.008633,0.0107775 0,0.003804 0.002652,0.007157 0.009279,0.0117312 0.005098,0.003524 0.0124588,0.009463 0.0163495,0.0132002 0.004678,0.004494 0.009269,0.00679 0.0135645,0.00679 0.004117,0 0.009247,0.002414 0.0140108,0.006607 0.00554,0.004872 0.0108659,0.007091 0.0202649,0.00846 0.0197595,0.002888 0.0200429,0.002835 0.0236393,-0.004117 z m -0.0502856,-0.0285819 c -8.9011e-4,-0.001444 -1.2221e-4,-0.003406 0.001736,-0.004451 0.001832,-0.001025 0.003988,-0.005346 0.004786,-0.009603 0.001059,-0.005647 0.002457,-0.007577 0.005162,-0.007124 0.002683,4.4565e-4 0.003901,-0.001196 0.004419,-0.005928 3.9251e-4,-0.0036 0.001736,-0.007533 0.002996,-0.00873 0.001573,-0.001509 0.00194,0.001088 0.001164,0.008449 -6.155e-4,0.005852 -0.002393,0.0114252 -0.003955,0.0123898 -0.001563,9.6326e-4 -0.004365,0.004947 -0.00624,0.008849 -0.00374,0.007792 -0.007588,0.0101416 -0.0100554,0.006154 z m -0.0326946,-0.015207 c -8.0066e-4,-0.001294 -2.15e-6,-0.00401 0.001778,-0.006036 0.001778,-0.002026 0.003901,-0.005885 0.00472,-0.008579 0.002166,-0.007113 0.0185114,-0.0271075 0.0209353,-0.0256095 0.001132,7.0053e-4 -0.001789,0.006488 -0.006488,0.0128554 -0.004709,0.00637 -0.0100015,0.0150357 -0.0117637,0.0192583 -0.0036,0.008611 -0.007005,0.0116224 -0.009172,0.008104 z m 0.0511144,-0.0384961 c 8.6197e-4,-0.003222 0.002899,-0.006305 0.004527,-0.006843 0.002037,-6.792e-4 0.002511,1.8074e-4 0.00152,0.002769 -7.9128e-4,0.002059 -0.001444,0.00514 -0.001444,0.006843 0,0.001703 -0.001391,0.003093 -0.003083,0.003093 -0.002285,0 -0.002673,-0.00153 -0.00152,-0.005862 z m -0.13289716,-0.0331278 c 0,-0.001035 0.005151,-0.002986 0.0114587,-0.004322 0.006305,-0.001347 0.0198069,-0.004333 0.0300099,-0.006639 0.0102062,-0.002307 0.018977,-0.003783 0.0194976,-0.003276 0.002371,0.002296 -0.004958,0.004979 -0.0282273,0.0103571 -0.026712,0.006175 -0.0327377,0.006887 -0.0327389,0.00388 z m -0.0371036,-0.0546343 c 0,-0.002824 0.001552,-0.004138 0.004914,-0.004149 0.002705,-6.58e-6 0.0103141,-0.00208 0.0169153,-0.004613 l 0.0120039,-0.004602 -0.0152782,0.001088 c -0.008407,6.017e-4 -0.0187151,0.001649 -0.0229172,0.002328 -0.0141314,0.002285 -0.001315,-0.004828 0.0137478,-0.00763 0.0121937,-0.002274 0.0155573,-0.001994 0.0339599,0.002813 0.0217608,0.005691 0.0306177,0.0109025 0.0232901,0.0137143 -0.002188,8.4085e-4 -0.007027,2.537e-4 -0.0107559,-0.001304 -0.0127401,-0.005335 -0.0217371,-0.00513 -0.0366294,8.2965e-4 -0.0168743,0.006746 -0.0192486,0.006941 -0.0192486,0.00152 z m -0.0629653,-0.0660552 c -0.0149915,-0.001746 -0.0227071,-0.005583 -0.026768,-0.0132929 -0.001422,-0.002705 -0.003665,-0.005604 -0.004968,-0.006456 -0.001703,-0.00111 -0.001659,-0.002263 1.4183e-4,-0.004074 0.001908,-0.001908 0.003762,-6.1324e-4 0.00762,0.005346 0.006434,0.009937 0.0153396,0.0129923 0.0347196,0.0118973 0.0251137,-0.001422 0.0250566,-0.007512 -1.595e-4,-0.017259 -0.0100123,-0.003869 -0.0151747,-0.004462 -0.0311017,-0.0036 -0.0105081,5.7357e-4 -0.0190977,2.537e-4 -0.0190977,-7.1089e-4 0,-9.6417e-4 0.005647,-0.002931 0.0125493,-0.004365 0.0156899,-0.003266 0.0334037,-3.7894e-4 0.050665,0.008256 0.009603,0.004806 0.0122217,0.007253 0.0127594,0.0119026 0.001164,0.0100554 -0.0134643,0.0150205 -0.03636,0.0123478 z m 0.33258486,0.18640995 c 4.149e-5,-0.003298 8.7125e-4,-0.008299 0.001843,-0.0110997 0.001649,-0.004764 0.001444,-0.004925 -0.003179,-0.002457 -0.00416,0.002231 -0.005388,0.002037 -0.00777,-0.001229 -0.003233,-0.00443 -0.001563,-0.009247 0.001973,-0.005702 0.001412,0.001412 0.003654,0.00153 0.005949,3.0317e-4 0.003406,-0.001821 0.003341,-0.002975 -8.7987e-4,-0.0158408 -0.0025,-0.00763 -0.007781,-0.0177484 -0.0117227,-0.022484 -0.003944,-0.004731 -0.007684,-0.0110652 -0.00832,-0.0140668 -0.001714,-0.008115 -0.006962,-0.0194307 -0.0144979,-0.0312784 l -0.006715,-0.0105404 -0.002931,0.006984 c -0.001617,0.003837 -0.006478,0.0118024 -0.010799,0.0176945 -0.0114532,0.0156026 -0.0206281,0.0383603 -0.0181224,0.0449508 0.001088,0.002867 0.001983,0.007609 0.001983,0.0105296 0,0.002921 0.001088,0.005313 0.002414,0.005313 0.002349,0 0.0160832,0.0100446 0.024868,0.0181956 0.005744,0.005324 0.0128737,0.007986 0.0214223,0.008008 0.003826,8.73e-6 0.009894,0.001962 0.0134988,0.004354 0.008773,0.005809 0.0108982,0.005485 0.0109876,-0.001638 z m -0.0439883,-0.0320878 c -0.00138,-0.003589 5.8803e-4,-0.007738 0.003665,-0.007738 0.001132,0 0.002059,0.001401 0.002059,0.003125 0,0.002479 0.001444,0.002705 0.007081,0.001088 0.008783,-0.002522 0.0125644,-0.002576 0.0125644,-1.9313e-4 0,0.001994 -0.0145927,0.006898 -0.0205106,0.006898 -0.001994,0 -0.004182,-0.001422 -0.00485,-0.003169 z m -0.0148352,-0.0249122 c -0.002252,-0.003632 0.0168,-0.0155692 0.0248485,-0.0155692 0.005399,0 0.001487,0.004505 -0.007285,0.008385 -0.005249,0.002317 -0.0102171,0.005313 -0.0110416,0.00665 -0.0018,0.002899 -0.004904,0.003158 -0.00652,5.3887e-4 z m 0.0697206,-0.001789 c -7.1315e-4,-0.003826 -0.004925,-0.0121731 -0.009355,-0.0185513 -0.00443,-0.006381 -0.0129934,-0.0208523 -0.0190244,-0.0321644 -0.009808,-0.018395 -0.0167159,-0.0270277 -0.0192842,-0.0240985 -4.8887e-4,5.5794e-4 -0.001498,0.003557 -0.002242,0.00665 -0.001065,0.004451 0.001175,0.009441 0.010605,0.023705 0.007663,0.0115815 0.0119544,0.020364 0.0119544,0.0244703 0,0.003988 0.002145,0.008546 0.005691,0.0120966 0.006757,0.006757 0.013931,0.0180814 0.0139429,0.0220066 4.52e-6,0.001541 0.001703,0.006445 0.003783,0.0109122 l 0.003772,0.008115 7.2458e-4,-0.0130957 c 3.9844e-4,-0.007199 1.4107e-4,-0.0162245 -5.7228e-4,-0.0200494 z m -0.25323455,0.0236512 c -0.007005,-0.002274 -0.0108066,-0.005313 -0.0160423,-0.0128231 -0.003147,-0.004505 -0.007867,-0.007836 -0.0131281,-0.009247 -0.0134352,-0.003621 -0.0221197,-0.01558 -0.0221197,-0.0304691 0,-0.008741 -1.7244e-4,-0.008935 -0.013641,-0.0150712 -0.0152319,-0.006941 -0.026005,-0.0167838 -0.0326698,-0.0298364 -0.007706,-0.0150992 -0.0125547,-0.020502 -0.0222232,-0.0247796 -0.007458,-0.003298 -0.009667,-0.005561 -0.010756,-0.0110232 -0.001046,-0.005227 -0.003815,-0.008299 -0.0115847,-0.0128166 -0.005615,-0.003266 -0.0158623,-0.0111687 -0.0227696,-0.0175533 -0.0116257,-0.0107452 -0.0136939,-0.0117776 -0.0278372,-0.0138761 -0.008407,-0.00125 -0.0182808,-0.004096 -0.0219505,-0.006326 -0.008137,-0.004947 -0.0197874,-0.0205839 -0.0214245,-0.0287554 -0.001121,-0.005604 -0.005658,-0.008083 -0.007964,-0.004354 -0.002059,0.00332 0.005001,0.018755 0.011754,0.0257248 0.003826,0.003944 0.0129848,0.009764 0.0203522,0.0129319 0.021223,0.009118 0.0197325,0.007856 0.0258304,0.0219032 0.001918,0.004419 0.006467,0.00832 0.0139816,0.0120039 0.0138005,0.006757 0.0176082,0.009894 0.023828,0.0196107 0.008104,0.0126581 0.0311156,0.0349525 0.0360809,0.0349525 0.008245,0 0.0133177,0.00458 0.0188089,0.0170026 0.008266,0.0186946 0.0127939,0.0237816 0.0324294,0.0364483 0.009958,0.006423 0.0203543,0.0147263 0.0231101,0.0184532 0.005788,0.007836 0.0283534,0.0198639 0.0366489,0.019545 0.004861,-1.8634e-4 0.005033,-4.1762e-4 0.001283,-0.001639 z m 0.15730783,-0.0309347 c -0.004117,-0.0199114 -0.008428,-0.0329543 -0.0170263,-0.0515024 -0.006337,-0.0136616 -0.0136486,-0.0275386 -0.016261,-0.0308387 -0.002802,-0.003535 -6.7208e-4,0.002522 0.005173,0.0147339 0.0132229,0.0276291 0.0181266,0.0422984 0.0181266,0.0542356 0,0.009139 0.0131615,0.0461643 0.0148438,0.0417573 3.6148e-4,-9.4787e-4 -0.001821,-0.0137208 -0.004861,-0.0283857 z m 0.0238614,-0.0286379 c 0.009797,-0.0136324 0.0163506,-0.0284569 0.0163506,-0.0369689 0,-0.003503 8.2664e-4,-0.00637 0.001832,-0.00637 0.003309,0 0.009743,-0.0254003 0.008115,-0.0319962 -8.4431e-4,-0.003406 -0.006402,-0.0185039 -0.0123445,-0.0335438 -0.008428,-0.0213243 -0.0129556,-0.0296499 -0.0205602,-0.0378149 -0.005367,-0.005755 -0.0129405,-0.0149117 -0.0168387,-0.0203403 -0.006898,-0.009614 -0.0156985,-0.0159874 -0.0220518,-0.0159874 -0.001725,0 -0.007081,-0.006628 -0.0118995,-0.0147317 -0.004817,-0.008104 -0.0117205,-0.0169066 -0.015331,-0.0195633 -0.006122,-0.004505 -0.008988,-0.0103895 -0.0122508,-0.0251514 -8.9518e-4,-0.004041 -0.003999,-0.007339 -0.009603,-0.0102063 -0.004559,-0.002328 -0.0110286,-0.00819 -0.0143848,-0.0130289 -0.003718,-0.005357 -0.008945,-0.009743 -0.0133705,-0.0112021 -0.003999,-0.001314 -0.00971,-0.004322 -0.0126862,-0.00666 l -0.005421,-0.004257 -0.00153,0.0142985 c -0.002134,0.0199319 -4.7627e-4,0.0274244 0.0128672,0.058137 0.006434,0.0148007 0.0134287,0.032312 0.0155508,0.0389143 0.008869,0.0275785 0.0169206,0.0459519 0.0211271,0.0482034 0.002414,0.001294 0.003804,0.002931 0.003093,0.003643 -7.14e-4,7.14e-4 7.319e-4,0.003459 0.003212,0.0061 0.004257,0.004527 0.0103248,0.0327389 0.00763,0.0354365 -0.001391,0.001391 -0.005551,-0.009592 -0.005551,-0.0146326 0,-0.0113185 -0.004623,-0.0172138 -0.0187906,-0.0239831 -0.007781,-0.003718 -0.0147469,-0.006757 -0.0154829,-0.006757 -7.3653e-4,0 0.004742,0.006326 0.0121667,0.0140647 0.0109122,0.0113638 0.0133134,0.0151284 0.0125019,0.0196032 -8.1316e-4,0.004483 9.3791e-4,0.00721 0.009215,0.0143071 0.005669,0.004872 0.0115955,0.008256 0.0133199,0.007598 0.001756,-6.6012e-4 0.006833,0.002414 0.0117033,0.007091 0.00777,0.007458 0.008439,0.007728 0.006887,0.002802 -9.4063e-4,-0.002996 -0.001606,-0.00693 -0.001466,-0.00873 0.001649,-0.0224333 0.004979,-0.0481733 0.006865,-0.0530683 0.003384,-0.008762 0.002931,-0.027738 -9.2615e-4,-0.0386642 -0.003654,-0.0103464 -0.002414,-0.0142672 0.002404,-0.007674 0.007533,0.0103033 0.00943,0.0304948 0.004419,0.0470221 -0.003546,0.0116807 -0.00665,0.0415829 -0.006283,0.0603939 2.232e-4,0.0112862 0.00207,0.0173356 0.011353,0.0373279 0.0061,0.0131216 0.0127907,0.031356 0.014874,0.0405201 l 0.003783,0.016662 0.004742,-0.009829 c 0.002608,-0.00541 0.008353,-0.0148492 0.0127595,-0.0209859 z m -0.0308258,-0.0460629 c 7.4192e-4,-0.002705 0.002435,-0.0117852 0.003762,-0.0201884 0.001325,-0.008407 0.003729,-0.0184694 0.005346,-0.0223709 0.003448,-0.008331 0.008525,-0.0100231 0.005399,-0.0018 -0.00111,0.00291 -0.003557,0.0134718 -0.005443,0.0234626 -0.001886,0.009991 -0.003966,0.0198823 -0.004623,0.0219828 -0.001789,0.005723 -0.006014,0.004678 -0.00443,-0.001088 z m -0.0337799,-0.0904468 c -1.1112e-4,-9.7141e-4 -3.708e-5,-0.005949 1.6575e-4,-0.0110523 3.7743e-4,-0.009527 -0.003222,-0.0239314 -0.006951,-0.0278156 -0.001347,-0.001401 -0.001854,0.004419 -0.001433,0.0162072 4.7076e-4,0.0130558 -1.1123e-4,0.0186472 -0.002004,0.0192787 -0.001983,6.6034e-4 -0.002673,-0.004527 -0.002673,-0.0200946 0,-0.0170974 6.376e-4,-0.0212295 0.003438,-0.0223061 0.001897,-7.2659e-4 0.004796,4.041e-5 0.006456,0.001703 0.00443,0.004451 0.0102817,0.0294462 0.008633,0.0369301 -0.001336,0.006067 -0.005206,0.0109715 -0.005647,0.007146 z m -0.0349881,-0.0481452 c -0.003362,-0.008601 -8.5045e-4,-0.0325232 0.00472,-0.0450391 0.006381,-0.0143406 0.009139,-0.009161 0.003686,0.00693 -0.003201,0.009419 -0.003988,0.0163387 -0.003233,0.0282909 0.001028,0.0163279 -0.001068,0.0203123 -0.005162,0.009818 z m 0.1201641,0.0716241 c -0.002652,-0.006154 -0.005184,-0.0108239 -0.005626,-0.0103787 -4.4834e-4,4.4845e-4 0.001305,0.005906 0.00388,0.0121215 0.002587,0.006219 0.00512,0.0108874 0.005626,0.0103787 5.1193e-4,-5.1193e-4 -0.001239,-0.005971 -0.00388,-0.0121215 z m -0.008579,-0.0252162 c -0.001466,-0.00443 -0.00652,-0.0109186 -0.0120094,-0.0154193 -0.005216,-0.004279 -0.0104973,-0.0106589 -0.0117226,-0.0141896 -0.002188,-0.006283 -0.0129858,-0.0186698 -0.0377115,-0.0432737 -0.009182,-0.009139 -0.0129481,-0.0147706 -0.0147663,-0.0220863 -0.005357,-0.0215334 -0.0182808,-0.036278 -0.0416733,-0.0475222 -0.0113099,-0.005432 -0.0305401,-0.023649 -0.0305401,-0.0289236 0,-0.005346 -0.0258391,-0.02831674 -0.0318539,-0.02831674 -0.001951,0 0.004925,0.01023864 0.0147662,0.02196564 0.004591,0.005475 0.008352,0.0109025 0.008352,0.0120525 0,0.001153 0.003017,0.005755 0.006715,0.0102386 0.004764,0.005788 0.00956,0.00886 0.0165381,0.0106158 0.007684,0.00194 0.0110533,0.004333 0.015484,0.0110297 0.003114,0.00471 0.009894,0.0110329 0.015055,0.0140603 0.008945,0.005238 0.0138102,0.0138469 0.0138545,0.0245015 6.57e-6,0.001638 0.003696,0.006326 0.008201,0.0104218 0.004505,0.004096 0.011131,0.0130105 0.0147317,0.0198197 0.004914,0.00929 0.008115,0.0127886 0.0128349,0.0140215 0.003459,9.0339e-4 0.008741,0.003901 0.0117292,0.00666 0.0102386,0.009452 0.0353276,0.0406182 0.0391546,0.0486442 0.004537,0.009506 0.006456,0.006607 0.002856,-0.004311 z m 0.51097935,0.26263823 c -0.0134999,-0.00388 -0.0269437,-0.0206831 -0.03848,-0.0480881 -0.005723,-0.013584 -0.011326,-0.0280075 -0.0124609,-0.0320533 -0.00152,-0.005432 -0.002705,-0.006715 -0.004505,-0.004914 -0.004483,0.004483 -0.0145518,0.002899 -0.0170963,-0.002683 -0.001864,-0.004096 -0.00125,-0.007932 0.003083,-0.0190977 0.004979,-0.0128371 0.0102602,-0.0279708 0.0102602,-0.0293988 0,-3.2548e-4 -0.006628,-0.00125 -0.0147318,-0.002048 -0.0209643,-0.00207 -0.0298892,-0.004667 -0.0493598,-0.0143567 -0.020086,-0.009991 -0.0341065,-0.0111999 -0.0501714,-0.004311 -0.0154398,0.006617 -0.0355797,0.0100231 -0.03959,0.006704 -0.002867,-0.002371 -0.003287,-0.001196 -0.003287,0.009107 0,0.0149139 0.007825,0.0313775 0.0216919,0.0456232 0.00873,0.008967 0.0118908,0.0106589 0.0256644,0.013752 0.0177365,0.003977 0.0288093,0.004397 0.0399468,0.00153 0.004203,-0.001088 0.0113433,-0.002597 0.015872,-0.003373 0.005367,-9.1166e-4 0.0120384,-0.004775 0.0191699,-0.0111127 0.009225,-0.008201 0.0173388,-0.0123133 0.0173388,-0.008805 0,0.002123 -0.0224021,0.0229798 -0.0257765,0.0240036 -0.002026,6.1529e-4 -0.0127271,0.003114 -0.0237751,0.00554 -0.0186019,0.004096 -0.0212909,0.004193 -0.0363665,0.001315 -0.022595,-0.004322 -0.0320501,-0.009764 -0.0440573,-0.0253734 -0.0119846,-0.0155756 -0.0162535,-0.0279697 -0.0162535,-0.0471903 0,-0.0156037 0.002145,-0.0179769 0.0117615,-0.0129901 0.00512,0.002662 0.007867,0.002694 0.0184079,2.1448e-4 0.006812,-0.001595 0.0160412,-0.004441 0.0205042,-0.006316 0.004462,-0.001875 0.0107667,-0.003406 0.0140128,-0.003406 0.005292,0 0.003061,-0.002888 -0.0215453,-0.0279504 -0.0311588,-0.0317343 -0.0325103,-0.0344114 -0.0371101,-0.0735381 -0.00209,-0.0178076 -0.003793,-0.023801 -0.009215,-0.0325577 -0.0080076,-0.0129341 -0.008396,-0.0258897 -0.001369,-0.0458097 0.005733,-0.0162621 0.005733,-0.0299097 1.1e-5,-0.055961 -0.006144,-0.0279417 -0.005195,-0.05086758 0.002824,-0.06810183 0.003212,-0.0068976 0.007253,-0.01254929 0.008988,-0.01254929 0.001811,0 0.005766,0.0061643 0.009301,0.01448813 0.009247,0.02176303 0.0159614,0.02951204 0.0428729,0.04949448 0.0454993,0.0337842 0.0562542,0.0457353 0.0829112,0.0921292 0.0326245,0.05678 0.0459337,0.0845375 0.0470631,0.0981547 l 0.001038,0.0125223 0.003977,-0.012809 c 0.009301,-0.0299604 0.015498,-0.0549544 0.0171966,-0.0693919 9.9948e-4,-0.008493 0.003481,-0.0193165 0.005518,-0.0240532 0.003233,-0.007522 0.003331,-0.009732 7.9096e-4,-0.0174207 -0.001595,-0.00485 -0.002576,-0.010785 -0.002166,-0.0132002 0.001422,-0.008407 0.0147587,-0.0295163 0.018644,-0.0295163 0.003169,0 7.9095e-4,0.0120373 -0.004397,0.0222696 -0.004182,0.008245 -0.005357,0.0132024 -0.004462,0.0187431 7.6606e-4,0.00472 -3.6654e-4,0.0121214 -0.003039,0.0198316 -0.002338,0.006768 -0.005206,0.0196603 -0.006359,0.0286541 -0.001153,0.008999 -0.004107,0.0221542 -0.006564,0.0292447 -0.005777,0.0166921 -0.005615,0.0192949 0.001401,0.0225518 0.003201,0.001487 0.006003,0.002468 0.006219,0.002188 9.6508e-4,-0.001283 0.0188563,-0.0369971 0.0259565,-0.0518129 0.004311,-0.008999 0.0102602,-0.0202972 0.0132002,-0.0250997 0.002942,-0.004806 0.00707,-0.0144558 0.009172,-0.0214537 0.003362,-0.0111968 0.004861,-0.0132261 0.0124911,-0.0169142 0.0105404,-0.005098 0.0100339,-0.005087 0.0100339,-1.7659e-4 0,0.002209 -0.002285,0.005054 -0.005065,0.006326 -0.003265,0.001487 -0.006746,0.006693 -0.009786,0.0146369 -0.002597,0.006779 -0.007533,0.0164572 -0.0109779,0.0215032 -0.003438,0.005044 -0.0128489,0.0226014 -0.020903,0.0390102 -0.008051,0.0164087 -0.0170381,0.0324197 -0.0199663,0.0355786 -0.002931,0.003158 -0.005324,0.006725 -0.005324,0.007922 0,0.001196 -0.001552,0.005324 -0.003448,0.009161 l -0.003448,0.006984 0.005087,-0.005669 c 0.0213858,-0.0238344 0.069684,-0.0434354 0.10703011,-0.0434354 0.009473,0 0.0306728,0.001573 0.0471214,0.003503 0.0397312,0.004656 0.0676761,0.003276 0.0921076,-0.004537 0.0102063,-0.003266 0.0210603,-0.008299 0.0241276,-0.0111784 0.003072,-0.002888 0.006262,-0.005249 0.007091,-0.005249 0.003222,0 0.001315,0.008622 -0.002511,0.0113345 -0.004246,0.003007 -0.02247,0.0310855 -0.0309109,0.047631 -0.002749,0.005378 -0.00777,0.0180124 -0.0111719,0.0280689 -0.0112581,0.0333046 -0.0221909,0.0464876 -0.045648,0.0550406 -0.013765,0.005023 -0.0173669,0.009247 -0.0173669,0.0203695 0,0.006919 -0.009764,0.0160465 -0.0201388,0.0188401 -0.0194803,0.005249 -0.0490569,0.008869 -0.0617064,0.007555 -0.007199,-7.4547e-4 -0.0212995,-0.003826 -0.0313259,-0.006843 -0.0100231,-0.003017 -0.0186278,-0.005098 -0.0191128,-0.004613 -4.8477e-4,4.8499e-4 0.00209,0.00472 0.005712,0.00942 0.030788,0.0398141 0.0342735,0.0436445 0.0442168,0.0485957 0.0137661,0.006854 0.0135063,0.0113132 -0.001132,0.0194512 -0.006305,0.003503 -0.0173507,0.009991 -0.0245532,0.0144278 -0.021043,0.0129481 -0.0371339,0.0165596 -0.0531977,0.0119393 z m 0.035737,-0.011464 c 0.006003,-0.002867 0.0184177,-0.009538 0.0275904,-0.0148406 l 0.0166771,-0.009635 -0.009581,-0.005087 c -0.006478,-0.003438 -0.0117982,-0.008708 -0.0164087,-0.0162395 -0.003751,-0.006133 -0.0104542,-0.0151133 -0.0148816,-0.0199513 -0.00443,-0.004839 -0.0107861,-0.0138124 -0.0141228,-0.0199437 -0.005432,-0.00998 -0.007016,-0.0113002 -0.0150928,-0.0125913 -0.004968,-7.9375e-4 -0.0168991,-0.00527 -0.0265223,-0.009958 -0.009624,-0.004678 -0.0192163,-0.009021 -0.0213168,-0.009646 -0.002101,-6.2315e-4 -0.003815,-0.002252 -0.003815,-0.003632 0,-0.00402 0.0137413,-4.3002e-4 0.0300433,0.007846 0.008083,0.004107 0.0220648,0.00888 0.0310683,0.0106158 0.008999,0.001725 0.0217705,0.005313 0.0283728,0.007954 0.0171836,0.006887 0.0444679,0.008137 0.0702595,0.003212 0.028652,-0.005465 0.0366844,-0.0103895 0.0366844,-0.0224657 0,-0.007587 0.008309,-0.0152835 0.0202358,-0.0187528 0.008062,-0.002349 0.0140625,-0.006067 0.0204492,-0.0126905 0.0111526,-0.0115642 0.0148417,-0.0187507 0.0195019,-0.0379885 0.003815,-0.0157351 0.0111019,-0.0306038 0.0252409,-0.0514723 0.004634,-0.006833 0.008417,-0.0128824 0.008417,-0.0134342 0,-5.5246e-4 -0.00859,0.001411 -0.0190977,0.004354 -0.0168474,0.004731 -0.0223127,0.005249 -0.0463787,0.00443 -0.0150055,-5.0934e-4 -0.0411894,-0.00222 -0.0581887,-0.003804 -0.0431907,-0.00402 -0.062421,-0.001411 -0.089133,0.0121236 -0.0301328,0.0152643 -0.043568,0.0264102 -0.0500237,0.0414987 -5.3964e-4,0.001261 -0.001811,9.3338e-4 -0.003007,-7.791e-4 -0.001477,-0.002101 -0.002511,-0.002252 -0.003589,-5.0967e-4 -8.3321e-4,0.001347 -0.002382,0.001918 -0.003428,0.001272 -0.001053,-6.5117e-4 9.7865e-4,-0.00763 0.004516,-0.0155163 0.003535,-0.007878 0.006348,-0.0159604 0.006262,-0.0179488 -1.0777e-4,-0.002263 -5.8306e-4,-0.002597 -0.001272,-8.8785e-4 -6.0537e-4,0.001498 -0.002296,0.002727 -0.003762,0.002727 -0.001466,0 -0.00443,0.004914 -0.006585,0.0109133 -0.003686,0.0102386 -0.007674,0.0143308 -0.007986,0.00818 -7.631e-5,-0.001498 -0.001027,-5.1873e-4 -0.002112,0.002188 -0.002091,0.005195 -0.005324,0.006359 -0.007566,0.002727 -7.4182e-4,-0.001196 -3.0856e-4,-0.002188 9.6235e-4,-0.002188 0.003417,0 0.002824,-0.0198294 -9.189e-4,-0.0304313 -0.002867,-0.008115 -0.0169034,-0.0342575 -0.0487142,-0.0907002 -0.0191514,-0.0339848 -0.03632,-0.0523788 -0.076937,-0.0824361 -0.0261968,-0.0193855 -0.0331246,-0.0272207 -0.0419363,-0.04742527 l -0.005238,-0.01200393 -0.003567,0.0068542 c -0.008159,0.0156521 -0.008687,0.04089193 -0.001422,0.06792293 0.005615,0.0208889 0.005335,0.0329823 -0.001229,0.0535307 -0.002986,0.009344 -0.005432,0.0195019 -0.005432,0.0225616 0,0.003061 0.00347,0.0117755 0.007717,0.0193672 0.005065,0.009053 0.008126,0.017813 0.008891,0.0254543 6.4482e-4,0.006412 0.003104,0.0204901 0.005454,0.0312946 l 0.004278,0.019643 0.0269685,0.0275182 c 0.018977,0.0193639 0.0301101,0.0289494 0.0375714,0.0323464 0.011672,0.005313 0.013002,0.006057 0.020807,0.0115998 0.008277,0.005885 0.0585465,0.0161586 0.0585465,0.0119716 0,-0.001121 0.006003,-0.0144536 0.0133393,-0.0296381 0.0144213,-0.0298483 0.0200741,-0.0338273 0.007533,-0.005302 -0.004214,0.009592 -0.0102386,0.0256849 -0.0133878,0.0357618 -0.003147,0.010077 -0.008062,0.0250695 -0.0109327,0.0333176 -0.004947,0.0142176 -0.005184,0.0188337 -9.9585e-4,0.0188337 0.001015,0 0.004085,-0.005399 0.006822,-0.0120039 0.002738,-0.006607 0.005852,-0.0120039 0.006909,-0.0120039 0.001069,0 0.001283,0.005227 4.8025e-4,0.0116666 -0.001315,0.0105512 -4.783e-4,0.0141444 0.008816,0.037649 0.0129265,0.0327021 0.0166038,0.039826 0.0243226,0.0471245 0.01468,0.0138803 0.0311835,0.016344 0.0498523,0.007436 z m -0.0420559,-0.0295605 c -0.009991,-0.007243 -0.012573,-0.0153914 -0.004872,-0.0153914 0.00249,0 0.004365,0.001455 0.004365,0.003373 0,0.001854 0.002597,0.005615 0.005766,0.008342 0.009592,0.008256 0.005249,0.0112873 -0.00527,0.003675 z m 0.0213221,-0.0291003 c -0.005399,-0.005087 -0.0122766,-0.0108465 -0.0152781,-0.0128058 -0.007102,-0.004645 -0.003955,-0.007889 0.00374,-0.003858 0.007684,0.00402 0.0246287,0.020155 0.0246287,0.0234551 0,0.004322 -0.002878,0.002824 -0.0130958,-0.00679 z m 0.0545632,-0.0790485 c -0.003621,-0.004365 -0.001649,-0.00458 0.0201884,-0.002166 0.0173529,0.001918 0.0157599,0.005443 -0.002457,0.005443 -0.0106805,0 -0.0157944,-9.4425e-4 -0.0177279,-0.003276 z m 0.043651,0.001038 c 0,-0.002371 0.009085,-0.006498 0.0143287,-0.006498 0.005593,0 0.003309,0.00388 -0.00374,0.006337 -0.008535,0.002975 -0.0105835,0.003007 -0.0105835,1.594e-4 z m -0.0962181,-0.00443 c -0.004397,-0.002716 -0.002285,-0.003535 0.0124394,-0.004806 0.0117281,-0.001013 0.0212219,7.6789e-4 0.0182387,0.003417 -0.002199,0.001962 -0.0278803,0.003114 -0.0306781,0.00139 z m 0.0722102,-0.0216757 c -0.0400405,-0.002123 -0.0547065,-0.009872 -0.0514571,-0.0271916 0.001778,-0.009473 0.015331,-0.0248852 0.0262367,-0.0298385 0.0163128,-0.007404 0.0526534,-0.004688 0.0642704,0.004817 0.006909,0.005658 0.004861,0.007232 -0.003793,0.00291 -0.009096,-0.004537 -0.0361229,-0.006456 -0.0474748,-0.003373 -0.0184984,0.005023 -0.0333778,0.0205753 -0.0305337,0.0319078 0.002921,0.0116483 0.0223298,0.0160994 0.0719084,0.0164928 l 0.0329403,2.6158e-4 0.004968,-0.005777 c 0.005087,-0.005906 0.006693,-0.017299 0.00278,-0.0197153 -0.001196,-7.4203e-4 -0.002188,-0.002759 -0.002188,-0.004494 0,-0.005712 0.004375,-0.003276 0.008083,0.004494 0.003406,0.007135 0.003406,0.008148 -6.57e-6,0.0152932 -0.002004,0.004214 -0.006854,0.009603 -0.0107667,0.0119953 -0.00776,0.004731 -0.0136217,0.004936 -0.0649591,0.002209 z m -0.17852083,-0.006617 c -0.003955,-0.002414 -0.0119942,-0.00818 -0.0178605,-0.0128166 -0.005863,-0.004634 -0.014167,-0.009085 -0.0184489,-0.009894 -0.004872,-9.1528e-4 -0.007781,-0.002705 -0.007781,-0.004786 0,-0.006316 0.0194501,0.00194 0.0356379,0.0151251 0.006639,0.005399 0.0140991,0.0104757 0.0165866,0.0112625 0.004915,0.001563 0.006208,0.005507 0.001789,0.005496 -0.001498,-4.32e-6 -0.005971,-0.001983 -0.009926,-0.004397 z m -0.071376,-0.0618154 c -0.0129006,-0.008988 -0.0220938,-0.0173129 -0.0267831,-0.0242493 -0.003923,-0.005809 -0.006661,-0.0110469 -0.006068,-0.0116397 5.9276e-4,-5.9254e-4 0.00555,0.003891 0.0110082,0.009969 0.005465,0.006078 0.0182571,0.0167008 0.0284332,0.0236135 0.0101739,0.006909 0.0185028,0.0133739 0.0185028,0.0143578 0,0.004041 -0.006467,9.361e-4 -0.0250997,-0.0120492 z m 0.0338294,-0.0183864 c -0.0108012,-0.0108012 -0.0192831,-0.0369064 -0.0211314,-0.0650302 -0.001229,-0.018645 -0.001,-0.0202854 0.003072,-0.0224635 0.005551,-0.002975 0.007954,-8.1898e-4 0.003772,0.003373 -0.006898,0.006898 -0.00222,0.0336818 0.0109079,0.0624878 0.006089,0.0133576 0.008741,0.016925 0.01346,0.0181094 0.008967,0.002252 0.0123865,-0.003793 0.0110426,-0.0194803 -0.001401,-0.0163009 -0.0103571,-0.0346152 -0.0228763,-0.0467894 -0.0101739,-0.009894 -0.0110631,-0.014652 -0.001573,-0.008428 0.00942,0.006175 0.0249682,0.0279719 0.0284267,0.0398573 0.003793,0.0130192 0.004268,0.0297394 0.001026,0.0357963 -0.002015,0.003762 -0.0127282,0.0107915 -0.0164529,0.0107915 -8.012e-4,0 -0.005151,-0.003696 -0.009667,-0.008212 z m -0.00873,0.15874291 c 0,-0.001239 0.001229,-0.002673 0.002727,-0.003201 0.0244961,-0.008515 0.0273565,-0.0100662 0.0262582,-0.0142661 -0.001336,-0.00513 0.001358,-0.005507 0.007157,-0.001009 0.004127,0.003201 0.004074,0.003417 -0.002101,0.008535 -0.003492,0.002888 -0.0119015,0.006812 -0.0186946,0.008719 -0.0145798,0.004096 -0.0153396,0.004149 -0.0153396,0.001218 z m -0.0103787,-0.0244508 c 0.00102,-0.003061 0.009118,-0.005378 0.0222868,-0.006381 0.0106374,-8.0832e-4 0.0143998,0.002414 0.005551,0.004742 -0.0122065,0.003222 -0.0286918,0.004193 -0.0278393,0.001639 z M -0.29882573,0.01425972 c -0.006305,-0.0016921 -0.0151402,-0.0049249 -0.019643,-0.0071674 -0.004505,-0.0022416 -0.016482,-0.006789896 -0.0266225,-0.01010928 -0.021195,-0.00693 -0.0322592,-0.0132466 -0.045536,-0.0259813 -0.0136034,-0.0130494 -0.0180556,-0.0214386 -0.0201669,-0.0379971 -0.001029,-0.008072 -0.004375,-0.0207973 -0.007425,-0.0282758 -0.003061,-0.00748 -0.005561,-0.0168086 -0.005551,-0.0207338 2.05e-6,-0.008094 0.00818,-0.0264027 0.0214913,-0.0480977 0.00499,-0.008126 0.009064,-0.0151251 0.009064,-0.0155584 0,-4.3346e-4 -0.004408,1.5211e-4 -0.009797,0.001304 -0.0131529,0.002802 -0.0366909,-9.877e-4 -0.0572715,-0.009225 -0.0312235,-0.0125018 -0.0915633,-0.0479016 -0.0973239,-0.0570969 -0.001918,-0.003061 -0.003621,-0.0134256 -0.004333,-0.0263487 -0.001056,-0.0192314 -0.001918,-0.0226553 -0.008924,-0.035167 -0.005023,-0.008978 -0.009764,-0.0224474 -0.013461,-0.0382105 -0.003793,-0.0162018 -0.009333,-0.0317666 -0.0165499,-0.0465167 -0.008838,-0.018076 -0.0114597,-0.0262259 -0.0141972,-0.0441543 -0.001843,-0.0120934 -0.006208,-0.0375617 -0.0097,-0.0565958 -0.007221,-0.0394057 -0.007663,-0.0516446 -0.003083,-0.0866606 0.007491,-0.0573017 0.0104218,-0.0622907 0.0275096,-0.0468498 0.004613,0.004171 0.0145518,0.0106804 0.0220895,0.014485 0.0581219,0.0293051 0.0860442,0.0664799 0.14080374,0.18746385 0.0232341,0.0513332 0.0485666,0.10067247 0.0509366,0.0992078 0.003665,-0.002263 0.002134,-0.00679 -0.006704,-0.019796 l -0.00873,-0.0128446 0.001401,-0.0200214 0.001401,-0.0200214 -0.0100015,-0.0203554 c -0.006381,-0.0129793 -0.0123187,-0.029845 -0.016399,-0.0465458 -0.003524,-0.0144052 -0.0105296,-0.0367447 -0.0155714,-0.0496432 -0.005044,-0.0128996 -0.008838,-0.0251762 -0.008439,-0.0272821 0.001272,-0.006617 0.006854,-0.004203 0.008816,0.003804 0.001026,0.004203 0.005184,0.0184424 0.009236,0.031647 0.004052,0.0132046 0.008891,0.0322085 0.0107452,0.0422305 0.002393,0.0129287 0.006693,0.024896 0.0147878,0.0411948 0.0112344,0.0226058 0.0114123,0.0232718 0.0111665,0.0417973 -2.3451e-4,0.0176998 2.1566e-4,0.0196721 0.007533,0.0330115 0.009516,0.0173496 0.008352,0.016038 0.0122713,0.0138405 0.002856,-0.001606 0.002716,-0.003362 -0.001164,-0.0138405 -0.007404,-0.0200332 -0.008201,-0.0271485 -0.0102279,-0.0916668 -0.001864,-0.0591899 -0.002242,-0.0629954 -0.00777,-0.078571 -0.0100877,-0.0284515 -0.009915,-0.0273209 -0.005432,-0.0346981 0.002263,-0.003718 0.005012,-0.006768 0.0061,-0.006768 0.003707,0 0.004311,0.006036 0.001066,0.0106698 -0.001778,0.002543 -0.002652,0.005561 -0.00194,0.006715 7.1206e-4,0.001153 0.003298,0.0107236 0.005755,0.0212759 0.003514,0.0151068 0.005033,0.0335536 0.007135,0.0868406 0.00249,0.0629761 0.003007,0.0683077 0.007566,0.0770353 0.002683,0.005151 0.005098,0.0122647 0.005346,0.0157944 2.4734e-4,0.003524 0.001767,0.00693 0.003373,0.007544 0.002242,8.6523e-4 0.00263,-7.6901e-4 0.00167,-0.00707 -0.003104,-0.0204071 -0.006164,-0.0914286 -0.004958,-0.11513459 0.002597,-0.0512168 0.0174337,-0.12268039 0.0342433,-0.16493255 0.0188401,-0.0473563 0.0316847,-0.0675759 0.0772304,-0.1215754 0.0303451,-0.0359774 0.0566615,-0.0603647 0.0691926,-0.0641196 0.0206906,-0.006197 0.0383097,0.007146 0.0496594,0.0376264 0.0114511,0.0307492 0.017646,0.0413112 0.0285883,0.0487379 0.0163301,0.0110836 0.0253325,0.0212651 0.0300638,0.0340051 0.002457,0.006607 0.008988,0.0355754 0.0145259,0.0643847 0.0144677,0.0752807 0.0174099,0.0864042 0.02907011,0.10989484 0.0094842,0.0190998 0.01045415,0.0224786 0.01045415,0.0363352 0,0.0139698 -9.0132e-4,0.0170327 -0.01052959,0.0357834 -0.0130149,0.0253497 -0.05233332,0.0887009 -0.06901039,0.11119421 -0.0148201,0.0199879 -0.0351303,0.0385737 -0.0545287,0.0499008 l -0.014182,0.008277 0.0210269,0.00138 c 0.0359871,0.00236 0.0497931,0.007005 0.0741868,0.0249617 0.007469,0.005496 0.0185082,0.0112118 0.0254683,0.0131841 0.02028322,0.005744 0.02990967,0.0124534 0.03426916,0.02387 0.0035889,0.009398 0.0035996,0.0117712 1.9356e-4,0.0425376 -0.001983,0.0179187 -0.0054318,0.0373613 -0.007652,0.0432048 -0.01418532,0.0373321 -0.05974498,0.0785991 -0.09492376,0.0859774 -0.009894,0.00207 -0.0144472,0.002015 -0.022733,-3.0907e-4 -0.0139859,-0.003923 -0.0274848,-0.00623 -0.0426044,-0.007296 -0.0120966,-8.5379e-4 -0.0126442,-6.6462e-4 -0.0137305,0.004753 -0.005184,0.0258336 -0.027419,0.04372641 -0.063863,0.0513924 -0.0188757,0.0039662 -0.0199459,0.0039662 -0.0347563,-1.797e-5 z m 0.0526297,-0.0124986 c 0.024674,-0.009387 0.0358793,-0.0207316 0.0397926,-0.0402981 0.001186,-0.005906 6.4912e-4,-0.006498 -0.008201,-0.00915 -0.0232934,-0.006962 -0.0433492,-0.0214838 -0.0534219,-0.0386718 -0.003039,-0.005173 -0.0118078,-0.0144202 -0.0194965,-0.0205387 -0.0265126,-0.0210969 -0.0434074,-0.0447632 -0.0576379,-0.0807417 l -0.0100554,-0.0254252 -0.0168345,0.0180512 c -0.0112247,0.0120363 -0.0212834,0.0259274 -0.0301856,0.0416873 -0.0166738,0.0295174 -0.0183929,0.0398174 -0.009786,0.0586166 0.003136,0.006865 0.005712,0.0161576 0.005712,0.0206637 0,0.0197648 0.0128694,0.0396751 0.0337518,0.0522169 0.0134417,0.008073 0.0638038,0.02734786 0.0797405,0.03051748 0.0134859,0.0026834 0.0264102,7.6195e-4 0.0466288,-0.0069302 z m -0.0590671,-0.008849 c -0.008794,-0.003222 -0.0214396,-0.0157868 -0.0180242,-0.0178982 0.001347,-8.3033e-4 0.005065,9.4063e-4 0.008267,0.003934 0.003201,0.002996 0.009021,0.00706 0.0129179,0.009021 0.003901,0.001973 0.007091,0.004537 0.007091,0.005702 0,0.002608 -0.001347,0.0025 -0.0102602,-7.6835e-4 z m 0.0226219,0.001433 c -0.003244,-0.003244 -0.001059,-0.005087 0.006003,-0.005087 0.008212,0 0.0244638,-0.006294 0.0342735,-0.0132832 0.00347,-0.002468 0.008018,-0.004149 0.01012,-0.00374 0.003265,6.4956e-4 0.002953,0.001617 -0.002199,0.006812 -0.008309,0.008374 -0.0271528,0.0167126 -0.0378279,0.0167385 -0.004904,1.098e-5 -0.00957,-6.334e-4 -0.0103679,-0.001433 z m -0.0822095,-0.0155476 c -0.005399,-0.003438 -0.0111213,-0.007846 -0.0127088,-0.009775 -0.001584,-0.001929 -0.004289,-0.002975 -0.006003,-0.002317 -0.001897,7.2949e-4 -0.003114,-1.711e-4 -0.003114,-0.002317 0,-0.004979 0.009096,-0.004472 0.0159216,8.961e-4 0.009021,0.007091 0.0238096,0.0129578 0.0328217,0.0130084 0.0133166,7.635e-5 0.008762,0.005388 -0.00527,0.006133 -0.009926,5.2933e-4 -0.0134147,-3.7844e-4 -0.021653,-0.005626 z m 0.0168,-0.0610232 c -0.002554,-0.004559 -0.003557,-0.013641 -0.001509,-0.013641 0.002156,0 0.006531,0.008859 0.006531,0.0132369 0,0.002435 -0.003718,0.002738 -0.005022,4.041e-4 z m -0.008428,-0.0518278 c -9.2433e-4,-9.2433e-4 0.001918,-0.0181374 0.005874,-0.035473 6.1475e-4,-0.002705 0.002608,-0.004915 0.00443,-0.004915 0.002597,0 0.002824,9.1075e-4 0.001049,0.004225 -0.001239,0.002317 -0.002263,0.006693 -0.002263,0.00971 0,0.003017 -0.001064,0.0104541 -0.00236,0.0165122 -0.002177,0.0101631 -0.003923,0.0127368 -0.006725,0.009937 z m 0.25363407,0.0843661 c 0.007749,-0.003772 0.0187042,-0.0102708 0.0243516,-0.0144578 0.0151919,-0.0112592 0.04035306,-0.0417918 0.04531177,-0.0549857 0.005712,-0.0151952 0.01165477,-0.057194 0.01055116,-0.0745446 -0.0011101,-0.0174251 -0.0057013,-0.0221575 -0.0279514,-0.0287824 -0.008687,-0.002587 -0.0212845,-0.008676 -0.0292716,-0.0141411 -0.0285539,-0.0195482 -0.0449281,-0.0246535 -0.0820932,-0.0255933 -0.0204018,-5.1576e-4 -0.0243614,3.704e-5 -0.0370315,0.005173 -0.007803,0.003158 -0.0193316,0.006348 -0.0256202,0.00707 -0.006294,7.2916e-4 -0.0179456,0.003783 -0.0259048,0.006768 -0.0120578,0.004537 -0.0182797,0.005443 -0.0373095,0.005443 -0.0172968,0 -0.0226198,-6.6204e-4 -0.0219376,-0.002727 6.0213e-4,-0.001822 0.008083,-0.003136 0.022553,-0.003944 0.0153611,-8.6186e-4 0.0265859,-0.002921 0.038634,-0.007091 0.009344,-0.003233 0.0203673,-0.005874 0.0245037,-0.005874 0.0166921,0 0.0540232,-0.0181978 0.08051,-0.0392462 0.0215323,-0.0171114 0.0304399,-0.0285086 0.0564449,-0.0722275 0.0124415,-0.0209169 0.0278135,-0.0462752 0.0341582,-0.0563522 0.02333972,-0.0370649 0.02548444,-0.0502446 0.01240272,-0.0762216 -0.0098291,-0.0195158 -0.01473712,-0.0376026 -0.02306812,-0.0849988 -0.009484,-0.0539251 -0.0170651,-0.0886265 -0.0217069,-0.0992919 -0.004408,-0.01012 -0.0110329,-0.0169206 -0.0268521,-0.0275612 -0.011672,-0.007846 -0.0183907,-0.0182775 -0.0265212,-0.0411571 -0.0109693,-0.0308699 -0.0200579,-0.0426109 -0.0351799,-0.0454476 -0.0163613,-0.003072 -0.0340526,0.011602 -0.0830771,0.0688929 -0.0293245,0.0342691 -0.0415601,0.0515972 -0.0552378,0.0782273 -0.019504,0.0379744 -0.032187,0.0794484 -0.0431617,0.14113606 -0.005173,0.0290507 -0.00583,0.0383495 -0.005885,0.0829187 -7.07e-5,0.0542259 0.002759,0.0940551 0.009614,0.1353042 0.004322,0.0260158 0.004408,0.0262399 0.01432,0.0362996 0.0126851,0.0128791 0.008902,0.0163365 -0.00443,0.004041 -0.0103464,-0.009538 -0.0116925,-0.0132111 -0.0164723,-0.0449001 -0.004268,-0.0283038 -0.004472,-0.0289688 -0.009031,-0.0304173 -0.004494,-0.001422 -0.012323,0.005023 -0.0172224,0.0141767 -0.005906,0.0110254 6.1981e-4,0.0255686 0.0184877,0.0412368 0.008062,0.00707 0.008342,0.007792 0.0079,0.0201269 -3.8066e-4,0.0105512 0.001088,0.0166437 0.008385,0.0347251 0.004861,0.0120621 0.008838,0.0229097 0.008838,0.0241049 0,0.008234 0.0291994,0.0609316 0.032133,0.057998 0.001606,-0.001606 -0.007846,-0.0336484 -0.0146466,-0.0496346 -0.005593,-0.0131356 -0.0183164,-0.0366316 -0.0279223,-0.0515487 -0.001962,-0.003039 -0.002263,-0.004914 -7.9505e-4,-0.004914 0.003524,0 0.0234874,0.0305693 0.0332431,0.0509193 0.004699,0.009808 0.0104973,0.0261795 0.0128877,0.0363826 0.004138,0.0177139 0.004279,0.0179607 0.00305,0.005475 -0.00152,-0.0154193 -0.008902,-0.0418199 -0.018298,-0.0654797 -0.00735,-0.0185157 -0.007738,-0.0270709 -5.8899e-4,-0.013114 0.0122324,0.0238764 0.0224625,0.0562412 0.0255254,0.0807546 0.003384,0.0270925 0.003438,0.0272314 0.0121117,0.0327075 0.004678,0.002953 0.0127659,0.01199 0.0186472,0.0208372 0.0193704,0.0291369 0.0441995,0.0416474 0.0891125,0.0449012 0.0109823,7.9562e-4 0.0224226,0.002813 0.025423,0.004483 0.009182,0.005109 0.0316309,0.002554 0.0481182,-0.005465 z m -0.0983469,-0.0152133 c -0.006919,-0.005615 -0.004914,-0.007695 0.004322,-0.004473 0.009236,0.003222 0.0254359,-2.7876e-4 0.0366834,-0.007921 0.011311,-0.007684 0.0149203,-0.007027 0.0200871,0.003665 0.005141,0.0106374 0.005109,0.010508 0.002134,0.010508 -0.001261,0 -0.004623,-0.002522 -0.007469,-0.005594 l -0.005184,-0.005594 -0.00915,0.006057 c -0.0124092,0.008212 -0.0333326,0.009915 -0.0414092,0.003363 z m 0.0776226,-2.2756e-4 c -7.4052e-4,-0.001196 0.001617,-0.003707 0.005238,-0.005583 0.009829,-0.005087 0.0217382,-0.0162072 0.0279967,-0.0261505 0.006952,-0.0110502 0.0184985,-0.0250997 0.0206658,-0.0251525 0.007674,-1.8446e-4 -0.0172364,0.0369172 -0.0322258,0.0479964 -0.0123014,0.009096 -0.019684,0.0121204 -0.02168,0.008891 z m -0.00888,-0.0407777 c -0.001175,-3.0627e-4 -0.0117205,-0.001207 -0.0234237,-0.002015 -0.0162104,-0.00111 -0.0212801,-0.002188 -0.0212801,-0.004537 0,-0.0025 0.002404,-0.002769 0.0125493,-0.001433 0.006898,9.1076e-4 0.022568,0.001659 0.0348123,0.001659 0.0122443,0 0.0215345,7.2804e-4 0.0206442,0.001617 -0.001854,0.001854 -0.0200913,0.00554 -0.023302,0.004709 z m -0.0927198,-0.009721 c -0.0177419,-0.004591 -0.0431218,-0.0162902 -0.0532893,-0.0245597 -0.009937,-0.008083 -0.003428,-0.008557 0.008633,-6.3261e-4 0.0122076,0.008029 0.028195,0.0147555 0.0488953,0.0205828 0.007728,0.002177 0.0144439,0.005109 0.0149139,0.00652 0.001077,0.003244 5.7186e-4,0.00319 -0.0191516,-0.001908 z m 0.15932527,-0.0203662 c 0,-0.001659 0.001875,-0.003514 0.00416,-0.004107 0.002296,-5.9894e-4 0.006919,-0.005259 0.0102925,-0.0103464 0.0048067,-0.007264 0.0061216,-0.0117852 0.0061216,-0.0209913 0,-0.0116182 0.0017244,-0.0149548 0.0042894,-0.008288 0.0045373,0.011825 -5.2983e-4,0.0289505 -0.0123801,0.041835 -0.005011,0.005454 -0.0124857,0.006585 -0.0124857,0.001897 z m -0.0523807,-0.0189123 c -0.0142209,-0.001725 -0.0334231,-0.008805 -0.0362457,-0.0133673 -0.001628,-0.00263 4.1482e-4,-0.002285 0.0208975,0.003535 0.006564,0.001864 0.0154031,0.003395 0.019643,0.003406 0.009861,1.571e-5 0.024078,0.003934 0.024078,0.006639 0,0.002349 -0.007695,0.002296 -0.0283728,-2.087e-4 z m -0.070932,-0.0253314 c -0.002404,-5.0777e-4 -0.006617,-0.001401 -0.009366,-0.001994 -0.00583,-0.00125 -0.004375,-0.005313 0.001886,-0.005313 0.006046,0 0.0216616,0.005109 0.0216616,0.007081 0,0.001714 -0.006639,0.001822 -0.0141864,2.2172e-4 z m -0.0687507,-0.007059 c 0,-0.004817 0.0308128,-0.0127476 0.0391934,-0.0100877 0.007663,0.002435 0.004872,0.005485 -0.005023,0.005485 -0.005206,0 -0.0142963,0.001466 -0.0201884,0.003255 -0.0125579,0.003804 -0.0139881,0.003944 -0.0139881,0.001347 z m 0.16751001,-0.0018 c -0.003427,-5.1991e-4 -0.006003,-0.002296 -0.006003,-0.004138 0,-0.002522 0.001789,-0.002921 0.00818,-0.001843 0.0124157,0.002091 0.0158235,0.003287 0.0158235,0.005507 0,0.002026 -0.006596,0.002199 -0.0180059,4.7309e-4 z m -0.0707024,-0.024729 c -0.0357101,-0.006219 -0.0466094,-0.008805 -0.0466094,-0.0110415 0,-0.002435 0.0111493,-0.001164 0.0477,0.005454 0.0139783,0.002533 0.025243,0.005561 0.0250329,0.006726 -5.6291e-4,0.003136 -0.00194,0.003072 -0.0261235,-0.001143 z m -0.17620787,-0.0518538 c -0.002015,-0.003255 0.0144655,-0.0266548 0.0273015,-0.0387558 0.006445,-0.006078 0.0215464,-0.0195169 0.0335503,-0.0298601 0.0243453,-0.0209773 0.0565635,-0.0533151 0.084267,-0.0845817 0.0221327,-0.024979 0.0315964,-0.0378021 0.0422822,-0.057292 0.008546,-0.0155918 0.0152512,-0.020849 0.007695,-0.006036 -0.0213039,0.0417584 -0.0836926,0.11302324 -0.14629713,0.16710907 -0.0125763,0.0108659 -0.0277768,0.0262798 -0.0337788,0.0342552 -0.0131582,0.0174832 -0.013419,0.0177473 -0.0150184,0.0151596 z m 0.0488479,-0.022984 c 0,-0.001864 0.002349,-0.004667 0.005227,-0.00624 0.006305,-0.003438 0.0526157,-0.0354838 0.0842562,-0.0583105 0.0406612,-0.0293363 0.0639697,-0.0550352 0.10409432,-0.11477516 0.0162352,-0.0241717 0.0181277,-0.0277779 0.0181277,-0.034544 0,-0.005971 0.005518,-0.009473 0.007361,-0.004667 0.002102,0.005475 -0.003072,0.0157643 -0.0201205,0.0400168 -0.009193,0.0130774 -0.0228547,0.0325717 -0.0303634,0.0433201 -0.0147824,0.0211594 -0.0428426,0.0501811 -0.066995,0.0692884 -0.0165693,0.0131087 -0.0929677,0.0659819 -0.0982906,0.0680253 -0.00207,7.9585e-4 -0.003298,6.57e-6 -0.003298,-0.002123 z m 0.0960317,-0.0163203 c 0,-9.7956e-4 0.005216,-0.003944 0.0115793,-0.006585 0.006909,-0.002867 0.0197443,-0.0119156 0.0318065,-0.0224312 0.0111245,-0.0097 0.0208911,-0.0169411 0.0217037,-0.0160973 0.002641,0.002738 -0.0326935,0.0336237 -0.0461556,0.0403509 -0.0131894,0.006585 -0.018935,0.008029 -0.018935,0.004753 z m -0.12580201,-0.0245306 c 0.005454,-0.006067 0.0161048,-0.0214192 0.0236641,-0.0341129 0.007555,-0.0126937 0.0228137,-0.0339534 0.0338984,-0.0472431 0.0353728,-0.0424105 0.059774,-0.0795313 0.085238,-0.12967395 0.0120729,-0.023773 0.0177581,-0.0309249 0.0147522,-0.018561 -0.002996,0.012324 -0.0296262,0.0636863 -0.044456,0.0857392 -0.008449,0.0125633 -0.0259877,0.0351788 -0.0389778,0.0502576 -0.030219,0.0350786 -0.0325382,0.0381922 -0.0487875,0.0654883 -0.0139407,0.0234206 -0.0268823,0.0391406 -0.0322215,0.0391406 -0.001681,0 0.001391,-0.004914 0.006887,-0.011034 z m 0.22720068,-0.0604444 c 8.1143e-4,-0.003298 0.007824,-0.0198887 0.0155788,-0.0368623 0.01985,-0.0434333 0.0206066,-0.0482982 0.012171,-0.0782671 -0.009603,-0.0341236 -0.0231263,-0.0725292 -0.0296165,-0.0841215 -0.004473,-0.007975 -0.006208,-0.015858 -0.008913,-0.0403768 -0.003826,-0.0346313 -0.007771,-0.0451156 -0.0238926,-0.0634611 -0.0102171,-0.0116332 -0.0111967,-0.0169185 -0.001757,-0.009484 0.008902,0.007005 0.0219656,0.0259835 0.0268661,0.0390382 0.003158,0.008417 0.005055,0.0202789 0.006132,0.0383711 0.001142,0.0192033 0.002576,0.0277262 0.005356,0.0319445 0.005141,0.007792 0.0224711,0.0562143 0.0333078,0.0930625 0.00679,0.0231026 0.006229,0.0291014 -0.005486,0.0579829 -0.016468,0.0406074 -0.0348145,0.0727858 -0.0297491,0.0521781 z m -0.20932785,-8.8151e-4 c 0.001595,-0.002727 0.0213599,-0.0287263 0.0253842,-0.0333844 0.001132,-0.001304 0.002533,-0.001304 0.003804,0 0.002576,0.002652 -0.0216401,0.0345203 -0.0270224,0.0355667 -0.002749,5.345e-4 -0.003384,-1.0441e-4 -0.002166,-0.002188 z m 0.17847363,-0.0822979 c 0.001703,-0.008504 0.0124447,-0.0308581 0.0148298,-0.0308581 0.003072,0 0.002285,0.003848 -0.003233,0.0159636 -0.002835,0.00623 -0.005852,0.0135279 -0.006693,0.0162287 -0.002274,0.007243 -0.006402,0.006122 -0.004904,-0.001336 z m -0.12292572,-0.007825 c 0,-5.3831e-4 0.002597,-0.003729 0.005766,-0.007091 0.0162675,-0.0172343 0.0534887,-0.0815327 0.0651315,-0.11251323 0.004193,-0.0111482 0.009129,-0.0143826 0.00666,-0.004365 -0.006693,0.0272035 -0.042876,0.0938126 -0.0625827,0.1151922 -0.007555,0.008201 -0.0149861,0.0125515 -0.0149861,0.008783 z m -0.0448904,-0.0388528 c 5.6463e-4,-0.002705 0.00263,-0.0132584 0.00458,-0.0234626 0.006607,-0.0344535 0.0140571,-0.051358 0.0440648,-0.0999752 0.0282133,-0.0457095 0.0379605,-0.0702638 0.0303871,-0.0765492 -0.005992,-0.004968 -0.0161781,-6.5668e-4 -0.0294893,0.0124954 -0.0136389,0.0134762 -0.0223019,0.0269071 -0.0265643,0.0411894 -0.001509,0.005065 -0.003524,0.008719 -0.004472,0.008137 -0.002986,-0.001843 0.004559,-0.0233893 0.0123499,-0.0352984 0.0173129,-0.0264598 0.0344761,-0.0380531 0.0488953,-0.0330265 0.0181482,0.006326 0.0110911,0.0303278 -0.0245684,0.0835535 -0.0277046,0.0413532 -0.0437835,0.0793934 -0.0505788,0.11966141 -7.5949e-4,0.004505 -0.002338,0.00818 -0.003503,0.00818 -0.001175,0 -0.001659,-0.002209 -0.001099,-0.004914 z m 0.0885414,-0.067966 c 0,-4.6904e-4 0.00194,-0.00513 0.004322,-0.0103679 0.006164,-0.013584 0.005819,-0.0193359 -0.001153,-0.0193359 -0.007005,0 -0.017508,0.005324 -0.0192012,0.009743 -0.001153,0.002996 -0.007975,0.004947 -0.007975,0.002274 0,-0.003061 0.0107128,-0.0129685 0.0168441,-0.0155789 0.0214709,-0.009139 0.0290453,0.0061 0.0145162,0.0292027 -0.00263,0.004182 -0.00735,0.00679 -0.00735,0.004063 z m 0.0514473,-0.12846264 c -0.001595,-0.003901 -0.003589,-0.0120039 -0.004441,-0.0180059 -0.002673,-0.0187722 -0.0197907,-0.045287 -0.0320576,-0.0496476 -0.001617,-5.7464e-4 -0.002231,-0.0018 -0.001369,-0.002727 0.002856,-0.003072 0.0148309,0.003718 0.0230681,0.0130806 0.0130321,0.014805 0.0177214,0.0263574 0.0189047,0.0465641 5.7412e-4,0.009808 5.3844e-4,0.0178313 -7.975e-5,0.0178313 -6.1765e-4,0 -0.002425,-0.00319 -0.00402,-0.007091 z m -0.24206746,0.5288615 c 0.0110534,-0.005023 0.0258853,-0.0194415 0.0297609,-0.0289397 0.00236,-0.005777 0.002338,-0.008902 -8.871e-5,-0.0180167 -0.001617,-0.006067 -0.002619,-0.0147663 -0.002231,-0.019338 6.4913e-4,-0.007544 -5.5148e-4,-0.009721 -0.0129631,-0.0234982 -0.0147931,-0.0164249 -0.0171933,-0.0218589 -0.0149462,-0.0338359 0.001196,-0.006402 3.0296e-4,-0.009581 -0.005098,-0.0179919 -0.007943,-0.0123865 -0.0360173,-0.0702768 -0.0578385,-0.11928335 -0.0389477,-0.0874711 -0.0698144,-0.12669006 -0.12100355,-0.15374824 -0.0236588,-0.0125062 -0.0220885,-0.0127681 -0.0314056,0.005238 -0.006467,0.0124911 -0.005744,0.0314261 0.002382,0.063336 0.009775,0.0383258 0.0111342,0.0453549 0.0133931,0.069061 0.001315,0.0138167 0.003621,0.0245694 0.006467,0.0301403 0.002975,0.005841 0.004419,0.0129147 0.004419,0.0217123 0,0.0123414 6.0526e-4,0.0138415 0.0111223,0.0275634 0.0131356,0.0171373 0.0193121,0.0300314 0.0271539,0.056682 0.005302,0.0180135 0.00568,0.0218341 0.004548,0.0460619 -6.8114e-4,0.0146003 -2.9303e-4,0.0296952 8.6759e-4,0.0337411 0.001272,0.004441 0.001315,0.008115 9.732e-5,0.009323 -0.003966,0.003966 -0.006596,-0.0154312 -0.006175,-0.0455608 3.9327e-4,-0.0281486 -4.085e-5,-0.0318862 -0.005691,-0.0490235 -0.007296,-0.0221154 -0.0136066,-0.0335449 -0.0266042,-0.0481786 -0.005324,-0.005992 -0.009721,-0.0120902 -0.009775,-0.0135505 -5.8781e-4,-0.0159819 -0.00249,-0.0294527 -0.005346,-0.0378559 -0.001897,-0.005593 -0.004397,-0.0201 -0.005551,-0.032229 -0.001283,-0.0135344 -0.00596,-0.0362835 -0.0120977,-0.058886 -0.0134363,-0.0494687 -0.0132283,-0.0660078 0.001057,-0.0840439 l 0.006617,-0.008352 -0.005507,-0.005173 c -0.006909,-0.006488 -0.008482,-0.00443 -0.0117776,0.0153924 -0.009258,0.0556743 -0.00929,0.0758713 -1.9938e-4,0.11899408 0.002533,0.0119975 0.006025,0.0326751 0.00776,0.0459498 0.002759,0.0210085 0.004591,0.0271237 0.0141811,0.0471989 0.006488,0.0135872 0.0136572,0.0333736 0.0174434,0.0481592 0.00402,0.0156845 0.00901,0.0292511 0.0133156,0.0361778 0.006133,0.009861 0.00707,0.0136055 0.008557,0.0340957 0.002317,0.031966 0.001552,0.0310543 0.0469349,0.0564675 0.0602235,0.033725 0.094373,0.0430291 0.11821003,0.0322064 z m -0.0584775,-0.0359515 c -0.0218998,-0.0108755 -0.036443,-0.0247624 -0.0300628,-0.0287058 0.001088,-6.7225e-4 0.001983,-1.3539e-4 0.001983,0.001196 0,0.004451 0.0118552,0.0135128 0.0289192,0.0221079 0.009301,0.004689 0.0169142,0.008999 0.0169142,0.009592 0,0.002457 -0.00832,5.0058e-4 -0.0177484,-0.004182 z m 0.0326439,-0.0332572 c -0.0262109,-0.0137284 -0.0566615,-0.0366359 -0.0617302,-0.046438 -0.003654,-0.00707 -0.004527,-0.0176341 -0.001455,-0.0176341 0.00105,0 0.002457,0.002727 0.003125,0.006057 0.002597,0.0129901 0.0215161,0.028722 0.0570086,0.0474069 0.0213318,0.0112301 0.0361747,0.0201992 0.0361747,0.0218578 0,0.003707 -0.0129707,-6.9908e-4 -0.0331203,-0.0112528 z m -0.0264436,-0.0908089 c -0.0171599,-0.0359407 -0.0357339,-0.0683163 -0.060355,-0.10520118 -0.023732,-0.0355539 -0.035653,-0.0559006 -0.0337863,-0.0576703 7.9117e-4,-7.5039e-4 0.002554,4.5602e-4 0.003912,0.002683 0.001358,0.00222 0.011311,0.0172548 0.0221154,0.0334005 0.03848,0.0575065 0.0472829,0.0721424 0.0654269,0.10878491 0.0194382,0.0392548 0.0225087,0.0469252 0.0187873,0.0469252 -0.001261,0 -0.008504,-0.0130138 -0.0160983,-0.0289181 z m -0.0234022,-0.006067 c -0.003675,-0.008869 -0.001186,-0.0107947 0.003147,-0.002425 0.003944,0.00763 0.004182,0.009042 0.00152,0.009042 -0.001055,0 -0.003147,-0.002975 -0.004656,-0.006617 z M -0.56351308,-0.481196 c -0.0195353,-0.0227869 -0.0262917,-0.0352144 -0.0277218,-0.0509904 -0.001025,-0.0113056 -3.1944e-4,-0.0147511 0.005615,-0.0274448 0.004699,-0.0100339 0.007652,-0.0140269 0.00956,-0.0129297 0.005971,0.003417 0.008126,0.005852 0.006919,0.007803 -7.6294e-4,0.001229 -0.002349,0.001143 -0.00401,-2.4161e-4 -0.004537,-0.003772 -0.0110685,0.0137327 -0.0109305,0.0292975 1.4334e-4,0.0160638 0.004127,0.0242763 0.0237298,0.0489589 0.007889,0.009937 0.0143481,0.0189554 0.0143481,0.0200461 0,0.004527 -0.004127,0.00111 -0.0175135,-0.0145032 z m 1.06513335,0.291259 c -0.0333024,-0.0123445 -0.0501692,-0.0177624 -0.060715,-0.0195029 -0.0169185,-0.002791 -0.034751,-0.0124275 -0.0482971,-0.0260966 -0.0117991,-0.011907 -0.0221672,-0.0173711 -0.0330761,-0.0174348 -0.008309,-4.828e-5 -0.0199071,-0.008676 -0.024633,-0.0183239 -0.005421,-0.0110706 -0.016232,-0.015761 -0.0465221,-0.0201917 -0.0286875,-0.004193 -0.0328465,-0.005874 -0.0508439,-0.02046 -0.016039,-0.013003 -0.0304238,-0.0202444 -0.0381878,-0.019227 -0.007135,9.352e-4 -0.007522,-0.002964 -6.7898e-4,-0.006801 0.004925,-0.002759 0.006736,-0.002683 0.0154635,6.4587e-4 0.005443,0.00208 0.0164798,0.009592 0.0245382,0.0167094 0.0143492,0.0126668 0.0282704,0.0196646 0.0446985,0.0224667 0.006628,0.001132 0.00706,9.5693e-4 0.003276,-0.001325 -0.002404,-0.001444 -0.0156597,-0.0141358 -0.0294646,-0.0282015 -0.0155422,-0.0158353 -0.0282844,-0.0268866 -0.0334641,-0.0290238 -0.007049,-0.00291 -0.007943,-0.003966 -0.005658,-0.006715 0.001908,-0.002296 0.004709,-0.002835 0.009452,-0.0018 0.00984,0.002145 0.0132078,0.005098 0.0250846,0.0220087 0.0196323,0.0279546 0.0398734,0.0440357 0.0601718,0.0478013 l 0.008665,0.001606 -0.0133468,-0.0123575 c -0.0246341,-0.0228073 -0.0432684,-0.0686202 -0.0507274,-0.12471964 -0.006381,-0.0480202 -0.0129771,-0.0762841 -0.0225443,-0.0966611 -0.002414,-0.005151 -0.003804,-0.009948 -0.003072,-0.0106804 7.2479e-4,-7.2467e-4 0.00541,0.002769 0.010411,0.00777 0.005001,0.005001 0.0188056,0.0145916 0.0306781,0.0213135 0.0201248,0.011395 0.0274244,0.0171588 0.0355247,0.0280527 0.002986,0.00402 0.003244,0.003244 0.003276,-0.009818 1.8e-5,-0.007803 -0.001369,-0.02082 -0.003093,-0.0289268 -0.003621,-0.0170694 -0.0188003,-0.0520843 -0.0266085,-0.0613638 -0.006359,-0.007555 -0.003718,-0.0130752 0.003028,-0.006326 0.002317,0.002317 0.0126915,0.009333 0.023053,0.0155929 0.0173959,0.0105081 0.0229258,0.0153697 0.0288858,0.0254003 0.002123,0.003578 0.002867,0.003578 0.0142554,-1.087e-5 0.0111644,-0.003514 0.0127455,-0.003535 0.022387,-2.6451e-4 0.005702,0.00194 0.0167558,0.003524 0.0245543,0.003524 0.007803,0 0.0176772,0.001466 0.0219516,0.003244 0.0129923,0.005432 0.0354654,0.0249057 0.0437857,0.0379496 0.004311,0.006746 0.0145334,0.0185157 0.0227265,0.026143 0.0190169,0.0177031 0.0259727,0.0310338 0.0259727,0.0497726 0,0.0160487 -0.00374,0.0270191 -0.0231824,0.0680447 l -0.0137952,0.0291056 0.0264911,-0.0247397 c 0.0283049,-0.0264339 0.0415494,-0.0417735 0.0521091,-0.060355 0.003632,-0.006381 0.007739,-0.0112269 0.009118,-0.0107667 0.001391,4.631e-4 0.003384,0.004214 0.00443,0.008331 0.001047,0.004117 0.006067,0.0128921 0.0111633,0.0194943 0.005098,0.006607 0.0130569,0.0183874 0.0176966,0.0261904 0.004645,0.007803 0.0126636,0.0204222 0.0178292,0.028043 0.0124878,0.0184208 0.0147371,0.0271388 0.0105512,0.0409221 -0.001789,0.005885 -0.003276,0.0136443 -0.00332,0.017245 -1.1231e-4,0.009926 -0.007846,0.025063 -0.018409,0.0360119 -0.005216,0.005399 -0.0101524,0.0122766 -0.0109887,0.0152781 -0.002683,0.009678 -0.0161845,0.0274696 -0.0264425,0.0348361 -0.0189027,0.0135753 -0.0422811,0.0167029 -0.0641767,0.00859 z m 0.0510217,-0.009193 c 0.0125407,-0.005744 0.0254996,-0.0173884 0.030842,-0.0277197 0.004074,-0.007889 0.003718,-0.007922 -0.009721,-0.001121 -0.0222598,0.0112797 -0.0400275,0.014832 -0.0765094,0.0152976 -0.0186063,2.371e-4 -0.0348113,6.59e-4 -0.0360119,9.3791e-4 -0.001196,2.7864e-4 0.003707,0.002296 0.0109133,0.004494 0.007199,0.002188 0.0189878,0.006585 0.0261904,0.009754 0.0112161,0.004947 0.0152221,0.005626 0.0279159,0.004709 0.009085,-6.5272e-4 0.0192949,-0.003114 0.026379,-0.006359 z m -0.096008,-0.0185588 c 6.0709e-4,-9.8227e-4 -0.002522,-0.003083 -0.006962,-0.004678 -0.0138071,-0.004936 -0.0484458,-0.0223633 -0.0484458,-0.0243711 0,-0.002888 0.004936,-0.002166 0.009689,0.001433 0.002328,0.001756 0.005184,0.003201 0.006337,0.003201 0.001153,0 -0.006154,-0.005496 -0.0162406,-0.0122238 -0.0100877,-0.006725 -0.020059,-0.013751 -0.0221596,-0.0156165 -0.002134,-0.001897 -0.003815,-0.002338 -0.003815,-0.001013 0,0.001304 -0.00748,-0.001077 -0.0166222,-0.005302 -0.0186256,-0.008601 -0.0230767,-0.007749 -0.0173474,0.003331 0.004537,0.008773 0.0109542,0.0128392 0.0242763,0.0153697 0.01651,0.003136 0.0218567,0.005799 0.0281001,0.0139816 0.007522,0.009861 0.0205451,0.0187355 0.0346291,0.0236016 0.0119371,0.004127 0.0266958,0.005302 0.0285646,0.002274 z m 0.0543843,-0.002597 c 0.0387849,-0.003212 0.0648125,-0.0131215 0.0851798,-0.0324251 0.0137078,-0.0129923 0.0176913,-0.0200084 0.0193693,-0.0341205 8.566e-4,-0.007199 0.002199,-0.0167752 0.002975,-0.0212737 0.002026,-0.0117431 6.736e-5,-0.0171298 -0.0119608,-0.032825 -0.005885,-0.007674 -0.0136713,-0.0198532 -0.017314,-0.0270698 -0.003643,-0.007221 -0.009129,-0.0161037 -0.012199,-0.0197476 -0.003072,-0.003643 -0.007846,-0.0106374 -0.0106266,-0.0155282 l -0.005054,-0.008902 -0.009635,0.0146573 c -0.005302,0.008062 -0.0179305,0.0225142 -0.0280689,0.0321169 -0.055102,0.0521911 -0.0586111,0.0571067 -0.0607246,0.0850548 -6.8362e-4,0.009042 -0.00208,0.0164335 -0.003114,0.0164335 -0.001028,0 -0.001864,-0.002393 -0.001864,-0.005324 0,-0.002931 -9.9857e-4,-0.005949 -0.00222,-0.006704 -0.001218,-7.5398e-4 -0.001649,-0.002285 -9.6235e-4,-0.003406 6.9061e-4,-0.001121 3.647e-4,-0.002037 -7.2414e-4,-0.002037 -0.001088,0 -0.003826,-0.004096 -0.006089,-0.009107 -0.004914,-0.0109014 -0.004979,-0.0277639 -1.7987e-4,-0.0465458 0.00679,-0.0265632 0.0128726,-0.0673237 0.0116224,-0.0778813 -0.001477,-0.0124803 -2.1965e-4,-0.0133221 0.004182,-0.002791 0.002856,0.006833 0.002835,0.0107559 -2.1835e-4,0.0343748 -0.001897,0.0146617 -0.005432,0.0364797 -0.007867,0.0484836 -0.004279,0.0210722 -0.004225,0.0447416 9.538e-5,0.0447416 9.2886e-4,0 0.003901,-0.007609 0.006607,-0.0169142 0.002705,-0.009301 0.012172,-0.033241 0.0210452,-0.0531955 0.008869,-0.0199545 0.0176966,-0.0423879 0.0196096,-0.0498524 0.00652,-0.0254326 -5.254e-4,-0.0444937 -0.0235661,-0.0637843 -0.0061,-0.005109 -0.0142974,-0.0142974 -0.0182151,-0.0204233 -0.008869,-0.0138717 -0.0264641,-0.0310715 -0.0383959,-0.0375433 -0.006865,-0.003729 -0.0126409,-0.004915 -0.023912,-0.004915 -0.00817,0 -0.0194943,-0.001573 -0.0251611,-0.003503 -0.008234,-0.002791 -0.0119178,-0.003007 -0.0183357,-0.001088 -0.0136831,0.004096 -0.0173766,0.00305 -0.0280431,-0.007964 -0.005518,-0.005702 -0.0150809,-0.013446 -0.0212392,-0.0172084 l -0.0111978,-0.006843 0.008439,0.0180103 c 0.0133597,0.0285086 0.0149882,0.0404069 0.0145549,0.10630371 -3.687e-4,0.056003 -2.329e-4,0.0579667 0.005475,0.0792511 0.003222,0.0120039 0.0104434,0.031134 0.0160563,0.0425118 0.008342,0.016912 0.0134287,0.0238861 0.0278695,0.0382223 0.00971,0.009646 0.0269943,0.023815 0.038398,0.0314907 0.0114036,0.007674 0.0224549,0.015429 0.0245576,0.0172289 0.005098,0.004365 0.0452116,0.0217382 0.0507404,0.0219753 0.002404,1.0328e-4 0.0159604,-7.7305e-4 0.0301317,-0.001951 z m -0.003826,-0.0172526 c -0.001369,-0.002209 0.003934,-0.005647 0.0318992,-0.0207111 0.0200752,-0.0108131 0.0285733,-0.0105512 0.0110825,3.4038e-4 -0.0109392,0.006812 -0.0393551,0.0223665 -0.0408607,0.0223665 -4.8833e-4,0 -0.001444,-8.9835e-4 -0.002123,-0.001994 z m -0.0383097,-0.0214968 c 0,-9.1709e-4 0.009085,-0.007728 0.0201884,-0.0151219 0.011104,-0.007404 0.0273382,-0.01949 0.0360765,-0.0268661 0.008741,-0.007372 0.0169745,-0.0130494 0.0183024,-0.0126075 0.003729,0.001239 -0.0275742,0.0288794 -0.0490655,0.0433276 -0.0178421,0.0119953 -0.0255016,0.0153795 -0.0255018,0.0112679 z m -0.0914254,-0.0468939 c 2.3861e-4,-0.001498 -0.001617,-0.007146 -0.004127,-0.0125493 -0.005475,-0.0117863 -0.008783,-0.0327377 -0.005173,-0.0327377 0.001336,0 0.002996,0.002705 0.003707,0.006003 7.0485e-4,0.003298 0.003675,0.013031 0.006585,0.0216229 0.00623,0.0183347 0.006423,0.020391 0.00194,0.020391 -0.001854,0 -0.003179,-0.001229 -0.002931,-0.002727 z m -0.0121904,-0.0560925 c -0.002166,-0.004193 -0.003331,-0.0125159 -0.003331,-0.0238894 0,-0.009592 -0.001061,-0.0298655 -0.00236,-0.0450391 -0.002112,-0.0247333 -0.001822,-0.0321233 0.001132,-0.0291606 0.0018,0.0018 0.005475,0.036928 0.006962,0.066412 8.1112e-4,0.016163 0.002307,0.0293869 0.003331,0.0293869 0.001018,0 0.001854,0.001962 0.001854,0.004365 0,0.00637 -0.003751,0.005335 -0.007587,-0.00207 z m 0.0253001,-0.0704416 c -0.00403,-0.009398 -0.007533,-0.0278598 -0.009991,-0.0526653 -6.9784e-4,-0.007027 -0.002317,-0.0147458 -0.00361,-0.0171491 -0.001659,-0.003104 -0.001659,-0.005044 -4.42e-6,-0.006704 0.003665,-0.003665 0.008687,0.010952 0.0124351,0.0361919 0.001821,0.0122465 0.004602,0.0279342 0.006197,0.0348609 0.003514,0.015331 5.7552e-4,0.0185265 -0.005023,0.005465 z m 0.0207283,-0.0446091 c -0.0198791,-0.0211756 -0.0207391,-0.0275192 -0.001121,-0.008245 0.015082,0.0148148 0.0224377,0.0242364 0.0200041,0.0256235 -9.2161e-4,5.2528e-4 -0.00942,-0.007296 -0.0188854,-0.0173766 z m -0.0544177,-0.0198305 c -0.003643,-0.0160671 -0.001422,-0.0241297 0.002425,-0.008849 0.003837,0.0152222 0.004828,0.0235822 0.002802,0.0235822 -0.001044,0 -0.003395,-0.006628 -0.005238,-0.0147318 z m 6.7456e-4,0.20734144 c -0.0346075,-0.0377611 -0.0484297,-0.0784105 -0.0488479,-0.14366062 -2.3322e-4,-0.0363859 -3.7366e-4,-0.0374657 -0.005971,-0.0459293 -0.003858,-0.00583 -0.0113638,-0.0119447 -0.0229161,-0.0186709 -0.009452,-0.005496 -0.0210484,-0.0122928 -0.0257743,-0.0150928 -0.008029,-0.004753 -0.008482,-0.004806 -0.006887,-8.1381e-4 0.005065,0.0127099 0.0127638,0.0492327 0.0156187,0.0741179 0.007275,0.0634222 0.0257485,0.11136635 0.0506013,0.13133864 0.0108907,0.008752 0.0344049,0.0230174 0.0442017,0.0268155 0.004203,0.001628 0.008568,0.003783 0.00971,0.004796 0.006305,0.005572 0.002145,5.949e-5 -0.009732,-0.0128996 z"
       id="path758-8-8" />
  </g>
</svg>
