<?xml version="1.0" encoding="UTF-8" standalone="no"?>
<svg
   xmlns:dc="http://purl.org/dc/elements/1.1/"
   xmlns:cc="http://creativecommons.org/ns#"
   xmlns:rdf="http://www.w3.org/1999/02/22-rdf-syntax-ns#"
   xmlns:svg="http://www.w3.org/2000/svg"
   xmlns="http://www.w3.org/2000/svg"
   xmlns:sodipodi="http://sodipodi.sourceforge.net/DTD/sodipodi-0.dtd"
   xmlns:inkscape="http://www.inkscape.org/namespaces/inkscape"
   width="386.28839"
   height="536.19269"
   viewBox="0 0 4.0238374 5.5853405"
   version="1.1"
   id="SVGRoot"
   sodipodi:docname="flamingo.svg"
   inkscape:version="1.0.1 (3bc2e813f5, 2020-09-07)">
  <defs
     id="defs10174" />
  <sodipodi:namedview
     id="base"
     pagecolor="#ffffff"
     bordercolor="#666666"
     borderopacity="1.0"
     inkscape:pageopacity="0.0"
     inkscape:pageshadow="2"
     inkscape:zoom="1.4"
     inkscape:cx="136.45027"
     inkscape:cy="131.00427"
     inkscape:document-units="in"
     inkscape:current-layer="layer15"
     inkscape:document-rotation="0"
     showgrid="false"
     inkscape:window-width="1280"
     inkscape:window-height="737"
     inkscape:window-x="-8"
     inkscape:window-y="-8"
     inkscape:window-maximized="1"
     units="px"
     fit-margin-top="0"
     fit-margin-left="0"
     fit-margin-right="0"
     fit-margin-bottom="0"
     inkscape:pagecheckerboard="true" />
  <metadata
     id="metadata10177">
    <rdf:RDF>
      <cc:Work
         rdf:about="">
        <dc:format>image/svg+xml</dc:format>
        <dc:type
           rdf:resource="http://purl.org/dc/dcmitype/StillImage" />
        <dc:title></dc:title>
      </cc:Work>
    </rdf:RDF>
  </metadata>
  <g
     inkscape:groupmode="layer"
     id="layer15"
     inkscape:label="Layer 0"
     style="display:inline"
     sodipodi:insensitive="true">
    <path
       style="fill:#ffffff;stroke-width:1.01015"
       d="m 177.65235,290.66646 c -1.86068,-1.40749 -2.6741,-7.73723 -2.65755,-20.68043 0.004,-2.99155 -2.90124,-10.10152 -4.12738,-10.10152 -1.19845,0 -1.01785,1.10816 0.65849,4.04061 2.46335,4.3092 1.66118,4.67799 -1.59166,0.73173 -6.57515,-7.9768 -30.69561,-21.9466 -41.39764,-23.9762 -2.89778,-0.54955 -13.05989,-0.99919 -22.58246,-0.99919 -30.343429,0 -36.98105,-1.60016 -53.940627,-13.00377 -6.899498,-4.6392 -10.263137,-7.71792 -13.642327,-12.48669 -8.663622,-12.22629 -9.276798,-14.01341 -9.276798,-27.03747 v -11.61676 l 5.681053,-11.72871 c 3.12458,-6.45078 8.855686,-16.67858 12.735792,-22.72843 13.018965,-20.29913 19.729632,-33.67649 25.375197,-50.584112 4.223818,-12.649701 5.501511,-20.892352 5.035809,-32.487 -0.327727,-8.159438 -0.863497,-10.777196 -3.171053,-15.49367 -1.527183,-3.12145 -4.0152,-6.488318 -5.528926,-7.481931 -4.311023,-2.829763 -11.085295,-2.366521 -16.97921,1.161081 -6.944961,4.156669 -12.519337,6.385193 -16.137062,6.451273 -4.563853,0.08336 -5.961073,1.610092 -11.14522,12.178271 -5.008168,10.209435 -7.214658,13.417143 -8.628291,12.54347 -3.018317,-1.865423 2.623174,-14.182817 11.770325,-25.698828 4.574245,-5.758849 6.547425,-9.105047 6.547425,-11.10339 0,-1.642495 1.175757,-4.25767 2.761459,-6.14217 1.797507,-2.136216 2.33312,-3.424586 1.534385,-3.690831 -0.886942,-0.295648 -0.672376,-1.496318 0.774076,-4.331599 1.100631,-2.157415 2.001148,-4.231562 2.001148,-4.609216 0,-1.335151 -11.346385,0.505442 -13.143917,2.132187 -1.003072,0.907766 -2.394736,3.09497 -3.092587,4.860452 -1.58787,4.01712 -3.868432,6.745501 -5.638337,6.745501 -3.751005,0 1.581246,-10.412304 8.072276,-15.7627586 8.173701,-6.7374556 21.402401,-8.5020829 32.528842,-4.3391479 8.13887,3.0451415 16.328961,11.2513565 19.558326,19.5968305 8.937307,23.096197 9.528583,25.4884 9.987077,40.406102 0.259713,8.450103 -0.04524,16.843536 -0.757662,20.853899 -1.660496,9.347214 -11.458081,29.016267 -25.963613,52.123037 -14.191789,22.60697 -16.851616,28.54322 -16.862848,37.63477 -0.0093,7.53133 2.131868,13.2129 8.565509,22.72843 7.761095,11.47887 12.627116,12.83433 26.142883,7.28228 4.722463,-1.93991 10.063645,-3.83992 11.869292,-4.22227 4.484917,-0.94965 4.245846,-2.82711 -0.252538,-1.98321 -5.122346,0.96096 -4.344033,-0.33906 1.010153,-1.68726 4.706191,-1.18503 5.846512,-2.4868 2.777919,-3.17123 -0.972271,-0.21685 0.166082,-0.74504 2.529674,-1.17373 4.365676,-0.79182 4.983496,-2.555 0.946244,-2.70048 -1.948668,-0.0702 -1.881167,-0.20102 0.564692,-1.09432 3.17037,-1.15792 3.59795,-2.5041 1.01015,-3.18036 -1.33028,-0.34764 -1.20528,-0.49097 0.50508,-0.57915 2.3359,-0.12043 3.27652,-2.12519 1.01015,-2.15295 -0.84436,-0.0103 -0.7607,-0.34501 0.25254,-1.01015 1.27374,-0.83616 1.29272,-1.13808 0.11907,-1.89441 -1.10054,-0.70921 -0.94012,-1.04446 0.75761,-1.58329 2.59813,-0.82462 2.84944,-2.54085 0.38601,-2.63612 -1.40023,-0.0541 -1.29175,-0.29781 0.52179,-1.17198 1.51428,-0.7299 2.10268,-1.6924 1.73766,-2.84245 -0.33168,-1.04504 0.0903,-1.98528 1.05747,-2.35643 0.88515,-0.33966 1.34566,-1.04424 1.02335,-1.56574 -0.3223,-0.5215 0.44439,-1.67394 1.70375,-2.56099 1.61338,-1.13641 1.93137,-1.83678 1.07653,-2.371 -1.5047,-0.94033 9.01961,-13.50024 16.34409,-19.50534 7.47133,-6.1255 12.95173,-8.50257 25.27522,-10.96285 12.49372,-2.49428 19.25941,-2.29727 36.00968,1.04853 13.87857,2.77221 28.35984,7.99866 45.81268,16.53429 8.33376,4.07579 19.47069,9.11554 24.74873,11.19944 21.06463,8.31685 31.09679,13.61543 48.41604,25.57145 7.46543,5.15362 9.1269,6.71521 7.68341,7.22156 -1.51391,0.53106 -1.05172,1.12208 2.59667,3.32038 2.63512,1.58777 3.72019,2.69034 2.67065,2.71375 -2.63972,0.0589 -2.1353,1.56796 1.00188,2.99736 2.97235,1.35429 19.57844,14.42662 19.027,14.97808 -0.18216,0.18216 -5.22257,-1.50609 -11.20091,-3.75166 -5.97834,-2.24556 -11.26263,-4.08284 -11.74287,-4.08284 -1.5915,0 -0.90411,1.77546 0.8946,2.31066 4.64082,1.38086 22.82107,8.74209 21.65866,8.76966 -0.72727,0.0173 -1.04137,0.48592 -0.698,1.04151 0.77714,1.25744 -0.64524,1.29091 -3.80506,0.0896 -5.9938,-2.27889 -12.86246,-3.94088 -12.86246,-3.11235 0,0.49992 6.70489,3.03012 14.89975,5.62267 19.03364,6.0215 18.56078,5.81813 14.55632,6.26039 -3.72898,0.41184 -15.59308,-2.88022 -21.80999,-6.05185 -4.32223,-2.20504 -13.19225,-2.8212 -20.27298,-1.40827 l -4.04061,0.80628 5.80838,-4.30337 c 3.1946,-2.36685 5.80837,-4.69757 5.80837,-5.17938 0,-1.08042 -2.51849,0.24614 -11.61675,6.11889 -7.14905,4.61457 -16.9154,9.17853 -19.69798,9.20515 -0.83337,0.008 0.77995,-1.30198 3.58518,-2.91103 4.70496,-2.69872 8.68843,-6.14689 7.10114,-6.14689 -0.37002,0 -5.67497,2.73001 -11.78879,6.06669 -10.64815,5.81133 -16.66028,7.99819 -22.13104,8.04996 -1.80542,0.0171 -0.65349,-0.87536 4.04061,-3.13043 9.8066,-4.71112 5.88027,-4.56775 -6.05608,0.22114 -8.75787,3.51367 -11.84095,4.25233 -19.11315,4.57922 l -8.67088,0.38974 8.16324,-2.91059 c 9.13957,-3.2587 12.96795,-5.09817 12.20287,-5.86324 -0.28327,-0.28327 -6.91871,1.58767 -14.74542,4.15766 -13.68007,4.49201 -14.63035,4.66158 -24.57274,4.38497 l -10.34237,-0.28775 10.35406,-2.95118 c 5.69474,-1.62315 10.35407,-3.32778 10.35407,-3.78807 0,-1.19679 -0.25621,-1.15405 -13.63706,2.27455 -13.07955,3.35139 -22.86172,3.64215 -27.81748,0.82684 -2.43344,-1.38242 -2.38902,-1.41892 2.05859,-1.69195 6.87382,-0.42196 15.15229,-2.26529 15.15229,-3.37388 0,-0.60681 -1.45278,-0.67619 -3.78808,-0.18092 -2.08343,0.44187 -8.56104,0.78786 -14.39467,0.76888 -9.3342,-0.0304 -11.27309,-0.35352 -16.16244,-2.69373 l -5.55584,-2.65921 9.34391,-0.0841 c 5.49971,-0.0496 9.34391,-0.49979 9.34391,-1.09435 0,-0.59992 -3.79464,-1.01417 -9.34391,-1.02002 -7.66172,-0.008 -10.2532,-0.43452 -14.39467,-2.36864 -4.96021,-2.31648 -12.08488,-7.59162 -11.3057,-8.3708 0.21801,-0.21801 4.36787,0.54685 9.2219,1.69967 4.85402,1.15283 9.80875,1.92231 11.01049,1.70996 2.83644,-0.5012 1.61996,-0.94949 -9.89903,-3.64788 -10.95451,-2.56615 -18.27797,-6.12215 -23.38992,-11.35726 -2.10483,-2.15559 -3.58013,-3.9192 -3.27845,-3.9192 0.30167,0 3.91683,0.86112 8.03369,1.9136 9.75185,2.49308 21.12225,3.73475 21.12225,2.30658 0,-0.58626 -2.1592,-1.32623 -4.79823,-1.64435 -11.58571,-1.39666 -17.14977,-2.69825 -22.29448,-5.21532 -4.34775,-2.12715 -5.84461,-3.50802 -7.13488,-6.58192 -2.05042,-4.88492 -4.70405,-5.37704 -3.76841,-0.69889 1.50848,7.5424 15.51018,23.28335 30.92493,34.76632 9.02079,6.7199 13.51686,9.08773 26.26397,13.83173 12.6467,4.70664 24.20173,6.06484 52.52793,6.17424 25.26291,0.0976 39.73935,-1.50572 55.3206,-6.12685 17.03654,-5.05276 31.08779,-8.40573 35.25664,-8.41311 2.34942,-0.004 9.04423,1.72205 15.15228,3.90691 6.0187,2.15289 12.9186,4.24577 15.33312,4.65084 2.41451,0.40506 4.0055,1.09651 3.53553,1.53654 -1.21734,1.13982 -12.95885,-0.68828 -16.6369,-2.59027 -1.70123,-0.87974 -3.39112,-1.30156 -3.75531,-0.93738 -1.11344,1.11345 2.7045,3.26785 10.80446,6.09679 12.47969,4.35859 18.43281,6.75563 17.95771,7.23074 -0.24454,0.24453 -3.60551,-0.49675 -7.46882,-1.64729 -8.01821,-2.38792 -8.32162,-2.42997 -8.32162,-1.15342 0,0.51616 2.61377,1.69275 5.80838,2.61466 9.72525,2.8065 20.03413,7.48234 22.58469,10.24382 l 2.41659,2.61643 -2.52539,-0.74561 c -1.38896,-0.41008 -8.34452,-3.45006 -15.45681,-6.75551 -7.1123,-3.30545 -13.70354,-5.83348 -14.64722,-5.61783 -1.21654,0.27799 -0.59522,0.94766 2.13541,2.30154 3.15412,1.56386 3.51978,2.02691 2.0203,2.55838 -1.35554,0.48044 0.79168,1.98418 8.27066,5.79209 5.55583,2.82876 9.49541,5.16643 8.75459,5.19483 -0.7408,0.0284 -4.83192,-0.81758 -9.09137,-1.87994 -15.27889,-3.81074 -28.67217,-5.50738 -44.02185,-5.57663 -10.51118,-0.0474 -15.18249,0.28335 -15.45555,1.09435 -0.26463,0.78598 -2.33036,0.98648 -6.38014,0.61926 -4.94131,-0.44807 -6.0998,-0.25383 -6.62335,1.11054 -0.48831,1.2725 -2.00646,1.65359 -6.58739,1.65359 -3.29512,0 -5.95283,0.45099 -5.95283,1.01015 0,0.58364 -3.19882,1.01015 -7.57615,1.01015 -7.5324,0 -8.68162,0.51076 -6.36396,2.82843 1.78792,1.78792 -0.46002,1.57664 -8.79154,-0.8263 -26.48957,-7.63998 -50.70499,1.72711 -56.56364,21.88016 -0.89265,3.0706 -2.38557,5.80594 -3.492,6.39808 -2.79776,1.49732 -9.32301,1.21116 -11.59645,-0.50857 z m 13.57153,-18.34811 c 0,-0.72719 -0.45457,-1.32216 -1.01015,-1.32216 -0.55558,0 -1.01015,-0.68186 -1.01015,-1.51523 0,-2.92718 -1.93637,-1.47534 -2.9556,2.21604 -1.09957,3.98231 -0.57557,5.76196 0.97475,3.31054 0.764,-1.20806 0.94866,-1.10812 0.98735,0.53433 0.047,1.99351 0.0673,1.9943 1.5307,0.0595 0.8157,-1.07846 1.4831,-2.55581 1.4831,-3.28299 z m -9.09137,-3.28285 c 0,-3.8563 -0.45457,-7.29239 -1.01015,-7.63576 -0.63941,-0.39517 -1.01016,2.17817 -1.01016,7.01145 0,4.41707 0.42581,7.63576 1.01016,7.63576 0.57641,0 1.01015,-3.01059 1.01015,-7.01145 z m 11.9198,5.79927 c 0.6667,-0.6667 1.21218,-1.87357 1.21218,-2.68195 0,-1.16671 -0.41655,-1.09277 -2.0203,0.3586 -2.07525,1.87807 -2.64352,3.53553 -1.21219,3.53553 0.44447,0 1.35361,-0.54548 2.02031,-1.21218 z m -8.35528,-8.38427 c 0.4709,-4.04061 0.36963,-5.7242 -0.3038,-5.05076 -0.55558,0.55558 -1.32802,3.73756 -1.7165,7.07107 -0.4709,4.04061 -0.36964,5.7242 0.30379,5.05076 0.55559,-0.55559 1.32802,-3.73757 1.71651,-7.07107 z m -7.62318,-1.09018 c -0.88121,-3.90719 -1.65398,-5.15065 -2.608,-4.19662 -0.79873,0.79872 1.53366,7.81218 2.59801,7.81218 0.45399,0 0.45848,-1.627 0.0101,-3.61556 z"
       id="path10213"
       transform="scale(0.01041667)" />
    <path
       style="fill:#ffffff;stroke-width:0.357143"
       d="M 8.1842581,65.132653 C 6.3013028,63.854845 5.2035037,62.554203 4.1560842,60.360188 2.5028473,56.897171 3.3433291,53.736651 8.9464371,42.346702 c 4.5855819,-9.321531 6.7218209,-12.94934 8.1264889,-13.80058 0.594224,-0.360104 2.267012,-0.920173 3.717308,-1.244597 1.450295,-0.324425 3.218152,-0.84027 3.928571,-1.146324 0.710419,-0.306053 2.722515,-0.776774 4.471326,-1.046045 1.748811,-0.269272 3.829328,-0.811017 4.62337,-1.203877 0.794042,-0.392861 1.510193,-0.647812 1.591447,-0.566558 0.08125,0.08125 -0.170239,0.598952 -0.558874,1.15044 -1.190719,1.689675 -2.089229,3.763985 -2.541694,5.86778 -0.55067,2.56042 -1.504841,4.023985 -6.52305,10.005452 -6.406028,7.635681 -8.962981,11.832365 -11.561272,18.97532 -1.593071,4.379507 -2.354569,5.715447 -3.574759,6.2714 -1.1521934,0.524975 -0.9187409,0.570172 -2.4610409,-0.47646 z"
       id="path10215"
       transform="scale(0.01041667)" />
    <path
       style="fill:#ffffff;stroke-width:0.252538"
       d="m 170.76062,492.65227 c -1.10796,-0.87152 -1.70008,-2.3288 -1.70008,-4.18412 0,-2.3895 0.9784,-3.63369 1.86361,-2.36987 0.41277,0.58931 1.45927,1.02203 2.47173,1.02203 0.49,0 0.86314,0.19503 1.11835,0.58453 0.34225,0.52234 0.34228,0.74088 3e-4,2.05382 -0.4748,1.82291 -1.03372,2.79288 -1.81423,3.1485 -0.85214,0.38826 -1.17618,0.34568 -1.93968,-0.25489 z"
       id="path10217"
       transform="scale(0.01041667)" />
    <path
       style="fill:#ffffff;stroke-width:0.252538"
       d="m 170.9404,497.96146 c -1.22402,-0.60589 -1.87417,-1.47191 -1.90445,-2.5368 -0.0327,-1.15132 0.33938,-1.3343 2.71342,-1.3343 1.8586,0 2.2255,0.0733 2.68957,0.53738 0.50038,0.50038 0.51494,0.61755 0.21142,1.70161 -0.34919,1.24717 -1.24254,2.1553 -2.11991,2.15497 -0.29378,-1.1e-4 -1.0093,-0.2354 -1.59005,-0.52286 z"
       id="path10219"
       transform="scale(0.01041667)" />
    <path
       style="fill:#ffffff;stroke-width:0.252538"
       d="m 170.0575,504.0806 c -1.1165,-0.55757 -1.72212,-1.83165 -1.72261,-3.624 -2.2e-4,-0.79046 0.0848,-1.48712 0.18901,-1.54814 0.24569,-0.14391 4.24795,0.7818 5.26843,1.21858 1.02776,0.43989 1.20177,1.1765 0.51588,2.18384 -1.17469,1.72522 -2.90078,2.44385 -4.25071,1.76972 z"
       id="path10221"
       transform="scale(0.01041667)" />
    <path
       style="fill:#ffffff;stroke-width:0.252538"
       d="m 170.17822,511.09118 c -1.77437,-0.8783 -2.68029,-3.57924 -1.67967,-5.00782 0.39209,-0.5598 0.53086,-0.58693 2.36033,-0.46154 2.1558,0.14777 3.41968,0.66371 3.82957,1.5633 0.39432,0.86544 -0.72459,3.22991 -1.85439,3.91873 -1.04919,0.63967 -1.34078,0.63828 -2.65584,-0.0127 z"
       id="path10223"
       transform="scale(0.01041667)" />
    <path
       style="fill:#ffffff;stroke-width:0.252538"
       d="m 168.21927,516.67947 c -0.48847,-0.53976 -0.82696,-3.28302 -0.54414,-4.40989 0.20877,-0.8318 0.66469,-0.82384 1.96134,0.0342 0.86312,0.57119 1.3209,0.68853 2.70937,0.69448 1.5148,0.007 1.67799,0.0579 1.74818,0.55032 0.17155,1.20363 -2.96855,3.62372 -4.70184,3.62372 -0.40015,0 -0.92736,-0.22154 -1.17291,-0.49287 z"
       id="path10225"
       transform="scale(0.01041667)" />
    <path
       style="fill:#ffffff;stroke-width:0.252538"
       d="m 170.95969,484.87253 c -0.90588,-0.55239 -1.7988,-1.88899 -1.87255,-2.80299 -0.17174,-2.12861 0.33184,-2.76555 1.39607,-1.76576 0.53319,0.50091 0.76892,0.54961 1.92079,0.39681 0.96037,-0.1274 1.36916,-0.0856 1.52208,0.15544 0.29889,0.47126 0.26597,3.42768 -0.0446,4.00803 -0.34594,0.64639 -1.86839,0.6508 -2.92176,0.008 z"
       id="path10227"
       transform="scale(0.01041667)" />
    <path
       style="fill:#ffffff;stroke-width:0.252538"
       d="m 170.54243,479.01786 c -0.72464,-0.42199 -1.45182,-2.14711 -1.51633,-3.59724 -0.0834,-1.87367 0.23518,-2.18991 2.20582,-2.18991 1.83451,0 3.07305,0.36928 3.42136,1.02011 0.61922,1.15702 -0.12312,3.8064 -1.29688,4.62854 -0.65753,0.46054 -2.13601,0.53332 -2.81397,0.1385 z"
       id="path10229"
       transform="scale(0.01041667)" />
    <path
       style="fill:#ffffff;stroke-width:0.252538"
       d="m 168.87114,471.53971 c -0.52049,-0.42184 -0.59893,-0.70107 -0.59334,-2.11233 0.004,-0.89443 0.13232,-1.94859 0.28617,-2.34257 0.25451,-0.65177 0.36488,-0.70372 1.22468,-0.57637 0.51973,0.077 1.82172,0.21344 2.89331,0.30323 1.07159,0.0898 2.14172,0.30467 2.37806,0.47749 0.96101,0.7027 0.17148,3.35294 -1.21292,4.07146 -0.46236,0.23997 -1.63614,0.4878 -2.60842,0.55075 -1.47849,0.0957 -1.86591,0.0349 -2.36754,-0.37166 z"
       id="path10231"
       transform="scale(0.01041667)" />
    <path
       style="fill:#ffffff;stroke-width:0.252538"
       d="m 170.07233,465.52752 c -1.09659,-0.59594 -1.5752,-1.9483 -1.3768,-3.89034 0.20621,-2.01851 0.70646,-2.91961 1.49131,-2.6863 0.30072,0.0894 1.53649,0.25282 2.74614,0.36315 1.20965,0.11034 2.37494,0.34633 2.58952,0.52442 0.57136,0.47418 0.8363,1.77041 0.57457,2.81103 -0.59866,2.38019 -3.97389,3.99255 -6.02474,2.87804 z"
       id="path10233"
       transform="scale(0.01041667)" />
    <path
       style="fill:#ffffff;stroke-width:0.252538"
       d="m 270.95466,515.16737 c -1.45878,-0.62468 -2.55255,-3.38848 -1.85603,-4.68994 0.96971,-1.81191 4.57621,-1.82 6.94193,-0.0156 0.94737,0.72259 1.28489,1.54466 1.03802,2.52825 -0.3113,1.24032 -4.6826,2.79447 -6.12392,2.17726 z"
       id="path10235"
       transform="scale(0.01041667)" />
    <path
       style="fill:#ffffff;stroke-width:0.252538"
       d="m 271.95053,507.83866 c -1.36675,-0.83336 -2.0087,-2.79778 -1.3292,-4.06744 0.22951,-0.42885 0.54632,-0.48847 2.59546,-0.48847 2.67228,0 3.45657,0.33592 3.45657,1.48048 0,1.24985 -2.20838,3.57149 -3.3952,3.56934 -0.28553,-5.2e-4 -0.88296,-0.22278 -1.32763,-0.49391 z"
       id="path10237"
       transform="scale(0.01041667)" />
    <path
       style="fill:#ffffff;stroke-width:0.252538"
       d="m 272.47282,501.78821 c -0.4352,-0.26537 -0.97499,-0.74478 -1.19953,-1.06536 -0.38177,-0.54505 -0.37534,-0.61577 0.099,-1.09013 0.70385,-0.70384 3.99495,-0.89512 4.92429,-0.2862 0.34612,0.22679 0.6293,0.56037 0.6293,0.7413 0,0.67904 -2.21306,2.1859 -3.20732,2.18383 -0.24996,-5.2e-4 -0.81055,-0.21807 -1.24575,-0.48344 z"
       id="path10239"
       transform="scale(0.01041667)" />
    <path
       style="fill:#ffffff;stroke-width:0.252538"
       d="m 272.34707,497.18869 c -0.48959,-0.48959 -0.52651,-0.73486 -0.40869,-2.71478 0.0712,-1.19712 0.2804,-2.50126 0.46481,-2.8981 0.31407,-0.67588 0.41198,-0.71416 1.54767,-0.60504 1.92463,0.18493 2.97503,1.53007 2.97503,3.80978 0,1.38813 -0.68984,2.32854 -1.96865,2.68371 -1.39354,0.38703 -2.01297,0.32164 -2.61017,-0.27557 z"
       id="path10241"
       transform="scale(0.01041667)" />
    <path
       style="fill:#ffffff;stroke-width:0.252538"
       d="m 272.88528,489.14061 c -0.42645,-0.42646 -0.50507,-0.84179 -0.50507,-2.66825 0,-1.18975 0.11764,-2.38299 0.26142,-2.65165 0.38344,-0.71646 1.36182,-0.59994 2.36602,0.28176 1.64548,1.44475 1.81695,3.68338 0.37505,4.89665 -0.92258,0.7763 -1.8122,0.82671 -2.49742,0.14149 z"
       id="path10243"
       transform="scale(0.01041667)" />
    <path
       style="fill:#ffffff;stroke-width:0.252538"
       d="m 273.43478,481.70275 c -0.82327,-0.93766 -1.6532,-3.26226 -1.51419,-4.24118 0.0727,-0.51186 0.21218,-0.56571 1.38781,-0.53572 0.71885,0.0183 1.74163,0.24562 2.27284,0.50508 0.96489,0.47127 0.96585,0.47328 0.96404,2.034 -0.003,2.8249 -1.59167,3.96766 -3.1105,2.23782 z"
       id="path10245"
       transform="scale(0.01041667)" />
    <path
       style="fill:#ffffff;stroke-width:0.252538"
       d="m 273.00697,474.94697 c -0.57405,-0.68222 -0.66148,-0.9809 -0.5574,-1.90429 0.15784,-1.40028 0.76981,-2.08481 1.86381,-2.08481 1.17643,0 1.8549,0.74355 1.8549,2.03284 0,2.52395 -1.76474,3.61599 -3.16131,1.95626 z"
       id="path10247"
       transform="scale(0.01041667)" />
    <path
       style="fill:#ffffff;stroke-width:0.252538"
       d="m 274.2777,469.40024 c -2.13092,-1.67619 -1.38152,-5.36004 0.99013,-4.86715 1.79846,0.37377 2.35318,1.24678 2.05513,3.23432 -0.30178,2.01244 -1.64623,2.73331 -3.04526,1.63283 z"
       id="path10249"
       transform="scale(0.01041667)" />
    <path
       style="fill:#ffffff;stroke-width:0.252538"
       d="m 274.26277,462.50932 c -0.8202,-0.8202 -0.8362,-2.11932 -0.0354,-2.87165 0.71838,-0.67489 2.94733,-0.78335 3.45781,-0.16825 0.49516,0.59663 0.16736,2.65959 -0.50972,3.20786 -0.81555,0.66039 -2.16201,0.58275 -2.91271,-0.16796 z"
       id="path10251"
       transform="scale(0.01041667)" />
    <path
       style="fill:#ffffff;stroke-width:0.252538"
       d="m 274.52367,457.40789 c -0.93425,-0.93426 -1.18856,-3.02621 -0.45684,-3.75794 0.55879,-0.55878 3.17724,-0.41235 3.80223,0.21264 0.37223,0.37223 0.38278,0.53633 0.0882,1.37229 -0.55164,1.56545 -1.4576,2.591 -2.28886,2.591 -0.3997,0 -0.91482,-0.1881 -1.14472,-0.41799 z"
       id="path10253"
       transform="scale(0.01041667)" />
    <path
       style="fill:#ffffff;stroke-width:0.252538"
       d="m 274.06736,450.9099 c -1.0914,-1.0914 -1.94803,-4.1957 -1.15781,-4.1957 0.55182,0 3.15561,0.83335 4.10999,1.31541 0.95389,0.48182 0.97446,0.52098 0.85061,1.61973 -0.1675,1.48608 -0.75822,2.11563 -1.98513,2.11563 -0.75721,0 -1.14503,-0.18244 -1.81766,-0.85507 z"
       id="path10255"
       transform="scale(0.01041667)" />
    <path
       style="fill:#ffffff;stroke-width:0.252538"
       d="m 275.31906,446.09174 c -2.10464,-0.75028 -3.35936,-2.84387 -3.13069,-5.22375 0.15387,-1.6013 0.62313,-2.04621 1.78755,-1.6948 0.44187,0.13336 1.65572,0.20842 2.69744,0.1668 l 1.89403,-0.0757 -0.0175,2.39911 c -0.0198,2.70234 -0.46784,4.03051 -1.52173,4.5107 -0.34708,0.15814 -0.65412,0.28254 -0.68231,0.27644 -0.0282,-0.006 -0.49022,-0.16757 -1.02674,-0.35884 z"
       id="path10257"
       transform="scale(0.01041667)" />
    <path
       style="fill:#ffffff;stroke-width:0.252538"
       d="m 170.32901,457.75352 c -1.04214,-0.7013 -1.6017,-2.12487 -1.22483,-3.11611 0.23388,-0.61514 0.3279,-0.6498 1.31943,-0.48638 0.58719,0.0968 1.96938,0.26919 3.07154,0.38314 1.4698,0.15196 2.09242,0.32822 2.33597,0.66129 1.5051,2.05835 -3.07817,4.18921 -5.50211,2.55806 z"
       id="path10259"
       transform="scale(0.01041667)" />
    <path
       style="fill:#ffffff;stroke-width:0.252538"
       d="m 171.5917,452.71162 c -1.1165,-0.7398 -2.00611,-2.56662 -2.17915,-4.47492 -0.16411,-1.80986 0.007,-1.88431 1.97111,-0.85733 0.82448,0.43111 1.77681,0.69429 2.70646,0.74795 1.67098,0.0964 2.07306,0.4709 2.07306,1.93069 0,2.69313 -2.40497,4.08914 -4.57148,2.65361 z"
       id="path10261"
       transform="scale(0.01041667)" />
    <path
       style="fill:#ffffff;fill-opacity:1;stroke-width:0.252538"
       d="m 172.42108,446.59287 c -1.41651,-0.63191 -2.30803,-1.39288 -2.82961,-2.41525 -0.58343,-1.14362 -0.6333,-1.8361 -0.1605,-2.22849 0.46358,-0.38474 4.95378,0.24138 5.82504,0.81225 0.8036,0.52654 1.0585,1.46257 0.66016,2.42424 -0.62604,1.51141 -2.01131,2.06916 -3.49509,1.40725 z"
       id="path10263"
       transform="scale(0.01041667)" />
    <path
       style="fill:#f4a460;stroke-width:0.252538"
       d=""
       id="path10265"
       transform="scale(0.01041667)" />
    <path
       style="fill:#ffffff;stroke-width:0.252538"
       d="m 149.26967,526.22944 c -0.27925,-0.27925 -0.3301,-0.49606 -0.15695,-0.66921 0.53675,-0.53674 14.7882,-4.1663 16.85223,-4.29192 1.68992,-0.10285 1.85702,1.49315 0.19665,1.8782 -0.40221,0.0933 -1.60789,0.29972 -2.67928,0.45877 -1.0714,0.15905 -4.46314,0.9075 -7.53721,1.66321 -3.07407,0.75572 -5.74067,1.37403 -5.92579,1.37403 -0.18511,0 -0.52246,-0.18588 -0.74965,-0.41308 z"
       id="path10267"
       transform="scale(0.01041667)" />
    <path
       style="fill:#ffffff;stroke-width:0.252538"
       d="m 170.08374,521.59746 c -1.03793,-0.54871 -2.7594,-2.35737 -2.7594,-2.89917 0,-0.2189 0.35531,-0.43329 0.88178,-0.53206 1.19685,-0.22453 4.59845,-0.0341 4.90728,0.27474 0.15817,0.15817 0.16637,0.61866 0.0224,1.25819 -0.12488,0.5548 -0.29247,1.32123 -0.37242,1.7032 -0.123,0.58759 -0.27095,0.69276 -0.96131,0.68332 -0.44876,-0.006 -1.22202,-0.22584 -1.71834,-0.48822 z"
       id="path10269"
       transform="scale(0.01041667)" />
    <path
       style="fill:#ffffff;stroke-width:0.0892857"
       d="m 154.76351,529.8394 c -0.51826,-0.28466 -1.78514,-1.33484 -1.89128,-1.56777 -0.18963,-0.41621 0.30131,-0.71367 2.11474,-1.28133 4.65994,-1.45871 10.35179,-2.60208 12.95518,-2.60242 0.76574,-10e-5 1.37493,0.1155 1.37493,0.26092 0,0.14897 -0.44646,0.46465 -1.07275,0.75852 -0.63176,0.29643 -1.27344,0.51276 -6.02546,2.03133 -2.56415,0.81941 -3.91317,1.31027 -5.35903,1.94996 -1.41976,0.62813 -1.67394,0.68279 -2.09633,0.45079 z"
       id="path10271"
       transform="scale(0.01041667)" />
    <path
       style="fill:#ffffff;stroke-width:0.0892857"
       d="m 158.01121,532.72411 c -0.66025,-0.14709 -0.79912,-1.11696 -0.24738,-1.72768 0.73603,-0.81469 2.58054,-1.55754 10.0354,-4.0416 3.43453,-1.14444 4.6013,-1.47566 4.85513,-1.37825 0.20922,0.0803 0.17794,0.44681 -0.056,0.65676 -0.92943,0.834 -5.66645,2.94913 -7.16518,3.19933 -0.47074,0.0786 -1.24477,0.49163 -2.76785,1.47701 -2.22034,1.43647 -3.7223,2.02203 -4.65409,1.81443 z"
       id="path10273"
       transform="scale(0.01041667)" />
    <path
       style="fill:#ffffff;stroke-width:0.126269"
       d="m 273.55729,533.03183 c -0.44972,-0.57173 -0.52316,-1.41555 -0.53578,-6.15671 -0.0132,-4.94155 -0.10723,-5.96 -0.55049,-5.96 -0.48005,0 -0.73921,1.64951 -0.95224,6.06092 -0.15459,3.20133 -0.27115,3.87387 -0.7348,4.23981 -0.27993,0.22094 -0.46596,0.25831 -1.07045,0.21505 -1.7813,-0.12749 -1.97331,-1.52469 -0.70768,-5.14934 0.35162,-1.007 0.85725,-2.45594 1.12363,-3.21986 0.84075,-2.4111 0.91706,-3.61819 0.2339,-3.69971 -0.28663,-0.0342 -0.36804,0.0706 -0.83388,1.07329 -0.28394,0.61115 -0.98023,2.47489 -1.54733,4.14165 -1.14874,3.37628 -1.77587,4.82757 -2.38677,5.52334 -0.6749,0.76867 -1.76392,0.87951 -2.01346,0.20494 -0.26539,-0.71742 0.21425,-2.07847 1.97416,-5.60202 1.42756,-2.85812 2.1652,-4.64951 2.60783,-6.33324 0.24904,-0.94729 0.40802,-1.31463 0.66844,-1.54448 0.3258,-0.28756 0.40057,-0.29818 1.60859,-0.2283 3.19781,0.18498 4.17142,1.11639 4.60651,4.40684 0.15488,1.17135 0.52422,7.87747 0.55367,10.05322 l 0.0211,1.55582 -0.41237,0.36979 c -0.55226,0.49524 -1.28445,0.51694 -1.65254,0.049 z"
       id="path10275"
       transform="scale(0.01041667)" />
    <path
       style="fill:#ffffff;fill-opacity:1;stroke-width:0.252538"
       d="m 171.00808,440.43841 c -0.41669,-0.18393 -0.96993,-0.57262 -1.22942,-0.86375 -0.58875,-0.66053 -0.82659,-2.55323 -0.41701,-3.31853 0.29196,-0.54553 0.41637,-0.56569 2.91875,-0.47306 2.33979,0.0866 2.68146,0.16032 3.25926,0.70313 0.98745,0.92766 0.90049,2.3341 -0.21318,3.44777 -0.76649,0.76649 -1.00361,0.85757 -2.20971,0.84875 -0.74309,-0.005 -1.692,-0.16038 -2.10869,-0.34431 z"
       id="path10277"
       transform="scale(0.01041667)" />
    <path
       style="fill:#ffffff;fill-opacity:1;stroke-width:0.178571"
       d="m 172.02725,434.56348 c -1.22345,-0.34186 -2.28238,-1.13791 -2.75399,-2.07035 -0.49108,-0.97093 -0.50551,-1.44375 -0.0608,-1.99356 0.32737,-0.40477 0.44653,-0.42329 2.99107,-0.46479 2.14153,-0.0349 2.82066,0.0165 3.53882,0.26786 1.5095,0.52837 1.71096,1.44516 0.62099,2.82609 -1.09731,1.39023 -2.65306,1.90501 -4.33607,1.43475 z"
       id="path10279"
       transform="scale(0.01041667)" />
    <path
       style="fill:#ffffff;fill-opacity:1;stroke-width:0.178571"
       d="m 170.81524,429.21685 c -1.61757,-0.60365 -2.47948,-1.81522 -2.47948,-3.48536 0,-1.26169 0.27526,-1.36149 3.02505,-1.09676 2.7808,0.26772 4.47564,0.63245 4.89704,1.05385 0.30043,0.30043 0.31758,0.41489 0.13001,0.86772 -0.28374,0.68502 -1.52477,1.87724 -2.44787,2.35158 -0.94639,0.48632 -2.29278,0.61945 -3.12475,0.30897 z"
       id="path10281"
       transform="scale(0.01041667)" />
    <path
       style="fill:#ffffff;fill-opacity:1;stroke-width:0.178571"
       d="m 171.90719,423.92887 c -1.59468,-0.48684 -2.71135,-1.48557 -3.04456,-2.723 -0.30788,-1.14338 -0.10949,-1.2377 2.1517,-1.02299 1.03125,0.0979 2.57729,0.24448 3.43564,0.32567 1.72255,0.16295 2.10008,0.35759 2.10008,1.08277 0,1.67952 -2.5662,2.97153 -4.64286,2.33755 z"
       id="path10283"
       transform="scale(0.01041667)" />
    <path
       style="fill:#ffffff;fill-opacity:1;stroke-width:0.178571"
       d="m 171.8801,418.81528 c -0.45687,-0.14064 -1.25157,-0.57197 -1.766,-0.95851 -2.43963,-1.8331 -3.94544,-4.82078 -3.95869,-7.85442 -0.007,-1.53315 0.11654,-2.01405 1.12647,-4.39606 0.3765,-0.88801 0.77597,-2.04087 0.88772,-2.56192 0.18049,-0.84159 0.24596,-0.93615 0.58645,-0.84699 1.67187,0.43782 2.86176,0.6421 3.77614,0.64829 4.74859,0.0322 6.3781,1.48859 6.89311,6.1609 0.0974,0.88393 0.12559,1.96668 0.0626,2.40612 l -0.11457,0.79897 -0.95973,-1.8704 c -1.08608,-2.11667 -1.90754,-3.20969 -2.41224,-3.20969 -0.58312,0 -0.41153,0.76443 0.644,2.8691 1.95929,3.90671 1.9311,5.6206 -0.12519,7.61247 -1.42119,1.37667 -2.86116,1.74973 -4.64004,1.20214 z m -1.29535,-6.35383 c 0.0758,-0.12264 -0.28079,-0.58558 -0.88231,-1.14543 -0.55525,-0.51678 -1.00954,-1.04718 -1.00954,-1.17867 0,-0.13148 0.27834,-0.63054 0.61852,-1.10902 0.34018,-0.47847 0.71244,-1.15454 0.82723,-1.50238 0.18008,-0.54564 0.16634,-0.66341 -0.10015,-0.85828 -0.41473,-0.30325 -0.6292,-0.18939 -1.22482,0.65029 -0.68694,0.96843 -2.08506,3.73536 -2.08506,4.12642 0,0.39686 0.41735,0.62375 1.73411,0.94273 1.29943,0.31478 1.95914,0.33789 2.12202,0.0743 z"
       id="path10285"
       transform="scale(0.01041667)" />
    <path
       style="fill:#ffffff;fill-opacity:1;stroke-width:0.252538"
       d="m 171.93359,402.02404 c -2.81195,-0.77582 -3.98292,-2.31698 -3.5554,-4.6794 0.29863,-1.65019 0.68507,-1.77102 3.07933,-0.96283 1.11512,0.37642 2.54193,0.68439 3.17067,0.68439 1.64525,0 2.26809,0.6737 2.05567,2.22349 -0.34251,2.49889 -2.04719,3.48013 -4.75027,2.73435 z"
       id="path10287"
       transform="scale(0.01041667)" />
    <path
       style="fill:#ffffff;fill-opacity:1;stroke-width:0.252538"
       d="m 171.60448,395.3262 c -1.80661,-0.8338 -2.65165,-2.16596 -2.65165,-4.18016 0,-1.63971 0.28013,-1.76083 3.60658,-1.55939 3.16602,0.19172 4.68707,0.5152 4.8883,1.03957 0.23215,0.60499 -0.67668,3.24994 -1.36733,3.97933 -0.6416,0.67758 -1.93871,1.19938 -2.96067,1.19101 -0.27779,-0.002 -0.95964,-0.21394 -1.51523,-0.47036 z"
       id="path10289"
       transform="scale(0.01041667)" />
    <path
       style="fill:#ffffff;fill-opacity:1;stroke-width:0.252538"
       d="m 171.33135,388.23523 c -1.45656,-0.58924 -2.81048,-3.77962 -2.13757,-5.03697 0.20864,-0.38984 0.43434,-0.51174 0.72544,-0.39179 0.37228,0.15339 1.56125,0.32116 5.51797,0.77865 1.49486,0.17284 2.71395,1.05257 2.80987,2.02769 0.0895,0.90943 -0.93099,2.03934 -2.28555,2.53069 -0.95195,0.3453 -3.86089,0.40294 -4.63016,0.0917 z"
       id="path10291"
       transform="scale(0.01041667)" />
    <path
       style="fill:#ffffff;fill-opacity:1;stroke-width:0.252538"
       d="m 172.31566,382.43327 c -1.58334,-0.71886 -2.44162,-2.17124 -2.56411,-4.33901 -0.11571,-2.04787 0.0771,-2.99888 0.60811,-2.99888 0.21288,0 1.15565,0.39775 2.09504,0.88389 1.88823,0.97716 2.91907,1.09085 4.57935,0.50507 1.80287,-0.63608 1.85709,-0.59687 1.65867,1.19956 -0.0959,0.8681 -0.44678,2.17843 -0.77977,2.91185 -0.49502,1.0903 -0.80308,1.42319 -1.68918,1.82536 -1.36655,0.62022 -2.56063,0.62393 -3.90811,0.0122 z"
       id="path10293"
       transform="scale(0.01041667)" />
    <path
       style="fill:#ffffff;fill-opacity:1;stroke-width:0.252538"
       d="m 173.85821,375.11983 c -2.12561,-0.53416 -3.89523,-2.19738 -3.89523,-3.66103 0,-0.64618 0.61623,-2.42433 0.84016,-2.42433 0.0596,0 0.54835,0.18972 1.08617,0.4216 0.55698,0.24013 2.05265,0.49121 3.47499,0.58334 2.31421,0.1499 2.54082,0.21254 3.09359,0.85518 0.62717,0.72912 0.77602,1.87819 0.34712,2.6796 -0.62483,1.1675 -3.22215,1.97904 -4.9468,1.54564 z"
       id="path10295"
       transform="scale(0.01041667)" />
    <path
       style="fill:#ffffff;fill-opacity:1;stroke-width:0.252538"
       d="m 173.0114,368.84467 c -0.47626,-0.24285 -1.20982,-0.87193 -1.63013,-1.39796 -0.63072,-0.78935 -0.78228,-1.24035 -0.86771,-2.58202 -0.19803,-3.11003 0.32988,-3.60616 2.67121,-2.5104 0.99421,0.4653 2.03448,0.72004 3.30857,0.81022 1.84548,0.13062 1.861,0.13774 2.23171,1.02497 0.49286,1.17959 0.23735,2.84763 -0.5861,3.82625 -1.05403,1.25264 -3.51606,1.65067 -5.12755,0.82894 z"
       id="path10299"
       transform="scale(0.01041667)" />
    <path
       style="fill:#ffffff;fill-opacity:1;stroke-width:0.252538"
       d="m 174.44908,361.71983 c -2.1366,-0.66771 -3.47945,-2.43568 -3.47208,-4.57125 0.006,-1.75678 0.15258,-1.81905 2.14632,-0.9122 1.46731,0.66741 2.08286,0.80424 3.65819,0.81321 l 1.89404,0.0108 0.0765,1.0387 c 0.0934,1.26862 -0.4626,2.68403 -1.25495,3.19465 -0.77404,0.49882 -2.18441,0.69598 -3.04801,0.4261 z"
       id="path10301"
       transform="scale(0.01041667)" />
    <path
       style="fill:#ffa07a;fill-opacity:1;stroke-width:0.252538"
       d=""
       id="path10303"
       transform="scale(0.01041667)" />
    <path
       style="fill:#ffa07a;fill-opacity:1;stroke-width:0.252538"
       d=""
       id="path10305"
       transform="scale(0.01041667)" />
    <path
       style="fill:#ffffff;fill-opacity:1;stroke-width:0.252538"
       d="m 174.79737,349.96962 c -1.87587,-0.58519 -3.01395,-1.93845 -2.52771,-3.00564 0.47413,-1.0406 1.75525,-1.47954 4.01837,-1.37676 2.02462,0.0919 3.29854,0.64853 3.46961,1.51591 0.10593,0.53704 -0.96817,2.0102 -1.94619,2.6693 -0.96679,0.65151 -1.45529,0.68347 -3.01408,0.19719 z"
       id="path10307"
       transform="scale(0.01041667)" />
    <path
       style="fill:#ffffff;fill-opacity:1;stroke-width:0.252538"
       d="m 173.62479,355.29627 c -1.00251,-0.44183 -2.11767,-1.58977 -2.31738,-2.38551 -0.2196,-0.87493 0.63995,-2.44922 1.31323,-2.40525 1.06655,0.0696 5.31737,0.91184 5.73767,1.13678 0.49576,0.26532 0.58511,1.32951 0.19727,2.3496 -0.54423,1.43143 -3.10531,2.10893 -4.93079,1.30438 z"
       id="path10309"
       transform="scale(0.01041667)" />
    <path
       style="fill:#ffffff;fill-opacity:1;stroke-width:0.252538"
       d="m 174.95379,344.14295 c -1.01299,-0.54964 -1.55842,-1.76255 -1.54631,-3.43866 0.012,-1.65572 0.46865,-2.52253 1.6512,-3.13406 0.97886,-0.50618 2.53193,-0.3447 4.02872,0.41891 l 1.04158,0.53137 -0.15967,1.35849 c -0.2679,2.27947 -0.9233,3.71202 -1.92927,4.21694 -1.06457,0.53433 -2.15744,0.55098 -3.08625,0.047 z"
       id="path10311"
       transform="scale(0.01041667)" />
    <path
       style="fill:#ffffff;fill-opacity:1;stroke-width:0.252538"
       d="m 176.40271,336.00317 c -0.83183,-0.29227 -1.29898,-0.65157 -1.60463,-1.23415 -0.42745,-0.81471 -0.35164,-2.21978 0.15341,-2.84349 0.42352,-0.52302 0.54458,-0.53666 2.77627,-0.31281 2.88392,0.28927 3.18745,0.50371 3.03015,2.14082 -0.16141,1.67979 -0.7793,2.25941 -2.5093,2.35388 -0.73745,0.0403 -1.56811,-0.007 -1.8459,-0.10425 z"
       id="path10313"
       transform="scale(0.01041667)" />
    <path
       style="fill:#ffffff;fill-opacity:1;stroke-width:0.252538"
       d="m 176.46902,330.25335 c -1.86758,-1.01334 -1.90321,-4.04921 -0.0547,-4.65928 0.83755,-0.27642 2.686,-0.14526 3.80038,0.26965 1.41544,0.527 1.73192,1.73257 0.83556,3.1829 -0.93618,1.51477 -3.00785,2.06046 -4.58126,1.20673 z"
       id="path10315"
       transform="scale(0.01041667)" />
    <path
       style="fill:#ffffff;fill-opacity:1;stroke-width:0.252538"
       d="m 177.71489,324.00362 c -1.75709,-1.06367 -2.4184,-2.69591 -1.44805,-3.57406 0.45167,-0.40875 0.68054,-0.42134 2.58852,-0.14238 2.48113,0.36275 3.73453,0.8352 3.73453,1.40765 0,0.49973 -0.88764,1.84039 -1.61906,2.44537 -0.73625,0.60898 -2.12025,0.55093 -3.25594,-0.13658 z"
       id="path10317"
       transform="scale(0.01041667)" />
    <path
       style="fill:#ffffff;fill-opacity:1;stroke-width:0.252538"
       d="m 178.54928,319.10674 c -0.89247,-0.32474 -1.76777,-1.43912 -1.76777,-2.2506 0,-1.58599 0.79632,-1.83482 4.39011,-1.37178 2.27848,0.29357 2.55249,0.57045 1.93218,1.95245 -0.28606,0.63733 -0.77772,1.21348 -1.23914,1.45209 -0.73951,0.38242 -2.53829,0.50061 -3.31538,0.21784 z"
       id="path10319"
       transform="scale(0.01041667)" />
    <path
       style="fill:#ffffff;fill-opacity:1;stroke-width:0.252538"
       d="m 178.92809,314.01563 c -1.4007,-0.63716 -1.70616,-1.07447 -1.50385,-2.15291 0.26869,-1.43225 0.56829,-1.54502 3.26602,-1.22933 1.29874,0.15198 2.59838,0.40319 2.8881,0.55824 1.0401,0.55665 0.49219,1.56991 -1.49355,2.76207 -1.07875,0.64764 -1.83646,0.6625 -3.15672,0.0619 z"
       id="path10321"
       transform="scale(0.01041667)" />
    <path
       style="fill:#ffffff;fill-opacity:1;stroke-width:0.252538"
       d="m 179.85733,309.01076 c -1.15065,-0.56702 -2.24931,-2.01863 -1.83764,-2.42799 0.38773,-0.38554 5.58203,-0.32979 6.32509,0.0679 0.55731,0.29826 0.66832,1.02182 0.27075,1.7647 -0.53619,1.00187 -3.24539,1.34088 -4.7582,0.5954 z"
       id="path10323"
       transform="scale(0.01041667)" />
    <path
       style="fill:#ffffff;fill-opacity:1;stroke-width:0.252538"
       d="m 179.56017,304.69999 c -1.11638,-0.55817 -1.28022,-1.23554 -0.38148,-1.57724 0.88964,-0.33824 5.60692,-0.32983 5.81718,0.0104 0.0896,0.14501 -0.0162,0.53711 -0.23525,0.87136 -0.73016,1.11436 -3.59608,1.49765 -5.20045,0.69551 z"
       id="path10325"
       transform="scale(0.01041667)" />
    <path
       style="fill:#ffffff;fill-opacity:1;stroke-width:0.252538"
       d="m 179.73209,301.05179 c -0.50205,-0.37937 -0.82708,-2.16023 -0.48578,-2.66164 0.15727,-0.23104 0.43916,-0.24749 1.08198,-0.0631 0.47812,0.13712 1.47033,0.24931 2.20491,0.24931 2.90003,0 4.18857,1.47716 1.95073,2.23628 -1.54045,0.52255 -4.19971,0.6564 -4.75184,0.23918 z"
       id="path10327"
       transform="scale(0.01041667)" />
    <path
       style="fill:#ffffff;fill-opacity:1;stroke-width:0.252538"
       d="m 180.52449,297.05316 c -1.09405,-0.57789 -1.48505,-1.44476 -0.85835,-1.90302 0.58919,-0.43083 2.51423,-0.68203 3.76558,-0.49138 2.60301,0.39657 3.1139,1.16938 1.49866,2.26697 -1.17707,0.79984 -3.03136,0.85347 -4.40589,0.12743 z"
       id="path10329"
       transform="scale(0.01041667)" />
    <path
       style="fill:#ffffff;fill-opacity:1;stroke-width:0.252538"
       d="m 205.18704,283.48718 c -1.13714,-1.52615 -3.26709,-5.88803 -3.63078,-7.43544 -0.74894,-3.18649 0.0892,-4.90312 2.14238,-4.38781 1.53583,0.38547 4.89465,4.47365 5.94359,7.23423 0.86881,2.28652 0.4899,3.71007 -1.3404,5.03594 -1.47855,1.07106 -2.0442,0.9899 -3.11479,-0.44692 z"
       id="path10331"
       transform="scale(0.01041667)" />
    <path
       style="fill:#ffffff;fill-opacity:1;stroke-width:0.252538"
       d="m 201.52755,285.84421 c -1.27353,-0.47629 -3.81973,-1.81954 -4.45029,-2.34776 -0.98059,-0.82142 -1.17297,-1.48981 -0.70975,-2.46597 0.62719,-1.32171 2.47839,-3.20743 2.96529,-3.02059 0.80305,0.30816 3.94631,5.99632 4.03834,7.30793 0.0631,0.89852 -0.45392,1.04612 -1.84359,0.52639 z"
       id="path10333"
       transform="scale(0.01041667)" />
    <path
       style="fill:#ffa07a;fill-opacity:1;stroke-width:0.252538"
       d=""
       id="path10335"
       transform="scale(0.01041667)" />
    <path
       style="fill:#ffffff;fill-opacity:1;stroke-width:0.252538"
       d="m 211.69654,277.9587 c -0.36644,-0.15344 -4.24535,-6.32542 -4.78092,-7.60721 -0.20031,-0.4794 -0.30815,-0.92768 -0.23965,-0.99618 0.25386,-0.25386 2.80302,2.40311 4.62182,4.81728 1.41544,1.87879 1.85815,2.65516 1.80003,3.15673 -0.0766,0.66086 -0.67946,0.93164 -1.40128,0.62938 z"
       id="path10337"
       transform="scale(0.01041667)" />
    <path
       style="fill:#ffffff;fill-opacity:1;stroke-width:0.252538"
       d="m 207.93394,287.58809 c -0.32974,-0.8593 3.97966,-4.90574 4.8634,-4.56662 0.67051,0.2573 0.32576,2.28286 -0.54284,3.18949 -1.33988,1.39854 -3.9884,2.24272 -4.32056,1.37713 z"
       id="path10339"
       transform="scale(0.01041667)" />
    <path
       style="fill:#ffffff;fill-opacity:1;stroke-width:0.252538"
       d="m 211.72387,291.51096 c -1.61909,-0.37339 -3.06937,-1.92766 -2.41204,-2.58499 0.14058,-0.14059 0.80147,-0.35759 1.46864,-0.48223 0.66717,-0.12464 1.6525,-0.51744 2.18961,-0.87288 1.25787,-0.83242 2.38178,-0.87663 2.99621,-0.11784 0.25504,0.31496 0.46371,0.79823 0.46371,1.07393 0,1.78124 -2.64615,3.45908 -4.70613,2.98401 z"
       id="path10341"
       transform="scale(0.01041667)" />
    <path
       style="fill:#ffffff;fill-opacity:1;stroke-width:0.252538"
       d="m 214.35225,296.78945 c -0.56739,-0.32795 -1.96286,-2.35896 -1.96286,-2.8568 0,-0.73264 4.89007,-3.09766 5.80471,-2.80736 0.253,0.0803 0.64882,0.5439 0.87959,1.03022 0.88563,1.86631 -0.65253,3.7837 -3.80211,4.7395 -0.26569,0.0806 -0.67939,0.0331 -0.91933,-0.10556 z"
       id="path10343"
       transform="scale(0.01041667)" />
    <path
       style="fill:#ffffff;fill-opacity:1;stroke-width:0.252538"
       d="m 218.32404,301.98505 c -1.40392,-0.49641 -2.65165,-1.90198 -2.65165,-2.98706 0,-1.32569 1.57695,-2.38057 3.9203,-2.62243 1.98586,-0.20496 2.51875,0.0113 3.12777,1.26939 1.02943,2.12651 0.44552,3.93297 -1.44059,4.45681 -1.2147,0.33736 -1.72911,0.31705 -2.95583,-0.11671 z"
       id="path10345"
       transform="scale(0.01041667)" />
    <path
       style="fill:#ffffff;fill-opacity:1;stroke-width:0.252538"
       d="m 220.84942,306.93841 c -1.2967,-0.56801 -2.02872,-2.38294 -1.26795,-3.14371 0.23108,-0.23108 0.69978,-0.42015 1.04156,-0.42015 0.78664,0 1.97197,-0.49562 3.22365,-1.34789 0.53733,-0.36587 1.07929,-0.60197 1.20436,-0.52467 0.60841,0.37602 1.59408,2.88575 1.50957,3.84371 -0.0778,0.88238 -4.51067,2.11859 -5.71119,1.59271 z"
       id="path10347"
       transform="scale(0.01041667)" />
    <path
       style="fill:#ffffff;fill-opacity:1;stroke-width:0.252538"
       d="m 224.111,311.34935 c -0.84899,-0.36965 -1.93901,-1.58846 -1.79825,-2.01072 0.12577,-0.37732 3.36935,-2.09126 4.50147,-2.37862 1.15288,-0.29264 1.73106,0.0304 2.33604,1.30533 1.0513,2.21545 0.0649,3.44872 -2.745,3.43214 -0.83338,-0.005 -1.8658,-0.16157 -2.29426,-0.34813 z"
       id="path10349"
       transform="scale(0.01041667)" />
    <path
       style="fill:#ffffff;fill-opacity:1;stroke-width:0.252538"
       d="m 226.46203,316.00297 c -0.88481,-0.69848 -1.55808,-2.2135 -1.18398,-2.66426 0.32213,-0.38815 2.95778,-0.87278 4.74656,-0.87278 0.97602,0 1.43477,0.12963 1.81919,0.51405 0.49784,0.49784 0.5,0.53784 0.0684,1.26843 -1.12461,1.90382 -4.06287,2.84972 -5.4502,1.75456 z"
       id="path10351"
       transform="scale(0.01041667)" />
    <path
       style="fill:#ffffff;fill-opacity:1;stroke-width:0.252538"
       d="m 236.38051,330.64539 c -0.48613,-0.0857 -1.1325,-0.29063 -1.43637,-0.45551 -1.03223,-0.56006 -4.35112,-6.00001 -4.36646,-7.157 -0.003,-0.23015 -0.74422,-1.28764 -1.64704,-2.34999 -1.68037,-1.97727 -1.97848,-2.73013 -1.19956,-3.02945 0.97137,-0.37327 3.95538,-0.89436 5.12152,-0.89436 1.47663,0 1.89306,0.51505 1.68295,2.08153 -0.14962,1.11547 -0.86814,2.01888 -1.96805,2.47448 -0.40297,0.16692 -0.73267,0.47513 -0.73267,0.68491 0,0.63574 1.92685,0.21511 3.19872,-0.69828 1.31832,-0.94674 1.5179,-0.85652 2.48703,1.1243 1.01382,2.07218 0.41058,2.96311 -2.50303,3.69677 -0.86816,0.2186 -1.16596,0.40858 -1.10937,0.70772 0.1164,0.61528 1.44364,0.63465 2.94476,0.043 1.77069,-0.69794 2.82671,-0.66868 3.65758,0.10134 0.36752,0.34061 0.66822,0.83667 0.66822,1.10237 0,0.55573 -0.83721,1.70355 -1.5021,2.05939 -0.79269,0.42423 -2.38294,0.66972 -3.29613,0.50882 z"
       id="path10353"
       transform="scale(0.01041667)" />
    <path
       style="fill:#ffffff;fill-opacity:1;stroke-width:0.252538"
       d="m 241.55755,339.25953 c -1.25492,-0.58317 -2.54992,-1.95472 -3.75093,-3.97266 -1.20124,-2.01832 -1.4057,-2.98096 -0.712,-3.35222 0.28346,-0.1517 0.85224,-0.27582 1.26395,-0.27582 0.41172,0 1.40142,-0.34342 2.19935,-0.76316 0.84225,-0.44305 1.6447,-0.7016 1.91312,-0.61641 0.60166,0.19096 1.48562,1.44058 1.48562,2.10018 0,0.74504 -1.36255,1.65992 -3.4724,2.33152 -1.007,0.32055 -1.8309,0.68105 -1.8309,0.80112 0,0.23731 1.22723,0.1079 4.51994,-0.47661 1.6574,-0.29422 2.27552,-0.31241 2.82875,-0.0833 1.47123,0.60941 1.96746,2.48361 0.91848,3.46907 -1.39429,1.30987 -3.60466,1.65536 -5.36298,0.83825 z"
       id="path10355"
       transform="scale(0.01041667)" />
    <path
       style="fill:#ffffff;fill-opacity:1;stroke-width:0.252538"
       d="m 244.71427,344.74684 c -0.48613,-0.13735 -1.15422,-0.49617 -1.48464,-0.79736 -1.09682,-0.99983 -1.79313,-3.44513 -0.88139,-3.09526 0.22655,0.0869 1.5882,-0.13087 3.02591,-0.48401 2.80414,-0.68877 3.63742,-0.65155 4.58029,0.20461 0.77395,0.70278 0.71339,1.50768 -0.19094,2.53766 -1.27041,1.44692 -3.34078,2.11707 -5.04923,1.63436 z"
       id="path10357"
       transform="scale(0.01041667)" />
    <path
       style="fill:#ffffff;fill-opacity:1;stroke-width:0.252538"
       d="m 248.0754,349.70694 c -1.50581,-0.75038 -2.84702,-2.42439 -2.38675,-2.97899 0.15529,-0.18711 0.88031,-0.47464 1.61115,-0.63894 0.73085,-0.16431 1.82339,-0.58044 2.42788,-0.92474 1.28021,-0.72917 2.46679,-0.79477 3.22766,-0.17844 1.78277,1.4441 1.34441,4.10597 -0.82548,5.01261 -1.24792,0.52142 -2.62129,0.42268 -4.05446,-0.2915 z"
       id="path10359"
       transform="scale(0.01041667)" />
    <path
       style="fill:#ffffff;fill-opacity:1;stroke-width:0.252538"
       d="m 251.78714,354.99512 c -1.06089,-0.46006 -1.94506,-1.25145 -2.4218,-2.16767 -0.39132,-0.75208 -0.45413,-0.71463 2.47256,-1.47429 0.65394,-0.16974 1.65329,-0.70604 2.22076,-1.19178 1.01507,-0.86886 1.04023,-0.87553 1.55342,-0.41208 0.78769,0.71135 2.02198,3.32375 1.93317,4.0916 -0.16049,1.38749 -3.62073,2.08111 -5.75811,1.15422 z"
       id="path10361"
       transform="scale(0.01041667)" />
    <path
       style="fill:#ffffff;fill-opacity:1;stroke-width:0.252538"
       d="m 255.57341,360.5362 c -1.14998,-0.45852 -3.03676,-2.96066 -2.57826,-3.41916 0.14503,-0.14503 1.17369,-0.35543 2.28591,-0.46756 1.11221,-0.11212 2.26364,-0.33307 2.55873,-0.49099 0.97951,-0.52422 1.85588,-0.22105 2.36339,0.81759 0.6268,1.28278 0.31986,2.16039 -1.01566,2.90405 -1.04571,0.58228 -2.93774,0.92574 -3.61411,0.65607 z"
       id="path10363"
       transform="scale(0.01041667)" />
    <path
       style="fill:#ffffff;fill-opacity:1;stroke-width:0.252538"
       d="m 257.10802,363.83499 c -1.07956,-0.90839 -0.99992,-1.46108 0.29629,-2.05619 2.46808,-1.13313 4.55947,-1.35277 5.07271,-0.53275 0.58982,0.94238 -2.20056,3.24273 -3.93351,3.24273 -0.36217,0 -1.00815,-0.2942 -1.43549,-0.65379 z"
       id="path10365"
       transform="scale(0.01041667)" />
    <path
       style="fill:#ffffff;fill-opacity:1;stroke-width:0.252538"
       d="m 260.00062,368.50236 c -1.08746,-0.95481 -1.69316,-2.01874 -1.41005,-2.47682 0.11129,-0.18008 0.75643,-0.43042 1.43365,-0.55633 0.67721,-0.1259 1.85447,-0.61508 2.61611,-1.08706 1.57823,-0.97801 1.97701,-0.90933 2.62288,0.45174 0.98905,2.08427 0.0873,3.10656 -3.7976,4.3051 -0.40499,0.12495 -0.78634,-0.0408 -1.46499,-0.63663 z"
       id="path10367"
       transform="scale(0.01041667)" />
    <path
       style="fill:#ffffff;fill-opacity:1;stroke-width:0.252538"
       d="m 263.21565,373.713 c -0.71539,-0.31362 -2.33894,-2.36352 -2.33894,-2.95315 0,-0.10782 0.65345,-0.37544 1.4521,-0.5947 1.94699,-0.53453 3.83212,-1.39569 4.10599,-1.8757 0.33291,-0.5835 1.02097,-0.0743 1.71079,1.26609 0.88833,1.72613 0.38878,2.91714 -1.58677,3.78313 -1.52858,0.67007 -2.43665,0.77174 -3.34317,0.37433 z"
       id="path10369"
       transform="scale(0.01041667)" />
    <path
       style="fill:#ffffff;fill-opacity:1;stroke-width:0.252538"
       d="m 265.76318,377.93644 c -0.35489,-0.38196 -0.86107,-1.11653 -1.12483,-1.63236 -0.45414,-0.88812 -0.45611,-0.94988 -0.0372,-1.16399 0.24333,-0.12436 0.83504,-0.30075 1.31491,-0.39198 0.47988,-0.0912 1.64246,-0.52077 2.58351,-0.95453 1.93282,-0.89089 2.25609,-0.80674 2.90994,0.7575 0.30764,0.73599 0.30328,0.92065 -0.0339,1.43528 -0.78166,1.19296 -3.21983,2.64456 -4.44194,2.64456 -0.28888,0 -0.81561,-0.31252 -1.1705,-0.69448 z"
       id="path10371"
       transform="scale(0.01041667)" />
    <path
       style="fill:#ffffff;fill-opacity:1;stroke-width:0.252538"
       d="m 273.04484,389.9784 c -3.94274,-1.97021 -6.05384,-6.04334 -4.74984,-9.16425 0.44698,-1.06978 1.80292,-2.61188 2.70819,-3.08002 1.41289,-0.73063 2.06589,-0.50421 4.54527,1.57604 1.273,1.06807 2.63416,2.38316 3.0248,2.92242 1.47265,2.03293 2.0205,5.30726 1.16076,6.93752 -0.59592,1.13002 -1.60429,1.58264 -3.52587,1.58264 -1.29548,0 -1.91929,-0.1527 -3.16331,-0.77435 z m 0.13816,-4.05205 c 1.32668,-0.64223 1.27787,-1.05831 -0.14689,-1.25216 -1.29925,-0.17677 -1.57612,-0.43921 -2.05787,-1.95063 -0.2849,-0.89382 -0.50402,-1.18845 -0.88388,-1.18845 -1.22835,0 -0.40149,4.12339 0.93434,4.65939 0.83387,0.3346 0.93528,0.32198 2.1543,-0.26815 z m 5.11884,-2.26962 c 0,-1.08122 -2.45738,-2.66944 -3.11414,-2.01268 -0.30979,0.30979 0.54799,1.33916 1.72518,2.07028 0.98667,0.6128 1.38896,0.59612 1.38896,-0.0576 z"
       id="path10375"
       transform="scale(0.01041667)" />
    <path
       style="fill:#ffffff;fill-opacity:1;stroke-width:0.252538"
       d="m 273.83541,437.73741 c -0.95705,-0.58355 -1.26888,-1.10821 -1.49348,-2.51277 -0.20951,-1.31023 0.34377,-2.04548 1.53924,-2.04548 1.0246,0 4.63594,0.91737 5.08788,1.29245 0.18862,0.15654 0.34295,0.67388 0.34295,1.14964 0,1.99873 -3.47013,3.33959 -5.47659,2.11616 z"
       id="path10377"
       transform="scale(0.01041667)" />
    <path
       style="fill:#ffffff;fill-opacity:1;stroke-width:0.252538"
       d="m 275.65019,432.26519 c -1.29052,-0.38194 -2.77148,-1.6467 -2.57571,-2.19968 0.25783,-0.72826 4.099,0.18277 5.7613,1.36643 0.74903,0.53336 0.76929,0.58793 0.33586,0.90487 -0.58891,0.43061 -1.91568,0.40363 -3.52145,-0.0716 z"
       id="path10379"
       transform="scale(0.01041667)" />
    <path
       style="fill:#ffffff;fill-opacity:1;stroke-width:0.252538"
       d="m 275.60663,428.84267 c -0.44065,-0.14907 -1.17674,-0.65852 -1.63576,-1.13211 -0.65755,-0.67842 -0.83458,-1.07216 -0.83458,-1.85623 0,-0.54734 0.14487,-1.14031 0.32192,-1.31772 0.4439,-0.44478 5.60438,-0.60007 6.36759,-0.19162 0.51219,0.27412 0.54952,0.43513 0.42338,1.82626 -0.18121,1.99832 -0.86921,2.75047 -2.61933,2.86352 -0.67212,0.0434 -1.58257,-0.043 -2.02322,-0.1921 z"
       id="path10381"
       transform="scale(0.01041667)" />
    <path
       style="fill:#ffffff;fill-opacity:1;stroke-width:0.252538"
       d="m 274.96082,422.83365 c -0.90142,-0.70906 -1.24361,-1.72802 -1.15534,-3.44034 l 0.077,-1.49271 2.52538,-0.0762 c 2.9655,-0.0894 3.9227,0.05 4.70799,0.6859 0.50418,0.40826 0.53985,0.5492 0.28215,1.1148 -0.46382,1.01798 -2.08559,2.68443 -3.13195,3.21824 -1.22298,0.62392 -2.50442,0.62015 -3.30518,-0.01 z"
       id="path10383"
       transform="scale(0.01041667)" />
    <path
       style="fill:#ffffff;fill-opacity:1;stroke-width:0.252538"
       d="m 275.7815,416.32184 c -1.40635,-0.70657 -2.02534,-1.86678 -2.02534,-3.79621 v -1.63848 l 1.19955,0.17092 c 0.65976,0.094 2.14385,0.24046 3.29797,0.32543 3.02225,0.22253 3.89295,1.04302 2.97635,2.8047 -0.4911,0.94388 -1.37625,1.72328 -2.48158,2.18512 -1.20716,0.50438 -1.88396,0.49264 -2.96695,-0.0515 z"
       id="path10385"
       transform="scale(0.01041667)" />
    <path
       style="fill:#ffffff;fill-opacity:1;stroke-width:0.252538"
       d="m 275.67621,409.84066 c -0.54127,-0.20135 -1.1588,-0.54076 -1.37229,-0.75425 -0.41785,-0.41785 -0.71187,-2.99821 -0.45723,-4.01276 0.4421,-1.76147 4.13819,-1.43329 6.22602,0.55281 1.53416,1.45941 1.60461,2.99292 0.18038,3.92612 -0.87503,0.57334 -3.38527,0.73134 -4.57688,0.28808 z"
       id="path10387"
       transform="scale(0.01041667)" />
    <path
       style="fill:#ffffff;fill-opacity:1;stroke-width:0.252538"
       d="m 276.99941,403.39937 c -1.89115,-0.60886 -2.99532,-1.89058 -2.98685,-3.46714 0.007,-1.38583 0.91428,-1.92322 3.28198,-1.9449 1.9562,-0.0179 3.11869,0.52872 3.87372,1.82152 0.41486,0.71033 0.44392,0.96847 0.20053,1.78086 -0.15657,0.52256 -0.51178,1.15564 -0.78936,1.40685 -0.5703,0.51611 -2.53978,0.73771 -3.58002,0.40281 z"
       id="path10389"
       transform="scale(0.01041667)" />
    <path
       style="fill:#ffffff;fill-opacity:1;stroke-width:0.252538"
       d="m 275.14072,396.49513 c -0.53994,-0.46443 -0.69004,-0.85926 -0.80386,-2.11441 -0.18308,-2.01911 0.31659,-2.61782 2.18479,-2.61782 0.68764,0 1.83809,-0.12606 2.55655,-0.28015 1.65816,-0.35561 1.79449,-0.17719 1.69239,2.21499 -0.0953,2.23185 -0.45353,2.69325 -2.39387,3.08292 -2.00998,0.40367 -2.48332,0.3619 -3.236,-0.28553 z"
       id="path10391"
       transform="scale(0.01041667)" />
    <path
       style="fill:#ffffff;stroke-width:0.0631345"
       d="m 28.528816,23.477949 c -0.263022,-0.160372 -0.546128,-0.554604 -0.720175,-1.002863 -0.204771,-0.527388 -0.206183,-1.441528 -0.0029,-1.854355 0.14253,-0.289397 0.456884,-0.617035 0.592018,-0.617035 0.133641,0 0.847674,0.817469 1.141923,1.307342 0.430835,0.717266 0.748975,1.484031 0.760816,1.833682 0.0098,0.289504 0.0069,0.293892 -0.242616,0.370457 -0.138896,0.04262 -0.494028,0.07956 -0.789182,0.0821 -0.427794,0.0037 -0.577875,-0.02052 -0.739921,-0.119327 z"
       id="path97"
       transform="scale(0.01041667)" />
    <path
       style="fill:#ffffff;stroke-width:0.0631345"
       d="m 31.967739,16.773589 c -0.09549,-0.03488 -0.17362,-0.0845 -0.17362,-0.110279 0,-0.17916 0.894986,-0.662485 1.362297,-0.735689 0.218332,-0.0342 0.285471,-0.01595 0.441941,0.120151 0.177186,0.154118 0.180681,0.167451 0.08817,0.336365 -0.05298,0.09674 -0.19213,0.240448 -0.309225,0.319359 -0.180008,0.121307 -0.291931,0.142703 -0.724424,0.138489 -0.281338,-0.0027 -0.589652,-0.03352 -0.685143,-0.0684 z"
       id="path99"
       transform="scale(0.01041667)" />
    <path
       style="fill:#ffffff;stroke-width:0.0631345"
       d="m 36.813314,16.014792 c -0.381617,-0.199646 -0.8146,-0.58377 -1.408606,-1.249655 -0.493956,-0.553729 -0.76871,-0.918508 -0.769299,-1.021367 -6.1e-4,-0.106374 0.463292,-0.179684 1.129823,-0.178546 1.795258,0.0031 2.469133,0.329379 2.380392,1.152668 -0.07012,0.650507 -0.587618,1.438836 -0.939916,1.431807 -0.07692,-0.0015 -0.253498,-0.06224 -0.392394,-0.134907 z"
       id="path101"
       transform="scale(0.01041667)" />
  </g>
  <g
     inkscape:label="Layer 1"
     inkscape:groupmode="layer"
     id="layer1"
     transform="translate(-0.11607134,-0.06060415)"
     sodipodi:insensitive="true">
    <path
       style="fill:#000000;stroke-width:0.00703467"
       d="m 2.9423046,5.6306566 c -0.00914,-0.01377 -0.011919,-0.014507 -0.022272,-0.00592 -0.010326,0.00857 -0.013142,0.00794 -0.022158,-0.00494 -0.00601,-0.00861 -0.019807,-0.015665 -0.033105,-0.016948 -0.030856,-0.00298 -0.032544,-0.021723 -0.00662,-0.073692 0.025568,-0.051311 0.038703,-0.103559 0.032794,-0.1304582 -0.00324,-0.01485 -0.00128,-0.022983 0.00696,-0.029034 0.018105,-0.013239 0.035056,-0.1389282 0.035738,-0.2649559 3.222e-4,-0.05997 0.00452,-0.1412533 0.0093,-0.1806288 0.00728,-0.059831 0.00695,-0.088722 -0.00203,-0.1758661 -0.00813,-0.079051 -0.00904,-0.1187384 -0.00378,-0.1640688 0.015607,-0.133882 0.017417,-0.4422871 0.00263,-0.4478141 -0.038136,-0.014253 -0.059077,-0.040233 -0.059077,-0.073292 -7e-7,-0.027638 -0.00662,-0.042581 -0.046672,-0.1055196 C 2.7494626,3.8247105 2.6832969,3.7232956 2.6416029,3.662618 2.5836113,3.578223 2.4824873,3.4154779 2.4492741,3.3530935 2.4338254,3.3240757 2.4062991,3.2781746 2.3881051,3.2510912 2.3699105,3.2240078 2.3431338,3.1828552 2.3286008,3.1596408 2.2825753,3.0861229 2.2579259,3.059874 2.2342814,3.0592017 2.2226456,3.0588711 2.203858,3.0517454 2.192526,3.0433673 2.16398,3.0222641 2.147448,3.0273128 2.1398438,3.0594502 c -0.00561,0.023611 -0.024926,0.048936 -0.056201,0.073589 -0.00642,0.00504 -0.012642,0.025314 -0.015168,0.049243 -0.00862,0.081647 -0.019031,0.154342 -0.028999,0.2024674 -0.020408,0.098496 -0.038102,0.287326 -0.038109,0.4066912 -5.4e-6,0.065049 -0.00392,0.164765 -0.00877,0.2215913 -0.013,0.1534403 -0.011791,0.2468703 0.00344,0.2684414 0.017106,0.024173 0.015384,0.056627 -0.00567,0.106644 -0.017849,0.0424 -0.017997,0.044436 -0.020584,0.2758979 -0.00142,0.1282506 -0.00615,0.2724491 -0.010542,0.3204411 -0.00439,0.047992 -0.00669,0.1287145 -0.0052,0.1793834 0.00149,0.050669 4.7e-6,0.1380264 -0.00331,0.1941277 -0.00331,0.056101 -0.00635,0.109395 -0.00675,0.1184303 -3.944e-4,0.00904 0.00648,0.026151 0.015256,0.038036 0.021739,0.029401 0.014898,0.037292 -0.056511,0.065193 C 1.7772631,5.6286489 1.7620548,5.6304839 1.72272,5.6013459 1.703764,5.5873039 1.677967,5.5692219 1.665392,5.5611649 1.631861,5.5396779 1.635418,5.5234299 1.675944,5.5129669 c 0.08582,-0.022157 0.1504718,-0.045252 0.1558083,-0.055657 0.017315,-0.033762 0.02887,-0.2933989 0.022576,-0.5073509 -8.779e-4,-0.029018 6.186e-4,-0.1003897 0.00324,-0.158604 0.00943,-0.2070825 -0.00209,-0.3941543 -0.025926,-0.4202346 -0.024474,-0.026798 -0.024298,-0.022762 -0.00304,-0.069257 0.018052,-0.039477 0.020753,-0.067162 0.045612,-0.4671323 0.00385,-0.062035 0.011501,-0.1348438 0.016991,-0.1617969 0.00547,-0.026953 0.015269,-0.086993 0.021732,-0.1334212 0.00648,-0.046429 0.016282,-0.1144889 0.021813,-0.1512449 0.012041,-0.079992 0.031335,-0.2335124 0.031335,-0.2493408 0,-0.00621 -0.014439,-0.019915 -0.032085,-0.030459 C 1.9046717,3.090939 1.9022946,3.087484 1.9062857,3.0681906 1.9247154,2.9791196 1.9238442,2.957901 1.8986073,2.8804164 1.8863488,2.8425223 1.8204646,2.7757852 1.7640966,2.7440778 1.7456308,2.7336907 1.7146945,2.7149922 1.6953492,2.7025257 1.6308395,2.6609542 1.5767782,2.6339046 1.5020753,2.6058205 1.4187308,2.5744879 1.4282706,2.5752981 1.1747854,2.5780229 0.91539532,2.5808113 0.80187283,2.5550836 0.68194461,2.4663301 0.65508987,2.4464561 0.62133478,2.4241508 0.60693339,2.4167628 0.52879189,2.3766756 0.42026607,2.2269479 0.3934324,2.1222058 0.35258085,1.9627466 0.41421481,1.7805767 0.6076961,1.4889126 0.73335757,1.2994836 0.81168626,1.1347443 0.88029451,0.91558893 0.92175919,0.78313853 0.90898533,0.54456467 0.85712921,0.48293719 0.80445278,0.42033488 0.74653561,0.41842371 0.65059159,0.4761218 0.59846989,0.5074664 0.53850666,0.5298028 0.48876911,0.5364007 0.42088581,0.5454057 0.33358839,0.74162488 0.31608739,0.92453859 c -0.005774,0.0603161 -0.008598,0.0630437 -0.0492569,0.0475159 -0.0676224,-0.0258251 -0.15075915,-0.15765342 -0.15075915,-0.23905566 0,-0.0633841 0.0232677,-0.14481141 0.0611926,-0.21415003 0.0514999,-0.094157 0.0847801,-0.16384574 0.10495403,-0.21977244 0.10927158,-0.30292639 0.52367751,-0.3217442 0.67552171,-0.0306749 0.15532102,0.29773395 0.17100502,0.65722405 0.039184,0.89812804 -0.015514,0.028352 -0.0354822,0.06896 -0.0443737,0.09024 -0.0166776,0.039914 -0.12036967,0.210234 -0.20359623,0.3344185 -0.13096454,0.1954157 -0.15002561,0.2807367 -0.0942333,0.4218056 0.10208436,0.2581168 0.26347861,0.2688704 0.43120415,0.028731 0.015986,-0.022888 0.029066,-0.044213 0.029066,-0.047388 0,-0.00317 0.014698,-0.031931 0.032661,-0.063904 0.017964,-0.031973 0.040452,-0.073835 0.049974,-0.093027 0.1676249,-0.3378767 0.4885897,-0.4862486 0.8670423,-0.4008063 0.025149,0.00568 0.070471,0.015265 0.1007161,0.021305 0.098039,0.019578 0.3257867,0.1091306 0.4339172,0.1706212 0.040769,0.023185 0.1900279,0.090324 0.2499097,0.1124147 0.1625003,0.059947 0.3784824,0.1750932 0.5098319,0.2718057 0.032888,0.024214 0.068571,0.049624 0.079299,0.056465 0.010731,0.00684 0.037271,0.037646 0.058983,0.068456 0.050731,0.071987 0.096801,0.1183522 0.1712451,0.1723383 0.032888,0.02385 0.067458,0.050312 0.07683,0.058807 0.00937,0.00849 0.037069,0.020014 0.061556,0.025599 0.048171,0.010988 0.053074,0.017355 0.028688,0.037253 -0.017545,0.014318 -0.012622,0.018596 0.025838,0.022452 0.031369,0.00315 0.030039,0.018152 -0.0029,0.032903 -0.029289,0.013113 -0.029289,0.013113 -0.00412,0.017835 0.04104,0.0077 0.02051,0.037445 -0.030565,0.044296 -0.041647,0.00558 -0.036204,0.01138 0.036387,0.038693 0.060982,0.022947 0.065203,0.025828 0.067215,0.045866 0.00203,0.020035 0.061718,0.058128 0.091108,0.058128 0.025176,0 0.052027,0.065068 0.031612,0.0766 -0.013047,0.00737 -0.016235,0.00546 0.065068,0.039113 0.022455,0.0093 0.024622,0.012722 0.024622,0.038912 0,0.038681 -0.00754,0.039715 -0.077421,0.010614 C 3.8933006,2.786622 3.5902245,2.726554 3.394228,2.7246314 c -0.1402132,-0.00138 -0.1547617,0.00156 -0.1547617,0.031238 0,0.011856 -0.00236,0.020334 -0.00527,0.01884 -0.056464,-0.029063 -0.135417,-0.043234 -0.135417,-0.024304 0,0.00602 0.00317,0.012904 0.00704,0.015295 0.015411,0.00952 0.00795,0.033582 -0.00879,0.028367 -0.029215,-0.0091 -0.114257,-0.023449 -0.119615,-0.020184 -0.0029,0.00178 -0.00324,0.011408 -7.429e-4,0.021401 0.00425,0.017049 0.00331,0.017889 -0.015803,0.01361 -0.062218,-0.013933 -0.1248678,-0.014107 -0.1191194,-3.32e-4 0.012365,0.029636 0.01273,0.045071 0.00108,0.045071 -0.013338,0 -0.1363706,-0.032191 -0.1644527,-0.043027 -0.082155,-0.031703 -0.3119925,-0.01391 -0.3670592,0.028416 -0.017194,0.013216 -0.017194,0.013216 0.00351,0.039178 0.042829,0.053687 0.047232,0.064155 0.037852,0.090085 -0.0083,0.022944 -0.00716,0.025673 0.040439,0.09693 0.026932,0.040327 0.067734,0.1045313 0.090665,0.1426766 0.108429,0.1803775 0.1438667,0.2367125 0.1864812,0.2964464 0.022083,0.030952 0.063136,0.092681 0.091238,0.1371756 0.0281,0.044494 0.055343,0.08343 0.060536,0.086524 0.0052,0.00309 0.00944,0.010714 0.00944,0.016934 0,0.048045 0.1834496,0.2764131 0.2220445,0.2764131 0.018065,0 0.013317,0.3856301 -0.00719,0.5838756 -0.02546,0.2460865 -0.038851,0.7186769 -0.022205,0.783329 0.00628,0.024262 0.00534,0.028358 -0.00886,0.039053 -0.015262,0.011512 -0.015789,0.015604 -0.014378,0.1119781 0.00155,0.1035951 -3.708e-4,0.114504 -0.017376,0.100393 -0.00688,-0.00571 -0.011548,-0.00603 -0.014654,-9.995e-4 -0.00704,0.011386 -0.015107,0.00884 -0.026527,-0.00836 z m 0.046125,-0.03373 c -6.754e-4,-0.00955 -0.0025,-0.043575 -0.00398,-0.075607 -0.00304,-0.065389 -0.0096,-0.076598 -0.047097,-0.080155 -0.02238,-0.00212 -0.024589,-5.368e-4 -0.029066,0.020844 -0.00263,0.012728 -0.014715,0.041662 -0.026777,0.064296 -0.023758,0.04458 -0.027452,0.063807 -0.012244,0.063807 0.014769,0 0.022367,-0.012989 0.040114,-0.068588 0.00895,-0.02805 0.018821,-0.051001 0.021928,-0.051001 0.00926,0 0.00648,0.018415 -0.00842,0.056277 -0.019719,0.050032 -0.018788,0.070346 0.00324,0.070346 0.016768,0 0.017363,-0.00174 0.019348,-0.056324 0.00122,-0.033092 0.00493,-0.055579 0.00908,-0.054518 0.00419,0.00107 0.00621,0.02465 0.00506,0.057729 -0.0023,0.064307 6.456e-4,0.07623 0.017781,0.072759 0.00822,-0.00167 0.011899,-0.00829 0.011042,-0.019865 z m -1.1811971,-0.0033 c 0.014256,-0.00967 0.028519,-0.017587 0.0317,-0.017587 0.012426,0 0.078007,-0.030359 0.078007,-0.036111 0,-0.00864 -8.779e-4,-0.00845 -0.07252,0.015722 -0.078322,0.026431 -0.089277,0.031985 -0.089277,0.045258 0,0.015605 0.023129,0.012371 0.05209,-0.00728 z m -0.050568,-0.020935 c 0.012706,-0.00571 0.046052,-0.017097 0.074102,-0.025307 0.099931,-0.029245 0.034509,-0.034924 -0.071225,-0.00619 -0.057275,0.015568 -0.060283,0.01777 -0.042574,0.031168 0.016692,0.012629 0.012389,0.012593 0.039697,3.222e-4 z m -0.00189,-0.042511 c 0.036552,-0.0096 0.07533,-0.017455 0.086174,-0.017455 0.019544,0 0.027574,-0.015419 0.012791,-0.024555 -0.00547,-0.00338 -0.08342,0.01504 -0.1816945,0.042937 -0.010855,0.00308 -0.00433,0.016852 0.0079,0.01666 0.00461,-7.25e-5 0.038284,-0.00799 0.074836,-0.017587 z m 0.1622647,-0.0368 c 5.6e-5,-0.0029 0.00203,-0.012398 0.00432,-0.021104 0.00398,-0.014915 0.00216,-0.015828 -0.031997,-0.015828 -0.03536,0 -0.036042,3.834e-4 -0.027905,0.015828 0.012264,0.023293 0.055228,0.039611 0.055566,0.021104 z m -0.011947,-0.052054 c 0.029762,-0.015666 0.037082,-0.045483 0.00947,-0.038552 -0.0095,0.00238 -0.022137,-1.752e-4 -0.029897,-0.00605 -0.020415,-0.015446 -0.024001,-0.013003 -0.024001,0.016342 0,0.037999 0.011737,0.045465 0.04443,0.028258 z m 1.1003882,-0.038697 c 0.00439,-0.03396 -0.065567,-0.056355 -0.086525,-0.027692 -0.01169,0.015988 0.00304,0.05074 0.023191,0.054804 0.021111,0.00425 0.061509,-0.01304 0.063339,-0.027112 z M 1.9278712,5.3759615 c 0.020165,-0.030773 0.011427,-0.047174 -0.026371,-0.049506 -0.031004,-0.00191 -0.033172,-9.05e-4 -0.035407,0.016496 -0.0052,0.040422 0.04081,0.065003 0.061779,0.03301 z M 2.9862049,5.343899 c 0.021185,-0.021182 0.018551,-0.041731 -0.00527,-0.041256 -0.010643,2.118e-4 -0.025676,-7.091e-4 -0.033415,-0.00204 -0.018382,-0.00317 -0.023305,0.029539 -0.00692,0.045931 0.015195,0.015194 0.028546,0.014424 0.045605,-0.00263 z M 1.925178,5.3041176 c 0.020591,-0.018636 0.016282,-0.035581 -0.00999,-0.039276 -0.012574,-0.00177 -0.028404,-0.00562 -0.035171,-0.00856 -0.01036,-0.0045 -0.012311,-0.00155 -0.012311,0.018625 0,0.039156 0.029775,0.054285 0.057484,0.029208 z m 1.0614895,-0.016744 c 0.026108,-0.013971 0.016903,-0.032256 -0.015823,-0.031435 -0.032882,8.239e-4 -0.04345,0.014323 -0.022954,0.029311 0.015478,0.011317 0.02103,0.011622 0.038777,0.00213 z M 1.9337729,5.2413204 c 0.010934,-0.028491 0.00534,-0.035771 -0.027384,-0.035771 -0.027628,0 -0.031653,0.00191 -0.031653,0.015007 0,0.029419 0.049096,0.046684 0.059044,0.020763 z m 1.0553737,-1.769e-4 c 0.024947,-0.00957 0.014479,-0.064146 -0.012919,-0.067344 -0.023515,-0.00274 -0.024143,-0.00214 -0.028566,0.027348 -0.00635,0.042085 0.00574,0.05371 0.041485,0.039996 z M 1.9311817,5.1781261 c 0.011899,-0.031296 0.00872,-0.045267 -0.010312,-0.045267 -0.00944,0 -0.019125,-0.00317 -0.021516,-0.00703 -0.01146,-0.018544 -0.024622,-0.00614 -0.024622,0.023214 0,0.047546 0.041337,0.068845 0.05645,0.029088 z m 1.0655752,-0.04506 c 0,-0.023988 -0.024757,-0.047509 -0.040054,-0.038054 -0.007,0.00433 -0.00754,0.054735 -6.564e-4,0.061618 0.015262,0.015261 0.040715,5.304e-4 0.040715,-0.023564 z m -1.0657488,-0.04255 c 0,-0.026301 -0.00115,-0.027978 -0.016816,-0.024051 -0.00925,0.00232 -0.018936,7.969e-4 -0.021523,-0.00338 -0.00852,-0.013794 -0.017937,-0.00792 -0.017937,0.011187 0,0.023858 0.018463,0.04452 0.039783,0.04452 0.014567,0 0.016498,-0.0033 0.016498,-0.028273 z M 2.998922,5.0610016 c 0.00203,-0.024156 5.017e-4,-0.026465 -0.021104,-0.032323 -0.030376,-0.00824 -0.034253,-0.00531 -0.02889,0.021796 0.00898,0.045375 0.046435,0.053261 0.049994,0.010527 z M 1.9307603,5.041871 c 0.018403,-0.03438 0.00977,-0.053222 -0.024372,-0.053222 -0.030025,0 -0.031653,0.00102 -0.031653,0.019808 0,0.02906 0.012088,0.047022 0.031653,0.047022 0.0097,0 0.020239,-0.00589 0.024372,-0.013607 z M 2.9938057,4.997734 c 0.00581,-0.021671 -0.00621,-0.036341 -0.026608,-0.032457 -0.01531,0.00292 -0.020577,0.030687 -0.00856,0.045164 0.012642,0.015235 0.029302,0.00921 0.035171,-0.012708 z M 1.9377952,4.9644901 c 0.015762,-0.029447 0.00947,-0.04267 -0.02028,-0.04267 -0.015161,0 -0.032571,-0.00192 -0.038689,-0.00427 -0.011514,-0.00442 -0.017221,0.045074 -0.00642,0.055857 0.011035,0.011036 0.058173,0.00461 0.065412,-0.00892 z m 1.0652436,-0.018625 c 0.010089,-0.026295 0.00459,-0.043442 -0.01506,-0.047204 -0.020854,-0.00398 -0.029633,0.00397 -0.029809,0.027027 -2.066e-4,0.027718 0.035765,0.043895 0.044862,0.020177 z M 1.9364796,4.9038344 c 0.025001,-0.017511 0.022306,-0.059995 -0.00371,-0.058528 -0.010643,6.001e-4 -0.027607,-0.00116 -0.03771,-0.00392 -0.017288,-0.00472 -0.018646,-0.00324 -0.023204,0.025246 -0.0071,0.044385 0.026642,0.063808 0.064622,0.037203 z m 1.0748765,-0.034375 c 0.00581,-0.023039 2.114e-4,-0.030103 -0.023069,-0.029252 -0.032814,0.0012 -0.03176,0.046438 0.00108,0.046438 0.012872,0 0.018842,-0.00467 0.021989,-0.017186 z M 1.938507,4.8301219 c 0.019983,-0.010694 0.017835,-0.034926 -0.00311,-0.034926 -0.00919,0 -0.026601,-0.00198 -0.03869,-0.0044 -0.020071,-0.00401 -0.021982,-0.00282 -0.021982,0.01372 0,0.028171 0.033699,0.041699 0.063778,0.025603 z m 1.068556,-0.013359 c 0.013817,-0.025813 0.00904,-0.035636 -0.017336,-0.035636 -0.022346,0 -0.024622,0.00184 -0.024622,0.019932 0,0.031989 0.027695,0.042355 0.041958,0.015704 z M 1.9467304,4.7710882 c 0.012662,-0.018488 0.00594,-0.048034 -0.00993,-0.043876 -0.00849,0.00222 -0.024062,-0.00117 -0.034955,-0.0076 -0.024535,-0.014492 -0.026756,-0.012097 -0.021003,0.022666 0.00648,0.039339 0.046658,0.056897 0.065885,0.028813 z m 1.0633453,-0.015158 c 0.00824,-0.021474 0.00405,-0.027732 -0.024737,-0.036707 -0.035245,-0.011001 -0.035718,-0.010619 -0.02675,0.021851 0.00787,0.028496 0.042424,0.038468 0.051487,0.014857 z m -1.0653179,-0.04828 c 0.01637,-0.019728 0.00615,-0.040653 -0.02078,-0.042561 -0.01354,-9.59e-4 -0.029296,-0.00294 -0.035009,-0.0044 -0.019294,-0.00494 -0.016404,0.026269 0.00392,0.042251 0.022076,0.017365 0.04002,0.018996 0.051872,0.00471 z m 1.075262,-0.038215 c 0.00216,-0.037828 0.00216,-0.037828 -0.017228,-0.034122 -0.010663,0.00204 -0.026669,9.387e-4 -0.035569,-0.00244 -0.024048,-0.00914 -0.024359,0.050235 -3.559e-4,0.067196 0.032098,0.022678 0.05073,0.011941 0.053162,-0.030627 z M 1.9436725,4.6460625 c 0.01895,-0.01895 0.010299,-0.046861 -0.014418,-0.046519 -0.012575,1.744e-4 -0.029194,-8.442e-4 -0.036934,-0.00226 -0.018389,-0.00336 -0.023332,0.029365 -0.00692,0.045782 0.013405,0.013405 0.046172,0.015089 0.058267,0.00299 z m 1.0711352,-0.026979 c 0.016964,-0.00908 0.017781,-0.032751 0.00128,-0.037594 -0.051872,-0.015238 -0.065068,-0.013714 -0.065068,0.00751 0,0.034327 0.029681,0.048327 0.063778,0.030081 z M 1.9480939,4.5801378 c 0.026331,-0.02633 0.014533,-0.042219 -0.031146,-0.041952 -0.038676,2.258e-4 -0.042201,0.00154 -0.042208,0.015676 -1.42e-5,0.030658 0.050778,0.048852 0.073354,0.026276 z m 1.0803209,-0.019488 c 0,-0.00801 -0.036576,-0.023828 -0.059793,-0.025862 -0.016613,-0.00145 -0.00982,0.020351 0.00841,0.026998 0.028364,0.010343 0.051379,0.00983 0.051379,-0.00113 z M 1.945167,4.5172346 c 0.021097,-0.022458 0.014195,-0.02874 -0.037021,-0.033679 -0.038075,-0.00367 -0.040445,-0.00301 -0.040344,0.011418 2.816e-4,0.040165 0.047719,0.053815 0.077361,0.022261 z m 1.0906933,-0.00694 c 0.00608,-0.031979 0.0025,-0.035245 -0.037413,-0.034302 -0.033253,7.834e-4 -0.037062,0.00251 -0.038899,0.017587 -0.00479,0.039213 0.068995,0.055373 0.076313,0.016716 z M 1.9524362,4.4639655 c 0.010049,-0.018777 0.00459,-0.023794 -0.027303,-0.024969 -0.014182,-5.227e-4 -0.032112,-0.00211 -0.039851,-0.00352 -0.010751,-0.00196 -0.01354,7.496e-4 -0.011825,0.011503 0.0052,0.032458 0.063933,0.045093 0.078976,0.016984 z m 1.0798151,-0.00963 c 0.030505,-0.030506 0.023603,-0.042606 -0.02494,-0.043721 -0.042208,-9.725e-4 -0.042208,-9.725e-4 -0.042208,0.021567 0,0.041551 0.035907,0.053397 0.067148,0.022154 z M 1.9559506,4.4121282 c 0.020949,-0.020946 0.021779,-0.04125 0.00317,-0.077701 -0.016161,-0.031691 -0.016147,-0.031656 -0.00781,-0.031656 0.00344,0 0.012777,0.013454 0.020753,0.029897 0.014472,0.029844 0.014499,0.029859 0.01485,0.00829 9.455e-4,-0.05695 -0.017592,-0.083899 -0.057747,-0.084042 -0.02028,-7.25e-5 -0.04241,-0.00278 -0.049184,-0.00603 -0.00871,-0.00417 -0.012311,-0.00298 -0.012311,0.00409 0,0.00549 -0.00635,0.023087 -0.014067,0.039103 -0.035191,0.072843 0.04965,0.1707274 0.1023227,0.1180525 z m -0.090011,-0.057929 c -0.00677,-0.00177 -0.012311,-0.00446 -0.012311,-0.00598 0,-0.00858 0.024629,-0.052483 0.029444,-0.052483 0.00865,0 0.00691,0.0098 -0.00446,0.025036 -0.00913,0.012258 -0.00859,0.014899 0.00527,0.02581 0.01556,0.012239 0.00952,0.0148 -0.017964,0.00762 z m 1.1707147,0.035415 c 0.023839,-0.021576 0.016876,-0.04462 -0.013513,-0.044731 -0.014506,-5.63e-5 -0.033503,-0.00201 -0.042208,-0.00434 -0.014155,-0.0038 -0.01583,-0.0017 -0.01583,0.019793 0,0.03983 0.041242,0.056705 0.071551,0.029275 z m 0.00758,-0.068055 c 0.019308,-0.02939 -0.040614,-0.069902 -0.07341,-0.049633 -0.0071,0.00439 -0.00733,0.038575 -3.39e-4,0.049377 0.011231,0.017342 0.062407,0.01752 0.073749,2.56e-4 z m -0.00257,-0.063506 c 0.020239,-0.024387 0.00142,-0.053767 -0.034394,-0.053767 -0.035813,0 -0.045105,0.010215 -0.03513,0.03864 0.00752,0.02144 0.055606,0.031902 0.069529,0.015127 z M 1.9523316,4.239097 c 0.012318,-0.023019 0.00608,-0.04574 -0.011913,-0.043262 -0.00838,0.00115 -0.026344,-0.00254 -0.039918,-0.00821 -0.027479,-0.011481 -0.03278,-0.00693 -0.03278,0.028131 0,0.031508 0.069917,0.050797 0.08461,0.023343 z M 3.0266785,4.192818 c 0.013068,-0.0035 0.01583,-0.00915 0.01583,-0.03238 0,-0.025748 -0.00135,-0.027778 -0.01583,-0.023897 -0.0087,0.00233 -0.024535,0.00429 -0.035171,0.00434 -0.017214,8.58e-5 -0.019348,0.00267 -0.019348,0.023544 0,0.033413 0.012163,0.039746 0.054519,0.028395 z M 1.9621569,4.1533401 c 0.00796,-0.032235 0.00999,-0.030554 -0.043437,-0.035894 -0.043964,-0.0044 -0.043964,-0.0044 -0.043964,0.022562 0,0.050626 0.075349,0.06212 0.087401,0.013332 z M 3.0246134,4.124482 C 3.0466354,4.108379 3.0359994,4.051664 3.0062644,4.02664 2.9933114,4.015737 2.9776784,4.002164 2.9715324,3.996478 2.9478354,3.974556 2.9040474,4.010151 2.9048374,4.050694 c 0.00108,0.055675 0.078946,0.1036408 0.1197724,0.073788 z M 2.9301994,4.071091 c -0.00906,-0.016919 -0.00944,-0.035636 -7.429e-4,-0.035636 0.00358,0 0.00756,0.00712 0.00879,0.015828 0.00122,0.00871 0.007,0.016254 0.012798,0.016775 0.022833,0.00205 0.024258,0.00302 0.014067,0.0096 -0.016127,0.010424 -0.026919,0.00839 -0.034928,-0.00657 z m 0.062299,-0.021157 c -0.013014,-0.010837 -0.014229,-0.014064 -0.0054,-0.014245 0.012048,-2.462e-4 0.031754,0.018701 0.025723,0.024733 -0.00196,0.00194 -0.011096,-0.00278 -0.020347,-0.010488 z M 1.9641289,4.097568 c 0.023555,-0.019551 0.00797,-0.042708 -0.029579,-0.043941 -0.019348,-6.359e-4 -0.040249,-0.00356 -0.046449,-0.0065 -0.021165,-0.010033 -0.013554,0.045749 0.00776,0.056885 0.018936,0.0099 0.052392,0.00674 0.068273,-0.00644 z m -0.0023,-0.057085 c 0.0068,-0.00497 0.014135,-0.022259 0.016302,-0.038415 0.00392,-0.029375 0.00392,-0.029375 -0.018416,-0.020936 -0.018828,0.00711 -0.025716,0.00651 -0.043666,-0.0038 -0.030768,-0.01766 -0.034239,-0.015732 -0.034239,0.019026 0,0.04574 0.044355,0.070196 0.08002,0.044118 z M 2.9224328,3.997024 c 0.024312,-0.012573 0.030538,-0.026636 0.018855,-0.042611 -0.0082,-0.01121 -0.010373,-0.011258 -0.030822,-6.821e-4 -0.012102,0.00626 -0.026912,0.011379 -0.032902,0.011379 -0.013783,0 -0.013777,0.00684 4.93e-5,0.026573 0.012892,0.018409 0.018308,0.019055 0.044821,0.00534 z M 1.9666903,3.9648606 c 0.028614,-0.015315 0.01822,-0.053324 -0.01375,-0.050275 -0.015046,0.00143 -0.034313,-0.00111 -0.042809,-0.00566 -0.017545,-0.00939 -0.017795,-0.00927 -0.024359,0.012099 -0.010306,0.033542 0.044592,0.063281 0.080924,0.043836 z m 0.9312968,-0.014951 c 0.019855,-0.00905 0.023231,-0.029967 0.00807,-0.04995 -0.00825,-0.010862 -0.010467,-0.011102 -0.018072,-0.00194 -0.00479,0.00575 -0.019429,0.012462 -0.032585,0.01493 -0.027101,0.00509 -0.028242,0.00768 -0.012966,0.029494 0.012203,0.017427 0.028796,0.019658 0.055546,0.00747 z m -0.9312954,-0.04836 c 0.022455,-0.012016 0.019571,-0.06483 -0.00324,-0.059109 -0.00978,0.00246 -0.026324,-6.888e-4 -0.0395,-0.0075 -0.028222,-0.014595 -0.036819,-0.00727 -0.033841,0.028834 0.00311,0.03784 0.041269,0.056662 0.076564,0.037773 z m 0.8913235,-2.441e-4 c 0.025075,-0.00874 0.032693,-0.023074 0.022448,-0.042226 -0.00861,-0.016086 -0.012879,-0.016469 -0.030971,-0.00278 -0.00751,0.00568 -0.019193,0.010329 -0.025966,0.010329 -0.01926,0 -0.022043,0.012199 -0.00635,0.027882 0.016802,0.016803 0.013655,0.016279 0.04085,0.0068 z m -0.019098,-0.05469 c 0.026385,-0.021366 0.014317,-0.037052 -0.020577,-0.026748 -0.035225,0.010401 -0.040385,0.015524 -0.029201,0.029 0.011913,0.014355 0.030295,0.013523 0.049778,-0.00225 z m -0.85994,-0.045307 c 0.00209,-0.025138 0.00122,-0.026382 -0.015073,-0.02229 -0.010089,0.00253 -0.026209,-2.897e-4 -0.038784,-0.00679 -0.028836,-0.014911 -0.029248,-0.014725 -0.029248,0.013272 0,0.050111 0.079023,0.065144 0.083097,0.015809 z m 0.8452474,0.00566 c 0.010123,-0.00626 0.00908,-0.02857 -0.00176,-0.037568 -0.00574,-0.00475 -0.012804,-0.00511 -0.019348,-9.657e-4 -0.00567,0.00359 -0.020604,0.00657 -0.033179,0.00663 -0.026581,1.252e-4 -0.028141,0.00557 -0.00869,0.030294 0.013966,0.017754 0.035948,0.018316 0.062981,0.00161 z M 1.9789252,3.7425342 c 0.00203,-0.020812 6.017e-4,-0.022269 -0.024622,-0.025242 -0.014722,-0.00174 -0.031902,-0.00544 -0.038183,-0.00822 -0.011933,-0.00529 -0.022772,0.023026 -0.013905,0.036348 0.020368,0.030607 0.073646,0.028601 0.076707,-0.00289 z m 0.8206811,0.010668 c 0.00432,-0.00409 0.00203,-0.015294 -0.00635,-0.030915 -0.01454,-0.026993 -0.019375,-0.02925 -0.03147,-0.01468 -0.00446,0.0054 -0.019091,0.01187 -0.032476,0.01438 -0.023846,0.00447 -0.024109,0.0049 -0.013277,0.021428 0.015803,0.024113 0.062603,0.029591 0.083609,0.00979 z M 1.9762766,3.7008065 c 0.025291,-0.02529 0.014411,-0.04211 -0.027634,-0.042718 -0.060253,-8.712e-4 -0.052459,0.049148 0.00829,0.053216 0.00459,3.053e-4 0.013263,-0.00442 0.019348,-0.010499 z m 0.7809293,-0.00255 c 0.022873,-0.025278 -0.00852,-0.065535 -0.036056,-0.046243 -0.00825,0.00577 -0.021529,0.011495 -0.029525,0.012716 -0.023447,0.00358 -0.025386,0.010893 -0.00784,0.029575 0.020354,0.021664 0.055667,0.023565 0.073419,0.00395 z m -0.046874,-0.053622 c 0.035711,-0.025013 0.011102,-0.056661 -0.032314,-0.041563 -0.016701,0.00581 -0.033321,0.00873 -0.036934,0.0065 -0.011251,-0.00695 -0.00719,0.019602 0.00507,0.033149 0.014256,0.015749 0.043187,0.016612 0.064176,0.00191 z m -0.7324423,-0.00149 c 0.010204,-0.0065 0.019814,-0.055066 0.011832,-0.059812 -0.033307,-0.019797 -0.063845,-0.012525 -0.068457,0.016302 -0.00669,0.041657 0.023326,0.064699 0.056625,0.043511 z m 0.7096088,-0.053685 c 0.020814,-0.015218 0.00122,-0.04952 -0.024562,-0.042951 -0.00983,0.00251 -0.028951,0.00585 -0.042491,0.00743 -0.024622,0.00288 -0.024622,0.00288 0,-0.00454 0.038102,-0.01147 0.047718,-0.023803 0.032058,-0.041111 -0.011474,-0.012678 -0.014182,-0.013047 -0.027472,-0.00373 -0.00811,0.00568 -0.021955,0.010328 -0.030768,0.010328 -0.021327,0 -0.020199,0.011761 0.00493,0.051383 0.022873,0.036069 0.058058,0.045308 0.08831,0.023189 z M 1.997128,3.553006 C 2.007636,3.525618 2.002058,3.51492 1.976774,3.513836 1.963234,3.5132556 1.948194,3.512466 1.943359,3.512076 1.931473,3.5111238 1.927901,3.541313 1.938429,3.553968 1.949997,3.567905 1.991692,3.567221 1.997149,3.5530023 Z m 2.498e-4,-0.056204 c 0.022596,-0.022595 0.014202,-0.043428 -0.018842,-0.046756 -0.031842,-0.00321 -0.040168,0.00248 -0.040344,0.027564 -1.891e-4,0.027174 0.038622,0.039758 0.059185,0.019193 z m 0.616497,0.00378 c 0.033976,-0.018183 0.00717,-0.055236 -0.027459,-0.037959 -0.012419,0.00619 -0.025953,0.00856 -0.03095,0.00541 -0.00594,-0.00375 -0.00216,-0.00681 0.011467,-0.00926 0.029485,-0.00531 0.037906,-0.022371 0.022583,-0.045756 -0.01142,-0.017431 -0.013331,-0.018029 -0.02469,-0.00775 -0.00677,0.00613 -0.018396,0.011098 -0.025831,0.011041 -0.011231,-8.58e-5 -0.010549,-0.00161 0.00405,-0.009 0.012818,-0.00648 0.017586,-0.014567 0.017586,-0.029793 0,-0.022581 -0.00608,-0.023982 -0.058037,-0.013402 -0.028107,0.00572 -0.028566,0.012507 -0.00263,0.038456 0.011136,0.011136 0.018686,0.021806 0.016782,0.02371 -0.00371,0.00372 0.02184,0.049026 0.039081,0.069273 0.011737,0.013788 0.037474,0.016019 0.058004,0.00503 z M 2.0115096,3.4289094 c 0.017059,-0.024358 0.010562,-0.02909 -0.048846,-0.035587 -0.020888,-0.00228 -0.022542,0.025847 -0.00236,0.03999 0.02207,0.015458 0.038257,0.014066 0.051196,-0.0044 z m 0.012244,-0.058259 c 0.0099,-0.021729 0.00968,-0.02192 -0.030613,-0.026244 -0.029032,-0.00311 -0.0333,-0.0018 -0.036819,0.011375 -0.00883,0.033009 0.052966,0.046634 0.067438,0.014869 z m 0.49856,-0.023496 c 0.027276,-0.022084 0.013946,-0.038191 -0.026723,-0.032289 -0.0411,0.00596 -0.041114,0.00598 -0.031241,0.027646 0.00974,0.021368 0.034827,0.023378 0.057963,0.00464 z m -0.501419,-0.019081 c 0.025615,-0.017944 0.019355,-0.029508 -0.017781,-0.032827 -0.039149,-0.0035 -0.036576,-0.00446 -0.04033,0.015038 -0.00209,0.010905 0.00155,0.017185 0.012534,0.02161 0.022212,0.00894 0.02806,0.00845 0.045585,-0.00382 z m 0.4830242,-0.026567 c 0.012919,-0.00945 -7.429e-4,-0.046898 -0.01712,-0.046898 -0.012122,0 -0.056329,0.021764 -0.056329,0.02773 0,0.024479 0.048779,0.037208 0.07345,0.019167 z M 2.0435039,3.2661491 c -4.93e-5,-0.013362 -0.00439,-0.015235 -0.03869,-0.016621 -0.040877,-0.00165 -0.046739,0.004 -0.025824,0.024919 0.018686,0.018688 0.064602,0.012783 0.064514,-0.0083 z m 0.4182901,-0.01267 c 0.020321,-0.00926 0.021111,-0.012298 0.00975,-0.037231 -0.0094,-0.020635 -0.011589,-0.021153 -0.030113,-0.00714 -0.00751,0.00568 -0.019193,0.010328 -0.025966,0.010328 -0.017011,0 -0.022259,0.011106 -0.013216,0.027993 0.00858,0.01603 0.032341,0.018445 0.059543,0.00605 z m -0.41854,-0.026431 c 0.00669,-0.012553 0.00452,-0.013467 -0.031409,-0.013144 -0.026594,2.392e-4 -0.038629,0.00316 -0.038629,0.00939 0,0.02074 0.059246,0.023918 0.070037,0.00375 z m 0.3876776,-0.02193 c 0.016876,-0.00903 0.017282,-0.033263 9.455e-4,-0.054527 -0.012203,-0.015862 -0.071461,0.00201 -0.071667,0.021608 -3.14e-4,0.029891 0.040729,0.048987 0.07075,0.032919 z M 2.0418054,3.1944471 c 0.020071,-0.00619 0.0087,-0.024254 -0.015256,-0.024254 -0.013223,0 -0.029053,-0.00192 -0.035171,-0.00427 -0.00833,-0.0032 -0.011129,1.849e-4 -0.011129,0.013483 0,0.024387 0.01741,0.028641 0.061556,0.015041 z m 0.00567,-0.041708 c 0.018038,-0.013763 0.00351,-0.024494 -0.033415,-0.024647 -0.03043,-1.259e-4 -0.041431,0.012108 -0.023008,0.025581 0.016971,0.012411 0.039419,0.01204 0.056423,-9.319e-4 z m 0.334081,-0.00735 c 0.02186,-0.011303 0.027918,-0.035565 0.012696,-0.050792 -0.00608,-0.00606 -0.015235,-0.00444 -0.036934,0.00649 -0.03742,0.018861 -0.036089,0.016678 -0.022623,0.037226 0.013594,0.020747 0.018882,0.021545 0.046868,0.00707 z m -0.292414,-0.043372 c 0.019787,-0.00944 0.026405,-0.017805 0.031977,-0.040449 0.016485,-0.066966 0.022387,-0.081889 0.046543,-0.1175713 0.1035289,-0.1529655 0.3245813,-0.2106124 0.5401554,-0.1408637 0.1109892,0.03591 0.1456293,0.037421 0.1095575,0.00477 -0.035083,-0.031749 -0.017687,-0.035197 0.1032256,-0.020463 0.02654,0.00323 0.029586,0.00202 0.031652,-0.012601 0.00257,-0.018087 0.02546,-0.020693 0.094025,-0.010701 0.035299,0.00515 0.035455,0.00509 0.035171,-0.014225 -3.16e-4,-0.021862 0.022921,-0.025063 0.099963,-0.013769 0.030113,0.00442 0.036934,0.00353 0.036934,-0.00482 0,-0.042221 0.3093398,-0.025818 0.5662892,0.030028 0.1006465,0.021875 0.2549443,0.066233 0.2856818,0.082127 0.037812,0.019553 0.07012,0.010526 0.043187,-0.012066 -0.014931,-0.012521 -0.3462697,-0.176139 -0.3833877,-0.1893164 -0.014506,-0.00515 -0.026378,-0.011955 -0.026378,-0.015121 0,-0.012412 0.04416,0.00515 0.1746859,0.069445 0.1307377,0.064406 0.1700119,0.076407 0.1700119,0.05195 0,-0.027653 -0.1199946,-0.088049 -0.247927,-0.1247857 C 3.762812,2.61276 3.731946,2.601467 3.731922,2.598492 c -5.61e-5,-0.00674 0.02132,-0.00177 0.1026853,0.023899 0.035218,0.011111 0.066087,0.020201 0.068587,0.020201 0.011231,0 0.00297,-0.019512 -0.011278,-0.026712 -0.040121,-0.020243 -0.099664,-0.043634 -0.1110675,-0.043634 -0.017322,0 -0.138013,-0.046607 -0.1668649,-0.064438 -0.038473,-0.023779 -0.021273,-0.022047 0.027182,0.00274 0.047219,0.024152 0.1942629,0.035601 0.2010013,0.015649 0.0025,-0.00737 -0.064338,-0.024223 -0.09664,-0.024371 C 3.736087,2.5017844 3.687213,2.4856456 3.6369136,2.4659646 3.5127788,2.4173895 3.4815645,2.4090141 3.4399435,2.4131072 3.368024,2.4201813 3.2335018,2.4547195 3.0811766,2.5052192 3.01177,2.5282288 2.9014292,2.5464349 2.7127444,2.5660079 2.5367802,2.5842613 2.1170577,2.5607877 2.0284941,2.5277365 1.8230788,2.4510835 1.790645,2.4348026 1.6861591,2.355894 1.5002698,2.2155089 1.3682382,2.0611149 1.3682382,1.9841264 c 0,-0.027456 0.016273,-0.016634 0.022892,0.015225 0.014644,0.070482 0.1351084,0.1252727 0.2957613,0.1345201 0.052278,0.00301 0.073691,0.00664 0.068688,0.011643 -0.013768,0.013768 -0.1651301,-0.00745 -0.2458562,-0.034461 -0.091087,-0.03048 -0.09066,-0.031287 -0.021864,0.041391 0.061969,0.065466 0.1634147,0.1094069 0.3021626,0.1308803 0.028857,0.00446 0.054181,0.010004 0.056275,0.012308 0.00871,0.00957 -0.095343,-0.00648 -0.1525368,-0.023528 -0.122535,-0.036529 -0.1239883,-0.034011 -0.025588,0.044326 0.074945,0.059664 0.1521492,0.079013 0.2804226,0.070278 0.044038,-0.003 0.052453,-0.00217 0.03869,0.0038 -0.023083,0.010008 -0.1575124,0.010139 -0.1934532,1.892e-4 -0.043126,-0.011939 -0.00895,0.014062 0.066047,0.050253 0.070711,0.034121 0.2542954,0.038166 0.334545,0.00737 0.00601,-0.00231 0.010934,-0.0012 0.010934,0.00247 0,0.01039 -0.073517,0.024483 -0.1547625,0.029668 C 1.976731,2.485169 1.976731,2.485169 2.010373,2.501003 2.105207,2.545628 2.1743867,2.543674 2.3618194,2.491083 2.4449874,2.467745 2.4724418,2.462278 2.463978,2.470742 2.456998,2.477722 2.2518412,2.536801 2.2340822,2.536945 c -0.00935,7.6e-5 -0.015404,0.00174 -0.013453,0.00368 0.0109,0.0109 0.253154,0.017456 0.2634797,0.00713 0.00588,-0.00587 0.016019,-0.010676 0.022556,-0.010676 0.00655,0 0.064082,-0.017532 0.1278797,-0.038958 0.1405421,-0.0472 0.1510745,-0.050055 0.1191606,-0.03231 -0.013736,0.00764 -0.074677,0.030207 -0.135417,0.050149 -0.060739,0.019942 -0.110436,0.037578 -0.110436,0.039192 0,0.00161 0.048272,9.657e-4 0.1072782,-0.00145 0.1132771,-0.00462 0.17194,-0.020678 0.3068444,-0.08399 0.020773,-0.00975 0.03929,-0.016205 0.041148,-0.014347 0.005,0.00497 -0.064142,0.038823 -0.1238575,0.060664 -0.028587,0.010455 -0.049164,0.020704 -0.045726,0.022775 0.010312,0.00621 0.1883065,-0.023473 0.1997013,-0.033306 0.00581,-0.00501 0.043788,-0.025688 0.084416,-0.045956 C 3.1182846,2.439274 3.1641826,2.414144 3.1796592,2.403697 3.2208342,2.375902 3.2315312,2.371718 3.2094542,2.39204 3.1865542,2.413126 3.1064832,2.460745 3.051956,2.485708 2.991481,2.513393 3.011545,2.511511 3.103976,2.480828 3.150655,2.465332 3.192625,2.452654 3.197241,2.452654 c 0.009,0 0.059807,-0.030588 0.1481915,-0.089215 0.055377,-0.036731 0.093452,-0.058798 0.080437,-0.046616 -0.024555,0.022986 -0.08289,0.067005 -0.1143131,0.086264 -0.04077,0.024986 -0.046712,0.031832 -0.018227,0.021003 0.020591,-0.00783 0.085046,-0.019624 0.1393285,-0.025496 0.037258,-0.00403 0.1036606,0.00747 0.1268702,0.021969 0.068152,0.042581 0.2304475,0.082783 0.2669853,0.066135 C 3.8534524,2.474423 3.8485354,2.468532 3.8039844,2.459726 3.7349614,2.446082 3.4764303,2.360766 3.4902009,2.3561755 c 0.00385,-0.00128 0.044024,0.010425 0.089259,0.026023 0.070624,0.024352 0.1975052,0.063421 0.205967,0.063421 0.018436,0 -0.00915,-0.015693 -0.055302,-0.031461 -0.1012611,-0.034594 -0.094492,-0.043107 0.00845,-0.010623 0.036562,0.011539 0.071228,0.02098 0.077029,0.02098 0.021185,0 -0.00365,-0.012494 -0.055579,-0.027952 -0.055957,-0.016662 -0.2995293,-0.1068965 -0.3242361,-0.120119 -0.024345,-0.013028 -0.010461,-0.014716 0.018909,-0.0023 0.057322,0.024241 0.2515602,0.093928 0.2542656,0.091223 0.00155,-0.00155 -0.027905,-0.027663 -0.065466,-0.058016 -0.037568,-0.030355 -0.082905,-0.067585 -0.1007532,-0.082734 -0.017849,-0.01515 -0.045906,-0.0335 -0.06235,-0.040778 -0.016443,-0.00728 -0.029897,-0.016251 -0.029897,-0.019939 0,-0.00938 0.016627,-0.00837 0.026615,0.00162 0.00459,0.00458 0.010751,0.00588 0.013716,0.00288 0.00685,-0.00691 -0.027594,-0.034642 -0.062664,-0.050456 -0.026493,-0.011947 -0.035522,-0.024067 -0.017923,-0.024067 0.00493,0 0.016228,0.00507 0.025075,0.01127 0.022036,0.015433 0.028012,0.00669 0.00729,-0.010667 C 3.3761873,2.0388839 3.2599043,1.9607152 3.1198613,1.8775405 3.0758908,1.8514257 2.907191,1.7763009 2.8311865,1.7489898 2.7904238,1.7343413 2.7461035,1.7161081 2.7327017,1.7084715 2.7192965,1.700835 2.6925063,1.6888533 2.6731582,1.6818455 2.6538101,1.6748376 2.6269051,1.6623252 2.6133648,1.6540396 2.5592375,1.6209243 2.4295546,1.5597752 2.370213,1.5393889 2.3356431,1.5275126 2.2846121,1.5097651 2.256811,1.4999492 2.0914743,1.441574 1.8283025,1.4105156 1.7502981,1.4401727 c -0.00885,0.00336 -0.039075,0.009 -0.067175,0.012521 -0.1346734,0.016887 -0.2359585,0.084168 -0.3728086,0.2476525 -0.053048,0.063372 -0.059937,0.076967 -0.03905,0.077053 0.012935,5.63e-5 0.00989,0.00377 -0.015573,0.01903 -0.030538,0.018298 -0.031032,0.019125 -0.014069,0.023567 0.017579,0.00461 0.017579,0.00461 -0.00134,0.01229 -0.024905,0.010117 -0.042945,0.040518 -0.020571,0.034668 0.02234,-0.00584 0.017875,0.00591 -0.006,0.015802 -0.037825,0.015668 -0.048958,0.042749 -0.011761,0.028606 0.030937,-0.011762 0.020767,0.00434 -0.013094,0.020733 -0.037029,0.017925 -0.041427,0.029647 -0.00879,0.023435 0.027346,-0.00521 0.021974,0.00237 -0.014084,0.019874 -0.026365,0.012795 -0.026365,0.012795 0.00442,0.0086 0.037957,-0.00518 0.034221,0.00755 -0.00433,0.014757 -0.027686,0.00517 -0.044044,0.014877 -0.044044,0.026125 0,0.00365 0.00554,0.00509 0.012311,0.00318 0.036285,-0.010216 0.058035,-0.012119 0.058035,-0.00508 0,0.00417 -0.00871,0.00766 -0.019345,0.00775 -0.024491,1.955e-4 -0.07914,0.02466 -0.07914,0.035428 0,0.00447 0.00471,0.00632 0.010466,0.00411 0.022553,-0.00865 0.083102,-0.013642 0.078676,-0.00648 -0.00244,0.00394 -0.02004,0.00867 -0.039116,0.010505 -0.019207,0.00184 -0.045169,0.010312 -0.058183,0.018973 -0.023499,0.015641 -0.023499,0.015641 0.017739,0.011041 0.025247,-0.00282 0.039648,-0.00203 0.037137,0.00203 -0.00226,0.00365 -0.019851,0.0085 -0.039101,0.01078 -0.037866,0.00448 -0.077965,0.021856 -0.077965,0.033776 0,0.00433 0.00805,0.00581 0.019345,0.00358 0.055513,-0.011007 0.072105,-0.012407 0.072105,-0.00608 0,0.00376 -0.01807,0.0087 -0.040157,0.010978 -0.02881,0.00297 -0.062585,0.015178 -0.11953063,0.043192 C 0.83996824,2.2593103 0.77407722,2.2462143 0.70934927,2.1536866 0.55776473,1.9369985 0.56274397,1.8410625 0.73965593,1.5697576 0.86862117,1.3719818 0.88722356,1.3404806 0.96160261,1.1939158 1.0526977,1.0144117 1.0622774,0.97577546 1.062008,0.78896531 1.0618111,0.65233804 1.0599896,0.62760862 1.046463,0.57792597 1.0248059,0.49838034 0.95052328,0.29818788 0.92910018,0.26163213 0.79174875,0.02725956 0.43782002,0.02460003 0.32047532,0.2570587 c -0.0297177,0.0588701 -0.0293166,0.0814934 0.001337,0.075363 0.0311643,-0.006233 0.0478867,-0.024932 0.0648212,-0.0724825 0.0203888,-0.0572501 0.0448207,-0.0725086 0.11562722,-0.0722124 0.0451746,1.8923e-4 0.0516239,0.001633 0.0415379,0.009298 -0.006564,0.004991 -0.0186383,0.0269762 -0.0268246,0.0488564 -0.0183472,0.0490376 -0.0440623,0.0692117 -0.0940336,0.0737716 -0.0198181,0.001809 -0.0395241,0.006054 -0.0437908,0.009435 -0.004268,0.003381 -0.0279099,0.0102256 -0.0525397,0.0152106 -0.0447822,0.009064 -0.0447822,0.009064 -0.10406435,0.12486292 -0.0845952,0.16524402 -0.0909781,0.20175025 -0.0443912,0.25388992 0.0367911,0.041176 0.0625136,0.0331139 0.0814741,-0.0255368 0.0255854,-0.079143 0.0581233,-0.13536576 0.11987285,-0.20713021 0.0660401,-0.0767511 0.0707879,-0.0844074 0.077511,-0.12499991 0.005112,-0.0308764 0.0534919,-0.094979 0.0639547,-0.0847424 0.002924,0.002863 -0.002782,0.0127166 -0.0126873,0.0218961 -0.0263364,0.0244074 -0.0425003,0.0594912 -0.0379324,0.082331 0.004457,0.022275 -2.7857e-4,0.0293747 -0.0788222,0.11823498 -0.0683646,0.0773414 -0.14145269,0.2357893 -0.11908414,0.25815778 0.0252471,0.0252471 0.0478745,0.006692 0.0780897,-0.0640317 0.0165961,-0.0388475 0.042193,-0.0910793 0.056882,-0.11607163 0.0146883,-0.0249925 0.0290863,-0.0501889 0.0319943,-0.0559926 0.003566,-0.007117 0.0176375,-0.0110119 0.0432229,-0.0119641 0.0429534,-0.001601 0.12349051,-0.029532 0.15653394,-0.0542908 0.23472458,-0.1758772 0.37208916,0.13966214 0.23382099,0.5371092 -0.0760893,0.21871605 -0.1419423,0.34558455 -0.3075208,0.59245155 -0.040296,0.060079 -0.10288584,0.1842511 -0.13774697,0.273277 -0.021967,0.056098 -0.0299095,0.1723005 -0.0164516,0.2407046 0.0183574,0.093309 0.12349638,0.2515749 0.19567157,0.2945447 0.0143993,0.00857 0.0530881,0.033679 0.0859751,0.05579 0.14399218,0.096814 0.20120249,0.1088749 0.51704637,0.1089989 0.2576672,1.013e-4 0.2628021,0.00109 0.4155504,0.0801 0.265682,0.1374237 0.3394519,0.233216 0.310402,0.4030666 -0.00906,0.052934 0.086933,0.08868 0.1532315,0.057064 z m -0.091438,-0.242146 c -7.43e-5,-0.046123 0.00209,-0.078266 0.00479,-0.071429 0.00662,0.016707 0.00703,0.136946 5.214e-4,0.1471726 -0.00284,0.00446 -0.0052,-0.029621 -0.00527,-0.075744 z m 0.081033,0.076164 c 0,-0.015119 0.014871,-0.047229 0.021874,-0.047229 0.00304,0 6.267e-4,0.011871 -0.0054,0.02638 -0.013128,0.031675 -0.016491,0.035926 -0.016491,0.020849 z m -0.023197,-0.00272 c -0.00621,-0.010044 0.014668,-0.079682 0.023886,-0.079682 0.00398,0 0.00479,0.00384 0.00189,0.00854 -0.0029,0.0047 -0.00884,0.024336 -0.013182,0.04364 -0.00432,0.019304 -0.010015,0.031679 -0.012602,0.027499 z m 0.058375,-0.00811 c 0,-0.00319 0.00791,-0.013243 0.017585,-0.02233 0.020496,-0.019255 0.023184,-0.010791 0.00392,0.01231 -0.013682,0.016404 -0.021502,0.020047 -0.021502,0.01002 z m -0.080575,-0.055527 c 0.00358,-0.059061 0.016471,-0.1136184 0.016282,-0.068804 -4.93e-5,0.011608 -0.00452,0.044846 -0.00993,0.073864 -0.00984,0.05276 -0.00984,0.05276 -0.00635,-0.00506 z M 1.931703,2.8641877 C 1.9311843,2.8564498 1.9213165,2.832993 1.9097819,2.8120627 1.8865034,2.7698264 1.8862873,2.76922 1.8948775,2.76922 c 0.00937,0 0.044538,0.083235 0.040945,0.096916 -0.00263,0.010018 -0.00338,0.00968 -0.00412,-0.00195 z m 0.023778,-0.039147 c -0.00648,-0.019596 -0.010015,-0.037446 -0.00779,-0.039666 0.00466,-0.00463 0.014418,0.019059 0.021678,0.052432 0.00756,0.034782 -5.767e-4,0.027295 -0.013885,-0.012766 z M 3.9991971,2.8063136 C 3.9721166,2.7960405 3.7490686,2.6836769 3.7426557,2.677077 c -0.00841,-0.00865 0.034151,0.010076 0.159724,0.070285 0.049278,0.023629 0.09242,0.042962 0.095865,0.042962 0.00344,0 0.010204,0.00475 0.015019,0.010552 0.00897,0.010811 0.00459,0.01251 -0.014067,0.00544 z M 2.3631127,3.086362 c 0.022394,-0.024747 -0.00155,-0.052488 -0.028026,-0.032465 -0.00751,0.00568 -0.01901,0.010429 -0.025548,0.010552 -0.032753,6.162e-4 -0.011278,0.035397 0.02186,0.035397 0.010731,0 0.025,-0.00607 0.031713,-0.013484 z m -0.0364,-0.041198 c 0.012554,-0.011022 0.016566,-0.033355 0.00704,-0.03914 -0.00862,-0.00523 -0.059827,0.043028 -0.054607,0.051474 0.00567,0.00923 0.030268,0.00286 0.04757,-0.012334 z M 2.2261297,3.00569 C 2.1950987,2.947191 2.1929437,2.945673 2.1732647,2.96834 c -0.025575,0.029447 -0.021793,0.041173 0.019895,0.061766 0.045936,0.022691 0.054573,0.016298 0.03297,-0.024416 z m 0.056113,0.017045 C 2.3140637,3.005707 2.3143277,2.977527 2.2831206,2.931557 2.2207336,2.839689 2.180881,2.902631 2.2412026,2.997754 c 0.021914,0.034553 0.022495,0.034908 0.041046,0.024981 z m 0.056781,-0.073488 c 0,-0.014173 -0.062988,-0.089609 -0.070793,-0.084785 -0.00358,0.00222 0.00392,0.020471 0.016708,0.040566 0.012777,0.020096 0.025608,0.040495 0.028519,0.045332 0.00719,0.011955 0.025568,0.011154 0.025568,-0.00111 z M 0.43263034,0.30390578 c 0,-0.0108987 -0.0171641,-0.0379393 -0.0221325,-0.0348685 -0.0128298,0.007929 -0.006449,0.0380548 0.008063,0.0380548 0.007738,0 0.0140691,-0.001434 0.0140695,-0.003186 z m 0.035173,-0.073974 c 0,-0.003747 -0.004748,-0.004992 -0.010552,-0.002765 -0.005801,0.002227 -0.010552,0.005293 -0.010552,0.006814 0,0.001521 0.004748,0.002765 0.010552,0.002765 0.005801,0 0.010552,-0.003066 0.010552,-0.006814 z m 0.0444878,-0.0100849 c 0.005065,-0.0131999 -0.001081,-0.0182744 -0.0221291,-0.0182744 -0.0170587,0 -0.0171803,3.5807e-4 -0.004775,0.0140693 0.015026,0.0166038 0.0217408,0.0176533 0.0269009,0.004205 z"
       id="path10201" />
  </g>
</svg>
