<?xml version="1.0" encoding="UTF-8" standalone="no"?>
<svg
   xmlns:dc="http://purl.org/dc/elements/1.1/"
   xmlns:cc="http://creativecommons.org/ns#"
   xmlns:rdf="http://www.w3.org/1999/02/22-rdf-syntax-ns#"
   xmlns:svg="http://www.w3.org/2000/svg"
   xmlns="http://www.w3.org/2000/svg"
   xmlns:sodipodi="http://sodipodi.sourceforge.net/DTD/sodipodi-0.dtd"
   xmlns:inkscape="http://www.inkscape.org/namespaces/inkscape"
   width="290.81656"
   height="83.130806"
   viewBox="0 0 76.945213 21.995026"
   version="1.1"
   id="svg4340"
   inkscape:version="1.0.1 (3bc2e813f5, 2020-09-07)"
   sodipodi:docname="floom_logo.svg">
  <defs
     id="defs4334" />
  <sodipodi:namedview
     id="base"
     pagecolor="#ffffff"
     bordercolor="#666666"
     borderopacity="1.0"
     inkscape:pageopacity="0.0"
     inkscape:pageshadow="2"
     inkscape:zoom="0.98994949"
     inkscape:cx="143.58394"
     inkscape:cy="139.51609"
     inkscape:document-units="mm"
     inkscape:current-layer="layer1"
     inkscape:document-rotation="0"
     showgrid="false"
     inkscape:pagecheckerboard="true"
     fit-margin-top="0"
     fit-margin-left="0"
     fit-margin-right="0"
     fit-margin-bottom="0"
     units="px"
     inkscape:window-width="1264"
     inkscape:window-height="760"
     inkscape:window-x="0"
     inkscape:window-y="0"
     inkscape:window-maximized="0" />
  <metadata
     id="metadata4337">
    <rdf:RDF>
      <cc:Work
         rdf:about="">
        <dc:format>image/svg+xml</dc:format>
        <dc:type
           rdf:resource="http://purl.org/dc/dcmitype/StillImage" />
        <dc:title></dc:title>
      </cc:Work>
    </rdf:RDF>
  </metadata>
  <g
     inkscape:label="Layer 1"
     inkscape:groupmode="layer"
     id="layer1"
     transform="translate(-1.1672572,-3.9854503)"
     sodipodi:insensitive="true">
    <path
       style="fill:#000000;stroke-width:0.264583"
       d="m 31.462612,25.622131 c -1.754905,-0.606867 -3.668075,-2.389968 -4.406815,-4.107217 -0.80259,-1.865673 -0.80259,-4.115753 0,-5.981425 0.735049,-1.708666 2.696419,-3.544324 4.411435,-4.128688 2.587392,-0.881613 5.288351,-0.337111 7.356051,1.482953 1.690727,1.488238 2.315485,2.822321 2.45372,5.239572 0.09071,1.586304 0.006,2.232224 -0.422196,3.219892 -0.712457,1.643259 -2.103467,3.140422 -3.622709,3.899167 -1.62582,0.811972 -4.05125,0.969934 -5.769486,0.375746 z m 4.189285,-2.126147 c 0.98256,-0.257 2.303585,-1.464228 2.801112,-2.559817 0.272008,-0.598977 0.49456,-1.684361 0.49456,-2.411966 0,-2.48971 -1.502926,-4.569772 -3.736377,-5.171178 -2.198,-0.591859 -4.886897,0.672754 -5.879913,2.76538 -0.235354,0.495972 -0.426257,1.566432 -0.426257,2.39018 0,2.306241 1.162053,4.159573 3.042709,4.852749 1.498655,0.552379 2.032865,0.571799 3.704166,0.134652 z M 1.2431686,25.465169 c -0.070719,-0.18429 -0.096748,-3.428743 -0.057842,-7.209895 0.070738,-6.874823 0.070738,-6.874823 4.6348004,-6.947215 4.564062,-0.0724 4.564062,-0.0724 4.564062,0.992187 0,1.06458 0,1.06458 -3.4395828,1.06458 -3.4395834,0 -3.4395834,0 -3.4395834,1.984375 0,1.984375 0,1.984375 2.9104167,1.984375 2.9104169,0 2.9104169,0 2.9104169,1.058334 0,1.058333 0,1.058333 -2.9104169,1.058333 -2.9104167,0 -2.9104167,0 -2.9104167,3.175 0,3.175 0,3.175 -1.0666373,3.175 -0.6166098,0 -1.1208865,-0.141372 -1.1952169,-0.335074 z M 14.882106,18.508988 c 0,-7.291255 0,-7.291255 1.124479,-7.209896 1.124479,0.08136 1.124479,0.08136 1.256771,6.299068 0.07276,3.419739 0.221588,6.187942 0.330729,6.151562 0.109141,-0.03638 1.567656,-0.06615 3.241146,-0.06615 3.042708,0 3.042708,0 3.042708,1.058334 0,1.058333 0,1.058333 -4.497917,1.058333 -4.497916,0 -4.497916,0 -4.497916,-7.291255 z m 48.27974,6.972279 c -0.07412,-0.193143 -0.102925,-3.444841 -0.06402,-7.225993 0.07074,-6.874823 0.07074,-6.874823 1.129072,-6.95129 1.058334,-0.07646 1.058334,-0.07646 3.536009,3.905703 1.36272,2.190194 2.564833,4.036036 2.67136,4.101875 0.106526,0.06584 1.319824,-1.69173 2.696215,-3.905703 2.469195,-3.97179 2.516074,-4.026532 3.519416,-4.109863 0.6344,-0.05269 1.100135,0.04683 1.238205,0.264584 0.251503,0.396645 0.315153,13.179218 0.06882,13.821148 -0.108172,0.281895 -0.494938,0.418515 -1.184786,0.418515 -1.024189,0 -1.024189,0 -1.096171,-4.884994 -0.07198,-4.884994 -0.07198,-4.884994 -2.168927,-1.5875 -1.99785,3.14167 -2.13863,3.297494 -2.979121,3.297494 -0.837279,0 -0.98932,-0.164962 -2.987233,-3.241146 -2.105054,-3.241146 -2.105054,-3.241146 -2.180254,1.521354 -0.0752,4.7625 -0.0752,4.7625 -1.069515,4.844743 -0.645157,0.05337 -1.041633,-0.04107 -1.12907,-0.268927 z M 49.099142,18.503813 c -1.548916,-0.571278 -3.358486,-2.253248 -4.164629,-3.870966 -0.511437,-1.026318 -0.683657,-1.780196 -0.683657,-2.99263 0,-0.89139 0.185055,-2.1638177 0.411236,-2.8276177 0.552514,-1.621544 2.000287,-3.252978 3.653333,-4.11679 1.122897,-0.58678 1.704609,-0.710359 3.343764,-0.710359 1.634763,0 2.221645,0.124024 3.33111,0.703946 1.539433,0.804672 2.868168,2.202606 3.577052,3.76334 0.685438,1.509117 0.661602,4.3967027 -0.04928,5.9704237 -0.662022,1.465551 -2.14548,3.039573 -3.551587,3.768413 -1.387335,0.719108 -4.338389,0.876154 -5.867339,0.31224 z m 5.044188,-2.440496 c 0.421876,-0.247242 1.133346,-0.902729 1.581042,-1.456634 0.692451,-0.856721 0.829133,-1.274977 0.915366,-2.80107 0.08004,-1.416595 -0.01029,-2.0117727 -0.429467,-2.8293557 -1.010036,-1.970069 -2.314818,-2.755181 -4.578847,-2.755181 -1.381715,0 -2.941246,0.627949 -3.732456,1.502884 -1.300004,1.437566 -1.657162,4.3677307 -0.749298,6.1472917 0.615239,1.205966 1.89374,2.343666 2.876265,2.559503 0.388966,0.08545 0.826275,0.200387 0.971796,0.255426 0.51113,0.193312 2.38661,-0.178054 3.145599,-0.622864 z"
       id="path4445" />
  </g>
</svg>
