<?xml version="1.0" encoding="UTF-8" standalone="no"?>
<svg
   xmlns:dc="http://purl.org/dc/elements/1.1/"
   xmlns:cc="http://creativecommons.org/ns#"
   xmlns:rdf="http://www.w3.org/1999/02/22-rdf-syntax-ns#"
   xmlns:svg="http://www.w3.org/2000/svg"
   xmlns="http://www.w3.org/2000/svg"
   xmlns:sodipodi="http://sodipodi.sourceforge.net/DTD/sodipodi-0.dtd"
   xmlns:inkscape="http://www.inkscape.org/namespaces/inkscape"
   width="478.91968"
   height="200.63803"
   viewBox="0 0 4.9887466 2.0899795"
   version="1.1"
   id="SVGRoot"
   sodipodi:docname="hose.svg"
   inkscape:version="1.0.1 (3bc2e813f5, 2020-09-07)">
  <defs
     id="defs12624" />
  <sodipodi:namedview
     id="base"
     pagecolor="#ffffff"
     bordercolor="#666666"
     borderopacity="1.0"
     inkscape:pageopacity="0.0"
     inkscape:pageshadow="2"
     inkscape:zoom="1.979899"
     inkscape:cx="269.78791"
     inkscape:cy="93.56725"
     inkscape:document-units="in"
     inkscape:current-layer="layer19"
     inkscape:document-rotation="0"
     showgrid="false"
     inkscape:window-width="1280"
     inkscape:window-height="737"
     inkscape:window-x="-8"
     inkscape:window-y="-8"
     inkscape:window-maximized="1"
     units="px"
     fit-margin-top="0"
     fit-margin-left="0"
     fit-margin-right="0"
     fit-margin-bottom="0"
     inkscape:pagecheckerboard="true" />
  <metadata
     id="metadata12627">
    <rdf:RDF>
      <cc:Work
         rdf:about="">
        <dc:format>image/svg+xml</dc:format>
        <dc:type
           rdf:resource="http://purl.org/dc/dcmitype/StillImage" />
        <dc:title></dc:title>
      </cc:Work>
    </rdf:RDF>
  </metadata>
  <g
     inkscape:groupmode="layer"
     id="layer19"
     inkscape:label="Layer 0">
    <path
       style="fill:#ffffff;stroke-width:0.505076"
       d="M 206.05828,103.97686 C 165.5499,102.17577 90.802867,91.764434 66.657225,84.560017 c -5.146122,-1.535466 -9.848994,-3.741611 -9.250936,-4.33967 0.238328,-0.238327 2.459143,0.126636 4.963829,0.815745 5.087016,1.399578 6.487244,1.538969 6.184736,0.615682 -0.113771,-0.34724 -2.445999,-1.478649 -5.182729,-2.514243 -5.999608,-2.270284 -6.292094,-2.509044 -5.280809,-4.310774 2.646335,-4.714775 8.511673,-5.073459 23.12692,-1.414283 43.438614,10.875596 118.339504,17.074814 196.813414,16.289381 43.29573,-0.43334 67.3771,-2.193979 88.64088,-6.48072 8.71339,-1.756604 13.92316,-2.003796 16.76643,-0.79553 2.18129,0.926959 4.27367,4.514463 4.77768,8.19164 0.30247,2.206757 0.2653,2.285944 -1.39938,2.981493 -3.95457,1.652325 -26.22866,4.687192 -52.21707,7.114632 -7.50038,0.70057 -16.7054,1.61539 -20.45559,2.03293 -13.21125,1.47091 -84.44124,2.28187 -108.08632,1.23056 z"
       id="path12663"
       transform="scale(0.01041667)" />
    <path
       style="fill:#ffffff;stroke-width:0.505076"
       d="m 233.3324,128.36829 c -6.884,-0.16786 -40.28392,-2.37473 -55.81093,-3.68767 -47.69464,-4.03296 -98.372184,-11.34751 -120.954682,-17.45798 -6.024939,-1.63026 -11.122766,-3.90232 -11.122766,-4.95733 0,-0.99922 0.05809,-0.99646 5.316141,0.25232 6.683632,1.58736 6.406031,0.0266 -0.384249,-2.16034 -4.634279,-1.492568 -5.638872,-2.466629 -5.223428,-5.064674 0.450252,-2.815719 1.624968,-4.863403 2.986009,-5.205002 1.257068,-0.315504 2.633109,-0.01571 15.993349,3.484458 37.384086,9.794018 92.371466,16.503108 155.816026,19.011328 6.9448,0.27456 25.12755,0.50097 40.40611,0.50313 40.15792,0.006 58.24664,-0.89356 97.22718,-4.83355 24.98613,-2.52549 33.13905,-2.93228 34.59638,-1.7262 1.79587,1.48626 2.40344,3.88523 1.7099,6.75144 -0.34502,1.42586 -0.981,2.884 -1.41328,3.2403 -4.20998,3.47004 -35.98112,7.58572 -76.81433,9.95066 -19.62539,1.13664 -67.9141,2.25055 -82.32743,1.89911 z"
       id="path12665"
       transform="scale(0.01041667)" />
    <path
       style="fill:#ffffff;stroke-width:0.505076"
       d="m 198.73467,148.13736 c -1.94454,-0.0925 -8.76307,-0.40923 -15.15229,-0.70379 -34.01813,-1.56834 -51.87016,-3.46696 -85.862964,-9.13179 -42.570929,-7.09437 -54.295699,-10.09184 -54.295699,-13.88087 0,-1.03881 1.764857,-0.90576 7.160889,0.53988 2.589622,0.69378 5.276614,1.24789 5.971094,1.23136 1.102393,-0.0262 1.006213,-0.15327 -0.757614,-1.00058 -1.111168,-0.53379 -4.045734,-1.71294 -6.521257,-2.62032 -3.081182,-1.12939 -4.813956,-2.07316 -5.493236,-2.99194 l -0.992284,-1.34215 1.207677,-2.19339 c 0.78525,-1.42617 1.609947,-2.25081 2.357724,-2.35756 0.632525,-0.0903 5.028264,0.77405 9.768308,1.92077 30.10859,7.28392 70.407362,12.96312 127.204822,17.92665 17.34987,1.5162 30.67638,2.13754 54.80078,2.55503 18.21977,0.31531 54.13257,-0.3703 66.92261,-1.27761 10.39648,-0.73753 32.99382,-1.2028 38.42123,-0.79109 5.21937,0.39593 6.83578,0.92362 5.5204,1.8022 -3.58095,2.3918 -27.80432,6.78281 -52.78047,9.56758 -20.88906,2.32908 -28.02663,2.65184 -61.6193,2.78638 -17.77869,0.0712 -33.91588,0.0538 -35.86042,-0.0388 z"
       id="path12667"
       transform="scale(0.01041667)" />
    <path
       style="fill:#ffffff;stroke-width:0.505076"
       d="m 183.83492,169.13779 c -26.38286,-1.48011 -64.73444,-5.42991 -83.59012,-8.60888 -30.138435,-5.08119 -52.075684,-10.06054 -52.667407,-11.95453 -0.28028,-0.89712 1.516216,-0.78271 5.947849,0.37881 4.146771,1.08685 7.368769,1.35321 6.060916,0.50104 -0.416688,-0.27151 -2.591112,-1.05814 -4.832053,-1.74808 -7.124157,-2.19336 -9.53013,-4.62609 -8.058528,-8.14813 l 0.779392,-1.86534 4.414096,0.30905 c 2.427754,0.16998 7.027867,1.01145 10.222474,1.86994 20.218137,5.43321 55.691811,10.01082 113.894701,14.69725 23.38472,1.88292 82.40126,1.84058 107.89449,-0.0774 24.31711,-1.82949 72.14823,-11.5737 98.05839,-19.97656 8.72965,-2.83109 10.54466,-3.04948 11.21765,-1.34977 0.55523,1.40231 0.31796,8.55274 -0.33107,9.9772 -0.32325,0.70946 -1.28737,1.71549 -2.1425,2.23563 -4.47942,2.72466 -40.23391,12.31268 -61.23303,16.42042 -23.87439,4.67018 -37.33468,6.19467 -60.29633,6.82908 -25.74967,0.71143 -76.35918,1.01404 -85.33892,0.51027 z"
       id="path12669"
       transform="scale(0.01041667)" />
    <path
       style="fill:#ffffff;stroke-width:0.505076"
       d="m 213.38188,190.0841 c -58.35302,-1.99557 -92.13857,-5.27638 -132.777443,-12.89359 -12.616617,-2.36482 -18.282461,-3.74995 -20.008127,-4.89139 -1.120712,-0.74129 -1.157504,-0.85664 -0.327217,-1.02586 0.51451,-0.10486 1.922042,0.0578 3.127846,0.36139 2.717962,0.68439 4.650428,0.72538 3.992647,0.0847 -0.263902,-0.25705 -2.298097,-1.18484 -4.520433,-2.06176 -4.735422,-1.86858 -5.808377,-2.70339 -5.808377,-4.51922 0,-1.65248 0.843771,-2.54811 2.400562,-2.54811 0.653608,0 9.074492,1.58417 18.713076,3.52039 38.629866,7.76004 70.239966,10.8188 131.148266,12.69061 23.78712,0.73101 61.01333,0.34182 74.01227,-0.77378 23.01506,-1.97521 38.97098,-4.48037 81.82235,-12.84656 25.32825,-4.94502 25.73352,-5.00298 26.6322,-3.80827 0.86403,1.14866 0.59248,4.70525 -0.57206,7.49239 -0.9486,2.27032 -2.24212,2.85795 -11.36451,5.16273 -24.52366,6.19594 -77.03259,12.89872 -121.7718,15.5442 -19.87972,1.17551 -23.9409,1.22204 -44.69925,0.51214 z"
       id="path12671"
       transform="scale(0.01041667)" />
    <path
       style="fill:#ffffff;stroke-width:0.505076"
       d="M 37.110264,74.52687 C 32.073801,72.17277 25.132199,66.279333 19.772688,59.807225 l -1.673001,-2.020305 0.292058,2.904189 c 0.161343,1.604369 0.08821,2.904188 -0.163392,2.904188 -2.068781,0 -0.881599,-11.669632 1.730281,-17.008122 C 28.634691,28.853954 68.670591,18.159962 149.99481,11.853206 188.65941,8.8547361 254.1426,7.4655529 256.27558,9.5985286 c 0.37057,0.3705727 -1.10667,6.3411244 -1.99301,8.0551134 -1.75453,3.3929 -0.13899,3.228943 -35.32165,3.584671 -38.88137,0.393124 -59.70852,1.601733 -90.68439,5.262458 -44.943903,5.311467 -75.203144,13.024768 -86.357688,22.013205 -1.724973,1.39 -3.255763,2.407821 -3.401758,2.261826 -0.838948,-0.838948 0.692552,-3.084302 3.529798,-5.175087 5.95544,-4.388603 18.369283,-9.534518 31.450354,-13.037129 7.080988,-1.896017 8.312278,-2.317826 8.312278,-2.847569 0,-0.794942 -3.687375,-0.518632 -10.951786,0.820662 -8.813444,1.62488 -15.544252,3.870146 -23.386123,7.801156 -3.396332,1.70253 -6.301214,2.969444 -6.455293,2.815366 -0.65903,-0.659031 1.993707,-2.577822 6.700037,-4.846303 2.778203,-1.339112 10.506103,-4.300751 17.17311,-6.581419 14.418356,-4.932273 15.404826,-5.316839 15.404826,-6.005435 0,-2.438457 -20.47732,4.122171 -33.886854,10.856844 -7.462132,3.747707 -10.818298,7.715738 -11.409853,13.48999 -0.333977,3.260003 0.362934,5.97634 2.328488,9.075697 1.908934,3.010077 4.780776,5.090062 8.937946,6.473481 2.393964,0.796657 3.233647,1.306359 3.120445,1.894167 -0.259391,1.346912 -5.338498,5.156142 -6.875036,5.156142 -3.606341,0 -15.372357,-9.530779 -16.060578,-13.009487 -0.5765,-2.913994 -5.380946,-5.991852 -6.507575,-4.168928 -1.23303,1.995085 5.994045,10.225833 13.823862,15.743675 6.190452,4.362541 8.329769,6.494852 6.50186,6.480568 -0.34724,-0.0025 -1.767767,-0.536108 -3.156726,-1.185323 z"
       id="path12673"
       transform="scale(0.01041667)" />
    <path
       style="fill:#ffffff;stroke-width:0.505076"
       d="M 26.7562,94.881734 C 11.738468,85.951379 4.6960692,75.987156 7.7501257,67.990223 c 0.9437869,-2.471271 3.6097023,-5.615547 4.3652833,-5.148572 0.2822,0.174409 0.990334,1.267645 1.573633,2.429413 2.575136,5.128956 8.216721,10.740623 17.107768,17.017048 4.224916,2.982479 4.526941,3.308758 4.537952,4.902365 0.01019,1.474816 -1.540431,4.689092 -2.262099,4.689092 -0.905272,0 -6.103567,-3.279151 -9.566375,-6.03459 -4.120643,-3.278895 -8.945884,-8.451751 -10.045662,-10.769362 -0.988839,-2.083823 -3.063784,-3.904176 -4.4502096,-3.904176 -0.7020233,0 -0.9420386,0.371898 -0.9420386,1.459666 0,3.380192 8.3051132,12.038848 16.9200552,17.640331 5.574995,3.624892 7.828682,5.496329 7.828682,6.50085 0,1.222418 -1.737272,0.680519 -6.060915,-1.890554 z"
       id="path12675"
       transform="scale(0.01041667)" />
    <path
       style="fill:#ffffff;stroke-width:0.505076"
       d="M 24.163366,117.72076 C 14.676697,112.99031 7.6376643,107.09891 5.0256616,101.70323 4.1093124,99.810308 3.9504076,98.835969 4.1859069,96.554201 c 0.519447,-5.032958 2.2851467,-5.331741 7.2450671,-1.225974 3.988831,3.301909 8.117483,6.032493 13.557459,8.966553 2.500128,1.34845 5.057076,2.96017 5.682108,3.5816 1.457015,1.44861 1.487071,3.85559 0.06589,5.27677 -2.782565,2.78256 -10.330534,-0.87822 -20.017438,-9.70851 -2.1020018,-1.91612 -4.0128693,-3.483851 -4.2463723,-3.483851 -0.233503,0 -0.424551,0.478221 -0.424551,1.062721 0,2.3642 10.3445713,10.71907 18.2528143,14.74202 5.342396,2.71769 6.495923,3.47546 6.495923,4.26727 0,0.95365 -0.279894,0.8561 -6.633444,-2.31204 z"
       id="path12677"
       transform="scale(0.01041667)" />
    <path
       style="fill:#ffffff;stroke-width:0.505076"
       d="m 31.301886,143.68435 c -3.174543,-1.17081 -9.258513,-4.39382 -13.530228,-7.1677 -2.302474,-1.49514 -5.308766,-3.28722 -6.680647,-3.98241 -2.964298,-1.50212 -4.0378224,-3.28833 -4.4041175,-7.3279 -0.2815297,-3.10476 0.5524272,-6.55773 1.5838139,-6.55773 0.3459866,0 2.3111226,1.07617 4.3669696,2.39148 2.055846,1.31531 7.150854,4.2148 11.322239,6.44331 5.322487,2.84347 7.767034,4.43302 8.196952,5.33001 0.659722,1.37647 1.65263,6.89782 1.303265,7.24718 -0.116665,0.11667 -2.85587,-1.03011 -6.08712,-2.54838 -5.668261,-2.66336 -8.855915,-4.72162 -14.758949,-9.52982 -2.8666092,-2.33493 -3.9099117,-2.6079 -3.6219659,-0.94762 0.5859161,3.37835 13.4992269,12.2341 20.4976109,14.05695 3.333951,0.86838 4.628646,1.52455 5.0199,2.54414 0.362975,0.94589 -0.729706,0.96241 -3.207723,0.0485 z"
       id="path12679"
       transform="scale(0.01041667)" />
    <path
       style="fill:#ffffff;stroke-width:0.505076"
       d="m 39.81812,166.42414 c -4.166518,-1.45589 -14.211993,-6.67958 -18.849061,-9.80158 -3.71556,-2.50158 -5.3668,-4.88718 -6.095094,-8.80579 -0.310757,-1.67204 -0.234218,-1.89404 0.653019,-1.89404 0.856311,0 8.599893,3.59716 19.300082,8.96555 2.928266,1.46914 6.07127,4.97134 6.07127,6.76511 0,0.80028 -0.231432,0.93974 -1.136422,0.68482 -2.757252,-0.77665 -11.65853,-5.44895 -16.228042,-8.51813 -4.513914,-3.03183 -6.879198,-4.04673 -6.879198,-2.95175 0,0.91728 4.573521,4.77134 8.355409,7.04101 2.234243,1.34087 6.893572,3.64091 10.354064,5.11119 6.146192,2.61139 8.472601,3.87073 8.008261,4.33507 -0.126558,0.12656 -1.725987,-0.2926 -3.554288,-0.93146 z"
       id="path12681"
       transform="scale(0.01041667)" />
    <path
       style="fill:#ffffff;stroke-width:0.357143"
       d="m 66.475739,185.20457 c -15.066491,-4.13321 -27.753458,-26.5276 -31.859401,-56.2366 -0.894622,-6.47314 -0.893715,-21.01488 0.0017,-27.32143 1.222358,-8.609211 3.509971,-16.204772 6.776499,-22.499998 3.247429,-6.258422 10.234711,-11.479188 18.635725,-13.924264 5.945173,-1.730315 11.31526,-1.574417 15.453782,0.448636 3.977385,1.944285 3.046453,2.733434 -1.844418,1.563508 -3.791218,-0.906882 -5.271018,-0.95052 -8.845804,-0.26085 -6.978749,1.346385 -13.060317,4.694344 -16.288993,8.967243 -10.343275,13.688511 -13.272786,40.154455 -7.36582,66.544665 3.351415,14.97292 9.838353,28.11301 17.499636,35.44767 4.00723,3.83639 6.793251,5.40755 12.284474,6.92777 l 3.035714,0.84043 -2.857143,-0.006 c -1.571428,-0.003 -3.653109,-0.22413 -4.625956,-0.49101 z"
       id="path12683"
       transform="scale(0.01041667)" />
    <path
       style="fill:#ffffff;stroke-width:0.178571"
       d="m 49.147052,61.471895 c 0,-3.254516 14.804109,-9.439463 33.839286,-14.137573 4.596942,-1.134581 11.751587,-2.570062 18.660712,-3.744016 5.3865,-0.915238 8.68465,-1.626758 8.86065,-1.911533 0.21115,-0.341643 -0.30743,-0.448846 -2.75778,-0.570104 -5.42963,-0.268691 -12.594477,0.777404 -22.977868,3.354857 -12.87492,3.195922 -24.434463,7.195639 -33.0626,11.439989 -4.240076,2.085776 -5.250999,2.507262 -6.488047,2.705075 -2.254482,0.360507 0.308892,-2.650924 4.639933,-5.450952 17.744441,-11.471829 69.581902,-20.363933 133.839282,-22.958547 19.64526,-0.793245 57.10941,-1.208251 62.54465,-0.692833 l 1.11607,0.105836 v 2.639787 2.639788 l -0.84822,0.09613 c -1.2798,0.145045 -15.15167,0.450583 -29.77678,0.655853 -13.0042,0.182521 -16.67958,0.292063 -27.14286,0.808974 -57.70747,2.850887 -113.514262,12.072389 -132.82969,21.948752 -1.19367,0.610346 -3.193697,1.645405 -4.444504,2.30013 -2.47104,1.293445 -3.172234,1.463732 -3.172234,0.770387 z"
       id="path12685"
       transform="scale(0.01041667)" />
    <path
       style="fill:#ffffff;stroke-width:0.357143"
       d="m 91.457536,71.856163 c 0,-0.332117 8.669964,-3.005736 14.464284,-4.460457 3.14286,-0.789044 9.57143,-2.253465 14.28572,-3.254269 4.71428,-1.000803 9.33482,-2.06703 10.26785,-2.369394 2.52435,-0.81805 2.17037,-1.353982 -0.71428,-1.081435 -5.10886,0.482695 -24.94514,4.072811 -35.803574,6.479998 -6.07616,1.347013 -12.226015,2.042367 -10.950885,1.238199 1.674798,-1.056221 17.067799,-4.359396 35.772309,-7.676358 12.8878,-2.285456 16.96429,-3.283399 16.96429,-4.152934 0,-0.432581 -1.307,-0.372521 -5.44878,0.250389 -2.0121,0.302613 -8.88158,1.267933 -15.26551,2.145157 -15.273367,2.098732 -23.773833,3.502551 -29.54765,4.879681 -2.599425,0.619996 -4.83871,1.014782 -4.976191,0.877302 -1.08041,-1.080411 4.17409,-2.25748 35.238131,-7.893748 12.31283,-2.234042 12.92732,-2.376274 13.14978,-3.043654 0.13101,-0.393025 -0.4571,-0.435971 -3.19101,-0.233022 -7.15119,0.530862 -33.43962,4.568567 -42.733583,6.563556 -4.81457,1.033469 -9.389631,1.275792 -10.128932,0.536491 -0.537609,-0.537608 0.162532,-0.817386 5.525013,-2.207808 10.528554,-2.729918 33.885492,-7.089355 48.807302,-9.109598 26.76727,-3.623984 86.84397,-6.715886 109.46429,-5.633679 8.01063,0.383247 10.15757,0.842205 10.96588,2.344207 0.61318,1.139396 0.25749,11.407055 -0.40943,11.819235 -0.14393,0.08896 -8.04231,0.329731 -17.55193,0.535051 -56.74604,1.225191 -94.15086,4.601997 -126.57595,11.426931 -8.519737,1.793262 -11.607144,2.330608 -11.607144,2.020159 z M 145.50737,60.790697 c 1.97311,-0.476376 3.07758,-1.07406 2.69386,-1.457779 -0.15222,-0.152219 -6.13494,0.28124 -10.13655,0.734411 -1.75817,0.199108 -2.50483,0.626692 -2.13612,1.223276 0.34908,0.564823 6.49792,0.243922 9.57881,-0.499908 z m -6.00265,-8.242777 c 1.29194,-0.539808 1.57836,-1.061398 0.7561,-1.376928 -0.94767,-0.363654 -8.089,1.143368 -8.089,1.707008 0,0.435668 6.16431,0.15819 7.3329,-0.33008 z"
       id="path12687"
       transform="scale(0.01041667)" />
    <path
       style="fill:#ffffff;stroke-width:0.357143"
       d="m 174.59405,83.560939 c -0.0993,-0.174326 -0.29045,-0.775656 -0.4247,-1.336289 -0.22764,-0.950618 -0.33329,-1.00421 -1.56724,-0.795007 -2.3887,0.404979 -14.9692,0.598982 -14.08354,0.217181 0.44607,-0.192297 2.86981,-0.82221 5.38609,-1.399807 5.01892,-1.152057 7.19573,-1.925434 7.19573,-2.556487 0,-0.47743 -0.89871,-0.401074 -7.85714,0.667545 -5.7961,0.890119 -12.89586,1.504462 -16.89445,1.46188 -2.88274,-0.0307 -2.80014,-0.05471 5.46588,-1.588689 4.61607,-0.856636 9.7182,-1.668237 11.33806,-1.803559 2.98996,-0.249779 4.33407,-0.777985 3.874,-1.522402 -0.3923,-0.63475 -2.11807,-0.509022 -11.23264,0.818337 -4.64404,0.676313 -11.73835,1.630936 -15.76514,2.121385 -17.15672,2.08963 -16.59875,1.433595 1.78572,-2.099563 7.30119,-1.403155 9.14273,-1.898052 8.69359,-2.336324 -0.39527,-0.385706 -7.53368,0.392086 -18.15788,1.978462 -8.88542,1.326747 -19.15592,2.037113 -19.57803,1.354128 -0.26299,-0.425533 1.30775,-0.923777 5.87458,-1.863439 26.03745,-5.357413 116.29502,-9.656654 127.35411,-6.066262 1.3573,0.440653 1.80017,1.599264 2.12921,5.570284 0.20649,2.491978 0.18192,2.597685 -0.84196,3.621562 -1.46691,1.466916 -3.45474,1.778138 -12.97362,2.031202 -11.86821,0.315521 -25.71128,1.128123 -40,2.348039 -15.97233,1.363655 -19.49485,1.57404 -19.72063,1.177823 z"
       id="path12689"
       transform="scale(0.01041667)" />
    <path
       style="fill:#ffffff;stroke-width:0.357143"
       d="m 314.31468,85.676786 c -0.49107,-0.08167 -2.48365,-0.550814 -4.42796,-1.042538 -8.57012,-2.167422 -20.77401,-3.663801 -37.53633,-4.602509 -9.87475,-0.552998 -14.01857,-0.988371 -15.145,-1.591222 -1.54342,-0.826012 -1.90945,-1.694422 -1.75258,-4.158014 0.13567,-2.130704 0.27082,-2.489134 1.27775,-3.388831 3.3996,-3.037539 12.58019,-3.198039 37.94126,-0.663309 10.75366,1.074783 18.16148,1.985869 19.11187,2.350564 0.29204,0.112069 0.53099,0.356318 0.53099,0.542776 0,0.622266 3.27007,1.796447 10.32761,3.70833 10.53479,2.853865 18.76824,5.458473 17.41212,5.508232 -0.16279,0.006 -3.93958,-0.863762 -8.39286,-1.932745 -11.52914,-2.7675 -16.42758,-3.512952 -26.13259,-3.976893 -3.1761,-0.151831 -4.69955,-0.110079 -4.46428,0.122351 0.19643,0.194059 3.65178,0.953123 7.67857,1.686807 12.29774,2.240662 19.85675,4.400793 20.27719,5.794597 0.2999,0.994193 -1.71714,0.855769 -5.33711,-0.366272 -6.57098,-2.218256 -19.12715,-4.659341 -26.08337,-5.070952 -5.10932,-0.302328 -4.08007,0.166205 5.13044,2.335466 7.67767,1.808246 13.0939,3.31739 14.39774,4.011696 0.70367,0.374708 0.70367,0.377159 0,0.652076 -0.74197,0.289883 -3.29724,0.33256 -4.81346,0.08039 z"
       id="path12691"
       transform="scale(0.01041667)" />
    <path
       style="fill:#ffffff;stroke-width:0.357143"
       d="m 353.77897,73.767305 c -16.29035,-5.665971 -50.12069,-11.476966 -76.78572,-13.189384 -19.24608,-1.235976 -20.65481,-1.833428 -20.68392,-8.772195 -0.0332,-7.925194 6.18242,-8.82104 38.36249,-5.529085 24.19329,2.474923 30.18489,3.491714 32.70253,5.549707 l 1.04747,0.856232 -1.80296,0.01284 c -0.99162,0.0071 -4.82961,-0.549655 -8.52886,-1.237155 -3.69925,-0.6875 -7.38792,-1.244889 -8.19705,-1.238642 -1.31316,0.01014 -1.40275,0.06323 -0.83435,0.494412 0.35022,0.265679 2.51986,0.992585 4.82143,1.615348 9.04505,2.447435 15.94277,4.911887 14.80724,5.290399 -0.21337,0.07112 -3.26413,-0.2013 -6.77947,-0.605386 -7.0595,-0.811487 -9.02169,-0.899186 -9.02169,-0.40322 0,0.465383 2.8734,1.487827 9.10714,3.240597 2.94643,0.828462 5.51786,1.66511 5.71429,1.859217 0.2354,0.232626 -0.61675,0.282099 -2.5,0.145142 -7.98683,-0.580832 -10.53572,-0.653602 -10.53572,-0.300793 0,0.417301 1.04552,0.671075 9.27894,2.252227 3.23734,0.621703 8.29984,1.839657 11.25,2.706565 2.95016,0.866909 7.60407,2.142787 10.34203,2.835285 6.03549,1.526525 9.75887,2.927934 12.25403,4.612187 3.18032,2.146735 2.63742,2.120481 -4.01785,-0.194301 z"
       id="path12693"
       transform="scale(0.01041667)" />
    <path
       style="fill:#ffffff;stroke-width:0.357143"
       d="m 320.74325,42.463834 c -16.46678,-2.714065 -23.03289,-3.506627 -36.42857,-4.397113 -17.98677,-1.195681 -23.23172,-1.855474 -24.45224,-3.075994 -1.12757,-1.12757 -0.36682,-3.376556 1.4307,-4.229533 1.53197,-0.726969 8.321,-0.733756 19.29174,-0.01928 22.42951,1.460724 39.28412,3.310877 44.31378,4.864381 3.55644,1.098473 2.23994,1.396601 -3.6197,0.819697 -2.75,-0.270748 -7.8125,-0.595653 -11.25,-0.722012 -6.82691,-0.25095 -7.57986,0.05711 -2.67857,1.0959 7.02396,1.488674 16.64739,4.434938 17.66582,5.408483 0.45093,0.431058 0.25418,0.493211 -1.42857,0.451274 -1.07334,-0.02675 -2.35332,-0.114859 -2.84439,-0.195798 z"
       id="path12695"
       transform="scale(0.01041667)" />
    <path
       style="fill:#ffffff;stroke-width:0.357143"
       d="m 338.77897,29.593377 c -0.58929,-0.0829 -4.28572,-0.771178 -8.21429,-1.529508 -11.59602,-2.238374 -24.02336,-3.55783 -45.35714,-4.815732 -9.86976,-0.58195 -16.41557,-1.270589 -18.90043,-1.988384 -1.6188,-0.467618 -3.421,-2.110233 -3.421,-3.11807 0,-0.381127 0.60268,-1.880096 1.33928,-3.331044 1.48657,-2.928199 2.67744,-3.948255 5.37162,-4.601157 3.05629,-0.7406514 15.28692,-0.842329 24.00338,-0.199548 30.66936,2.261659 74.12946,8.543014 86.79825,12.545083 5.16954,1.633057 4.40859,2.860245 -1.58947,2.56335 -2.85749,-0.141442 -5.35221,-0.630206 -12.07442,-2.365616 -11.15929,-2.880893 -14.00358,-2.993726 -5.40555,-0.214437 2.19109,0.708262 4.2815,1.529519 4.64535,1.825015 0.59767,0.485381 0.38563,0.517979 -2.19558,0.337547 -1.57143,-0.109847 -4.34375,-0.522763 -6.16072,-0.917593 l -6.60714,-1.435744 c -4.23063,-0.919324 -8.83929,-1.323455 -8.83929,-0.775115 0,0.393541 3.09317,1.421178 8.84301,2.937899 1.62259,0.428012 3.0429,0.928261 3.15624,1.111663 0.31482,0.509382 -2.75018,0.05513 -11.51736,-1.706961 -9.24256,-1.857632 -14.61199,-2.623532 -18.33903,-2.615896 -2.98713,0.0061 -8.12124,0.816089 -8.6735,1.368354 -0.41274,0.412744 -0.35251,0.429185 5.45921,1.490124 8.4767,1.547432 20.39028,4.559318 21.23215,5.367719 0.34337,0.329725 -1.44942,0.364057 -3.55357,0.06805 z"
       id="path12697"
       transform="scale(0.01041667)" />
    <path
       style="fill:#ffffff;stroke-width:0.357143"
       d="m 405.5394,135.47613 c -0.79632,-3.23212 -0.82269,-6.5145 -0.064,-7.96496 0.83586,-1.59796 3.33213,-3.76134 6.35743,-5.50965 8.06228,-4.65915 11.22258,-6.61649 14.44612,-8.94723 16.58998,-11.9952 25.90583,-26.112818 25.88757,-39.231101 -0.009,-6.755314 -1.82144,-11.643525 -5.98208,-16.137396 -8.06585,-8.711868 -21.01678,-12.604521 -39.90549,-11.994372 -7.95783,0.257056 -11.90295,0.69538 -16.74718,1.860698 -1.94309,0.467426 -3.67076,0.764652 -3.83928,0.660501 -0.52985,-0.327465 -0.33331,-1.797867 0.31925,-2.388427 1.43074,-1.294803 5.08602,-2.089829 14.37435,-3.126435 13.66654,-1.525229 24.3148,-0.591201 32.60494,2.859992 4.05406,1.687712 6.80276,3.605898 10.85855,7.577672 3.53663,3.463364 4.39365,3.920405 4.39365,2.343098 0,-3.229975 -8.22017,-11.483993 -15,-15.061754 -10.42837,-5.503125 -28.78442,-6.690271 -44.58216,-2.883274 -2.02912,0.488984 -3.83038,0.889062 -4.0028,0.889062 -1.01576,0 -3.82681,-7.451366 -3.42101,-9.068208 0.64785,-2.58123 10.78575,-4.21594 26.11311,-4.210669 9.55678,0.0033 14.53954,0.355695 21.55475,1.524474 11.00514,1.833526 20.69642,6.97958 29.15954,15.483659 4.87416,4.89775 7.60136,8.547882 10.34161,13.841387 3.72766,7.200935 5.02554,12.605689 4.73589,19.721714 -0.27581,6.776093 -1.92448,11.666018 -2.01668,5.981453 -0.0448,-2.761153 -0.84001,-1.481721 -2.97729,4.790193 -3.69123,10.831997 -5.8952,14.391603 -13.81494,22.312323 -8.89987,8.90097 -12.08402,11.05782 -32.51859,22.02719 -10.33851,5.54976 -13.78702,7.23934 -14.77582,7.23934 -0.77272,0 -0.92728,-0.26689 -1.49946,-2.58928 z m 28.60506,-15.85776 c 15.09445,-8.38335 27.68631,-20.394502 31.76803,-30.302959 0.88181,-2.140604 1.03352,-2.997768 1.05531,-5.962547 0.0404,-5.494867 -1.21417,-5.7503 -2.62336,-0.534125 -1.69509,6.274411 -6.55349,13.445579 -15.02371,22.175491 -5.3171,5.48012 -9.10517,8.70633 -15.15535,12.90746 -2.465,1.71165 -4.66485,3.33264 -4.88856,3.60219 -0.86275,1.03956 0.66996,0.44585 4.86764,-1.88551 z"
       id="path12699"
       transform="scale(0.01041667)" />
    <path
       style="fill:#ffffff;stroke-width:0.357143"
       d="m 399.88754,90.86733 c -0.89127,-1.27227 -4.14429,-9.743459 -4.14429,-10.792138 0,-0.57123 0.31643,-1.129218 0.8319,-1.466968 0.45755,-0.299795 4.1138,-1.276779 8.125,-2.171076 9.41445,-2.098948 14.39077,-3.357961 20.30854,-5.138079 5.93351,-1.784854 8.49834,-2.090562 11.12732,-1.326296 3.15732,0.917859 5.75939,4.190477 6.26503,7.879533 0.1896,1.38332 0.1142,1.634202 -0.63958,2.128101 -0.95986,0.628919 -8.28738,3.442147 -8.96566,3.442147 -0.24078,0 0.6855,-0.743747 2.05841,-1.65277 2.57569,-1.705414 4.81761,-3.62808 4.81761,-4.131576 0,-0.518145 -2.64356,-0.300763 -5.3023,0.436014 -3.41671,0.946816 -6.97323,2.577255 -8.44978,3.87368 -0.65082,0.57143 -1.67999,1.332359 -2.28704,1.690953 -1.78979,1.057254 -1.4487,1.6789 0.77127,1.405658 5.10887,-0.62882 5.25419,-0.587564 1.875,0.532338 -2.6702,0.884932 -21.70546,5.458711 -24.86661,5.97493 -0.6872,0.11222 -1.09495,-0.07081 -1.52482,-0.684451 z"
       id="path12701"
       transform="scale(0.01041667)" />
    <path
       style="fill:#ffffff;stroke-width:0.357143"
       d="m 408.82315,71.808573 c -0.74785,-0.747845 -0.73062,-1.492052 0.12879,-5.563952 1.12551,-5.332661 0.8735,-8.00138 -0.77873,-8.246616 -0.65016,-0.0965 -0.30404,-0.381184 1.64952,-1.356726 2.12276,-1.060031 2.83095,-1.234598 5.00852,-1.234598 3.13042,0 5.50178,0.847222 6.93258,2.476813 1.42751,1.62584 1.67168,2.990193 0.9331,5.213859 -0.89602,2.697641 -3.61568,5.243877 -7.7418,7.248107 -4.01599,1.950735 -5.33067,2.264423 -6.13198,1.463113 z"
       id="path12703"
       transform="scale(0.01041667)" />
    <path
       style="fill:#ffffff;stroke-width:0.357143"
       d="m 405.59322,115.65348 c -0.11391,-0.11392 -0.20711,-0.65877 -0.20711,-1.21079 0,-1.40121 0.87512,-1.86073 5.99566,-3.1483 5.13004,-1.28995 9.51934,-2.83502 11.72357,-4.12678 1.59256,-0.93331 2.08182,-1.95934 0.9343,-1.95934 -0.95548,0 -5.30658,1.24433 -11.92428,3.4101 -3.27212,1.07087 -6.19368,1.94704 -6.49235,1.94704 -0.29866,0 -0.79558,-0.25255 -1.10425,-0.56122 -0.7698,-0.7698 -0.78552,-4.87946 -0.0211,-5.51387 0.7497,-0.6222 9.40333,-1.1737 14.50448,-0.92438 4.50015,0.21995 6.62824,0.73709 7.24197,1.75985 0.32848,0.5474 0.17804,0.84022 -0.92846,1.80728 -0.72625,0.63473 -2.65482,1.81391 -4.28572,2.62041 -5.12023,2.53201 -15.02069,6.31602 -15.43672,5.9 z"
       id="path12705"
       transform="scale(0.01041667)" />
    <path
       style="fill:#ffffff;stroke-width:0.357143"
       d="m 376.54682,186.55809 c -1.8601,-0.89709 -0.64114,-1.44904 4.98505,-2.25721 4.49542,-0.64574 7.30321,-1.71536 9.15339,-3.48695 1.3505,-1.29313 2.55799,-3.43137 2.55799,-4.52969 0,-0.40601 0.57868,-1.84287 1.28595,-3.19301 1.09253,-2.08558 1.35737,-3.06886 1.76079,-6.53729 0.26115,-2.24536 0.9609,-6.56045 1.55499,-9.58908 1.52616,-7.7803 1.96073,-13.89818 1.71034,-24.07802 -0.59336,-24.12291 -5.59909,-45.570113 -12.13834,-52.007024 -3.44822,-3.394261 -8.5586,-5.151171 -14.19402,-4.879807 -3.77115,0.181594 -6.37247,1.100716 -8.81614,3.114999 -0.7163,0.590434 -1.36982,1.006054 -1.45228,0.923602 -0.35292,-0.352922 1.44833,-2.613027 3.06034,-3.839934 2.80507,-2.134947 5.45337,-3.177063 8.62648,-3.394553 7.767,-0.532363 14.76333,3.988661 19.27774,12.457269 4.28618,8.040463 7.47361,21.852078 8.64196,37.446878 0.53258,7.10869 0.21871,25.71519 -0.53372,31.63923 -2.15554,16.9712 -6.54566,28.13471 -12.1266,30.83639 -3.15724,1.5284 -11.29732,2.36606 -13.35392,1.3742 z"
       id="path12707"
       transform="scale(0.01041667)" />
    <path
       style="fill:#ffffff;stroke-width:0.357143"
       d="m 402.37166,168.09981 c -0.10971,-0.1775 0.11367,-2.15437 0.49639,-4.39304 1.32104,-7.72727 1.391,-7.79365 11.80112,-11.19681 8.86035,-2.89653 15.38565,-5.72714 21.78837,-9.45157 6.16508,-3.58621 12.24118,-8.82564 15.10919,-13.02869 3.20554,-4.69771 7.0081,-7.33114 10.6348,-7.36505 1.06402,-0.01 2.41672,0.16637 3.00601,0.39182 2.56556,0.98151 5.17645,4.86632 5.1666,7.68751 -0.0117,3.3603 -2.99153,7.9839 -7.69601,11.9415 -8.24497,6.93601 -24.10739,14.7797 -41.88031,20.7091 -13.75178,4.58786 -17.85166,5.6348 -18.42616,4.70523 z m 35.03637,-12.30519 c 8.49773,-3.64058 16.70307,-9.08461 23.47736,-15.57663 4.14831,-3.97546 5.215,-5.44943 5.215,-7.20616 0,-1.20765 -0.1028,-1.37499 -0.84469,-1.37499 -1.17323,0 -2.3973,1.05477 -4.27056,3.67991 -3.56346,4.99374 -11.0012,11.07478 -20.97552,17.14942 -2.84538,1.73291 -5.57201,3.45702 -6.05918,3.83134 -0.86318,0.66324 -0.86608,0.68079 -0.11384,0.68853 0.42456,0.004 2.0317,-0.53177 3.57143,-1.19142 z"
       id="path12709"
       transform="scale(0.01041667)" />
    <path
       style="fill:#ffffff;stroke-width:0.0892857"
       d="m 455.31537,115.88489 c 0,-0.51211 1.05317,-2.20355 2.24862,-3.61141 0.52451,-0.6177 1.68282,-1.6238 1.86947,-1.6238 0.30914,0 -2.26529,3.71618 -3.42133,4.93867 -0.52042,0.55034 -0.69676,0.62538 -0.69676,0.29654 z"
       id="path12711"
       transform="scale(0.01041667)" />
    <path
       style="fill:#ffffff;stroke-width:0.0892857"
       d="m 441.63913,128.07773 c -0.47975,-0.0399 -0.60225,-0.23094 -0.3324,-0.51833 0.30781,-0.32783 1.43345,-0.84549 1.88267,-0.86582 0.57035,-0.0258 0.55993,0.20364 -0.0354,0.7803 -0.51169,0.49561 -0.90961,0.65423 -1.51483,0.60385 z"
       id="path12713"
       transform="scale(0.01041667)" />
    <path
       style="fill:#ffffff;stroke-width:0.0892857"
       d="m 397.61279,181.09304 c -0.89951,-0.89951 -0.22577,-1.19836 8.16385,-3.62121 7.49815,-2.1654 8.55223,-2.47617 11.20536,-3.30367 5.9206,-1.84661 12.35004,-4.06558 17.8125,-6.14756 6.06019,-2.30981 10,-3.60974 10,-3.29946 0,0.20033 -2.7544,1.6116 -5.12973,2.62832 -4.04605,1.73183 -13.20219,5.29195 -19.30406,7.50587 -9.12988,3.31256 -16.24334,5.51104 -20.06843,6.20232 -1.21966,0.22042 -2.47784,0.23704 -2.67949,0.0354 z"
       id="path12715"
       transform="scale(0.01041667)" />
    <path
       style="fill:#ffffff;stroke-width:0.0892857"
       d="m 364.81024,188.05476 c -0.61825,-0.0347 -1.20083,-0.10643 -1.29464,-0.15936 -0.15589,-0.088 -0.14368,-0.10747 0.14194,-0.2267 0.70733,-0.29527 4.61419,-0.97758 6.25,-1.09152 0.83459,-0.0581 1.53449,0.0391 1.65215,0.22944 0.10078,0.16307 -0.15235,0.46388 -0.53149,0.63159 -0.66845,0.29569 -1.85857,0.52625 -3.18324,0.6167 -1.38138,0.0943 -1.35244,0.0943 -3.03472,-1.5e-4 z"
       id="path12717"
       transform="scale(0.01041667)" />
    <path
       style="fill:#ffffff;stroke-width:0.126269"
       d="m 343.23128,165.93358 c -0.28326,-0.17946 2.67433,-1.10755 10.71566,-3.36257 6.40554,-1.7963 11.37308,-3.24031 18.87723,-5.48743 10.02945,-3.00332 13.4549,-3.94937 15.74798,-4.34929 1.15081,-0.20071 1.42882,-0.1167 1.03906,0.31398 -0.44393,0.49054 -3.8313,1.92927 -6.32471,2.68632 -0.33734,0.10242 -1.56468,0.47496 -2.72743,0.82788 -3.15049,0.95622 -6.88472,1.98426 -12.65939,3.48513 -8.6037,2.23616 -14.98873,3.92068 -18.14154,4.78616 -4.14033,1.13656 -5.97965,1.4465 -6.52686,1.09982 z"
       id="path12719"
       transform="scale(0.01041667)" />
    <path
       style="fill:#ffffff;stroke-width:0.0631345"
       d="m 330.31985,192.99195 c -0.14409,-0.0412 -0.13034,-0.0543 0.15783,-0.15023 1.94655,-0.64781 14.25903,-2.69619 22.82314,-3.79699 4.96483,-0.63817 8.90197,-0.99561 8.90197,-0.80818 0,0.36958 -7.92894,1.82108 -16.97819,3.10809 -5.47983,0.77936 -11.56562,1.50526 -13.48422,1.60837 -0.38197,0.0205 -0.82233,0.0478 -0.97859,0.0607 -0.15626,0.0129 -0.35513,0.003 -0.44194,-0.0218 z"
       id="path12721"
       transform="scale(0.01041667)" />
    <path
       style="fill:#ffffff;stroke-width:0.0631345"
       d="m 323.51398,193.86787 c -0.25347,-0.0318 -0.50693,-0.0835 -0.56325,-0.11505 -0.0868,-0.0486 -0.0742,-0.0718 0.082,-0.15202 0.56062,-0.28789 2.39437,-0.36963 3.05288,-0.13609 0.72657,0.25768 0.35761,0.40444 -1.10067,0.4378 -0.55558,0.0127 -1.21753,-0.003 -1.471,-0.0346 z"
       id="path12723"
       transform="scale(0.01041667)" />
    <path
       style="fill:#ffffff;stroke-width:0.0892857"
       d="m 372.97028,101.65417 c -0.84426,-0.22063 1.9871,-0.96596 6.00446,-1.58063 3.08771,-0.472425 4.77827,-0.59981 5.34382,-0.402659 0.3374,0.117619 0.34533,0.167736 0.0677,0.428509 -0.77013,0.7235 -6.51696,1.63777 -10.09459,1.60597 -0.64086,-0.006 -1.2355,-0.0287 -1.32144,-0.0512 z"
       id="path12725"
       transform="scale(0.01041667)" />
    <path
       style="fill:#ffffff;stroke-width:0.0892857"
       d="m 367.32296,102.92773 c -0.0491,-0.0202 -0.23996,-0.0619 -0.42411,-0.0927 -0.18415,-0.0308 -0.33482,-0.0928 -0.33482,-0.13779 0,-0.13937 0.89734,-0.35655 1.47321,-0.35655 0.56533,0 1.47322,0.21634 1.47322,0.35105 0,0.0419 -0.0703,0.10337 -0.15625,0.1365 -0.18122,0.0699 -1.89861,0.15395 -2.03125,0.0995 z"
       id="path12727"
       transform="scale(0.01041667)" />
    <path
       style="fill:#ffffff;stroke-width:0.178571"
       d="m 402.15949,97.598654 c -0.87758,-0.425833 -1.28863,-2.128576 -0.65276,-2.704032 0.4027,-0.364433 1.65409,-0.65306 2.85568,-0.658648 2.88712,-0.01343 14.05163,-2.330024 24.21628,-5.024793 3.8604,-1.023436 5.86015,-1.637337 8.95219,-2.748224 2.38951,-0.858483 3.7242,-1.133462 3.92495,-0.808634 0.18276,0.295707 -0.34001,0.813427 -1.85925,1.841291 -1.89508,1.282142 -4.20666,2.310554 -8.15563,3.628403 -5.07236,1.692749 -10.07277,2.896337 -20.33864,4.895462 -2.55357,0.49727 -5.42956,1.101999 -6.39108,1.343843 -1.93142,0.485791 -2.01894,0.493863 -2.55174,0.235332 z"
       id="path12729"
       transform="scale(0.01041667)" />
    <path
       style="fill:#ffffff;stroke-width:0.0892857"
       d="m 408.97665,72.173277 c -0.40889,-0.217284 -0.67701,-0.624387 -0.81381,-1.235683 -0.15882,-0.7097 -0.005,-1.912944 0.5361,-4.189579 0.69965,-2.94451 0.76597,-3.411203 0.76623,-5.391558 2e-4,-1.605664 -0.0156,-1.780711 -0.20384,-2.250759 -0.37957,-0.948044 -1.11843,-1.266269 -1.5634,-0.673348 -0.49108,0.654358 -1.01384,1.961734 -1.75829,4.397321 -0.68668,2.246581 -1.21375,3.525754 -1.84963,4.488941 -0.38252,0.579411 -0.60841,0.722634 -0.81435,0.516333 -0.11953,-0.11973 -0.14505,-0.342789 -0.14146,-1.236394 0.0149,-3.722956 2.11504,-7.408029 5.44205,-9.54919 2.41649,-1.555173 5.09024,-2.123346 8.10428,-1.722162 1.25586,0.16716 2.15773,0.422409 3.14572,0.890308 0.99442,0.470944 1.79454,1.057366 2.27912,1.670397 2.57423,3.256644 0.76119,7.82664 -4.46662,11.258678 -1.00739,0.661349 -3.64178,1.992364 -4.96243,2.507241 -1.7146,0.66847 -3.06299,0.857791 -3.69967,0.519454 z"
       id="path12731"
       transform="scale(0.01041667)" />
    <path
       style="fill:#ffffff;stroke-width:0.0892857"
       d="m 398.47896,59.380018 c -1.02777,-0.540362 -3.52269,-2.672384 -5.94003,-5.07602 -1.76681,-1.756795 -2.75501,-2.869077 -3.03631,-3.417564 l -0.17237,-0.336095 0.23842,-0.09065 c 1.11305,-0.42318 6.03999,2.942996 7.88575,5.387686 0.8286,1.097471 1.76649,3.473434 1.44865,3.66987 -0.0412,0.02548 -0.23208,-0.03627 -0.42411,-0.137232 z"
       id="path12733"
       transform="scale(0.01041667)" />
    <path
       style="fill:#ffffff;stroke-width:0.0892857"
       d="m 396.98139,63.773633 c -0.97901,-0.514989 -2.37856,-1.684864 -5.48177,-4.582164 -3.67668,-3.432729 -6.33458,-6.462106 -6.38945,-7.282483 -0.013,-0.19429 0.018,-0.234415 0.16251,-0.210568 1.08243,0.17858 5.55247,3.824553 9.42846,7.690278 3.06443,3.056317 3.66565,3.918298 3.11618,4.467761 -0.22922,0.229226 -0.24584,0.22758 -0.83593,-0.08282 z"
       id="path12735"
       transform="scale(0.01041667)" />
    <path
       style="fill:#ffffff;stroke-width:0.0892857"
       d="m 392.81506,70.888767 c -0.50005,-0.336981 -0.94293,-1.01636 -1.5746,-2.415427 -0.97886,-2.168036 -1.89927,-3.447256 -3.837,-5.33279 -1.80331,-1.754736 -3.52068,-3.056633 -6.41649,-4.86419 -3.01445,-1.881609 -3.70187,-3.002666 -2.2469,-3.664279 0.5486,-0.249464 1.84518,-0.437258 2.60041,-0.376636 1.4597,0.117171 4.02739,2.073348 6.82779,5.201711 3.69118,4.123476 6.34281,8.379964 6.37849,10.239012 0.008,0.424927 -0.0263,0.54584 -0.21253,0.745335 -0.58503,0.626778 -1.0639,0.77407 -1.51917,0.467264 z"
       id="path12737"
       transform="scale(0.01041667)" />
    <path
       style="fill:#ffffff;stroke-width:0.0892857"
       d="m 387.95071,73.464548 c -1.23015,-0.385553 -2.92795,-1.581803 -4.21196,-2.967701 -0.72078,-0.777976 -1.03564,-1.04107 -1.76964,-1.478712 -3.14221,-1.873521 -11.04491,-5.336793 -14.71912,-6.450498 -1.14774,-0.347895 -2.02195,-0.493278 -2.02195,-0.336254 0,0.226417 2.12236,1.477533 6.16071,3.631698 3.90688,2.084029 5.61041,3.122993 6.12675,3.736634 l 0.2326,0.27643 -0.19121,0.08532 c -0.44954,0.200588 -3.37494,-0.748806 -6.60793,-2.144505 -2.00221,-0.864367 -5.8237,-2.696794 -7.4353,-3.56527 -3.09894,-1.669997 -4.05505,-2.49508 -3.48651,-3.008723 0.27677,-0.250053 1.29033,-0.681676 1.98274,-0.844351 1.04175,-0.244748 3.79684,-0.217869 5.22708,0.051 6.56119,1.233416 13.58283,4.837548 19.04656,9.776411 1.49236,1.348993 2.69451,2.731409 2.69451,3.09856 0,0.278989 -0.40688,0.334422 -1.02733,0.139961 z"
       id="path12739"
       transform="scale(0.01041667)" />
    <path
       style="fill:#ffffff;stroke-width:0.0892857"
       d="m 376.6032,51.900645 c -0.38357,-0.174196 -0.4823,-0.31765 -0.4823,-0.700724 0,-0.508365 1.26487,-1.38728 2.42373,-1.684167 1.20892,-0.30971 1.62467,0.169261 1.10875,1.277346 -0.47489,1.019978 -2.01312,1.578521 -3.05018,1.107545 z"
       id="path12741"
       transform="scale(0.01041667)" />
    <path
       style="fill:#ffffff;stroke-width:0.0892857"
       d="m 370.36411,55.161363 c -0.31353,-0.313535 -0.44173,-0.882306 -0.32729,-1.452124 0.15985,-0.795937 0.59635,-1.522553 1.43862,-2.394769 0.4282,-0.443425 0.84503,-0.934816 0.92629,-1.091979 0.4479,-0.866281 0.5165,-2.230213 0.23245,-4.621435 -0.10073,-0.847965 -0.17105,-1.798333 -0.15625,-2.111927 l 0.0269,-0.570172 0.2026,0.325795 c 0.68211,1.096896 1.18184,4.037913 1.18066,6.948325 -10e-4,2.47135 -0.20223,3.363182 -0.94527,4.189629 -0.79104,0.879824 -2.08639,1.270965 -2.5787,0.778657 z"
       id="path12743"
       transform="scale(0.01041667)" />
    <path
       style="fill:#ffffff;stroke-width:0.0892857"
       d="m 363.12982,57.651861 c -0.0491,-0.01638 -0.2032,-0.05501 -0.34243,-0.08585 -0.13923,-0.03083 -0.35016,-0.160752 -0.46875,-0.288705 -0.40628,-0.438383 -0.21612,-1.115366 0.48765,-1.73607 0.74052,-0.653117 1.66748,-1.002897 3.28431,-1.23931 0.84463,-0.1235 1.26934,-0.04126 1.45011,0.280804 0.11355,0.20231 0.10302,0.273595 -0.1088,0.736269 -0.31347,0.684701 -1.04596,1.387626 -1.86702,1.791661 -0.81794,0.402499 -2.03799,0.673657 -2.43507,0.541199 z"
       id="path12745"
       transform="scale(0.01041667)" />
    <path
       style="fill:#ffffff;stroke-width:0.0892857"
       d="m 363.01771,68.901962 c -0.97884,-0.252964 -2.58806,-0.882657 -3.77855,-1.478551 -2.75872,-1.380863 -5.20927,-2.152844 -7.35344,-2.316504 -1.65317,-0.126184 -2.61186,-0.415324 -3.19786,-0.964478 -0.33793,-0.316677 -0.32156,-0.589372 0.0446,-0.74389 0.42446,-0.179099 2.11862,-0.134167 3.49321,0.09265 3.14171,0.518396 6.42196,1.537492 8.82799,2.742652 1.91881,0.96111 3.76299,2.109604 3.88091,2.416898 0.0873,0.227453 -0.29198,0.474282 -0.72093,0.469187 -0.20326,-0.0024 -0.74145,-0.100497 -1.19597,-0.217962 z"
       id="path12747"
       transform="scale(0.01041667)" />
    <path
       style="fill:#ffffff;stroke-width:0.0892857"
       d="m 357.05235,60.377552 c -0.30113,-0.12189 -0.9688,-0.928297 -1.30957,-1.581695 -0.66684,-1.278603 -0.94925,-2.531929 -1.37451,-6.100114 -0.19509,-1.63697 -0.22059,-4.381959 -0.0446,-4.799108 0.0952,-0.225664 0.17612,-0.290178 0.3639,-0.290178 0.35161,0 0.61286,0.33357 0.85266,1.088708 0.27447,0.864308 0.38194,1.702413 0.49011,3.822006 0.13192,2.585012 0.36524,3.501511 1.0797,4.241072 0.2372,0.245535 0.51777,0.642764 0.62348,0.882731 0.38717,0.878837 0.30372,2.279522 -0.15743,2.642261 -0.2535,0.199401 -0.26087,0.200729 -0.52376,0.09432 z"
       id="path12749"
       transform="scale(0.01041667)" />
    <path
       style="fill:#ffffff;stroke-width:0.0892857"
       d="m 348.53161,59.907926 c -0.50453,-0.266887 -0.22986,-1.250754 0.51221,-1.834721 0.6785,-0.533936 1.73883,-0.890222 2.26603,-0.761419 1.05428,0.257576 0.39584,1.762926 -1.05097,2.402775 -0.60573,0.267882 -1.41511,0.358491 -1.72727,0.193365 z"
       id="path12751"
       transform="scale(0.01041667)" />
    <path
       style="fill:#ffffff;stroke-width:0.0892857"
       d="m 339.82625,65.835638 c -3.33674,-1.005678 -6.76855,-5.784039 -9.02024,-12.559538 -0.86666,-2.607843 -1.33782,-4.752977 -1.56865,-7.141886 -0.15157,-1.568642 -0.0592,-4.554349 0.18042,-5.832201 0.81872,-4.365985 2.96774,-6.896719 5.85134,-6.890665 1.37325,0.0029 2.36466,0.414635 3.31321,1.376035 2.08886,2.117161 4.22105,6.932074 5.69645,12.863717 1.02048,4.102699 1.46008,7.58201 1.36887,10.834053 -0.0887,3.162465 -0.57163,4.645637 -2.01608,6.191824 -1.07563,1.151396 -2.4455,1.568503 -3.80532,1.158661 z m 1.68588,-5.138569 c 0.26933,-1.073109 0.41219,-5.742585 0.23153,-7.567759 -0.61137,-6.17637 -3.24339,-12.684814 -6.02478,-14.89804 -0.68617,-0.545995 -1.40547,-0.890641 -1.86127,-0.891798 -0.95431,-0.0024 -1.37912,1.629755 -1.2779,4.909842 0.18538,6.007395 1.91892,12.915566 3.6871,14.693167 0.55226,0.555195 0.87285,0.667202 1.14091,0.398605 0.18127,-0.181638 0.18639,-0.265723 0.18642,-3.063376 4e-5,-2.932413 0.0418,-3.374356 0.36644,-3.881075 0.0708,-0.110491 0.18498,-0.200892 0.25374,-0.200892 0.43972,0 1.1819,1.220386 1.69434,2.78603 0.55717,1.702345 0.92557,3.622935 1.16966,6.097898 0.15144,1.535537 0.20144,1.830357 0.31043,1.830357 0.0385,0 0.094,-0.09583 0.12338,-0.212959 z"
       id="path12753"
       transform="scale(0.01041667)" />
    <path
       style="fill:#ffffff;stroke-width:0.0892857"
       d="m 347.93259,67.835262 c -1.00075,-0.26313 -1.81668,-0.642434 -2.33194,-1.084055 -0.28792,-0.246774 -0.35614,-0.35023 -0.26785,-0.406202 0.0651,-0.0413 0.54522,-0.07572 1.06683,-0.07647 1.1592,-0.0017 2.3713,0.278077 3.26936,0.754561 0.71403,0.378841 1.25716,0.807765 1.15396,0.91131 -0.0405,0.04061 -0.52236,0.08356 -1.07086,0.09544 -0.81737,0.01771 -1.14559,-0.01739 -1.8195,-0.194587 z"
       id="path12755"
       transform="scale(0.01041667)" />
    <path
       style="fill:#ffffff;stroke-width:0.0892857"
       d="m 360.48363,71.799615 c -1.13667,-0.324453 -2.69956,-1.008696 -2.92533,-1.280729 -0.0967,-0.116546 -0.0776,-0.146306 0.1266,-0.197571 0.56148,-0.140922 2.00211,0.17332 2.90551,0.633775 0.50332,0.256537 1.15549,0.764531 1.15549,0.900043 0,0.177045 -0.52904,0.153777 -1.26227,-0.05552 z"
       id="path12757"
       transform="scale(0.01041667)" />
    <path
       style="fill:#ffffff;stroke-width:0.0892857"
       d="m 345.29694,40.884439 c -1.43569,-0.501674 -2.18513,-1.353136 -2.87025,-3.260982 -0.58451,-1.627695 -0.13533,-2.380125 1.42208,-2.382141 0.64298,-8.32e-4 0.78268,0.03141 1.32198,0.305151 1.21961,0.619039 2.43852,1.882871 3.06076,3.173542 0.48992,1.01622 0.35835,1.655817 -0.43201,2.100021 -0.57216,0.321573 -1.68466,0.350205 -2.50256,0.06441 z"
       id="path12759"
       transform="scale(0.01041667)" />
    <path
       style="fill:#ffffff;stroke-width:0.0892857"
       d="m 354.58902,44.223904 c -0.74673,-0.473567 -1.54446,-1.68916 -2.92748,-4.460967 -1.04127,-2.08687 -1.50633,-3.161067 -1.97303,-4.557254 -0.60194,-1.80078 -0.75689,-2.905169 -0.49541,-3.53099 0.22863,-0.547194 0.76832,-0.530373 1.66942,0.05203 1.94673,1.258233 3.86048,4.08105 4.23978,6.253769 0.14796,0.84751 0.0693,1.359936 -0.28697,1.870621 -0.51518,0.738357 -0.5685,0.840109 -0.56896,1.085668 -9.4e-4,0.497542 0.43694,1.019008 1.57833,1.879624 0.65229,0.49183 0.93128,0.820605 0.85812,1.011256 -0.0725,0.188819 -1.07855,0.653636 -1.41498,0.653722 -0.14998,3.9e-5 -0.45545,-0.115828 -0.67882,-0.257482 z"
       id="path12761"
       transform="scale(0.01041667)" />
    <path
       style="fill:#ffffff;stroke-width:0.0892857"
       d="m 361.87982,42.010074 c -1.05548,-0.545974 -2.3316,-2.201699 -3.48541,-4.52223 -1.44985,-2.915899 -1.97835,-4.859968 -1.64625,-6.055632 0.12998,-0.467942 0.6729,-0.926276 1.24173,-1.048269 0.59755,-0.128151 0.7221,-0.125337 1.66842,0.03769 1.63795,0.28218 2.76742,1.086823 3.40766,2.42765 0.32136,0.672996 0.33163,0.72532 0.32917,1.676816 -0.003,1.246988 -0.17357,1.707742 -0.99307,2.686001 -1.25153,1.493991 -1.54409,2.196027 -1.09105,2.6181 0.23228,0.216398 0.88717,0.365542 1.60509,0.365542 0.71735,0 1.27163,0.1498 1.51575,0.409653 0.24126,0.256809 0.17836,0.455658 -0.31789,1.004947 -0.61833,0.684418 -1.40997,0.826057 -2.23415,0.399731 z"
       id="path12763"
       transform="scale(0.01041667)" />
    <path
       style="fill:#ffffff;stroke-width:0.0892857"
       d="m 366.92447,36.8667 c -0.50578,-0.254061 -1.00324,-1.324328 -1.66891,-3.5906 -0.4,-1.361792 -0.50719,-2.933258 -0.2524,-3.700344 0.77312,-2.32766 3.2203,-1.224982 4.83195,2.177235 0.74042,1.56304 0.91895,2.416142 0.6233,2.978435 -0.27459,0.522261 -1.62029,1.586079 -2.55922,2.023148 -0.54977,0.255915 -0.66263,0.268898 -0.97472,0.112126 z"
       id="path12765"
       transform="scale(0.01041667)" />
    <path
       style="fill:#ffffff;stroke-width:0.0892857"
       d="m 373.78194,34.656408 c -0.51359,-0.271245 -0.76137,-0.685028 -1.18169,-1.973391 -0.21399,-0.655947 -0.57413,-1.68671 -0.80029,-2.290584 -0.23517,-0.627932 -0.41121,-1.249604 -0.41121,-1.452205 0,-0.303854 0.0413,-0.379424 0.29018,-0.531178 0.39985,-0.243794 1.52842,-0.244358 2.31581,-0.0012 2.20943,0.682422 3.48937,3.242235 2.57038,5.140609 -0.21503,0.444212 -0.77466,0.982891 -1.21015,1.164847 -0.42888,0.179198 -1.17721,0.152111 -1.57303,-0.05694 z"
       id="path12767"
       transform="scale(0.01041667)" />
    <path
       style="fill:#ffffff;stroke-width:0.0892857"
       d="m 375.41193,38.038251 c -0.5636,-0.09059 -0.94004,-0.288676 -1.19264,-0.627576 -0.17185,-0.230563 -0.17284,-0.250134 -0.0241,-0.477102 0.515,-0.785993 3.38956,-1.011148 4.18019,-0.32742 0.77443,0.66972 -1.34234,1.692661 -2.96343,1.432098 z"
       id="path12769"
       transform="scale(0.01041667)" />
    <path
       style="fill:#ffffff;stroke-width:0.0892857"
       d="m 371.73435,40.958006 c -0.0255,-0.02546 -0.50538,-0.147041 -1.06648,-0.270173 -1.94922,-0.427747 -2.27241,-0.514483 -2.67197,-0.717101 -0.85564,-0.433885 -1.03792,-0.965776 -0.46325,-1.35174 0.42983,-0.288684 1.16631,-0.410973 2.24131,-0.372159 0.84551,0.03053 0.99607,0.06211 1.42814,0.299553 0.67874,0.373003 0.84005,0.694854 0.77418,1.544691 -0.0486,0.626699 -0.14317,0.965686 -0.24193,0.866929 z"
       id="path12771"
       transform="scale(0.01041667)" />
    <path
       style="fill:#ffffff;stroke-width:0.0892857"
       d="m 347.19232,45.007606 c -0.34322,-0.103541 -0.71428,-0.40459 -0.71428,-0.579505 0,-0.232203 0.50353,-0.695523 1.02294,-0.941248 0.67175,-0.317793 1.39478,-0.346552 1.92406,-0.07653 0.80623,0.411309 0.70348,1.091238 -0.22343,1.478526 -0.43081,0.180003 -1.58094,0.247982 -2.00929,0.11876 z"
       id="path12773"
       transform="scale(0.01041667)" />
    <path
       style="fill:#ffffff;stroke-width:0.0446429"
       d="m 329.64425,23.850164 c -1.4525,-0.1241 -3.43899,-0.420056 -6.13129,-0.913472 -1.52948,-0.280307 -1.94907,-0.370473 -1.94907,-0.418837 0,-0.111135 3.17695,-0.128543 4.42811,-0.02426 0.98881,0.08241 2.46122,0.291305 3.16118,0.448476 0.92939,0.20869 2.12575,0.653303 2.17593,0.808657 0.0444,0.137633 -0.71393,0.182392 -1.68486,0.09944 z"
       id="path12775"
       transform="scale(0.01041667)" />
    <path
       style="fill:#ffffff;stroke-width:0.252538"
       d="m 251.7232,85.198914 c -1.13449,-2.222012 -1.52012,-8.138645 -1.34558,-20.644993 0.22302,-15.980282 1.34669,-27.32206 3.59426,-36.278745 4.6686,-18.6046409 11.13295,-27.96847074 17.84963,-25.8558144 1.19006,0.374319 4.92062,2.8174198 4.67587,3.0621707 -0.0488,0.048816 -0.82155,-0.1381861 -1.71719,-0.4155611 C 268.07262,2.98868 263.3853,6.7519196 260.16724,16.79804 c -0.43233,1.349651 -1.35909,5.260113 -2.05946,8.689917 -0.70037,3.429803 -1.77524,8.699516 -2.3886,11.710473 -0.61335,3.010956 -1.28822,7.122111 -1.4997,9.135898 -0.45827,4.363879 -0.88259,15.297076 -0.89333,23.017818 -0.008,5.779426 -0.38784,15.273211 -0.6432,16.077792 -0.20844,0.656726 -0.54825,0.574929 -0.95975,-0.231024 z"
       id="path12777"
       transform="scale(0.01041667)" />
    <path
       style="fill:#ffffff;stroke-width:0.0631345"
       d="m 207.80039,32.63644 v -3.166647 l 0.83653,-6.8e-5 c 0.46009,-3.7e-5 4.18898,-0.04681 8.28641,-0.103949 9.39891,-0.131058 25.49104,-0.15215 27.62136,-0.0362 4.22984,0.230219 5.76808,0.581397 6.19273,1.413795 0.12658,0.248109 0.13491,0.333899 0.10306,1.060762 -0.0749,1.708111 -0.38687,2.260639 -1.51421,2.68131 -1.96277,0.732417 -5.83492,0.91489 -22.17515,1.044992 -7.85112,0.06251 -14.30663,0.146917 -17.69345,0.231343 l -1.65728,0.04131 z"
       id="path12779"
       transform="scale(0.01041667)" />
    <path
       style="fill:#ffffff;stroke-width:0.0892857"
       d="m 350.42995,81.755521 c -0.54018,-0.142191 -1.42411,-0.426343 -1.96428,-0.63145 -2.09528,-0.795579 -5.81522,-1.890365 -14.0625,-4.138618 -2.97099,-0.809905 -5.90402,-1.635077 -6.51786,-1.833715 -1.84644,-0.597506 -1.81637,-0.704102 0.15694,-0.556198 1.89273,0.141864 4.07681,0.465622 6.7627,1.002471 6.4913,1.297463 14.13134,3.55378 16.37361,4.835577 0.53274,0.304541 1.21288,0.885855 1.36161,1.163757 0.26249,0.49047 -0.60175,0.555251 -2.11022,0.158176 z"
       id="path12781"
       transform="scale(0.01041667)" />
  </g>
  <g
     inkscape:label="Layer 1"
     inkscape:groupmode="layer"
     id="layer1"
     transform="translate(-0.13491015,-0.05088879)">
    <path
       style="fill:#000000;stroke-width:0.0104167"
       d="M 2.3645494,2.1397869 C 2.1543095,2.1327458 1.8530604,2.1136423 1.7135077,2.0985016 1.5041818,2.0757909 1.1851764,2.0334594 1.0915158,2.0159643 1.0388488,2.0061265 0.98254078,2.0031695 0.92798578,2.0073765 0.82204588,2.015546 0.76414228,1.9998504 0.70359098,1.946551 0.67819988,1.9242008 0.63155638,1.8970141 0.59993878,1.886136 0.37054728,1.8072138 0.21565388,1.6657883 0.24320768,1.5604226 c 0.00386,-0.01474 -0.00102,-0.030635 -0.013538,-0.044147 -0.063358,-0.068386 -0.084895,-0.1531111 -0.058061,-0.2284092 0.013618,-0.038214 0.012972,-0.042847 -0.010874,-0.077939 -0.041806,-0.061522 -0.030994,-0.1972647 0.019014,-0.23873619 0.014319,-0.011874 0.014527,-0.017038 0.00168,-0.041667 -0.03677,-0.070481 -0.00597,-0.2064318 0.056908,-0.2512065 0.022445,-0.015983 0.032495,-0.031738 0.032566,-0.051053 6.256e-4,-0.1717686 0.2814044,-0.33868483 0.6679244,-0.39706519 0.036492,-0.005512 0.12963012,-0.0196408 0.20697382,-0.0313978 0.4010039,-0.0609567 0.8828646,-0.0939842 1.3944347,-0.0955769 0.3046624,-9.4854e-4 0.3060406,-0.001053 0.3425995,-0.025862 0.054637,-0.0370775 0.129518,-0.0349602 0.1692643,0.004786 0.028867,0.0288673 0.033711,0.0299042 0.173594,0.0371595 0.3252674,0.0168708 0.8594101,0.10752756 0.9643048,0.16366555 0.013162,0.007044 0.051104,0.00644 0.1170748,-0.001864 0.56145,-0.0706701 0.9402462,0.33840234 0.7369889,0.79589463 -0.024314,0.054726 -0.02537,0.061982 -0.010247,0.070445 0.033657,0.018835 0.082546,0.1219202 0.088391,0.1863766 0.023325,0.2572274 -0.2349153,0.4690634 -0.7492489,0.6146145 -0.07845,0.022201 -0.1580844,0.048353 -0.1769651,0.058117 -0.023189,0.011992 -0.063475,0.01845 -0.1241516,0.019902 -0.049403,0.00118 -0.093987,0.00472 -0.099077,0.00786 -0.012781,0.00789 -0.2028457,0.035259 -0.4207118,0.060576 -0.1206466,0.01402 -0.3020592,0.02423 -0.5364583,0.030192 -0.1947917,0.00495 -0.398698,0.011034 -0.453125,0.013509 -0.054427,0.00248 -0.1434896,0.00301 -0.1979174,0.00119 z m 1.1694691,-0.073333 c -0.00705,-0.00285 -0.021115,-0.00303 -0.03125,-3.864e-4 -0.010135,0.00264 -0.00436,0.00498 0.012823,0.00519 0.017187,2.125e-4 0.02548,-0.00195 0.018427,-0.0048 z m 0.2198036,-0.025328 c 0.1482213,-0.021897 0.2112305,-0.038815 0.095102,-0.025535 -0.1130077,0.012923 -0.3027066,0.045135 -0.2721856,0.046218 0.016444,5.834e-4 0.096131,-0.00872 0.1770836,-0.020683 z M 2.7760077,2.0316159 C 3.3476664,1.9996399 4.0052336,1.909399 4.1937738,1.8370493 c 0.018778,-0.00721 0.038333,-0.071314 0.029879,-0.097952 -0.00853,-0.026864 0.018734,-0.030369 -0.3903533,0.050182 C 3.2171502,1.9106006 2.9666612,1.930264 2.2916327,1.9103004 1.6810462,1.8922425 1.2959906,1.8540509 0.93412368,1.7756561 c -0.1914431,-0.041474 -0.2008619,-0.042201 -0.2077077,-0.016022 -0.00779,0.02977 0.0038,0.040839 0.065799,0.062839 0.061199,0.021718 0.059655,0.02667 -0.00373,0.011957 -0.050879,-0.01181 -0.047702,0.00964 0.00394,0.026636 0.061098,0.020108 0.43503322,0.086026 0.58253622,0.1026904 0.077344,0.00874 0.1570313,0.018151 0.1770834,0.020916 0.1126662,0.01554 0.5006987,0.039647 0.7447916,0.046272 0.1546876,0.0042 0.2859376,0.0083 0.2916667,0.0091 0.00573,8.094e-4 0.090104,-0.00299 0.1875,-0.00843 z m 1.2293186,-0.031491 c 0.00434,-0.00703 -0.00876,-0.00831 -0.038448,-0.00376 -0.059524,0.00912 -0.063538,0.014421 -0.01093,0.014421 0.023533,0 0.045753,-0.0048 0.049378,-0.010661 z M 4.2047895,1.9784873 C 4.3704273,1.8761177 4.3809152,1.1371603 4.2200488,0.90334901 4.1442727,0.79321211 4.0084002,0.77315151 3.9267655,0.86004771 c -0.022126,0.023552 -0.016961,0.037813 0.00601,0.016603 0.057812,-0.053374 0.1803788,-0.041908 0.241374,0.022579 0.097526,0.10311049 0.1567497,0.56564099 0.1016468,0.79384839 -0.0083,0.034375 -0.015164,0.079182 -0.015254,0.099572 -9.38e-5,0.020389 -0.00704,0.046171 -0.015456,0.057292 -0.00841,0.011121 -0.015611,0.027251 -0.016,0.035845 -0.00161,0.035534 -0.047833,0.074359 -0.094718,0.079549 -0.072942,0.00807 -0.094035,0.014093 -0.087341,0.024923 0.012092,0.019566 0.1200937,0.011507 0.1577596,-0.011772 z m -3.33943492,-0.0062 C 0.56077538,1.9002452 0.41451248,1.130903 0.64882048,0.83332121 c 0.045454,-0.0577293 0.1793235,-0.1035602 0.2420369,-0.0828629 0.056616,0.0186848 0.080472,0.00832 0.036192,-0.0157245 -0.1052018,-0.0571246 -0.3024176,0.0185332 -0.3640234,0.1396503 -0.1989606,0.39115669 0.00804,1.11852029 0.3171484,1.11442139 0.052083,-6.907e-4 0.052083,-6.907e-4 -0.01482,-0.016516 z M 4.5630744,1.8546627 c 0.071949,-0.027136 0.1482885,-0.057628 0.1696432,-0.067762 0.07251,-0.034408 0.032224,-0.025613 -0.077037,0.016818 -0.059862,0.023247 -0.1650892,0.058347 -0.2338392,0.077999 -0.1563641,0.044698 -0.1535656,0.043641 -0.1463925,0.055248 0.00785,0.012696 0.1234425,-0.020382 0.2876255,-0.082303 z M 3.1197577,1.8039189 C 3.3788375,1.7842455 3.7045962,1.7208006 4.0302774,1.6265856 4.2382841,1.5664122 4.2310984,1.5708879 4.2371658,1.4977235 4.2440111,1.4151774 4.2292037,1.4073103 4.1329616,1.4423596 3.9343861,1.5146766 3.4589481,1.6171853 3.1614244,1.6518315 2.9787151,1.6731079 2.3598913,1.6830529 2.124966,1.6684884 1.5694617,1.6340491 0.98145468,1.5640113 0.80725768,1.5115357 c -0.0881918,-0.026567 -0.1731666,-0.036341 -0.1828521,-0.021032 -0.02977,0.047055 -1.712e-4,0.082572 0.086897,0.1042749 0.027433,0.00684 0.047702,0.014608 0.045043,0.017268 -0.00266,0.00266 -0.031468,-0.00291 -0.064019,-0.01237 -0.059489,-0.017294 -0.07522,-0.016282 -0.062666,0.00403 0.01289,0.020856 0.2182839,0.065889 0.59426292,0.1302937 0.1495063,0.02561 0.5915669,0.068667 0.8489584,0.082689 0.1289038,0.00702 0.9120269,-0.00253 1.0468758,-0.01277 z M 4.4563326,1.7756206 C 4.8550753,1.6511443 5.083579,1.4919859 5.0286126,1.3770133 4.9913857,1.2991459 4.896835,1.3109346 4.8394802,1.4005945 4.7807636,1.4923833 4.6295798,1.5842812 4.4443397,1.640783 4.3444957,1.671237 4.3412387,1.67469 4.3277944,1.764343 c -0.0087,0.058034 -0.018488,0.057175 0.1285382,0.011278 z M 4.7117685,1.6459627 c 0.1016996,-0.059352 0.1912887,-0.1308488 0.221876,-0.1770693 0.031015,-0.046868 0.055905,-0.060688 0.055905,-0.031043 0,0.040083 -0.1579721,0.1699498 -0.2680005,0.2203205 -0.090138,0.041265 -0.093728,0.036784 -0.00978,-0.012208 z M 0.59158118,1.790841 c -0.00213,-0.00639 -0.024785,-0.019651 -0.050347,-0.029476 -0.084592,-0.032513 -0.160569,-0.072254 -0.197518,-0.1033145 -0.056462,-0.047463 -0.029297,-0.05014 0.033057,-0.00326 0.056613,0.042566 0.1740598,0.1002658 0.1839526,0.090373 0.01595,-0.01595 -0.030601,-0.076853 -0.067915,-0.088857 -0.021846,-0.00703 -0.07567,-0.032085 -0.1196082,-0.055685 -0.090669,-0.048698 -0.1001843,-0.046742 -0.079199,0.016282 0.013097,0.039333 0.024395,0.050489 0.090809,0.08967 0.1120849,0.066124 0.2146548,0.1079246 0.206768,0.084264 z M 3.7708682,1.770763 C 3.7908822,1.764793 3.8776999,1.741853 3.9637957,1.719787 4.123375,1.678889 4.2056988,1.650547 4.1952539,1.640102 4.1920439,1.636892 4.1292199,1.652709 4.0556337,1.675239 3.9820477,1.69777 3.8737942,1.729383 3.8150703,1.74549 3.7563463,1.761597 3.7082994,1.776316 3.7082994,1.778198 c 0,0.00651 0.026322,0.00338 0.062569,-0.00744 z M 2.9919067,1.5888294 C 3.3544782,1.5642834 3.7812161,1.4937734 3.7812161,1.458412 3.7812161,1.438068 3.5683956,1.435831 3.3011242,1.453362 3.0037532,1.472871 2.4223171,1.470914 2.1614244,1.449532 1.5352345,1.3981973 1.0222382,1.3289851 0.74645578,1.2586254 c -0.1310668,-0.033439 -0.1340104,-0.033716 -0.1484375,-0.013986 -0.034018,0.046522 -0.02063,0.065455 0.06601,0.093347 0.044401,0.014294 0.073271,0.02621 0.064156,0.026478 -0.00911,2.687e-4 -0.039584,-0.00649 -0.067708,-0.015024 -0.064319,-0.019512 -0.077176,-0.019571 -0.077176,-3.528e-4 0,0.036402 0.1299842,0.072775 0.44503852,0.1245331 0.084656,0.013907 0.2105762,0.034989 0.2798229,0.046848 0.4030246,0.069021 1.1975176,0.1012772 1.683746,0.068361 z M 0.49996598,1.554537 c 0,-0.01429 -0.024195,-0.033333 -0.04235,-0.033333 -0.054718,0 -0.2284829,-0.1151571 -0.2284829,-0.1514198 0,-0.011884 0.016852,-0.002 0.054687,0.032087 0.030078,0.027095 0.075781,0.058288 0.1015625,0.069318 0.025781,0.011029 0.060149,0.026627 0.076373,0.034661 0.029498,0.014608 0.029498,0.014608 0.022236,-0.02929 -0.00971,-0.058697 -0.00541,-0.054369 -0.1020011,-0.1025962 -0.046832,-0.023383 -0.1000715,-0.053725 -0.118309,-0.067428 -0.041809,-0.031414 -0.051531,-0.03126 -0.059614,9.437e-4 -0.012235,0.048747 0.00457,0.1102017 0.033095,0.121048 0.014267,0.00542 0.040555,0.020293 0.058417,0.033041 0.081342,0.058052 0.2043857,0.1140214 0.2043865,0.092968 z M 4.5170701,1.4225826 C 4.7314111,1.3080455 4.7618046,1.2885466 4.8407202,1.2149451 4.9408977,1.1215135 4.9765851,1.0680952 5.0115091,0.95930171 c 0.026619,-0.082924 0.02873,-0.086234 0.030265,-0.047473 0.00165,0.041667 0.00165,0.041667 0.011732,0.010417 0.068474,-0.2122338 -0.1132104,-0.4917505 -0.3764566,-0.57916765 -0.1427236,-0.0473947 -0.5214958,-0.0434342 -0.5708994,0.005969 -0.013082,0.0130816 0.022101,0.11003308 0.038167,0.10517578 0.1649779,-0.049879 0.3675617,-0.044523 0.4910655,0.012983 0.068096,0.031707 0.1666667,0.1257145 0.1666667,0.1589514 0,0.019672 -0.00594,0.01623 -0.041274,-0.023911 -0.080023,-0.0909106 -0.2280337,-0.1308957 -0.4170592,-0.1126684 -0.1536053,0.014812 -0.1979167,0.026425 -0.1979167,0.051871 0,0.01859 0.00263,0.018737 0.059896,0.00336 0.037929,-0.010184 0.1095611,-0.016507 0.1953125,-0.01724 0.57451,-0.00491 0.596721,0.48550216 0.035531,0.78451666 -0.08714,0.04643 -0.1000942,0.074394 -0.076029,0.1641249 0.0073,0.027219 0.00162,0.029164 0.1565602,-0.053628 z m 0.087063,-0.1017597 c 0,-0.0022 0.030051,-0.023894 0.066781,-0.048218 0.1330214,-0.088091 0.287314,-0.2702417 0.3033942,-0.35817199 0.00947,-0.051786 0.025658,-0.049932 0.025658,0.00294 0,0.10627769 -0.142674,0.26500889 -0.3359375,0.37374509 -0.032943,0.018535 -0.059896,0.031902 -0.059896,0.029706 z m -1.2708334,0.055091 c 0.531245,-0.026175 0.9119612,-0.077948 0.9045488,-0.1230091 -0.00164,-0.00999 4.448e-4,-0.023626 0.00464,-0.030306 0.00419,-0.00668 0.00307,-0.024128 -0.0025,-0.038772 -0.017713,-0.046588 -0.00692,-0.046677 -0.4972217,0.0041 -0.9574335,0.099152 -2.3495834,0.012619 -3.02553202,-0.18805977 -0.080583,-0.023924 -0.099454,-0.019682 -0.1114507,0.025052 -0.012693,0.047328 -0.00598,0.056357 0.056545,0.076067 0.067356,0.021232 0.066599,0.032869 -9.091e-4,0.013968 -0.02611,-0.00731 -0.050575,-0.010189 -0.054366,-0.0064 -0.065741,0.065741 0.82028752,0.2102185 1.60124122,0.2611019 0.1403646,0.00915 0.2809896,0.018313 0.3125,0.020372 0.093132,0.00609 0.5709541,-0.00222 0.8125,-0.014116 z m 1.4218013,-4.24e-4 c 0.00365,-0.0059 -5.323e-4,-0.00765 -0.0098,-0.00409 -0.018046,0.00692 -0.021348,0.014391 -0.00636,0.014391 0.00539,0 0.012666,-0.00463 0.016166,-0.010297 z M 0.45829928,1.2983764 c 0,-0.00797 -0.0194,-0.022256 -0.043112,-0.031744 -0.081712,-0.032695 -0.2173047,-0.1385483 -0.2173047,-0.1696442 0,-0.00756 0.024825,0.010974 0.055168,0.041176 0.1020529,0.1015834 0.215781,0.1375989 0.2155532,0.068262 -1.051e-4,-0.031983 -0.00523,-0.03686 -0.079753,-0.075848 -0.043802,-0.022917 -0.1026459,-0.062293 -0.1307631,-0.087503 -0.060147,-0.053927 -0.080741,-0.046597 -0.083788,0.029823 -0.00231,0.05796 0.088889,0.1492444 0.2044254,0.2046138 0.085499,0.040974 0.079574,0.039421 0.079574,0.020863 z m 3.98731542,-0.06875 c 0.1762327,-0.068309 0.1786995,-0.1065234 0.00659,-0.1020213 -0.1136927,0.00297 -0.1136927,0.00297 -0.1120753,0.037578 0.0023,0.049144 0.00273,0.049195 0.1079261,0.012774 0.052351,-0.018125 0.1006825,-0.030888 0.1074034,-0.028363 0.018836,0.00708 -0.074405,0.046785 -0.1414261,0.060225 -0.04728,0.00948 -0.059896,0.016115 -0.059896,0.03149 0,0.024685 -0.0035,0.025131 0.091482,-0.011683 z m 0.4620893,-0.00269 c 0.016844,-0.02402 0.018398,-0.029564 0.00535,-0.019086 -0.018564,0.014907 -0.042957,0.05294 -0.033954,0.05294 0.00268,0 0.015548,-0.015234 0.028605,-0.033854 z M 3.3801744,1.1270473 c 0.045833,-0.00593 0.1442709,-0.015996 0.21875,-0.022365 0.2879475,-0.024626 0.5616694,-0.062856 0.5797915,-0.080978 0.015723,-0.015723 -0.00884,-0.092798 -0.035533,-0.11149379 -0.025896,-0.018139 -0.086884,-0.020345 -0.1484251,-0.00537 -0.5785407,0.14077309 -2.383313,0.08314 -3.02083352,-0.096467 -0.1342686,-0.037827 -0.2194989,-0.03046 -0.239119,0.020669 -0.00844,0.021998 -3.719e-4,0.027995 0.067244,0.049976 0.03151,0.010244 0.051358,0.02061 0.044106,0.023037 -0.00725,0.00243 -0.035,-0.00302 -0.061662,-0.012105 -0.026662,-0.00908 -0.050918,-0.014076 -0.053903,-0.011092 -0.060885,0.060885 0.86678402,0.21620419 1.52200332,0.25482919 0.1949543,0.011493 1.020916,0.00516 1.1275808,-0.00864 z m 0.6015625,-0.00858 c -0.00716,-0.00289 -0.01888,-0.00289 -0.026042,0 -0.00716,0.00289 -0.0013,0.00525 0.013021,0.00525 0.014323,0 0.020182,-0.00236 0.013021,-0.00525 z m 0.1579773,-0.024516 c 0.00699,-0.00699 -0.00665,-0.00814 -0.041211,-0.00346 -0.086131,0.011663 -0.1116558,0.025081 -0.036493,0.019184 0.036989,-0.0029 0.071956,-0.00998 0.077704,-0.015728 z M 0.47882288,1.0550579 c -1.922e-4,-0.011306 -0.02477,-0.032076 -0.064714,-0.054687 -0.098264,-0.055626 -0.2158896,-0.18089249 -0.1921503,-0.20463179 0.00784,-0.00784 0.048841,0.020535 0.048841,0.033796 0,0.022786 0.087327,0.1103728 0.1499428,0.1503894 0.063599,0.040645 0.063599,0.040645 0.07615,0.012316 0.01899,-0.042862 0.016766,-0.049434 -0.026403,-0.078002 -0.086733,-0.057397 -0.1670124,-0.1327988 -0.1851436,-0.1738941 -0.021681,-0.049141 -0.027023,-0.050759 -0.054068,-0.016377 -0.068879,0.087565 -0.0029,0.2088268 0.1697299,0.31193529 0.071345,0.042613 0.078243,0.044311 0.0778152,0.019155 z m 3.96686862,-0.00854 c 0.1194264,-0.021965 0.2179003,-0.051325 0.2611786,-0.07787 0.04637,-0.028441 0.034292,-0.037855 -0.020461,-0.015947 -0.060672,0.024276 -0.2948012,0.078917 -0.3381486,0.078917 -0.022884,0 -0.035795,0.00501 -0.035795,0.013889 0,0.019565 0.012108,0.029358 0.028515,0.023062 0.00769,-0.00295 0.054808,-0.012873 0.1047107,-0.022052 z m 0.017816,-0.072944 c 0.1319652,-0.02914 0.1921761,-0.051663 0.109375,-0.040914 -0.039944,0.00519 -0.043794,0.00419 -0.026042,-0.0067 0.011458,-0.00703 0.02663,-0.01855 0.033715,-0.025597 0.016895,-0.016804 0.1137503,-0.048797 0.1303942,-0.043071 0.00714,0.00246 -0.010209,0.019245 -0.038544,0.037311 -0.06068,0.038688 -0.057666,0.040278 0.020738,0.010944 0.054706,-0.020468 0.058099,-0.023711 0.051769,-0.049479 -0.019888,-0.080955 -0.075807,-0.101758 -0.1778413,-0.066159 -0.034707,0.012109 -0.118803,0.034059 -0.1868809,0.048778 -0.148379,0.03208 -0.1370994,0.022307 -0.1098359,0.095174 0.028727,0.076781 0.030122,0.078772 0.050801,0.072542 0.00954,-0.00288 0.073602,-0.017649 0.1423525,-0.03283 z M 0.24314388,0.94262941 c -0.00339,-0.00884 -0.0084,-0.01384 -0.011133,-0.01111 -0.00273,0.00273 -0.00188,0.00996 0.0019,0.016074 0.010271,0.016619 0.016275,0.013391 0.00923,-0.00496 z M 2.7757038,0.74247551 c 9.073e-4,-0.139807 0.00629,-0.2188873 0.018954,-0.2785635 0.00973,-0.045833 0.02552,-0.12317704 0.035093,-0.17187496 0.028383,-0.14438702 0.084273,-0.21153429 0.1577658,-0.1895444 0.038491,0.011517 0.038491,0.011517 0.0139,-0.008844 -0.085835,-0.0710694 -0.1702307,0.0288159 -0.2268876,0.26852753 -0.042248,0.17874753 -0.047456,0.62289293 -0.00683,0.58226483 0.0037,-0.0037 0.00731,-0.094589 0.008,-0.2019655 z m 0.6930123,0.1963035 c 0,-0.00523 -0.050391,-0.021309 -0.1119792,-0.035733 -0.1601177,-0.037499 -0.1603781,-0.037592 -0.08694,-0.031129 0.079701,0.00701 0.2221108,0.03686 0.2690866,0.056394 0.024585,0.010223 0.036821,0.010905 0.045206,0.00252 0.015766,-0.015766 -0.061427,-0.040516 -0.2053148,-0.065829 -0.1131835,-0.019912 -0.1131835,-0.019912 -0.00634,-0.014348 0.068819,0.00358 0.1481912,0.016411 0.2230203,0.036044 0.063896,0.016764 0.1181505,0.028505 0.1205647,0.026091 0.00499,-0.00499 -0.1342363,-0.048315 -0.2393473,-0.074488 -0.038592,-0.00961 -0.067798,-0.021305 -0.064903,-0.02599 0.00546,-0.00883 -0.013052,-0.011781 -0.187847,-0.02996 -0.3496466,-0.036364 -0.4326866,-0.027551 -0.4321322,0.04586 3.563e-4,0.047205 0.010554,0.050337 0.1912085,0.058727 0.1604434,0.00745 0.3130383,0.027143 0.3867571,0.04991 0.041311,0.012758 0.098958,0.013884 0.098958,0.00193 z M 2.265591,0.90186181 c 0.1088542,-0.0085 0.2553386,-0.015597 0.3255209,-0.015766 0.1359221,-3.282e-4 0.1480319,-0.011563 0.1210386,-0.1122876 -0.014672,-0.054749 -1.1874271,0.00197 -1.3944761,0.067448 -0.054752,0.017314 0.053003,0.019066 0.1574307,0.00256 0.2430904,-0.038424 0.3168481,-0.037789 0.1024089,8.823e-4 -0.2003168,0.036124 -0.1418547,0.042383 0.090888,0.00973 0.0821,-0.011518 0.162163,-0.023119 0.1779182,-0.025781 0.015755,-0.00266 0.028646,-2.688e-4 0.028646,0.00532 0,0.00559 -0.013561,0.010156 -0.030136,0.010156 -0.016575,0 -0.064622,0.00687 -0.1067708,0.015256 -0.042149,0.00839 -0.090698,0.017063 -0.107885,0.019273 -0.017187,0.00221 -0.00464,0.00472 0.027892,0.00558 0.056825,0.0015 0.2010179,-0.014094 0.2416416,-0.026133 0.011484,-0.0034 0.016903,-0.00153 0.01315,0.00454 -0.00351,0.00568 -0.037121,0.016129 -0.074689,0.023217 -0.037568,0.00709 -0.065829,0.015366 -0.062801,0.018393 0.00687,0.00687 0.1295802,0.00385 0.1542858,-0.0038 0.0124,-0.00384 0.018229,-1.04e-5 0.018229,0.011972 0,0.015239 0.00808,0.016759 0.059896,0.01126 0.032943,-0.0035 0.1489584,-0.013313 0.2578125,-0.021815 z m 1.5331723,-0.010241 c -0.02514,-0.019058 -0.1700702,-0.057668 -0.2387661,-0.063607 -0.044254,-0.00383 -0.032733,0.00114 0.059761,0.025756 0.063021,0.016773 0.126302,0.035228 0.140625,0.041013 0.040212,0.016239 0.061643,0.014473 0.03838,-0.00316 z m -3.23180462,-0.05676 c 0.00315,-0.00509 -0.024377,-0.028869 -0.061166,-0.052838 -0.1077303,-0.070189 -0.1967159,-0.1774864 -0.1471959,-0.1774864 0.017516,0 0.047619,0.027835 0.047619,0.044032 0,0.037575 0.129879,0.1430678 0.1765133,0.1433706 0.015359,9.97e-5 0.073487,-0.049908 0.073487,-0.063222 0,-0.00404 -0.012891,-0.010555 -0.028646,-0.014487 -0.1292603,-0.0322568 -0.1699331,-0.1741996 -0.074596,-0.2603308 0.059045,-0.0533441 0.3914141,-0.17924559 0.4138812,-0.15677854 0.00573,0.005732 0.015852,0.001901 -0.1804309,0.0683043 -0.1517837,0.0513492 -0.2179529,0.0838192 -0.2290106,0.11237824 -0.00296,0.00764 -0.00186,0.012328 0.00244,0.010417 0.0043,-0.00191 0.047663,-0.023497 0.096361,-0.047968 0.064078,-0.0322 0.1187191,-0.0502995 0.1977628,-0.0655075 0.1322531,-0.0254458 0.18168832,-0.0220365 0.073071,0.005039 -0.2137358,0.0532789 -0.3958333,0.141606 -0.3958333,0.1920006 0,0.023841 0.00158,0.023334 0.042503,-0.013639 0.1800564,-0.1626701 1.13451762,-0.29921959 1.99305992,-0.28513607 0.2074382,0.003403 0.2074382,0.003403 0.2276476,-0.0571441 0.011115,-0.0333008 0.016996,-0.0637695 0.013069,-0.0677083 -0.023486,-0.0235571 -0.6971284,-0.008864 -1.1252386,0.0245429 -0.84000222,0.0655484 -1.25064932,0.17600687 -1.34295282,0.36123587 -0.028532,0.057256 -0.039305,0.1851848 -0.015595,0.1851848 0.00703,0 0.00889,-0.012687 0.00496,-0.033854 -0.00628,-0.033854 -0.00628,-0.033854 0.012193,-0.00782 0.062149,0.087572 0.2069522,0.1883877 0.2260955,0.1574131 z M 3.8616723,0.81764421 c -0.02143,-0.014562 -0.070565,-0.0335874 -0.1091888,-0.0422787 -0.038624,-0.008692 -0.098351,-0.0248738 -0.1327257,-0.0359608 -0.034375,-0.011087 -0.1,-0.025954 -0.1458334,-0.033037 -0.046619,-0.0072 -0.071061,-0.014388 -0.055478,-0.016304 0.01532,-0.00188 0.051648,9e-4 0.080729,0.00619 0.05434,0.00988 0.075587,-0.00283 0.024228,-0.014485 -0.015755,-0.00358 -0.056771,-0.015346 -0.091146,-0.026155 -0.067115,-0.021103 -0.044261,-0.021993 0.098958,-0.00385 0.075481,0.00956 0.00886,-0.022876 -0.1081312,-0.052649 -0.1086651,-0.027653 -0.089485,-0.033913 0.028896,-0.00943 0.09561,0.019773 0.1309486,0.016558 0.084443,-0.00768 -0.032745,-0.017068 -0.063171,-0.022046 -0.2760417,-0.045163 -0.3872923,-0.042058 -0.4584783,-0.034334 -0.4581738,0.049719 2.823e-4,0.078011 0.015595,0.08542 0.1977572,0.095681 0.2786078,0.015695 0.6571475,0.079964 0.8229167,0.1397175 0.077212,0.027832 0.084835,0.026986 0.03879,-0.0043 z m 0.2900555,-0.042401 c -0.087467,-0.075931 -0.2170609,-0.118762 -0.2658869,-0.087876 -0.011388,0.0072 0.00664,0.02014 0.072366,0.051924 0.1127906,0.054544 0.1568433,0.055104 0.052176,6.635e-4 -0.042969,-0.02235 -0.074458,-0.040868 -0.069977,-0.041151 0.021964,-0.00139 0.1756389,0.065756 0.1870813,0.081741 0.015424,0.021549 0.052309,0.043543 0.059892,0.035713 0.00291,-0.00301 -0.013131,-0.021464 -0.035651,-0.0410145 z m -2.9675123,0.0106935 c 0.2979,-0.069342 0.7868949,-0.1162025 1.2875817,-0.1233896 0.1306008,-0.00187 0.2390845,-0.00515 0.2410748,-0.00727 0.00199,-0.00212 0.00529,-0.036676 0.00734,-0.07678 0.00372,-0.072917 0.00372,-0.072917 -0.2098248,-0.076081 -0.2815573,-0.00417 -0.8615869,0.030689 -1.0885417,0.065424 -0.2306638,0.035302 -0.46179962,0.081813 -0.52604172,0.1058545 -0.030753,0.011509 0.028462,0.023942 0.064508,0.013544 0.073891,-0.021314 0.50781772,-0.086763 0.51665422,-0.077927 0.00615,0.00615 -0.018286,0.011494 -0.1905372,0.04163 -0.2220882,0.038855 -0.31770842,0.059821 -0.31770842,0.069663 0,0.011873 0.00584,0.011329 0.072917,-0.00679 0.03151,-0.00851 0.1440104,-0.026982 0.25,-0.041048 0.1059896,-0.014066 0.2091146,-0.028453 0.2291667,-0.031971 0.026288,-0.00461 0.031979,-0.00349 0.020399,0.00402 -0.00883,0.00573 -0.060395,0.017975 -0.1145833,0.027217 -0.3151162,0.053746 -0.49459456,0.096076 -0.4162329,0.09817 0.014323,3.822e-4 0.05651,-0.00668 0.09375,-0.015692 0.096512,-0.023359 0.3994125,-0.076948 0.4047517,-0.071608 0.00655,0.00655 -0.010743,0.011105 -0.1547517,0.040797 -0.1396221,0.028788 -0.3011478,0.076517 -0.2636672,0.07791 0.012535,4.657e-4 0.054723,-0.00659 0.09375,-0.01567 z m 0.3678339,-0.099346 c 0,-0.00503 0.012891,-0.00919 0.028646,-0.00925 0.015755,-6.25e-5 0.047396,-0.00253 0.070312,-0.00548 0.029279,-0.00377 0.035473,-0.00263 0.020833,0.00384 -0.030438,0.013444 -0.1197916,0.021567 -0.119791,0.01089 z m -0.015625,-0.09247 c 0.048846,-0.012429 0.076525,-0.012429 0.057292,0 -0.00859,0.00555 -0.032031,0.00961 -0.052083,0.00902 -0.036458,-0.00107 -0.036458,-0.00107 -0.00521,-0.00902 z m 2.359375,0.1979166 c -0.00859,-0.00555 -0.022656,-0.00984 -0.03125,-0.00953 -0.010303,3.771e-4 -0.00853,0.00362 0.00521,0.00953 0.028636,0.012306 0.045083,0.012306 0.026042,0 z m 0.5707276,-0.00931 c 0.1097729,-0.056026 0.1018702,-0.1573584 -0.012272,-0.1573584 -0.065,0 -0.1209555,0.05629 -0.1209555,0.1216785 0,0.028634 0.018059,0.00356 0.031175,-0.043285 0.00726,-0.025929 0.016962,-0.047143 0.02156,-0.047143 0.017137,0 0.019357,0.038127 0.00531,0.091146 -0.016986,0.064103 0.00137,0.072637 0.075184,0.034963 z m -0.2236962,0.00255 c 0.022087,-0.022087 -0.096941,-0.170523 -0.1364564,-0.1701703 -0.04357,3.885e-4 -0.045963,0.017709 -0.00577,0.041746 0.056077,0.033534 0.093666,0.070064 0.1081999,0.105152 0.012415,0.029974 0.021268,0.036029 0.034025,0.023273 z m -0.3053647,-0.01907 c 0,-0.00275 -0.018735,-0.014554 -0.041633,-0.026236 -0.049395,-0.025199 -0.1428231,-0.041207 -0.1312546,-0.022489 0.0041,0.00663 0.020246,0.012056 0.035883,0.012056 0.015638,0 0.046821,0.00938 0.069296,0.020833 0.038987,0.019877 0.067708,0.026594 0.067708,0.015837 z m -0.15625,-0.015837 c -0.00859,-0.00555 -0.025,-0.010098 -0.036458,-0.010098 -0.017251,0 -0.018147,0.00174 -0.00521,0.010098 0.00859,0.00555 0.025,0.010098 0.036458,0.010098 0.017251,0 0.018147,-0.00174 0.00521,-0.010098 z m -0.054501,-0.041759 c 0.033624,-0.063548 -0.026129,-0.289811 -0.081148,-0.3072731 -0.070424,-0.0223516 -0.1052871,0.081914 -0.066951,0.2002305 0.039908,0.1231704 0.1119964,0.1752741 0.148099,0.1070426 z m -0.03836,-0.041574 c -0.00685,-0.084264 -0.041837,-0.1333924 -0.037263,-0.052329 0.00191,0.033872 -3.239e-4,0.039942 -0.01134,0.030799 -0.033156,-0.027517 -0.056648,-0.2112081 -0.026262,-0.2053563 0.043663,0.00841 0.087799,0.1214673 0.08164,0.209127 -0.00291,0.041464 -0.00451,0.045641 -0.00677,0.017759 z m 0.5928615,0.043252 c 0,-0.015956 -0.1245986,-0.1280632 -0.1351111,-0.1215661 -0.00565,0.00349 0.018927,0.034094 0.054609,0.068009 0.063255,0.060122 0.080502,0.071596 0.080502,0.0535571 z M 0.71106128,0.66800121 c 0.2316269,-0.1286456 1.02097742,-0.2411924 1.72640482,-0.2461533 0.3072916,-0.00216 0.3072916,-0.00216 0.3106526,-0.0360331 0.00336,-0.0338721 0.00336,-0.0338721 -0.4375,-0.0282409 -0.8208978,0.0104854 -1.51103182,0.1200354 -1.68731542,0.26784 -0.051225,0.042949 -0.027245,0.050831 0.041157,0.013528 0.129024,-0.0703641 0.44509282,-0.1594049 0.56584202,-0.1594049 0.090087,0 0.074856,0.00653 -0.070526,0.030252 -0.24165172,0.039424 -0.51397622,0.1349451 -0.51397622,0.1802828 0,0.012709 0.00676,0.010424 0.0652612,-0.0220706 z m 3.08872042,-0.00977 c 0.00299,-0.00896 -0.00202,-0.012719 -0.013899,-0.010417 -0.010211,0.00198 -0.020666,0.00991 -0.023233,0.017615 -0.00299,0.00896 0.00202,0.012719 0.013899,0.010417 0.010211,-0.00198 0.020666,-0.00991 0.023233,-0.017615 z m 0.064768,0.00421 c 0,-0.00826 -0.00469,-0.017907 -0.010417,-0.021448 -0.00573,-0.00354 -0.010417,-0.024635 -0.010417,-0.046875 0,-0.02224 -0.00469,-0.043334 -0.010417,-0.046875 -0.012069,-0.00746 -0.013071,0.014181 -0.00379,0.081879 0.00612,0.044615 0.035042,0.07212 0.035041,0.033319 z m 0.4164678,-0.02182 c -0.014967,-0.027967 -0.080069,-0.073874 -0.090281,-0.063663 -0.00675,0.00675 0.093165,0.1008764 0.1000439,0.094244 0.0024,-0.00231 -0.002,-0.016072 -0.00976,-0.030582 z m -0.32068,-0.00854 c 0.010619,-0.016582 0.00233,-0.02048 -0.027594,-0.012971 -0.01459,0.00366 -0.026527,0.013916 -0.026527,0.022786 0,0.018054 0.04104,0.010611 0.054121,-0.00982 z m 0.070147,-0.061764 c -4.031e-4,-0.024147 -0.00507,-0.053279 -0.010381,-0.064738 -0.00696,-0.015022 -0.00803,-0.00898 -0.00386,0.021652 0.00424,0.03113 0.00145,0.046088 -0.010452,0.055963 -0.025589,0.021237 -0.021771,0.056286 0.00459,0.042176 0.015996,-0.00856 0.020663,-0.021345 0.020101,-0.055054 z m 0.058452,0.012694 c 0.00378,-0.00611 0.00472,-0.013252 0.00211,-0.01587 -0.00727,-0.00727 -0.038992,0.00712 -0.038992,0.017678 0,0.01304 0.028576,0.011639 0.036887,-0.00181 z m -0.30772,-0.072224 c 0,-0.00573 -0.00675,-0.010417 -0.01501,-0.010417 -0.00826,0 -0.017907,0.00469 -0.021448,0.010417 -0.00354,0.00573 0.00321,0.010417 0.01501,0.010417 0.011796,0 0.021448,-0.00469 0.021448,-0.010417 z m 0.056709,-0.017339 c -0.014369,-0.010507 -0.016162,-0.016957 -0.0072,-0.025916 0.013554,-0.013554 -0.00452,-0.057382 -0.033635,-0.0815411 -0.03363,-0.0279108 -0.035744,0.004646 -0.00452,0.0696414 0.023545,0.049013 0.035092,0.063086 0.04777,0.058221 0.014865,-0.0057 0.014598,-0.00797 -0.00241,-0.020405 z m -0.3136364,-0.004171 c -0.011776,-0.011776 -0.1335355,-0.047613 -0.211823,-0.062345 -0.051066,-0.00961 0.077048,-0.00455 0.1875,0.0074 0.080916,0.00876 0.05525,-0.011748 -0.033513,-0.026773 -0.1174481,-0.0198809 -0.5526421,-0.052473 -0.5914874,-0.0442971 -0.026693,0.005618 -0.037349,0.0138434 -0.039785,0.0307085 -0.00544,0.0376478 7.448e-4,0.0387405 0.3418681,0.060433 0.042969,0.00273 0.1296875,0.013582 0.1927084,0.02411 0.1419379,0.023712 0.169391,0.025624 0.1545313,0.010765 z m 0.4079687,-0.00974 c 0.00354,-0.00573 -0.00321,-0.010417 -0.01501,-0.010417 -0.025361,0 -0.026955,-0.0079 -0.00622,-0.030814 0.021184,-0.023408 0.00882,-0.0617316 -0.022446,-0.0695791 -0.039041,-0.009799 -0.048897,0.008086 -0.029732,0.0539524 0.026324,0.063003 0.055596,0.085675 0.073406,0.056857 z m -0.1677159,-0.00872 c 0.00901,-0.014574 -0.024831,-0.053781 -0.046416,-0.053781 -0.022654,0 -0.025443,0.012486 -0.00946,0.042352 0.010892,0.020351 0.045932,0.027519 0.055876,0.011429 z m 0.2458409,-0.00691 c 0,-0.00972 -0.00984,-0.015625 -0.026042,-0.015625 -0.032414,0 -0.034352,0.017784 -0.0026,0.023899 0.012891,0.00248 0.024609,0.00515 0.026042,0.00593 0.00143,7.802e-4 0.0026,-0.00561 0.0026,-0.014207 z m 0.067708,-0.026042 c 0.00365,-0.00591 -0.0051,-0.010417 -0.020219,-0.010417 -0.014661,0 -0.026656,0.00469 -0.026656,0.010417 0,0.00573 0.0091,0.010417 0.020218,0.010417 0.01112,0 0.023116,-0.00469 0.026657,-0.010417 z m -0.094971,-0.013444 c 0.015683,-0.011467 0.016534,-0.01751 0.00579,-0.0410937 -0.026795,-0.0588075 -0.068265,-0.0456046 -0.049438,0.0157395 0.013138,0.042806 0.016841,0.044957 0.04365,0.025354 z m 0.077482,-0.0314466 c 0.00472,-0.0245014 -0.016316,-0.0488591 -0.042193,-0.0488591 -0.015602,0 -0.018832,0.004471 -0.013168,0.0182292 0.00413,0.010026 0.00992,0.0266593 0.012878,0.0369628 0.00671,0.023381 0.037648,0.018769 0.042483,-0.006333 z m -0.3580322,-0.037017 c -0.0099,-0.008993 -0.1559294,-0.044648 -0.2442709,-0.0596411 -0.046875,-0.007956 -0.046875,-0.007956 0,-0.016928 0.056274,-0.0107715 0.1302216,-0.003579 0.2522122,0.0245323 0.049915,0.0115022 0.1014771,0.0191597 0.1145834,0.0170168 0.014538,-0.002377 -0.00866,-0.0116811 -0.059504,-0.0238621 -0.045833,-0.0109812 -0.073194,-0.0215684 -0.060802,-0.0235271 0.012392,-0.001959 0.063153,0.006086 0.1128016,0.0178779 0.1504454,0.0357307 0.1946502,0.0257598 0.062583,-0.0141164 -0.033974,-0.010258 -0.039406,-0.0136203 -0.015625,-0.00967 0.020052,0.003331 0.074933,0.0171352 0.1219573,0.0306764 0.079236,0.022817 0.1488761,0.0249122 0.1488761,0.004479 0,-0.0245424 -0.3067742,-0.0819766 -0.6458334,-0.1209128 -0.3974921,-0.0456464 -0.5646831,-0.0462568 -0.5919358,-0.002161 -0.054031,0.0874237 -0.032205,0.10186439 0.1706415,0.1129005 0.2399056,0.0130524 0.4035597,0.0296841 0.5046277,0.0512839 0.099903,0.0213508 0.1444818,0.0254934 0.1296883,0.0120517 z M 3.5728828,0.29203705 c -0.014323,-0.004587 -0.042448,-0.008142 -0.0625,-0.0079 -0.036458,4.3989e-4 -0.036458,4.3989e-4 0.00521,0.0079 0.059866,0.0107189 0.090761,0.0107189 0.057292,0 z"
       id="path12651" />
  </g>
</svg>
