<?xml version="1.0" encoding="UTF-8" standalone="no"?>
<svg
   xmlns:dc="http://purl.org/dc/elements/1.1/"
   xmlns:cc="http://creativecommons.org/ns#"
   xmlns:rdf="http://www.w3.org/1999/02/22-rdf-syntax-ns#"
   xmlns:svg="http://www.w3.org/2000/svg"
   xmlns="http://www.w3.org/2000/svg"
   xmlns:sodipodi="http://sodipodi.sourceforge.net/DTD/sodipodi-0.dtd"
   xmlns:inkscape="http://www.inkscape.org/namespaces/inkscape"
   width="75.166222mm"
   height="60.417679mm"
   viewBox="0 0 75.166222 60.417679"
   version="1.1"
   id="svg191"
   inkscape:version="1.0.1 (3bc2e813f5, 2020-09-07)"
   sodipodi:docname="pepe.svg">
  <defs
     id="defs185" />
  <sodipodi:namedview
     id="base"
     pagecolor="#ffffff"
     bordercolor="#666666"
     borderopacity="1.0"
     inkscape:pageopacity="0.0"
     inkscape:pageshadow="2"
     inkscape:zoom="1.979899"
     inkscape:cx="121.46456"
     inkscape:cy="124.89412"
     inkscape:document-units="mm"
     inkscape:current-layer="layer4"
     inkscape:document-rotation="0"
     showgrid="false"
     fit-margin-top="0"
     fit-margin-left="0"
     fit-margin-right="0"
     fit-margin-bottom="0"
     inkscape:pagecheckerboard="true"
     inkscape:window-width="1280"
     inkscape:window-height="737"
     inkscape:window-x="-8"
     inkscape:window-y="-8"
     inkscape:window-maximized="1" />
  <metadata
     id="metadata188">
    <rdf:RDF>
      <cc:Work
         rdf:about="">
        <dc:format>image/svg+xml</dc:format>
        <dc:type
           rdf:resource="http://purl.org/dc/dcmitype/StillImage" />
        <dc:title></dc:title>
      </cc:Work>
    </rdf:RDF>
  </metadata>
  <g
     inkscape:groupmode="layer"
     id="layer4"
     inkscape:label="layer 0">
    <path
       style="fill:#ffffff;stroke-width:0.505076"
       d="M 129.38982,220.70995 C 88.657692,218.39709 48.038563,208.9158 31.106469,197.76871 16.628755,188.23744 6.9088194,169.99053 6.9088194,152.34326 c 0,-6.88071 1.0490627,-10.75614 5.8357086,-21.55816 7.707647,-17.39385 24.58854,-51.283794 28.053426,-56.319834 2.261196,-3.286531 12.742335,-9.781635 13.90631,-8.617662 0.162665,0.162665 -0.06969,2.439655 -0.516336,5.059975 -1.356098,7.955689 -0.930373,16.626081 0.687797,14.007831 0.207237,-0.33532 0.531847,-3.035028 0.721353,-5.999356 C 56.297966,67.952494 58.99779,58.299643 64.494889,47.103119 71.226131,33.392884 79.675471,22.54663 88.914756,15.755805 94.804354,11.426979 102.55498,8.0829553 110.7857,6.3195298 c 4.94938,-1.0604 15.70538,-1.2036593 20.87696,-0.2780604 18.57992,3.3253978 32.43608,14.1898916 37.19012,29.1604416 1.92896,6.074322 1.54339,7.344288 -1.58224,5.211572 -3.07688,-2.099448 -9.5869,-5.129268 -14.57079,-6.781379 -8.1359,-2.696969 -14.04762,-3.462981 -24.23481,-3.140232 -9.6811,0.306716 -14.62144,1.214044 -21.57768,3.962896 -4.76647,1.883535 -13.2589,7.314854 -13.514742,8.643328 -0.28954,1.503466 1.357049,1.023781 6.437637,-1.87541 10.019465,-5.717514 18.424015,-8.22769 29.074585,-8.683661 15.86307,-0.679127 31.19452,4.762044 43.66848,15.498056 3.18753,2.743422 3.57799,3.250712 2.75152,3.57483 -0.52973,0.207745 -4.71333,0.395637 -9.29689,0.417538 -21.24375,0.101504 -32.66273,2.604554 -52.86967,11.589072 -4.95662,2.203844 -10.48718,4.499118 -12.29011,5.100603 -3.841927,1.281737 -5.22178,2.304769 -3.829335,2.839105 1.379166,0.529234 6.353635,-1.050261 15.315165,-4.86288 19.76735,-8.409873 34.3627,-11.968208 51.17745,-12.477028 7.1361,-0.21594 9.6911,-0.101502 13.08425,0.586036 4.95692,1.004402 8.46056,2.651824 10.30727,4.846512 1.37279,1.631467 2.19386,3.834418 1.63678,4.391502 -0.17487,0.174867 -3.55461,-0.460751 -7.51053,-1.412482 -6.87837,-1.654832 -7.58976,-1.728497 -16.28397,-1.686308 -7.68277,0.03728 -10.18695,0.255978 -16.16244,1.411481 -17.5863,3.400719 -53.208776,11.992011 -56.39999,13.602326 -2.130482,1.075059 -2.187995,1.168655 -2.156741,3.509603 0.06371,4.771152 3.580935,7.306509 11.020341,7.9439 5.07243,0.434598 6.18143,0.863797 11.31748,4.380077 6.88993,4.717034 15.27422,8.171407 25.22921,10.394572 4.24317,0.94759 6.5096,1.10346 16.293,1.12052 10.10815,0.0176 11.94585,-0.11039 16.6265,-1.15822 6.08424,-1.36204 11.04792,-3.064783 15.69839,-5.385189 4.97921,-2.484445 5.55584,-2.596516 5.55584,-1.079843 0,2.008158 -0.80839,3.619553 -2.83002,5.641172 -4.71067,4.71068 -10.16616,5.51811 -34.79817,5.15025 -16.59238,-0.2478 -16.6937,-0.25585 -22.47589,-1.7865 -3.19461,-0.84566 -9.55857,-2.81459 -14.14214,-4.37539 -11.12357,-3.787827 -10.71885,-3.6995 -10.18874,-2.223515 1.22775,3.418435 16.26783,8.008525 33.92733,10.354305 8.02437,1.06591 30.16941,1.22189 36.02493,0.25375 8.05438,-1.33169 12.34252,-3.564 15.24441,-7.93587 0.98347,-1.48167 1.98348,-2.814677 2.22225,-2.962246 0.23877,-0.147563 1.54015,0.06747 2.89196,0.477858 5.95151,1.806778 13.27984,2.495188 26.44896,2.484558 16.91334,-0.0136 26.96514,-1.104523 39.80505,-4.319864 3.41962,-0.856331 6.33591,-1.438543 6.48065,-1.293803 1.02087,1.020875 -4.42745,5.400437 -6.71833,5.400437 -0.67496,0 -1.39131,0.46712 -1.74275,1.13642 -2.03237,3.87058 -10.39144,11.62648 -15.09619,14.0069 -6.81775,3.4495 -16.62401,5.5696 -25.69878,5.55604 -7.02268,-0.0105 -11.14524,-0.81089 -16.8916,-3.27951 -4.03147,-1.73189 -6.7814,-2.15346 -6.555,-1.00487 0.11009,0.55854 0.95454,1.00808 12.27481,6.53442 9.0711,4.42834 11.30173,4.94232 8.49826,1.95816 -0.60401,-0.64294 -0.85538,-1.16898 -0.5586,-1.16898 2.4331,0 12.19272,-1.299 17.46868,-2.32508 l 6.46799,-1.25791 1.69176,1.04557 c 3.85171,2.38049 11.44942,13.61633 14.42508,21.33246 2.14497,5.56211 3.09902,9.91221 2.44281,11.13835 -1.46645,2.74008 -19.00904,8.39891 -33.51592,10.81146 -6.91568,1.1501 -31.90814,1.31484 -39.64849,0.26135 -9.44649,-1.2857 -17.60057,-2.74442 -28.78935,-5.15025 -34.34495,-7.38493 -52.07937,-8.38957 -61.98802,-3.51155 -3.649332,1.79655 -5.681088,4.16157 -6.699251,7.7981 -0.922648,3.29538 -0.434577,10.50672 0.918062,13.56459 1.5939,3.60327 3.250227,4.15382 15.517229,5.15776 5.54296,0.45363 16.21479,1.72083 23.71517,2.81598 7.50038,1.09516 21.25109,3.10317 30.55712,4.46227 19.89018,2.90484 37.41217,4.28467 65.99855,5.19729 4.48414,0.14316 5.21118,0.43323 4.18499,1.66971 -1.49688,1.80364 -12.28173,8.4622 -18.67204,11.52812 -21.34056,10.23871 -46.86627,13.91274 -82.57369,11.8852 z M 95.802243,195.29916 c 0,-0.71347 -2.450933,-1.81718 -4.035306,-1.81718 -0.469762,0 -2.241984,-0.69353 -3.938272,-1.54117 -3.660591,-1.82922 -7.521096,-5.83212 -9.473736,-9.82316 -1.454286,-2.97245 -1.772611,-3.20478 -2.760378,-2.0146 -2.180187,2.62697 6.237161,12.27128 13.026705,14.92556 2.930983,1.14582 7.180987,1.30595 7.180987,0.27055 z M 144.0591,128.29088 c 6.5765,-2.32121 14.26155,-5.68886 22.53939,-9.87692 7.58777,-3.83894 10.02628,-5.39331 9.41845,-6.00358 -0.53875,-0.54092 -3.59256,0.63102 -11.52432,4.42262 -4.02799,1.92548 -10.77843,4.94678 -15.001,6.71398 -10.73365,4.49221 -11.46784,4.91201 -10.42117,5.95867 0.43985,0.43987 -0.009,0.54912 4.98865,-1.21477 z"
       id="path219"
       transform="scale(0.26458333)" />
    <path
       style="fill:#ffffff;stroke-width:0.505076"
       d="m 215.75786,192.67165 c -1.66675,-0.0977 -7.12158,-0.4187 -12.12183,-0.71331 -21.81129,-1.28509 -44.58942,-3.81857 -65.65992,-7.303 -15.89399,-2.62838 -24.72201,-3.70421 -33.84011,-4.12393 -10.829619,-0.49851 -12.270276,-1.72404 -11.738582,-9.98574 0.337023,-5.23682 1.433652,-7.89123 4.303942,-10.41776 3.75396,-3.30437 7.74442,-4.28241 17.28363,-4.23613 8.82031,0.0428 14.68368,0.81262 29.04188,3.81303 21.6915,4.53283 27.08454,5.56327 35.31536,6.74769 13.21368,1.90145 21.62706,2.44778 32.6174,2.11804 15.80459,-0.47418 26.9823,-2.53762 42.08198,-7.76847 8.73227,-3.02504 9.94048,-3.09767 11.19438,-0.67288 1.00133,1.93635 0.95356,3.34573 -0.19947,5.88477 -2.15854,4.75326 -8.87996,7.69951 -22.51977,9.87125 -5.21202,0.82986 -9.78044,1.09759 -22.15414,1.29832 -25.03267,0.40608 -42.3598,-1.26073 -69.08876,-6.64611 -13.19364,-2.65827 -20.32495,-3.64333 -29.72287,-4.10566 -9.28516,-0.45678 -18.18275,0.81218 -18.18275,2.59319 0,0.87955 1.31662,0.90337 9.81053,0.1775 8.27539,-0.7072 18.94115,0.0624 28.36125,2.04645 3.86791,0.81465 10.21453,2.15895 14.10362,2.98734 17.92306,3.81767 27.86445,5.02075 44.95179,5.43994 13.75715,0.33749 30.13706,-0.32365 44.95179,-1.81439 6.07207,-0.611 9.30104,-0.74855 9.72271,-0.41415 2.88182,2.28533 -3.54508,12.99681 -8.71256,14.52092 -1.975,0.58251 -23.2814,1.08521 -29.7995,0.70309 z"
       id="path221"
       transform="scale(0.26458333)" />
    <path
       style="fill:#ffffff;stroke-width:0.505076"
       d="m 99.266331,84.375815 c -3.007185,-0.507923 -5.881408,-1.875105 -6.543724,-3.112654 -0.975052,-1.821902 -0.353143,-3.141067 1.816946,-3.854016 2.916915,-0.958309 41.605497,-9.983317 50.255087,-11.723166 15.79443,-3.177018 25.52867,-3.305963 36.11296,-0.478374 9.01703,2.408897 8.21206,2.383105 9.91456,0.317676 4.96557,-6.024103 25.48461,-9.962067 48.16921,-9.244522 10.68168,0.337876 15.96485,1.027712 22.35074,2.918389 3.24417,0.960504 4.32341,1.567793 6.31234,3.551976 2.4696,2.46371 3.06773,3.768735 1.51522,3.306017 -0.48613,-0.144891 -3.35841,-1.211463 -6.38283,-2.37016 -10.41711,-3.990933 -11.82916,-4.238061 -24.30055,-4.252963 -16.35551,-0.01954 -25.91369,1.124116 -37.66621,4.506847 -6.61005,1.902572 -9.62582,3.17942 -9.96374,4.218543 -0.30736,0.945127 1.84391,0.57219 8.234,-1.427424 18.74647,-5.866222 41.74701,-6.643761 58.84139,-1.98915 5.0462,1.374027 12.31434,4.958295 15.27855,7.534596 4.13018,3.589673 3.23313,3.813195 -5.0667,1.262496 -8.96222,-2.75426 -15.21361,-3.476288 -27.13191,-3.1337 -13.96695,0.401475 -25.22614,2.321989 -37.8296,6.452709 -6.48458,2.125288 -6.77893,2.103101 -7.8966,-0.595211 -0.34681,-0.837265 -1.24399,-1.839515 -1.99373,-2.22722 -2.53181,-1.309254 -8.0449,-1.93054 -14.19604,-1.599797 -10.38634,0.558469 -18.95773,2.151263 -37.83659,7.031053 -16.52271,4.270773 -33.80603,6.290823 -41.992779,4.908055 z"
       id="path223"
       transform="scale(0.26458333)" />
    <path
       style="fill:#ffffff;stroke-width:0.505076"
       d="m 208.72959,98.484378 c -3.76645,-0.56268 -10.00897,-2.264325 -12.74589,-3.474394 -2.7673,-1.2235 -3.02876,-2.301787 -1.4612,-6.026144 0.70666,-1.678965 1.28485,-3.531564 1.28485,-4.116887 0,-2.826787 4.28386,-4.991715 15.53258,-7.849679 12.04211,-3.059539 19.46056,-3.935342 33.45981,-3.950178 10.88613,-0.01154 12.98176,0.119836 17.42462,1.092338 9.50915,2.081469 15.35824,6.103677 14.71723,10.120518 -0.51653,3.236817 -2.1356,5.007149 -6.54681,7.158461 -2.27111,1.107603 -4.79987,2.07619 -5.61947,2.152416 -1.45799,0.135598 -1.53079,0.02668 -3.3707,-5.042701 -2.30404,-6.348149 -3.5161,-8.365851 -6.19557,-10.313715 -3.21999,-2.340792 -5.26051,-3.020322 -9.90422,-3.298283 -7.19262,-0.430533 -13.9741,2.011388 -19.42767,6.995643 -3.14084,2.870552 -5.05104,6.254964 -5.78135,10.24319 -0.62348,3.404761 -1.62147,5.200093 -3.22794,5.806892 -2.02231,0.763873 -5.11185,0.954646 -8.13827,0.502523 z"
       id="path225"
       transform="scale(0.26458333)" />
    <path
       style="fill:#ffffff;stroke-width:0.505076"
       d="m 182.79565,94.360766 c -0.27967,-0.34724 -1.3421,-2.296962 -2.36097,-4.332715 -1.01886,-2.035754 -2.8236,-4.672492 -4.01053,-5.85942 -2.98661,-2.986609 -7.9733,-5.354626 -12.00442,-5.700503 -1.76556,-0.151488 -3.5194,-0.439348 -3.89742,-0.639688 -1.09637,-0.581044 12.6817,-2.585975 19.9168,-2.898216 7.01897,-0.302914 11.2274,0.288683 12.43903,1.748606 0.41144,0.495751 0.65633,2.222553 0.65628,4.62758 -6e-5,3.310398 -0.20604,4.208595 -1.50149,6.547636 -1.71771,3.101463 -6.04129,7.138065 -7.64555,7.138065 -0.59579,0 -1.31207,-0.284105 -1.59173,-0.631345 z"
       id="path227"
       transform="scale(0.26458333)" />
    <path
       style="fill:#ffffff;stroke-width:0.505076"
       d="m 173.33558,39.721144 c -0.36136,-0.57477 -1.26719,-2.863312 -2.01294,-5.085647 -0.74576,-2.222336 -2.52085,-6.384171 -3.94464,-9.248523 -2.02667,-4.077198 -2.4737,-5.393112 -2.05897,-6.060916 1.29566,-2.086282 14.86251,-7.546344 22.73911,-9.151494 20.65518,-4.2092562 39.71911,5.180723 46.36498,22.837158 1.21697,3.233195 1.72917,7.432636 0.90644,7.431739 -0.20834,-2.28e-4 -1.96979,-0.329857 -3.91434,-0.732509 -5.35541,-1.108932 -19.80888,-1.908239 -28.03173,-1.550213 -6.53117,0.28437 -14.34601,0.953238 -25.68085,2.198013 -3.43833,0.377592 -3.75816,0.330895 -4.36706,-0.637608 z"
       id="path229"
       transform="scale(0.26458333)" />
    <path
       style="fill:#ffffff;stroke-width:0.505076"
       d="m 190.3303,59.404352 c -0.61016,-1.034136 -3.77519,-3.790918 -7.7523,-6.752352 -3.69664,-2.752587 -7.4841,-5.809002 -8.41656,-6.792033 -1.64227,-1.73132 -1.66314,-1.804592 -0.66598,-2.338258 10.02718,-5.36638 62.38584,-2.726443 76.27885,3.845998 2.45518,1.161489 9.67265,7.297508 9.67265,8.223326 0,0.207675 -1.30689,0.07298 -2.90419,-0.299326 -5.59923,-1.305084 -14.91768,-1.835354 -27.71013,-1.576856 -14.52799,0.293568 -17.41368,0.771412 -29.42154,4.871948 -4.13152,1.410861 -7.63286,2.565202 -7.78076,2.565202 -0.1479,0 -0.73291,-0.786442 -1.30004,-1.747649 z"
       id="path231"
       transform="scale(0.26458333)" />
    <path
       style="fill:#ffffff;stroke-width:0.505076"
       d="m 133.67464,99.59031 c -7.67908,-2.426348 -23.22518,-10.891665 -23.22518,-12.646804 0,-0.213168 2.55694,-0.523605 5.6821,-0.689861 6.84829,-0.364322 17.91858,-2.272978 27.02411,-4.659297 3.68214,-0.964989 6.86412,-1.743942 7.07107,-1.731008 0.20695,0.01293 -0.6465,0.561211 -1.89656,1.218392 -5.63383,2.961805 -9.08277,7.82738 -10.15632,14.327989 -0.83576,5.060699 -1.05857,5.267729 -4.49922,4.180589 z"
       id="path233"
       transform="scale(0.26458333)" />
    <path
       style="fill:#ffffff;stroke-width:0.126269"
       d="m 164.80587,96.547455 c -0.76175,-0.311279 -1.18386,-0.6008 -1.62168,-1.112295 -0.72387,-0.845678 -1.00875,-1.566145 -1.02007,-2.579836 -0.008,-0.757997 0.05,-1.008095 0.40433,-1.727969 1.05863,-2.151057 3.35825,-3.057386 5.28289,-2.082097 1.33873,0.678383 2.82764,2.584472 2.8248,3.616276 -0.003,1.143711 -1.4507,2.981459 -2.86564,3.638076 -0.83855,0.389137 -2.35314,0.514072 -3.00463,0.247845 z"
       id="path235"
       transform="scale(0.26458333)" />
    <path
       style="fill:#ffffff;stroke-width:0.126269"
       d="m 151.86136,88.84366 c -0.76744,-0.405831 -1.05891,-1.011938 -1.11513,-2.31892 -0.0821,-1.909493 0.60286,-3.261629 1.8058,-3.564534 2.20672,-0.555658 3.75253,0.717339 3.57387,2.943121 -0.0736,0.916431 -0.39943,1.603913 -1.06362,2.243954 -0.99762,0.961344 -2.20369,1.22373 -3.20092,0.696379 z"
       id="path237"
       transform="scale(0.26458333)" />
    <path
       style="fill:#ffffff;stroke-width:0.126269"
       d="m 153.32989,99.096882 c -0.97017,-0.763132 -0.94487,-2.442415 0.0445,-2.954037 0.46797,-0.241995 0.68326,-0.240635 1.20642,0.0076 0.61584,0.292239 0.88288,0.925006 0.69883,1.655945 -0.18206,0.723032 -0.45702,1.140358 -0.90344,1.37121 -0.47345,0.244828 -0.6497,0.231228 -1.0463,-0.08074 z"
       id="path239"
       transform="scale(0.26458333)" />
    <path
       style="fill:#ffffff;stroke-width:0.252538"
       d="m 233.27924,85.457784 c -0.80151,-0.801506 -0.85678,-2.650276 -0.11558,-3.865947 0.60917,-0.999121 1.97135,-1.705723 2.85886,-1.482972 0.97131,0.243784 2.1251,1.337001 2.44996,2.321341 0.24646,0.746761 0.2181,1.022185 -0.18529,1.799498 -0.93242,1.796721 -3.74869,2.487345 -5.00795,1.22808 z"
       id="path241"
       transform="scale(0.26458333)" />
    <path
       style="fill:#ffffff;stroke-width:0.252538"
       d="m 244.65071,93.374929 c -1.99524,-1.887014 -2.38606,-3.751858 -1.12285,-5.357773 0.66936,-0.850952 2.5109,-1.5393 3.57842,-1.337574 2.75853,0.521268 4.34845,3.65816 2.98638,5.892057 -0.51846,0.850312 -2.62599,2.092308 -3.55042,2.092308 -0.29072,0 -1.14191,-0.580058 -1.89153,-1.289018 z"
       id="path243"
       transform="scale(0.26458333)" />
    <path
       style="fill:#ffffff;stroke-width:0.252538"
       d="m 232.40683,95.169023 c -0.67997,-0.679974 -0.63643,-1.556327 0.11229,-2.259708 0.45294,-0.425512 0.78801,-0.537153 1.2581,-0.41917 0.6271,0.157393 1.40753,1.275729 1.40753,2.016954 0,1.112512 -1.87949,1.560357 -2.77792,0.661924 z"
       id="path245"
       transform="scale(0.26458333)" />
  </g>
  <g
     inkscape:label="Layer 1"
     inkscape:groupmode="layer"
     id="layer1"
     transform="translate(-3.741157,-6.7073712)"
     sodipodi:insensitive="true">
    <path
       style="fill:#000000;stroke-width:0.254652"
       d="M 34.677223,65.397993 C 20.053528,63.636082 13.581618,61.615901 9.4769758,57.531831 5.8277995,53.900946 4.2338143,48.358743 5.4861807,43.65605 6.0721661,41.455649 13.704506,26.390232 14.685535,25.497514 c 0.993938,-0.904462 2.609248,-1.818685 3.213377,-1.818685 0.541124,0 0.904648,-0.451545 1.128712,-1.40201 1.112436,-4.718872 5.156756,-10.227153 9.306567,-12.675349 4.843545,-2.8574692 11.65182,-2.5464365 16.575899,0.757261 1.74372,1.169909 1.74372,1.169909 4.222601,0.0057 7.930599,-3.7248437 15.658484,-1.1006671 17.45725,5.927999 0.342321,1.337617 0.353125,1.348432 1.79182,1.793571 1.877889,0.58103 2.538206,1.007803 4.258105,2.752081 0.781054,0.792127 1.722579,1.643199 2.092273,1.89127 0.39032,0.261911 0.802669,0.886611 0.983394,1.489806 0.171171,0.571322 0.577835,1.213459 0.903698,1.426972 0.445949,0.292198 0.588956,0.61652 0.578243,1.311365 -0.0078,0.507738 0.05989,1.34955 0.150509,1.870695 0.143023,0.82262 0.06624,1.046042 -0.582434,1.694716 -0.410947,0.410947 -0.854367,1.130489 -0.985378,1.59898 -0.180686,0.646123 -0.497908,0.976962 -1.313736,1.37012 -0.591543,0.285075 -1.426575,0.995661 -1.855628,1.579079 -0.720229,0.979357 -3.544958,3.122968 -4.115273,3.122968 -0.135849,0 0.374015,0.686242 1.13303,1.52498 1.510208,1.668833 2.692785,3.872267 3.350017,6.241901 0.233075,0.840351 0.660296,1.964869 0.949377,2.498928 0.82455,1.523291 -0.553322,4.503998 -2.082033,4.503998 -0.0954,0 -0.235345,0.682632 -0.310999,1.516957 -0.228616,2.521203 -1.717459,3.830732 -4.355277,3.830732 -0.795325,0 -1.235752,0.148554 -1.585183,0.53467 -4.690995,5.183492 -18.313713,8.070357 -30.917243,6.551844 z m 15.151786,-0.481972 c 5.273052,-0.616406 10.544957,-2.581923 14.09982,-5.256814 1.621881,-1.220401 1.621881,-1.220401 -0.891281,-1.278122 -4.00159,-0.09192 -11.407878,-0.55298 -13.277013,-0.826545 -0.942749,-0.137981 -3.318397,-0.484188 -5.279215,-0.769351 -1.96082,-0.285165 -4.997543,-0.745237 -6.748275,-1.022379 -1.750731,-0.277142 -4.48187,-0.579936 -6.069194,-0.672872 -3.394549,-0.198748 -3.799024,-0.417264 -4.138796,-2.235975 -1.094951,-5.860988 4.126859,-6.875611 18.557162,-3.605748 9.898681,2.243009 17.550376,2.069283 24.452938,-0.555187 2.371214,-0.901575 2.371214,-0.901575 2.202581,-1.944196 -0.388043,-2.399164 -2.360447,-5.981023 -4.24357,-7.706274 -0.584877,-0.535843 -0.584877,-0.535843 -2.876743,-0.05986 -1.260526,0.261792 -2.858087,0.477913 -3.550134,0.480266 -1.149071,0.0038 -1.215405,0.03562 -0.764356,0.365436 0.899423,0.657674 0.178135,0.70779 -0.818843,0.05689 -0.538072,-0.35129 -1.751817,-0.95318 -2.697211,-1.337533 -0.945395,-0.384351 -1.718901,-0.793078 -1.718901,-0.908277 0,-0.346755 0.380532,-0.246361 2.204466,0.581594 2.768066,1.256532 8.216102,0.717698 11.357546,-1.123313 1.109526,-0.650225 3.499663,-3.050876 3.499663,-3.515056 0,-0.124911 0.213731,-0.227111 0.474961,-0.227111 0.592679,0 1.816906,-0.939373 1.816906,-1.394145 0,-0.27725 -0.219093,-0.271551 -1.209597,0.03145 -5.239003,1.602664 -15.100712,1.858882 -18.65676,0.484722 -0.257799,-0.09962 -0.534002,0.126559 -0.833834,0.682816 -1.092528,2.02689 -3.719101,2.635242 -10.452751,2.421008 -5.111837,-0.162636 -11.699554,-1.771234 -12.084776,-2.950877 -0.08517,-0.260803 0.0018,-0.282917 0.36308,-0.09224 0.637562,0.336563 4.968765,1.713596 6.714074,2.134624 1.912431,0.461348 11.15654,0.457388 12.709171,-0.0055 1.37462,-0.409768 2.56994,-1.543843 2.56994,-2.438266 0,-0.797883 0.0682,-0.796505 -1.440746,-0.02911 -5.984043,3.043235 -14.635009,2.383188 -19.955716,-1.522571 -1.045712,-0.76762 -1.403702,-0.887087 -2.658181,-0.887087 -1.719271,0 -2.938452,-0.918552 -2.938452,-2.213882 0,-0.725147 0,-0.725147 6.557285,-2.305384 11.434548,-2.755604 13.701799,-2.990952 17.81802,-1.849557 1.93897,0.53766 2.04296,0.511996 1.710257,-0.422071 -1.15864,-3.252905 -11.589435,-2.633212 -19.973918,1.186651 -2.686526,1.223946 -4.329082,1.713032 -4.329082,1.289029 0,-0.125428 0.372428,-0.309119 0.827619,-0.408202 0.45519,-0.09908 1.887576,-0.677898 3.183079,-1.286258 5.187211,-2.435884 8.576647,-3.229552 13.80488,-3.23254 3.682404,-0.0021 3.682404,-0.0021 2.546519,-1.007184 -5.702419,-5.045753 -13.625318,-5.765135 -19.911396,-1.807909 -1.171001,0.737171 -1.827136,0.772763 -0.960779,0.05212 4.729858,-3.934347 13.39983,-4.074455 19.153033,-0.309516 0.98289,0.643213 1.091741,0.337702 0.532483,-1.494524 C 46.28633,8.7125663 35.842164,5.6614034 28.303458,10.079524 c -5.207073,3.051648 -9.922064,11.539659 -9.923623,17.864684 -1.82e-4,0.735307 -0.114924,1.336922 -0.254982,1.336922 -0.338601,0 -0.324318,-2.196607 0.02487,-3.824814 0.153736,-0.716853 0.221719,-1.361169 0.151073,-1.431816 -0.259804,-0.259803 -2.973759,1.232018 -3.604077,1.981107 -1.157064,1.375094 -8.478397,16.474722 -8.9377655,18.433382 -1.1961739,5.100266 1.3472316,11.344558 5.9072195,14.502766 6.464723,4.477408 25.489694,7.455687 38.162836,5.974227 z M 27.152157,58.228444 c -1.738471,-0.669035 -3.971314,-3.302425 -3.318796,-3.91415 0.120016,-0.112513 0.261817,-0.08998 0.315115,0.05009 0.731364,1.921932 2.28114,3.334549 3.951319,3.601623 0.536297,0.08575 0.975088,0.255869 0.975088,0.378028 0,0.304785 -0.984137,0.245624 -1.922726,-0.115584 z M 40.534216,40.776939 c 0,-0.120021 1.002692,-0.600351 2.228203,-1.067403 1.225512,-0.467053 3.338389,-1.412113 4.695281,-2.100131 1.356892,-0.688021 2.617419,-1.199102 2.801171,-1.135737 0.418699,0.144383 -4.272437,2.521389 -7.232199,3.664573 -2.433354,0.939858 -2.492456,0.955003 -2.492456,0.638698 z m 28.592849,16.678407 c 1.51213,-0.640017 2.922339,-3.983443 1.679458,-3.981782 -0.192894,2.54e-4 -1.955021,0.170922 -3.915841,0.379252 -1.960819,0.208328 -5.689862,0.38001 -8.286763,0.381507 -6.232174,0.0036 -9.581393,-0.433965 -17.560399,-2.294209 -2.565511,-0.598129 -6.146869,-0.778122 -8.721827,-0.438345 -1.651021,0.217857 -2.055394,-0.17517 -0.509303,-0.495016 2.395932,-0.495654 6.924758,-0.179727 11.141019,0.777191 12.810732,2.907507 28.389046,2.544799 30.522097,-0.710645 0.961934,-1.468098 0.234028,-3.035276 -1.152896,-2.482173 -8.481804,3.382539 -16.187232,3.573097 -28.732572,0.710571 -11.025383,-2.515711 -15.249316,-1.879747 -15.48729,2.331803 -0.135293,2.394372 0.279657,2.857316 2.563709,2.860237 1.640039,0.002 6.444695,0.547851 8.759616,0.994991 9.249332,1.786567 27.302202,2.981915 29.700992,1.966618 z M 40.334051,32.114166 c 0.511319,-5.321381 8.879558,-6.489194 11.108986,-1.550292 0.802021,1.776733 0.924585,1.806447 2.324623,0.563521 1.143927,-1.015554 1.56551,-2.463369 1.172855,-4.027841 -0.316451,-1.260837 -6.874003,-0.723525 -13.13304,1.076095 -2.376327,0.683249 -6.355326,1.351145 -8.148859,1.367829 -1.145933,0.01067 -1.145933,0.01067 -0.381978,0.635798 1.377853,1.127483 5.496391,3.082499 6.652211,3.157715 0.15997,0.01041 0.338463,-0.528247 0.405202,-1.222825 z m 4.529247,0.335122 c 0,-0.201822 -0.171891,-0.366948 -0.381978,-0.366948 -0.383565,0 -0.523483,0.537567 -0.219134,0.841917 0.237652,0.237652 0.601112,-0.04954 0.601112,-0.474969 z M 61.97826,31.443204 c 0.336438,-4.057016 6.751849,-6.5224 9.589208,-3.685044 0.641213,0.641216 0.95187,1.325665 1.694102,3.732511 0.12877,0.417555 2.65894,-0.543124 3.24222,-1.231038 2.101873,-2.478926 -1.341707,-4.379851 -7.95787,-4.392907 -5.344675,-0.01054 -12.985368,1.741524 -12.988813,2.978434 -7.65e-4,0.309834 -0.172754,0.891566 -0.381978,1.292737 -0.71555,1.372 -0.474786,1.655683 1.961725,2.311452 3.212497,0.864619 4.712112,0.552969 4.841406,-1.006145 z m -13.4407,0.49362 c 0.534812,-0.534812 0.504192,-0.954667 -0.110171,-1.510659 -1.036229,-0.937772 -2.465015,0.616176 -1.475946,1.605244 0.422943,0.422944 1.109531,0.382001 1.586117,-0.09458 z m 17.461841,-0.221433 c 0,-0.201821 -0.124579,-0.443942 -0.27684,-0.538046 -0.359573,-0.222229 -0.850384,0.268581 -0.628154,0.628155 0.249612,0.403883 0.904994,0.338628 0.904994,-0.09011 z m 3.581867,-0.151314 c 1.073118,-0.574316 0.322758,-2.232591 -0.874287,-1.932153 -0.818077,0.205326 -1.021711,1.080462 -0.396816,1.705357 0.568869,0.56887 0.616164,0.577309 1.271103,0.226796 z M 45.068063,29.50469 c 0.08248,-0.711276 -0.415493,-1.086067 -1.096047,-0.824914 -0.390604,0.149888 -0.52657,1.135872 -0.201468,1.460975 0.415014,0.415015 1.221469,0.01968 1.297515,-0.636061 z M 66.73657,29.18612 c 0.595157,-0.71712 -0.434304,-1.74658 -1.151424,-1.151423 -0.367965,0.305384 -0.467729,1.043561 -0.179932,1.331356 0.287795,0.287797 1.025972,0.188032 1.331356,-0.179933 z M 37.519113,28.624364 c 1.212891,-0.203228 3.390164,-0.707535 4.838384,-1.120682 6.481692,-1.849088 12.439239,-2.140467 12.983618,-0.635018 0.231619,0.640531 0.437111,0.854825 0.716774,0.74748 6.174597,-2.369997 13.970341,-2.985376 18.414359,-1.453589 2.405174,0.82903 2.852827,0.76489 1.767834,-0.253294 -3.692095,-3.464758 -13.963747,-3.97773 -21.509025,-1.074172 -0.25491,0.09809 -0.445641,0.05397 -0.445641,-0.103078 0,-0.300709 2.425658,-1.091918 5.220362,-1.702795 0.98041,-0.214302 3.407311,-0.458815 5.393112,-0.543363 4.670826,-0.198866 5.706928,-0.0077 10.230049,1.887044 0.700986,0.293653 -0.41857,-1.352059 -1.152569,-1.69424 -4.753079,-2.215818 -18.422898,-1.220497 -19.91751,1.450226 -0.204233,0.364944 -0.350233,0.362868 -1.590732,-0.02262 -3.792451,-1.178512 -6.659122,-1.055591 -13.589149,0.582697 -1.820761,0.430435 -4.800188,1.129363 -6.620948,1.553172 -4.326711,1.00711 -4.201755,0.96221 -4.201755,1.509806 0,1.588492 3.347441,1.89711 9.462837,0.872426 z m 22.42157,-7.343 c 3.078743,-0.633225 9.778178,-0.485432 12.268393,0.270646 0.922044,0.279951 -0.779925,-1.567352 -2.112016,-2.292368 -3.431411,-1.867607 -18.180968,-2.581791 -20.733963,-1.003953 -0.287326,0.177575 1.242832,1.55355 3.08883,2.777592 0.742313,0.492212 1.469405,1.157742 1.615759,1.478955 0.266098,0.584024 0.266098,0.584024 2.08814,-0.121571 1.002123,-0.388078 2.705309,-0.887264 3.784857,-1.109301 z m -6.801201,-4.093543 c 4.577538,-0.552311 10.268215,-0.425508 12.66893,0.282295 1.180018,0.347906 -0.236859,-3.600151 -1.87148,-5.214773 -3.60764,-3.5635072 -8.657305,-4.1920749 -14.171839,-1.764071 -2.881442,1.268675 -2.79829,1.144425 -1.873588,2.799625 0.41413,0.741285 0.941672,2.006703 1.172315,2.81204 0.230643,0.805335 0.554461,1.461849 0.719596,1.458918 0.165134,-0.0029 1.675364,-0.171246 3.356066,-0.374034 z"
       id="path207" />
  </g>
</svg>
