<?xml version="1.0" encoding="UTF-8" standalone="no"?>
<svg
   xmlns:dc="http://purl.org/dc/elements/1.1/"
   xmlns:cc="http://creativecommons.org/ns#"
   xmlns:rdf="http://www.w3.org/1999/02/22-rdf-syntax-ns#"
   xmlns:svg="http://www.w3.org/2000/svg"
   xmlns="http://www.w3.org/2000/svg"
   xmlns:sodipodi="http://sodipodi.sourceforge.net/DTD/sodipodi-0.dtd"
   xmlns:inkscape="http://www.inkscape.org/namespaces/inkscape"
   width="60.724976mm"
   height="73.344559mm"
   viewBox="0 0 60.724976 73.344559"
   version="1.1"
   id="svg253"
   inkscape:version="1.0.1 (3bc2e813f5, 2020-09-07)"
   sodipodi:docname="stonks.svg">
  <defs
     id="defs247">
    <clipPath
       clipPathUnits="userSpaceOnUse"
       id="clipPath288">
      <path
         style="fill:none;stroke:#000000;stroke-width:0.264583px;stroke-linecap:butt;stroke-linejoin:miter;stroke-opacity:1"
         d="m 29.985608,105.48925 16.971616,-1.06908 2.463165,-2.74458 4.157739,-0.99218 1.275667,3.44903 0.0945,0.89769 13.4654,-0.0472 17.15067,-0.0945 3.071058,-4.77195 -1.7009,-46.254874 -21.733627,-25.70238 -32.88393,1.133928 -14.930059,33.261906 z"
         id="path290" />
    </clipPath>
  </defs>
  <sodipodi:namedview
     id="base"
     pagecolor="#ffffff"
     bordercolor="#666666"
     borderopacity="1.0"
     inkscape:pageopacity="0.0"
     inkscape:pageshadow="2"
     inkscape:zoom="0.98994949"
     inkscape:cx="158.66668"
     inkscape:cy="139.79198"
     inkscape:document-units="mm"
     inkscape:current-layer="layer1"
     inkscape:document-rotation="0"
     showgrid="false"
     fit-margin-top="0"
     fit-margin-left="0"
     fit-margin-right="0"
     fit-margin-bottom="0"
     inkscape:pagecheckerboard="true"
     inkscape:window-width="1280"
     inkscape:window-height="737"
     inkscape:window-x="-8"
     inkscape:window-y="-8"
     inkscape:window-maximized="1" />
  <metadata
     id="metadata250">
    <rdf:RDF>
      <cc:Work
         rdf:about="">
        <dc:format>image/svg+xml</dc:format>
        <dc:type
           rdf:resource="http://purl.org/dc/dcmitype/StillImage" />
        <dc:title></dc:title>
      </cc:Work>
    </rdf:RDF>
  </metadata>
  <g
     inkscape:label="Layer 1"
     inkscape:groupmode="layer"
     id="layer1"
     transform="translate(-10.003388,-8.3577007)">
    <path
       style="fill:#000000;stroke-width:0.264583"
       d="m 33.8552,123.25037 c -2.16018,-0.61534 -2.294186,-0.85557 -2.294186,-4.1128 0,-2.44916 0.07104,-2.91083 0.529166,-3.43906 0.291042,-0.33557 0.529167,-0.74533 0.529167,-0.91058 0,-0.16525 -0.238125,-0.76751 -0.529167,-1.33838 -1.119767,-2.19635 -0.623498,-5.81808 1.022808,-7.46439 0.833821,-0.83382 0.833821,-0.83382 -2.222712,-8.300984 -1.681093,-4.10694 -3.02157,-7.623771 -2.978836,-7.815181 0.04273,-0.191407 1.309977,-1.659292 2.816094,-3.261966 2.738395,-2.913951 2.738395,-2.913951 2.702777,-6.82113 -0.04505,-4.941409 -0.241057,-6.142853 -1.856798,-11.381182 -3.356647,-10.882442 -3.214961,-17.097946 0.556937,-24.431821 3.952243,-7.684524 10.624172,-11.53383 20.464939,-11.807049 7.571592,-0.21022 11.478847,1.108286 16.755832,5.654262 2.550245,2.196965 4.682776,7.457638 5.077825,12.526319 0.107746,1.382448 0.347184,3.319682 0.532082,4.304964 0.317474,1.691746 0.297469,1.919936 -0.359515,4.101042 -0.382633,1.270291 -0.87811,3.500244 -1.101061,4.955453 -0.941245,6.143537 -5.252265,16.829884 -6.948895,17.225219 -0.399905,0.09318 -1.313746,0.538064 -2.030757,0.988623 -1.055682,0.663377 -1.59122,0.820812 -2.815455,0.827678 -1.511802,0.0085 -1.511802,0.0085 -1.961869,1.259147 -0.83955,2.332982 -0.779944,5.166471 0.137329,6.52821 0.431353,0.640363 0.784275,1.246494 0.784275,1.346959 0,0.100468 0.68461,0.334248 1.521355,0.519515 1.543288,0.341704 24.845264,8.034112 25.0957,8.284552 0.07494,0.0749 -0.287298,0.79839 -0.804979,1.60765 -0.958207,1.49792 -1.13842,2.02599 -0.691412,2.02599 0.676987,0 2.156431,-2.18096 9.691873,-14.287502 4.48352,-7.203281 8.533433,-13.697138 8.999803,-14.430793 0.84795,-1.333915 0.84795,-1.333915 -3.896,-4.07407 -2.609172,-1.507085 -4.798776,-2.828864 -4.865784,-2.937287 -0.125339,-0.202804 28.973814,-12.782093 29.153234,-12.602668 0.15024,0.150238 2.24136,29.054467 2.15179,29.742786 -0.0714,0.548733 -0.48038,0.354891 -5.23683,-2.482141 -2.83766,-1.692547 -5.29617,-3.090934 -5.46338,-3.107529 -0.71385,-0.07085 -12.26565,16.995887 -11.99164,17.716577 0.14141,0.371933 0.2571,2.275837 0.2571,4.230887 0,3.77194 0.0894,4.01483 1.0165,2.76091 0.77702,-1.05098 7.78896,-1.25997 8.72064,-0.25993 0.49733,0.53382 0.49733,0.53382 2.06083,-0.19844 3.57321,-1.67351 10.12264,-0.85558 10.71628,1.33831 0.39965,1.47701 0.16926,4.47323 -0.41222,5.36068 -0.43963,0.67096 -0.43725,0.73114 0.0554,1.39745 2.69464,3.64477 1.55558,8.28542 -2.51909,10.26301 -1.70654,0.82825 -3.13448,0.88473 -12.89143,0.50993 -4.7625,-0.18294 -4.7625,-0.18294 -5.48637,-0.9626 -0.90212,-0.97164 -1.14614,-0.97455 -1.63999,-0.0195 -0.57764,1.11702 -5.565344,1.62786 -7.293433,0.74699 -0.537834,-0.27416 -0.791707,-0.27267 -1.358352,0.008 -0.540864,0.26786 -2.49146,0.32287 -8.712145,0.2457 -9.006858,-0.11172 -8.979503,-0.10509 -8.979503,-2.17764 0,-1.55379 -0.752758,-1.61732 -2.262727,-0.19096 -3.831455,3.61931 -11.639243,3.74292 -14.915163,0.23614 -0.765712,-0.81967 -1.07836,-0.86894 -1.07836,-0.16992 0,1.80312 -1.106699,2.44012 -4.514273,2.59835 -3.936135,0.18278 -6.385526,-1.17808 -7.146608,-3.97058 -0.64339,-2.36067 -0.729779,-2.55711 -0.753647,-1.71363 -0.118464,4.18625 -7.309591,7.07546 -13.337119,5.3585 z m 8.027927,-2.44575 c 4.622762,-2.06537 4.141477,-6.89488 -0.879169,-8.82213 -2.369206,-0.90945 -3.092944,-1.40806 -3.092944,-2.13081 0,-1.20935 2.66592,-1.69539 4.894791,-0.89241 0.582084,0.2097 1.088099,0.38307 1.124479,0.38526 0.592545,0.0357 -0.04394,-3.45631 -0.661458,-3.629 -9.130988,-2.55353 -14.378024,6.42606 -5.438928,9.30798 0.75575,0.24365 1.678485,0.68244 2.050521,0.97508 2.205733,1.73503 -1.538,3.11094 -4.943129,1.81672 -1.863071,-0.70811 -1.788776,-0.75671 -1.788776,1.16997 0,1.8515 -0.07072,1.77696 2.248958,2.37037 1.248344,0.31934 5.309923,-0.0258 6.485655,-0.55103 z m 15.034334,0.34477 c 0.182435,-0.11275 0.308136,-0.88003 0.308136,-1.88086 0,-1.69041 0,-1.69041 -0.74925,-1.42922 -2.083517,0.72632 -2.761797,-0.67373 -2.639422,-5.44809 0.08138,-3.175 0.08138,-3.175 1.735026,-3.25377 1.653646,-0.0788 1.653646,-0.0788 1.653646,-1.78594 0,-1.70716 0,-1.70716 -1.719792,-1.70716 -1.719791,0 -1.719791,0 -1.719791,-2.24896 0,-2.56239 0.15299,-2.46044 -2.524726,-1.6824 -1.949881,0.56656 -1.949881,0.56656 -2.027682,2.18281 -0.0778,1.61625 -0.0778,1.61625 -1.268426,1.74855 -1.67863,0.18651 -1.917419,3.23833 -0.265644,3.39505 1.553909,0.14744 1.588418,0.24816 1.590037,4.64099 0.0021,5.43652 0.461087,6.68258 2.776649,7.53648 0.833932,0.30752 4.322995,0.25899 4.851239,-0.0675 z m 14.125932,-0.156 c 5.38989,-1.58048 6.843551,-10.63956 2.249413,-14.01813 -4.363307,-3.20881 -12.013734,-1.31837 -13.351883,3.29929 -2.208583,7.62134 3.353377,12.99111 11.10247,10.71884 z m -4.812962,-3.3628 c -3.220582,-1.67474 -2.569548,-8.04232 0.888596,-8.69107 2.515571,-0.47193 4.129487,1.20592 4.129487,4.29308 0,3.89316 -2.230173,5.84775 -5.018083,4.39799 z m 56.542319,3.23282 c 4.83793,-1.9728 4.07797,-6.97665 -1.38569,-9.12386 -4.49745,-1.76749 -2.36196,-4.41474 2.24895,-2.78791 0.61868,0.21828 1.16943,0.39687 1.22389,0.39687 0.39416,0 0.0472,-3.40404 -0.36399,-3.57127 -3.28647,-1.33653 -8.97989,0.19163 -10.024,2.69052 -1.22646,2.93534 0.0443,4.96305 4.06828,6.49156 2.27376,0.8637 3.13957,1.60081 2.82947,2.40891 -0.4274,1.11379 -3.75881,1.2311 -6.05955,0.21337 -1.22188,-0.54049 -1.22188,-0.54049 -1.14434,1.36685 0.0775,1.90734 0.0775,1.90734 1.40045,2.23032 1.79085,0.43721 5.79018,0.2622 7.20653,-0.31536 z M 84.213097,115.9631 c 0.144542,-5.63718 0.22842,-5.96223 1.749957,-6.78163 1.07901,-0.58108 2.333889,-0.26587 3.117908,0.7832 0.508627,0.68057 0.567386,1.18853 0.688385,5.95094 0.132292,5.20686 0.132292,5.20686 2.315104,5.28371 2.182813,0.0768 2.182813,0.0768 2.181336,-5.68855 -0.0016,-6.19152 -0.159485,-7.27157 -1.253109,-8.57127 -1.85852,-2.20872 -5.837068,-2.03951 -8.011075,0.34072 -0.788506,0.86331 -0.788506,0.86331 -0.788506,-0.39659 0,-1.25989 0,-1.25989 -2.315104,-1.18344 -2.315104,0.0764 -2.315104,0.0764 -2.385544,7.48121 -0.08496,8.93033 -0.327629,8.11326 2.381371,8.01798 2.186985,-0.0769 2.186985,-0.0769 2.319277,-5.23628 z m 17.932983,1.52135 c 0.0405,-2.00091 0.16703,-3.63802 0.28121,-3.63802 0.18365,0 2.63446,3.66605 4.02839,6.02587 0.6699,1.13409 1.40662,1.38246 4.10068,1.38246 2.71779,0 2.77532,0.43901 -0.54639,-4.16916 -3.33107,-4.62115 -3.31593,-3.71155 -0.13094,-7.86938 2.63479,-3.43958 2.63479,-3.43958 0.32453,-3.51739 -3.26739,-0.11004 -3.11709,-0.20682 -5.45033,3.50921 -1.14496,1.82351 -2.18676,3.31547 -2.31511,3.31547 -0.12899,0 -0.23336,-3.19484 -0.23336,-7.14375 0,-7.143748 0,-7.143748 -2.248955,-7.143748 -2.248958,0 -2.248958,0 -2.248958,11.520078 0,11.52007 0,11.52007 2.182812,11.44323 2.182811,-0.0768 2.182811,-0.0768 2.256421,-3.71487 z m -54.812045,-6.20944 c -0.224073,-0.22408 -1.169659,0.20407 -1.320845,0.59806 -0.08183,0.21325 0.145291,0.94083 0.504725,1.61683 0.359434,0.676 0.678225,1.59831 0.708427,2.04958 0.0302,0.45127 0.0944,-0.29601 0.142666,-1.66063 0.04827,-1.36461 0.03253,-2.53634 -0.03497,-2.60384 z M 59.859606,98.034103 c -0.28344,-5.534877 -0.848826,-8.001069 -1.424644,-6.214237 -0.08207,0.254661 -0.968094,1.832239 -1.968949,3.505729 -1.819738,3.042708 -1.819738,3.042708 -0.596223,3.756821 0.672933,0.392761 1.871382,1.372084 2.663222,2.176264 0.791837,0.80419 1.466866,1.435 1.50006,1.4018 0.0332,-0.0332 -0.04486,-2.11507 -0.173466,-4.626377 z m -11.406103,1.828752 c 0.386265,-0.269404 1.286439,-0.709398 2.000385,-0.977765 1.298086,-0.487942 1.298086,-0.487942 0.264584,-1.38616 -1.975213,-1.716662 -8.311791,-4.31728 -7.573746,-3.108367 0.367599,0.60212 4.424627,5.957257 4.515027,5.959667 0.0503,0.001 0.407485,-0.21797 0.79375,-0.487375 z m 6.250692,-4.410577 c 2.427993,-3.657931 3.105226,-5.441289 3.494653,-9.202484 0.41665,-4.024138 0.412822,-4.043606 -0.903385,-4.592825 -1.649889,-0.688454 -4.303789,-2.555354 -6.684449,-4.70221 -1.236927,-1.115449 -2.990742,-2.394609 -3.897366,-2.842577 -1.745559,-0.862492 -1.911371,-1.27617 -0.511516,-1.27617 1.01604,0 1.274244,0.170796 5.243981,3.468806 7.054601,5.860873 11.077498,6.609236 15.211652,2.829767 1.193398,-1.09101 4.049035,-8.954474 5.234533,-14.414146 0.373711,-1.721069 0.939914,-4.14125 1.258231,-5.378177 0.697,-2.708421 0.719709,-4.236387 0.103069,-6.935198 -0.530569,-2.322123 -0.862367,-2.588678 -2.41485,-1.940009 -1.214601,0.507492 -1.177734,0.510246 -1.177734,-0.08793 0,-0.349068 0.431403,-0.682932 1.452991,-1.124479 1.749795,-0.756291 1.868934,-1.042956 1.317646,-3.170441 -3.791,-14.629956 -26.73644,-17.636702 -36.908343,-4.836433 -5.530795,6.959917 -6.293202,14.73436 -2.630697,26.825742 1.545413,5.102013 1.843403,6.914811 1.843403,11.214182 0,4.509722 0.114773,4.757063 4.289525,9.244126 2.999402,3.223781 4.382614,4.215358 6.940807,4.975609 2.349815,0.698325 3.327834,1.202933 5.265923,2.71695 1.834488,1.433084 2.038289,1.387761 3.471926,-0.772101 z m 2.566733,-19.045164 c -2.45704,-2.688391 -3.769262,-6.401805 -4.27088,-12.086016 -0.395531,-4.482092 -0.676484,-5.723249 -2.055344,-9.079878 -1.964997,-4.783489 -1.898312,-8.179361 0.253288,-12.898437 0.467087,-1.024454 0.979945,-1.785938 1.202827,-1.785938 0.431586,0 0.427861,0.02786 -0.438877,3.283469 -0.994347,3.734919 -0.702196,6.563841 0.952574,9.22384 0.870177,1.398791 1.327544,3.532577 1.515816,7.071858 0.440018,8.271772 2.4584,15.712781 4.625393,17.052057 0.407435,0.251806 0.354904,0.675026 -0.08379,0.675026 -0.203679,0 -0.969134,-0.65519 -1.701009,-1.455981 z m 6.701544,-3.613989 c -0.83634,-0.460518 -2.248958,-1.878801 -2.248958,-2.257975 0,-0.534919 0.821266,-0.406792 1.984375,0.309584 1.204494,0.741868 1.755452,0.798322 3.427283,0.351176 1.394602,-0.372999 1.748853,-0.167656 1.047588,0.607234 -1.088101,1.202339 -3.005751,1.653241 -4.210288,0.989981 z m 2.248958,-2.07378 c -0.218281,-0.141065 -0.866724,-0.258305 -1.440987,-0.260533 -0.692221,-0.0027 -1.383294,-0.239104 -2.05052,-0.701492 -1.187996,-0.82328 -1.315392,-1.294725 -0.278805,-1.031727 0.934582,0.237117 3.866684,0.652748 5.20252,0.737468 1.387044,0.08796 1.447221,0.501086 0.154565,1.061106 -1.238166,0.536414 -1.087438,0.517872 -1.586773,0.195178 z m 2.35666,-4.600578 c 0.537297,-0.647403 0.28715,-0.742555 -2.346973,-0.892746 -1.9568,-0.111572 -2.341063,-0.201091 -2.10162,-0.489604 0.462627,-0.557432 1.906931,-0.707578 3.541742,-0.368194 2.065528,0.428802 2.892065,0.20207 2.694643,-0.739185 -2.012762,-9.596313 -2.44919,-12.087844 -2.07708,-11.857868 0.150212,0.09284 0.950688,2.966635 1.778834,6.386216 1.695857,7.002529 1.723705,6.587649 -0.518443,7.72383 -0.943369,0.478042 -1.228601,0.547815 -0.971103,0.237551 z m 2.194174,-12.385672 c -0.830213,-0.830212 0.504798,-2.235562 1.520962,-1.601097 0.662871,0.41388 0.883608,1.735667 0.262739,1.573308 -0.282246,-0.07381 -0.57985,-0.02633 -0.661344,0.105545 -0.207526,0.335782 -0.746133,0.298468 -1.122357,-0.07776 z M 59.821601,52.856266 c -0.262654,-0.576461 -0.420674,-0.643102 -1.184955,-0.499721 -1.190093,0.223263 -1.166376,-0.330751 0.03566,-0.832993 2.480995,-1.036625 5.307867,0.434038 3.064346,1.594207 -1.098979,0.568304 -1.566029,0.504529 -1.915052,-0.261493 z M 55.90268,50.200997 c 0,-0.541737 0.984041,-1.841179 1.892814,-2.499489 2.054248,-1.488094 3.683264,-1.318562 5.380371,0.559932 1.584221,1.753542 1.253172,2.338356 -0.507151,0.895903 -1.912112,-1.566831 -3.051903,-1.477084 -5.481191,0.431586 -0.943758,0.741503 -1.284843,0.903989 -1.284843,0.612068 z m 42.088703,38.774598 c 2.785697,-4.001823 6.021527,-8.636254 7.190727,-10.298737 2.12583,-3.022693 2.12583,-3.022693 1.51626,-3.516289 -0.77824,-0.630182 -0.023,-1.680556 -7.55482,10.507734 -9.102714,14.730467 -9.101505,14.726997 -1.152167,3.307292 z m 5.007127,-22.489583 c 0.21828,-0.141066 0.27782,-0.256479 0.1323,-0.256479 -0.14553,0 -0.44318,0.115413 -0.66146,0.256479 -0.21828,0.141065 -0.27782,0.256479 -0.13229,0.256479 0.14552,0 0.44317,-0.115414 0.66145,-0.256479 z m 21.14452,-4.65881 c -0.1649,-2.458125 -0.33306,-4.505542 -0.37368,-4.54982 -0.0406,-0.04428 -3.21263,1.30008 -7.04891,2.987458 -3.83628,1.68738 -8.3705,3.681756 -10.07604,4.431951 -3.14355,1.38271 -4.10489,2.012415 -1.49747,0.980897 4.555,-1.802003 17.52237,-6.596581 17.6084,-6.510559 0.0562,0.05616 0.42112,1.720961 0.81102,3.699552 0.3899,1.978591 0.74663,3.559728 0.79272,3.513638 0.0461,-0.04609 -0.0511,-2.094995 -0.21604,-4.553117 z"
       id="path269"
       clip-path="url(#clipPath288)"
       transform="matrix(0.96919082,0,0,0.96919082,-15.978082,-21.460289)" />
  </g>
</svg>
