<?xml version="1.0" encoding="UTF-8" standalone="no"?>
<svg
   xmlns:dc="http://purl.org/dc/elements/1.1/"
   xmlns:cc="http://creativecommons.org/ns#"
   xmlns:rdf="http://www.w3.org/1999/02/22-rdf-syntax-ns#"
   xmlns:svg="http://www.w3.org/2000/svg"
   xmlns="http://www.w3.org/2000/svg"
   xmlns:sodipodi="http://sodipodi.sourceforge.net/DTD/sodipodi-0.dtd"
   xmlns:inkscape="http://www.inkscape.org/namespaces/inkscape"
   width="110.25079mm"
   height="108.99718mm"
   viewBox="0 0 110.25079 108.99718"
   version="1.1"
   id="svg8"
   inkscape:version="1.0.1 (3bc2e813f5, 2020-09-07)"
   sodipodi:docname="woman.svg">
  <defs
     id="defs2">
    <clipPath
       clipPathUnits="userSpaceOnUse"
       id="clipPath71">
      <rect
         style="fill:#ffffff;stroke-width:0.264583"
         id="rect73"
         width="145.14285"
         height="137.20535"
         x="-7.9375"
         y="6.0476193" />
    </clipPath>
    <clipPath
       clipPathUnits="userSpaceOnUse"
       id="clipPath90">
      <rect
         style="fill:#ffffff;stroke-width:0.264583"
         id="rect92"
         width="126.41849"
         height="122.14217"
         x="3.4745038"
         y="1.6036172" />
    </clipPath>
  </defs>
  <sodipodi:namedview
     id="base"
     pagecolor="#ffffff"
     bordercolor="#666666"
     borderopacity="1.0"
     inkscape:pageopacity="0.0"
     inkscape:pageshadow="2"
     inkscape:zoom="0.7"
     inkscape:cx="230.33645"
     inkscape:cy="262.95509"
     inkscape:document-units="mm"
     inkscape:current-layer="layer1"
     inkscape:document-rotation="0"
     showgrid="false"
     inkscape:pagecheckerboard="true"
     fit-margin-top="0"
     fit-margin-left="0"
     fit-margin-right="0"
     fit-margin-bottom="0"
     inkscape:window-width="1264"
     inkscape:window-height="760"
     inkscape:window-x="0"
     inkscape:window-y="0"
     inkscape:window-maximized="0" />
  <metadata
     id="metadata5">
    <rdf:RDF>
      <cc:Work
         rdf:about="">
        <dc:format>image/svg+xml</dc:format>
        <dc:type
           rdf:resource="http://purl.org/dc/dcmitype/StillImage" />
        <dc:title></dc:title>
      </cc:Work>
    </rdf:RDF>
  </metadata>
  <g
     inkscape:label="Layer 1"
     inkscape:groupmode="layer"
     id="layer1"
     transform="translate(-4.4078343,-3.632695)">
    <path
       style="fill:#000000;stroke-width:0.309869"
       d="m 13.768773,241.85125 c -1.559026,-1.55901 -1.669822,-9.17213 -0.133485,-9.17213 0.92007,0 0.92007,0 1.007075,3.76318 0.178558,7.72309 4.270238,6.88111 4.270238,-0.87873 0,-2.9256 0,-2.9256 0.852141,-2.82755 1.006521,0.11579 1.313707,6.13085 0.421157,8.24673 -0.930561,2.20599 -4.585043,2.70057 -6.417126,0.8685 z m 9.196588,0.66167 c -1.766335,-0.90123 -0.879533,-2.42705 0.935018,-1.60878 2.912894,1.31353 3.948953,-1.1098 1.058992,-2.47697 -3.843648,-1.81835 -3.293093,-5.74805 0.805304,-5.74805 1.667735,0 2.444002,0.45784 2.444002,1.44145 0,0.85159 0.129601,0.83814 -2.275111,0.23606 -2.31758,-0.58026 -1.963339,1.45964 0.46648,2.6862 2.032202,1.02585 2.596531,1.92469 2.277179,3.62698 -0.351721,1.87484 -3.597137,2.92204 -5.711864,1.84311 z m 7.722269,-4.72095 c 0,-5.17451 0,-5.17451 2.764262,-5.06621 7.53054,0.29503 7.53054,9.83739 0,10.13241 -2.764262,0.1083 -2.764262,0.1083 -2.764262,-5.0662 z m 5.237592,2.49506 c 1.96914,-1.96915 0.69888,-5.59329 -2.09162,-5.96758 -1.28676,-0.17257 -1.28676,-0.17257 -1.28676,3.47252 0,3.94612 1.10859,4.76482 3.37838,2.49506 z m 8.4656,2.1354 c -0.70102,-0.49102 -0.957,-1.68671 -0.3611,-1.68671 0.18017,0 0.9323,0.15227 1.67139,0.33838 1.64045,0.41306 2.64906,0 2.64906,-1.086 0,-0.95864 -0.63176,-1.44049 -2.15693,-1.64506 -1.59001,-0.21326 -1.93,-1.63562 -0.39097,-1.63562 1.0039,0 2.23803,-0.77259 2.23803,-1.40107 0,-0.82806 -1.16874,-1.15857 -2.22809,-0.63009 -1.43148,0.71413 -1.85802,0.62526 -1.74332,-0.36313 0.28153,-2.42616 5.73847,-2.14464 5.86734,0.30268 0.0592,1.12318 -0.0585,1.59898 -0.5105,2.06515 -0.36144,0.37277 -0.31142,0.57341 0.33423,1.34074 2.4067,2.86019 -2.18979,6.62764 -5.36914,4.40073 z m 8.15644,-0.0937 c -0.30513,-0.96137 0.13254,-1.59301 1.10384,-1.59301 0.81794,0 0.89646,0.095 0.89646,1.08454 0,1.26474 -1.62885,1.67878 -2.0003,0.50847 z m 4.67597,-0.0662 c -1.14157,-0.89797 -1.13854,-2.66961 0.006,-3.81467 0.82299,-0.82298 0.82299,-0.82298 0.15494,-1.5341 -1.74237,-1.85466 -0.28921,-4.23468 2.58557,-4.23468 3.09147,0 4.51314,3.02427 2.09148,4.44914 -0.36598,0.21536 -0.26898,0.43304 0.51004,1.14456 2.97343,2.71579 -2.12919,6.5221 -5.34856,3.98975 z m 4.19877,-1.60899 c 0.36754,-0.57865 0.31225,-0.7677 -0.42562,-1.45512 -1.02731,-0.95709 -2.73039,-0.38343 -2.73039,0.91969 0,1.16068 2.49049,1.58322 3.15601,0.53543 z m -0.62399,-4.45899 c 1.1595,-1.04934 -6.2e-4,-2.37186 -1.48668,-1.69477 -0.86534,0.39428 -0.92864,0.86082 -0.22265,1.64095 0.63354,0.70002 0.98311,0.71105 1.70933,0.0538 z m 4.66392,6.22784 c -0.70102,-0.49102 -0.957,-1.68671 -0.3611,-1.68671 0.18017,0 0.9323,0.15227 1.67139,0.33838 1.64044,0.41306 2.64906,0 2.64906,-1.086 0,-0.95864 -0.63176,-1.44049 -2.15694,-1.64506 -1.59001,-0.21326 -1.93,-1.63562 -0.39097,-1.63562 1.0039,0 2.23804,-0.77259 2.23804,-1.40107 0,-0.82806 -1.16875,-1.15857 -2.2281,-0.63009 -1.35672,0.67682 -1.8002,0.60663 -1.8002,-0.28489 0,-1.48926 3.60942,-2.34314 5.19882,-1.22987 0.80982,0.56721 0.98138,2.93821 0.26128,3.61087 -0.36061,0.33686 -0.31217,0.53623 0.30987,1.27549 2.40061,2.85293 -2.21568,6.59875 -5.39115,4.37457 z M 14.292037,115.29256 c -2.083956,-4.08489 -3.575001,-15.868946 -2.337801,-18.476146 0.456049,-0.96105 0.428406,-1.15949 -0.58928,-4.23007 C 9.9214459,88.23096 9.8013379,86.949456 10.255883,80.752968 10.559907,76.608431 10.568176,74.212507 10.293003,69.997812 9.3076249,54.905259 14.912529,29.74285 20.565031,23.883025 c 3.302732,-3.423871 7.952796,-5.524573 11.671945,-5.272888 0.596496,0.04036 1.819826,-0.15711 2.718506,-0.438834 7.18259,-2.25164 16.41756,0.692195 20.65426,6.583964 1.94884,2.71015 3.14943,4.890231 6.97473,12.664985 1.54011,3.130209 2.86551,5.500708 2.94534,5.267776 0.0798,-0.232929 0.8572,-3.630653 1.72749,-7.550498 3.21096,-14.462351 3.52209,-15.418313 6.20227,-19.056955 4.74222,-6.4381022 11.78309,-10.846425 17.32019,-10.844262 3.25896,0.0012 3.59679,0.128113 6.73766,2.5296818 1.60232,1.22517 1.60232,1.22517 2.853938,0.586642 4.43937,-2.2647968 10.68946,3.4407312 15.22538,13.8988192 3.15871,7.282759 4.37339,28.4382 2.2906,39.894131 -1.0961,6.028812 -1.0961,6.028812 0.007,17.243668 2.11907,21.551425 3.58533,36.623775 3.58533,36.855435 0,0.12842 -7.25259,0.23349 -16.11686,0.23349 -16.116858,0 -16.116858,0 -15.952318,-1.16201 2.30586,-16.284876 3.20088,-30.85994 1.43246,-23.327226 -3.87094,16.488596 -5.86636,21.332976 -3.89816,9.463776 0.15362,-0.92642 0.15362,-0.92642 -0.79732,0.15493 -1.08228,1.23072 -1.1015,1.44653 0.33154,-3.721616 0.98368,-3.54753 3.20338,-9.447886 4.9995,-13.289526 0.78274,-1.674199 1.97066,-6.773756 1.65415,-7.101068 -0.0501,-0.05179 -0.55997,0.19171 -1.13308,0.541112 -1.11936,0.682428 -2.28133,0.829381 -2.59137,0.327727 -0.10533,-0.170428 -0.33095,-0.309869 -0.50138,-0.309869 -0.17043,0 -0.22622,0.135345 -0.12398,0.300769 0.5229,0.846076 -1.32621,2.92338 -2.85931,3.212175 -0.91185,0.171769 -1.21551,1.7e-4 -3.25363,-1.838652 -2.76147,-2.491451 -2.5499,-3.755782 -1.94956,11.650083 0.41132,10.555475 0.58344,12.688605 1.4939,18.514675 1.02902,6.58472 1.02902,6.58472 -11.58516,6.58472 -12.61419,0 -12.61419,0 -12.45278,-3.64096 0.0888,-2.00253 0.032,-4.12864 -0.12616,-4.72469 -0.33148,-1.2492 -0.24345,-1.3712 -3.6327,5.03456 -1.45354,2.7472 -2.65835,4.16844 -2.65835,3.13588 0,-0.16412 3.16637,-6.21104 7.28051,-13.90383 14.61866,-27.334585 14.37592,-26.762343 10.92327,-25.751188 -1.04898,0.307208 -2.20294,0.983048 -3.25259,1.90493 -1.91585,1.682661 -1.97156,1.591956 -0.56594,-0.921513 1.85157,-3.310915 2.39741,-3.531009 6.86869,-2.769571 4.71704,0.80329 5.25061,0.298534 2.93148,-2.773134 -1.18828,-1.573859 -1.53396,-3.062437 -0.69194,-2.979668 0.11633,0.01144 2.31167,2.625959 4.87852,5.810047 5.22377,6.479895 5.37565,6.581436 7.05837,4.718865 1.57553,-1.743916 1.72801,-1.282242 -3.09401,-9.368145 -3.03579,-5.09063 -3.14749,-5.371018 -2.49515,-6.263156 0.5127,-0.701157 0.73935,-0.422779 1.86676,2.292775 3.41538,8.226503 6.55262,12.38838 8.39334,11.134646 1.46614,-0.998603 1.18807,-2.236087 -2.27685,-10.13256 -1.34064,-3.055289 -1.55135,-4.402749 -0.7876,-5.036602 0.66098,-0.548561 0.77898,-0.333425 1.22487,2.23311 0.42865,2.467302 3.84309,11.44653 4.42661,11.641038 2.03887,0.67962 2.84776,-2.31648 1.93198,-7.155979 -1.49941,-7.923795 -0.98774,-11.1689 1.54717,-9.812265 0.66388,0.355299 0.58208,0.931228 -0.13226,0.931228 -0.61634,0 -1.19933,0.854477 -0.97747,1.432643 0.17406,0.453587 0.2562,0.459477 0.73188,0.05247 0.36373,-0.311226 2.793148,-0.718735 7.564778,-1.268911 8.35073,-0.962853 11.0451,-2.042995 9.96337,-3.994195 -0.43921,-0.792236 -4.32073,-0.56733 -4.01378,0.232569 0.2959,0.771097 -0.37032,0.781258 -1.19367,0.01822 -0.66202,-0.613541 -1.26648,-0.786563 -3.35251,-0.959625 -1.55455,-0.128968 -3.75071,-0.612215 -5.64356,-1.241819 -3.929828,-1.307149 -5.428358,-1.546796 -6.813548,-1.08964 -1.19544,0.394529 -1.18696,0.930785 0.0147,0.930785 0.41601,0 0.75638,0.139441 0.75638,0.309869 0,0.51201 -3.34833,0.357118 -4.43102,-0.204978 -1.43326,-0.744095 -3.32066,-0.649858 -5.07286,0.253284 -1.75099,0.902522 -14.71935,9.069486 -16.06876,10.119481 -1.94972,1.517098 -4.49368,4.203072 -5.29057,5.58591 -1.9933,3.45893 -4.69565,6.377978 -20.26999,21.895413 -11.19569,11.154776 -17.026921,17.192096 -18.177964,18.820406 -1.933775,2.7356 -2.129375,2.90694 -2.740035,2.40013 -0.660417,-0.54809 -0.08847,-1.43056 2.863372,-4.4179 2.697174,-2.72963 3.18569,-3.57817 3.18569,-5.53349 0,-1.14484 -0.05359,-1.22324 -0.697205,-1.01976 -1.450668,0.45864 -4.586316,2.08952 -5.261818,2.73673 -0.38674,0.37054 -1.486714,1.33165 -2.444386,2.1358 -1.763617,1.48091 -2.563866,2.89935 -4.215926,7.47274 -0.702973,1.94603 -1.138848,2.06982 -1.917043,0.54443 z M 40.843302,93.470044 c 1.56026,-2.347459 0.51145,-8.800302 -1.92272,-11.829518 -0.74802,-0.930887 -0.80408,-0.544802 -0.47138,3.246521 0.17092,1.947726 0.22219,4.170303 0.11393,4.939061 -0.36893,2.619856 -1.36716,6.532996 -2,7.840156 -0.73836,1.52513 2.75148,-1.89626 4.28017,-4.19622 z m -5.30385,2.30162 c 2.27245,-3.63877 2.34034,-15.171028 0.10613,-18.027123 -0.606,-0.774673 -0.606,-0.774673 -0.61289,0.707506 -0.007,1.551729 -0.85413,3.569287 -2.51601,5.993768 -0.876402,1.278561 -0.876402,1.278561 0.24234,4.022626 0.61531,1.509236 1.34219,3.896553 1.61529,5.305143 0.52944,2.73071 0.61547,2.87824 1.16514,1.99808 z M 15.19943,80.907475 c 1.718698,-2.732213 2.282971,-3.369654 3.936552,-4.447004 4.833458,-3.149123 5.216868,-4.288589 3.380624,-10.046997 -2.464573,-7.728831 -1.955548,-11.658719 3.348676,-25.853234 2.097712,-5.613636 2.411626,-6.730665 2.699524,-9.605944 0.28932,-2.889493 1.408904,-8.502321 2.006676,-10.060083 0.210463,-0.548459 0.178652,-0.547703 -0.791465,0.01881 -1.582481,0.924136 -2.018016,1.808155 -3.409525,6.920439 -0.715711,2.629463 -2.006087,7.091579 -2.867502,9.915813 -0.861414,2.824232 -2.091652,7.156866 -2.733862,9.628073 -0.642209,2.471206 -1.395988,5.113513 -1.675064,5.871791 -0.767072,2.084217 -1.206352,7.108799 -1.037298,11.864832 0.254113,7.14897 -0.369546,9.48336 -3.958331,14.816274 -2.56087,3.80545 -3.006643,5.789651 -1.925488,8.570628 0.697205,1.793371 0.697205,1.793371 0.858702,-1.305321 0.161497,-3.098692 0.161497,-3.098692 2.167781,-6.288077 z m 1.500536,3.388007 c 1.650888,-3.137335 4.233246,-5.04683 8.725588,-6.452028 5.404179,-1.690423 5.366834,-1.479966 1.413704,-7.966745 -1.817615,-2.982566 -3.537149,-6.092772 -3.821189,-6.911573 -0.284039,-0.818799 -0.562891,-1.267421 -0.61967,-0.996933 -0.05678,0.270485 0.460378,2.071785 1.149241,4.002884 2.197855,6.161293 1.716874,7.903792 -3.127878,11.331686 -2.307474,1.632648 -2.397828,1.746308 -3.640268,4.579268 -2.10557,4.801036 -2.156988,6.361432 -0.07953,2.413441 z m 35.146206,-0.950183 c 2.54645,-2.45584 2.54645,-2.45584 0.21763,-2.433415 -3.77765,0.03637 -4.45231,-0.520636 -5.90059,-4.871623 -2.48285,-7.459097 0.35288,-14.690864 5.46027,-13.924963 0.97835,0.14671 1.51314,0.04214 2.32939,-0.455474 0.58272,-0.355246 1.34999,-0.646424 1.70505,-0.647059 0.98479,-0.0019 1.10351,-0.328579 0.34834,-0.958925 -0.38187,-0.31875 -0.50987,-0.575517 -0.28977,-0.581271 2.15752,-0.05642 3.84414,3.414758 3.46315,7.127403 -0.264,2.572609 -0.23727,3.327193 0.15921,4.495024 0.26207,0.771885 0.48057,1.921459 0.48556,2.554608 0.0257,3.254857 1.73444,-0.488006 1.96234,-4.2983 0.11634,-1.945201 0.43111,-5.837505 0.6995,-8.649567 0.71939,-7.537705 -1.55521,-17.345876 -3.25154,-14.020781 -0.3575,0.700753 -0.80071,1.367242 -0.98491,1.481085 -0.61185,0.378139 -0.66051,-0.09982 -0.0976,-0.958891 0.55212,-0.842645 0.55146,-0.845589 -0.10981,-0.491691 -1.05013,0.562013 -2.19207,0.43352 -2.57941,-0.290245 -0.39992,-0.747252 -0.0973,-1.265887 0.34092,-0.584224 0.25719,0.400097 0.33033,0.399 0.59815,-0.009 0.69976,-1.065975 -0.10083,-1.268375 -1.57426,-0.397993 -0.98044,0.57917 -1.16796,1.017743 -0.43515,1.017743 0.25564,0 0.46481,0.139442 0.46481,0.30987 0,0.170428 -0.41833,0.309869 -0.92961,0.309869 -2.50412,0 -0.31622,-3.019502 2.8672,-3.956999 2.4385,-0.718124 2.95319,-2.860123 0.68724,-2.860123 -2.75867,0 -6.0106,2.617291 -6.20938,4.997555 -0.1794,2.148288 3.08224,9.099506 4.60973,9.824287 0.6755,0.320519 0.84887,0.592554 0.77467,1.21558 -0.10508,0.882457 -0.87025,1.36449 -0.87025,0.548229 0,-0.279836 -0.41244,-1.023522 -0.91654,-1.652634 -1.92431,-2.401539 -4.43138,-8.384691 -4.27972,-10.213592 0.44394,-5.353296 8.53147,-8.923494 8.936,-3.944752 0.13707,1.686928 0.52736,2.966864 1.75581,5.758076 2.44184,5.548182 2.71862,7.646449 1.95868,14.848224 -0.53794,5.098011 -0.83141,9.297138 -0.64889,9.284867 2.4893,-0.167363 4.89046,-10.936767 4.05744,-18.197916 -1.48214,-12.919241 -18.98534,-36.42274 -23.78296,-31.936008 -1.52436,1.425581 -1.45317,1.649573 0.5279,1.661001 1.45702,0.0084 2.2404,0.234069 4.11421,1.185166 2.20954,1.121506 5.14731,3.303624 3.78497,2.811406 -4.06162,-1.467482 -5.59917,-1.736962 -8.83127,-1.547831 -7.49308,0.438471 -8.12907,1.199739 -9.5993,11.490126 -0.50894,3.562101 -1.287064,8.103001 -1.729176,10.090886 -0.76375,3.434079 -0.780294,3.693629 -0.331737,5.204089 0.363973,1.225629 0.405303,1.997615 0.180437,3.370503 -0.76732,4.684822 -0.490811,6.390773 1.687466,10.411009 1.77868,3.282726 2.97518,6.577283 2.97518,8.192107 0,0.667821 2.19047,4.814429 3.19732,6.052622 0.56878,0.699453 9.47571,5.994385 10.21449,6.07224 0.1333,0.01404 1.38827,-1.079584 2.78883,-2.430298 z m -7.44886,-3.199272 c -0.87779,-1.095669 -2.17197,-4.385541 -1.36525,-3.470535 0.59306,0.672661 2.20317,3.857872 1.95014,3.857872 -0.15101,0 -0.41421,-0.174302 -0.58489,-0.387337 z m 15.77646,-10.592165 c 0.10051,-1.990392 0.36967,-3.072523 0.65389,-2.628921 0.23995,0.374496 -0.17675,4.932086 -0.45094,4.932086 -0.20089,0 -0.27614,-0.853894 -0.20295,-2.303165 z m -16.77999,-3.661817 c 0.002,-2.670369 0.0764,-3.012142 1.09651,-5.000083 2.13675,-4.16382 2.79399,-4.404009 0.85006,-0.310659 -1.01404,2.135293 -1.16554,2.764309 -1.27643,5.299937 -0.16307,3.728296 -0.67211,3.736502 -0.67014,0.01081 z m 9.00667,-5.287428 c -0.43715,-1.149782 -1.93247,-1.86663 -2.93803,-1.408467 -0.97914,0.446128 -2.2438,-0.280527 -2.53964,-1.459245 -0.22932,-0.91368 0.85128,-2.302944 1.79127,-2.302944 0.82403,0 0.69208,0.587037 -0.20894,0.929607 -0.80385,0.305624 -0.90452,0.540567 -0.58659,1.369067 0.12367,0.32227 0.57472,0.490802 1.31694,0.492057 0.62087,9.3e-4 1.52826,0.210212 2.01642,0.464804 1.2072,0.629598 1.5948,0.588203 2.91924,-0.311778 1.3039,-0.886022 1.67081,-0.96841 1.4217,-0.31924 -0.0961,0.250489 -0.64952,0.627104 -1.22976,0.836923 -0.58024,0.209818 -1.07278,0.458058 -1.09453,0.551641 -0.0217,0.09358 -0.0726,0.488307 -0.1131,0.877165 -0.11081,1.065188 -0.41382,1.177733 -0.75498,0.28041 z m -17.97161,-6.592522 c 0.20404,-0.24585 0.923,-0.439007 1.64197,-0.441133 0.77403,-0.0022 2.25649,-0.430489 3.75478,-1.084542 2.80442,-1.224228 2.63707,-1.173549 2.63707,-0.798533 0,0.6467 -4.55589,2.331366 -7.06469,2.612358 -1.1214,0.125603 -1.27469,0.08003 -0.96913,-0.28815 z m 0.92292,-3.45185 c -1.37832,-0.486621 -1.37832,-0.486621 0.15493,-1.234373 0.84329,-0.411261 2.15543,-1.087641 2.91586,-1.503064 2.33625,-1.276295 5.89932,-0.574547 5.89932,1.161873 0,0.446134 -0.69349,0.268266 -1.13216,-0.290375 -0.38546,-0.490879 -0.41806,-0.456558 -0.34403,0.362156 0.14806,1.637476 -4.48304,2.566786 -7.49392,1.503783 z m 3.94693,-0.53537 c 0.0927,-0.09271 -0.273,-0.16856 -0.81269,-0.16856 -0.53969,0 -0.98125,0.142168 -0.98125,0.315931 0,0.308056 1.45832,0.188261 1.79394,-0.147371 z m 1.84057,-1.285381 c -0.10297,-0.102966 -0.37023,-0.113973 -0.59392,-0.02445 -0.24719,0.09892 -0.17377,0.172343 0.18721,0.18721 0.32666,0.01345 0.50967,-0.05978 0.40671,-0.162749 z m 4.29889,-0.837124 c -0.68229,-3.636956 -7.65804,-4.947476 -11.66465,-2.191413 -1.822845,1.253898 -1.996734,0.993614 -0.37452,-0.560584 1.66088,-1.591238 2.65964,-2.001665 5.81005,-2.387564 3.63914,-0.445766 3.41967,-0.47142 4.32563,0.50562 0.78721,0.848973 0.78721,0.848973 0.78721,0.09296 0,-2.027266 1.33089,1.297268 1.76275,4.403309 0.2007,1.443507 -0.37835,1.566826 -0.64647,0.137672 z m 12.30573,-11.138027 c -0.94618,-1.483846 -3.00646,-5.601874 -3.33314,-6.662187 -0.52907,-1.717162 0.42922,-0.37924 1.89888,2.651141 0.88392,1.82261 1.90856,3.767024 2.27698,4.320915 0.36842,0.553891 0.51847,1.007075 0.33344,1.007075 -0.18503,0 -0.7143,-0.592625 -1.17616,-1.316944 z M 20.83877,84.591934 c 1.125828,-0.387343 3.113066,-0.666882 5.795453,-0.815235 8.433819,-0.466437 9.787209,-6.751448 3.133917,-14.55356 -1.513544,-1.774884 -3.159786,-4.748116 -3.599903,-6.501681 -0.113039,-0.450383 0.328151,-5.586046 0.980424,-11.412581 1.661846,-14.844729 1.467948,-15.693792 -1.67784,-7.34715 -4.284601,11.368226 -3.693977,16.730735 2.833259,25.724307 4.256902,5.865389 3.744037,7.755508 -2.730856,10.064272 -4.381796,1.562425 -5.348818,2.020929 -5.838496,2.768272 -0.430524,0.657062 -0.988169,2.662823 -0.740323,2.662823 0.07207,0 0.902039,-0.26526 1.844365,-0.589467 z m -5.242252,-9.946085 c 1.081369,-1.873921 1.439024,-4.397304 1.09162,-7.701786 -0.379746,-3.612129 0.289839,-10.374968 1.446408,-14.608794 0.25606,-0.937354 0.959111,-3.817052 1.562335,-6.399329 0.603223,-2.582273 1.653725,-6.347183 2.334449,-8.366467 1.740253,-5.162241 3.322263,-11.573084 2.855903,-11.573084 -0.199349,0 -3.317888,6.658463 -4.424732,9.447341 -0.97368,2.453352 -2.09241,7.478209 -2.794872,12.55337 -0.200508,1.448639 -0.692675,3.896986 -1.093704,5.440773 -0.401028,1.543787 -0.880939,3.774845 -1.066468,4.957907 -0.317992,2.027734 -1.451507,6.96888 -2.808555,12.242872 -0.415654,1.615382 -0.603423,3.384655 -0.603423,5.685814 0,3.553531 0.666041,3.234189 3.501039,-1.678617 z m 38.631014,3.346243 c 2.66378,-0.456787 3.58498,-1.157122 4.09349,-3.112031 0.50034,-1.923451 -0.0444,-2.707634 -1.0237,-1.473688 -1.417,1.785463 -2.13994,2.383826 -3.30006,2.731407 -1.70476,0.510757 -3.63096,0.464918 -4.09774,-0.09752 -0.21217,-0.255642 -0.5631,-0.464804 -0.77985,-0.464804 -0.21675,0 -0.8463,-0.422426 -1.39899,-0.938724 -1.28845,-1.203585 -1.4277,-1.02505 -0.5902,0.756657 0.53869,1.146017 0.75984,1.364732 1.097,1.084914 0.33237,-0.275839 0.48773,-0.178339 0.72963,0.457884 0.32921,0.865893 0.79067,1.050807 1.05067,0.421017 0.0969,-0.234658 0.24343,-0.112517 0.37183,0.309869 0.24823,0.816648 0.73915,0.858114 3.84792,0.325019 z m 0.0101,-2.952067 c 2.64461,-1.663016 2.83692,-2.592574 1.1798,-5.702647 -1.46996,-2.758818 -1.85475,-2.929546 -3.6295,-1.610384 -0.61258,0.455331 -1.15355,0.85532 -1.20216,0.88886 -0.0486,0.03354 0.20904,0.855868 0.57254,1.827395 0.83108,2.221266 0.62666,2.475817 -0.5242,0.652742 -1.66384,-2.635682 -4.1432,-2.528842 -4.1432,0.178541 0,3.264329 4.81884,5.606645 7.74672,3.765493 z m 3.40857,-6.19744 c -0.14999,-2.619547 -0.18229,-2.71547 -1.01195,-3.005948 -2.03068,-0.710979 -1.882,1.586726 0.32441,5.013315 0.73989,1.149057 0.84988,0.827936 0.68754,-2.007367 z m 42.06199,2.233339 c 1.635008,-0.81565 2.335828,-2.781599 1.613348,-4.52581 -0.57447,-1.386884 -1.913008,-1.285436 -1.511498,0.114559 0.378768,1.320718 0.367478,2.937721 -0.0222,3.178564 -0.36537,0.225811 -1.01961,-1.307391 -0.74646,-1.749345 0.15427,-0.249621 -0.33835,-1.945743 -0.69895,-2.406528 -1.00788,-1.287878 -1.62849,2.566612 -0.73144,4.54285 0.66803,1.471698 0.76445,1.510581 2.09722,0.84571 z M 30.682084,65.986022 c -1.812398,-4.19503 -1.697654,-2.359502 -0.901769,-14.425426 0.179867,-2.726849 0.590738,-6.003715 0.913048,-7.281926 0.322307,-1.27821 0.947763,-4.833959 1.389897,-7.901664 1.359962,-9.436006 1.646342,-10.33717 4.103752,-12.913506 1.88922,-1.980647 1.57901,-3.354625 -0.7574,-3.354625 -3.656219,0 -5.534147,5.091395 -5.809264,15.749946 -0.120768,4.678951 -0.438424,8.660317 -1.08781,13.634244 -1.66793,12.775389 -1.705459,13.26681 -1.087019,14.233698 4.494844,7.027368 5.642733,7.828643 3.236565,2.259259 z M 14.888533,55.275218 c 1.389968,-5.622031 2.725667,-11.787244 2.968221,-13.700472 0.502275,-3.96187 1.769695,-7.544305 5.2235,-14.76451 2.385958,-4.987865 2.387865,-5.023745 0.15378,-2.893432 -3.481879,3.320149 -5.430643,7.934997 -7.429224,17.593064 -0.478388,2.311792 -1.088409,4.961173 -1.355603,5.887515 -1.681717,5.830399 -3.327111,19.338935 -2.220808,18.232631 0.07311,-0.07311 1.270166,-4.732762 2.660134,-10.354796 z m 40.119379,9.70042 c 0.76937,-0.205778 1.39886,-0.48466 1.39886,-0.619738 0,-0.323367 -0.50833,-0.300167 -2.01415,0.09192 -0.68171,0.177509 -2.07612,0.433984 -3.09869,0.569949 -1.85922,0.24721 -1.85922,0.24721 0.22795,0.28961 1.14795,0.0233 2.71666,-0.125965 3.48603,-0.331741 z m 29.01021,-10.809479 c 0.90588,-0.639626 0.97214,-3.484315 0.0974,-4.18272 -0.46208,-0.368949 0.14768,-1.064747 2.37612,-2.711377 1.93677,-1.431112 2.85844,-1.602284 4.45801,-0.827939 0.95461,0.462117 1.67687,0.612221 2.29382,0.476715 1.11346,-0.244555 1.90053,0.718577 2.73593,3.34795 0.30547,0.961444 0.73232,1.750002 0.94856,1.752348 0.21623,0.0025 1.38391,0.350412 2.59483,0.773483 1.210918,0.42307 2.337008,0.685579 2.502418,0.583353 0.74815,-0.462383 3.02449,-6.620348 2.44726,-6.620348 -0.11439,0 -0.51789,0.217069 -0.89666,0.482373 -1.24517,0.872148 -0.82981,-0.356864 0.66495,-1.967527 2.92855,-3.155649 4.88969,-12.293164 3.73475,-17.401338 -0.21386,-0.945895 -0.62341,-2.902849 -0.91012,-4.348785 -1.13291,-5.713644 -3.08022,-7.751641 -7.406698,-7.751641 -1.59064,0 -2.31665,-0.178971 -3.71947,-0.9169 -3.53537,-1.85971 -6.77067,-1.724313 -8.74878,0.366139 -1.7881,1.889644 -3.4939,4.753449 -3.94426,6.621879 -0.86048,3.569848 -1.08791,4.599996 -1.027,4.6518 0.0339,0.02882 1.73493,0.210856 3.78007,0.404494 5.78062,0.547315 7.56377,4.271927 5.12105,10.69677 -0.27188,0.715119 -0.22852,0.796268 0.42553,0.796268 0.40055,0 1.13192,0.08073 1.62527,0.179402 0.89701,0.179399 0.89701,0.179399 1.46169,-2.614174 1.21549,-6.013225 2.77856,-7.547041 6.442218,-6.321669 3.16452,1.058423 5.22067,2.263851 5.22067,3.06064 0,0.602534 -0.24438,0.538227 -1.2863,-0.338498 -4.35488,-3.664386 -9.483098,-0.341578 -10.030308,6.499103 -0.0682,0.85214 -0.13258,1.619066 -0.14314,1.70428 -0.0106,0.08521 -0.26347,-0.162461 -0.56203,-0.550393 -1.49028,-1.936366 -5.3162,-0.189085 -5.34075,2.439095 -0.009,0.983683 -0.04,1.015305 -0.45463,0.467472 -0.39857,-0.526545 -0.33655,-0.784049 0.59712,-2.478953 2.06947,-3.756761 2.62752,-9.598932 1.0001,-10.469903 -0.47053,-0.251819 -0.66935,-0.248481 -0.7564,0.0127 -0.0693,0.207966 -0.84336,0.359923 -1.87403,0.367905 -1.75593,0.0136 -1.75593,0.0136 -0.54837,0.443946 2.15211,0.766967 3.13601,2.821598 1.71528,3.581952 -1.64098,0.878225 -6.87283,-0.300388 -7.0583,-1.590066 -0.21714,-1.509946 -1.04373,-1.934111 -1.63093,-0.836913 -1.07177,2.002619 -1.25547,6.457069 -0.44786,10.859715 0.086,0.468677 0.0415,0.85214 -0.0987,0.85214 -0.34865,0 -1.23544,-2.113726 -1.36501,-3.253626 -0.14294,-1.257397 -0.27841,-0.852776 -1.62741,4.860543 -1.21468,5.144435 -1.10443,6.814082 0.6776,10.261565 0.87397,1.690783 3.30883,1.214331 6.95654,-1.361255 z m 6.17357,-11.118388 c -1.29187,-1.206789 -0.93345,-1.821743 0.44776,-0.76824 0.57121,0.435685 1.11603,0.994007 1.2107,1.240713 0.29169,0.760143 -0.61565,0.50165 -1.65846,-0.472473 z m 3.55604,0.613944 c -0.22805,-0.368983 0.35714,-1.24226 0.83245,-1.24226 0.41157,0 0.17398,1.320027 -0.26351,1.463965 -0.19741,0.06495 -0.45344,-0.03481 -0.56894,-0.221705 z m 1.50312,-1.299964 c -0.0313,-1.19386 0.002,-1.251431 0.40423,-0.70119 0.47812,0.653873 0.44681,1.733547 -0.0551,1.898367 -0.17659,0.05799 -0.33006,-0.468206 -0.34917,-1.197177 z m 5.149158,-4.512866 c -0.917768,-0.468677 -1.725178,-1.038028 -1.794248,-1.265227 -0.096,-0.315877 0.10126,-0.295773 0.83842,0.08543 0.932338,0.482131 0.964008,0.476935 0.964008,-0.158195 0,-0.396105 0.24594,-0.721019 0.61974,-0.81877 1.33107,-0.348082 0.51264,-0.709994 -1.626808,-0.719377 -2.0429,-0.009 -2.19202,-0.0511 -1.64506,-0.464804 0.33083,-0.250222 1.09775,-0.457084 1.70429,-0.459694 1.340058,-0.0058 2.189248,-0.429041 1.438628,-0.71708 -0.63245,-0.242696 -0.63703,-0.827521 -0.006,-0.827521 0.97912,0 3.94911,1.715578 4.72025,2.726588 0.86237,1.130629 0.63984,1.596948 -0.76679,1.606836 -0.37129,0.0025 -0.89419,0.223865 -1.162,0.491682 -0.61223,0.612218 -0.61798,0.783374 -0.0186,0.553377 0.33511,-0.128593 0.41382,-0.03768 0.27672,0.319596 -0.28662,0.746902 -1.65557,0.610535 -3.54205,-0.352836 z m -6.576768,14.047634 c 0.49208,-0.492076 -0.59559,-0.735524 -5.65488,-1.265704 -1.60298,-0.167983 -1.7738,-0.138691 -1.23948,0.212539 1.56621,1.029513 6.20882,1.738707 6.89436,1.053165 z m -8.9085,-19.230841 c 0,-0.702002 -0.10714,-0.761559 -1.2541,-0.697205 -1.25408,0.07037 -1.25408,0.07037 -0.44752,0.767571 1.06632,0.921739 1.70162,0.895469 1.70162,-0.07037 z m 2.01414,-0.166282 c 0,-0.664204 -0.90037,-0.568269 -1.03097,0.109852 -0.0798,0.414109 0.0464,0.54031 0.46056,0.460562 0.31373,-0.06042 0.57041,-0.317105 0.57041,-0.570414 z m 0.30987,-3.224954 c 0.79519,-0.203912 -2.02559,-1.223493 -3.4377,-1.242575 -2.06865,-0.02795 -3.1383,0.707664 -1.81532,1.248432 0.72477,0.296247 4.08956,0.292495 5.25302,-0.0059 z m -34.24612,-5.917878 c -0.71908,-0.765423 -3.41974,-2.627951 -3.81052,-2.627951 -0.25452,0 2.18163,2.208326 3.18784,2.889725 1.13304,0.767286 1.46021,0.629738 0.62268,-0.261774 z M 41.604562,20.53677 c 1.58792,-1.485311 2.74958,-1.695115 5.04133,-0.910495 0.34086,0.1167 0.22647,-0.01543 -0.25418,-0.293657 -1.67756,-0.97099 -9.06698,-1.384139 -11.05604,-0.618155 -1.08455,0.417654 -1.08455,0.417654 0.34151,0.441229 1.67835,0.02773 3.48045,1.082857 3.63087,2.125839 0.1442,0.999815 0.58385,0.857238 2.29651,-0.744761 z M 177.72056,97.984704 c -20.07563,-0.4208 -31.05507,-1.0912 -32.84614,-2.00557 -10.483,-5.351773 -10.80095,-7.649945 -1.91305,-13.827689 8.97801,-6.240381 8.63539,-6.12119 17.40651,-6.055423 12.10288,0.09075 36.26624,1.017158 40.12806,1.538485 3.15666,0.426132 11.77503,11.571859 11.77503,15.228087 0,5.0681 -4.59906,5.74991 -34.55041,5.12211 z m 15.03546,-2.10462 c -0.51805,-0.62421 -2.38444,-0.94284 -2.91987,-0.49848 -0.83126,0.68989 -5.76949,0.65121 -7.15769,-0.0561 -0.91951,-0.46848 -2.17383,-0.6913 -4.85902,-0.8632 -1.99076,-0.12743 -3.80349,-0.3208 -4.0283,-0.4297 -0.22482,-0.1089 -0.13807,-0.0185 0.19277,0.20088 0.33084,0.21939 0.92282,0.70565 1.31552,1.08059 0.85605,0.81731 1.60069,0.88223 11.05794,0.96399 5.93959,0.0513 6.73074,0.002 6.39865,-0.39802 z m 8.9794,-0.43677 c 2.17548,-0.82127 3.92265,-2.25838 4.18218,-3.44 0.32681,-1.487958 9e-5,-1.533245 -2.85955,-0.396345 -2.56788,1.020915 -5.18066,1.663525 -8.53288,2.098665 -1.47767,0.19181 -1.47767,0.19181 -0.92961,1.13553 0.97439,1.67781 4.58332,1.94478 8.13986,0.60215 z m -29.3088,0.27846 c -0.16778,-0.16777 -2.09276,-0.38157 -4.27775,-0.4751 -4.44358,-0.19022 -5.63777,-0.58787 -7.69733,-2.56317 -1.15581,-1.108529 -1.15581,-1.108529 -2.38331,-0.12208 -2.01322,1.61786 -2.72771,0.95567 -0.8985,-0.83273 1.56738,-1.532404 3.54559,-1.254554 4.12778,0.57977 0.17395,0.54806 2.02127,1.54927 2.85854,1.54927 0.4615,0 0.46465,-0.0392 0.0311,-0.38733 -0.2653,-0.21304 -0.81294,-1.01482 -1.21697,-1.78175 -0.40403,-0.766926 -1.06614,-1.807442 -1.47136,-2.312259 -0.52913,-0.659191 -0.62388,-0.95547 -0.33622,-1.051355 0.39041,-0.130139 1.64861,1.087801 1.89864,1.837902 0.0954,0.286217 0.28192,0.291147 0.78706,0.02079 1.23533,-0.661131 2.80951,-0.38139 6.04695,1.074586 6.70382,3.014916 6.82214,3.018536 9.39644,0.287704 1.0379,-1.101011 2.1411,-2.565143 2.45156,-3.253626 0.59793,-1.325974 1.27627,-1.733597 0.9229,-0.554585 -0.45561,1.520119 -1.40685,3.238638 -2.4767,4.474433 -1.12394,1.29826 -1.12394,1.29826 0.0628,1.49578 0.65269,0.10863 1.57411,0.32031 2.04759,0.4704 1.35914,0.43084 2.77436,-1.69501 1.78622,-2.683152 -0.0886,-0.08864 -0.16274,-0.889297 -0.16465,-1.779226 -0.005,-2.091849 -0.86079,-3.589131 -1.65454,-2.893118 -0.28492,0.249835 -0.86664,0.554976 -1.29271,0.678093 -0.42607,0.12312 -1.05355,0.395412 -1.39441,0.605097 -0.34085,0.209685 -1.10477,0.547619 -1.69759,0.750962 -1.41296,0.484663 -3.10059,1.645377 -3.10326,2.134357 -0.002,0.270432 -0.61783,0.387336 -2.04209,0.387336 -2.4737,0 -2.68781,-0.717681 -0.25983,-0.870946 1.08433,-0.06845 1.74902,-0.306987 2.2998,-0.82533 0.42607,-0.400983 1.82048,-1.19422 3.09869,-1.762753 2.32402,-1.033696 2.32402,-1.033696 0.92961,-1.246532 -4.05568,-0.619045 -8.67634,-0.199184 -8.67634,0.788387 0,0.453237 -1.15491,0.907325 -1.60312,0.630315 -0.42412,-0.262119 -0.28778,-0.819902 0.15855,-0.648634 0.22805,0.08751 0.91654,-0.358032 1.52998,-0.990103 1.08956,-1.122635 0.32403,-3.908408 -1.12915,-4.109017 -2.35586,-0.325227 -3.85457,-0.0989 -3.79953,0.573784 0.0222,0.270854 -0.134,0.553954 -0.34704,0.629103 -0.63507,0.224035 -0.43956,-0.932548 0.31141,-1.84225 1.81317,-2.196411 4.62994,-0.838314 6.40727,3.089257 0.51651,1.14139 2.15199,0.214321 2.17975,-1.235591 0.016,-0.836725 3.33389,-2.715241 4.7957,-2.715241 0.40037,0 1.79369,0.506127 3.09629,1.124729 4.40768,2.093197 8.75713,2.113465 10.41655,0.04854 1.49359,-1.858574 7.45347,-3.613515 8.19532,-2.413187 0.10548,0.17067 0.43956,0.310309 0.74239,0.310309 0.30285,0 1.06716,0.575387 1.69848,1.278638 1.47636,1.644569 1.72993,1.380557 0.51461,-0.535801 -1.5187,-2.39474 -1.54026,-2.396974 -34.09707,-3.532763 -18.25435,-0.636827 -19.68228,-0.296077 -26.10267,6.229006 -1.31441,1.335849 -1.2328,1.456906 1.24668,1.849095 5.25271,0.830836 5.90046,1.14232 7.03612,3.383433 0.86867,1.714228 0.90653,1.863944 0.47136,1.863944 -0.16814,0 -0.49515,-0.453184 -0.72668,-1.007075 -0.90687,-2.169537 -10.52601,-5.109919 -12.09131,-3.696079 -1.72413,1.557312 -1.9919,4.08278 -0.43308,4.084574 0.55389,6.2e-4 1.43863,0.264316 1.96609,0.585957 0.56478,0.344395 1.28295,0.52287 1.74702,0.434158 0.43341,-0.08285 1.11738,0.02625 1.51994,0.242429 0.40256,0.216186 1.85399,0.418549 3.2254,0.449694 1.3714,0.03115 2.79754,0.219361 3.16919,0.418261 0.57245,0.30637 0.64726,0.28749 0.48954,-0.12353 -0.35583,-0.927276 -6.41022,-3.247595 -8.47392,-3.247595 -0.49243,0 -0.98151,-0.139441 -1.08684,-0.309869 -0.36297,-0.587298 2.2721,-0.31615 4.86445,0.500553 4.67041,1.47138 9.55316,5.446011 6.12756,4.987921 -4.05807,-0.54266 -7.40249,-1.248 -8.43034,-1.77795 -0.63621,-0.328026 -1.34932,-0.522516 -1.58468,-0.432201 -0.23536,0.09031 -1.01067,-0.139534 -1.72291,-0.510776 -1.37082,-0.714512 -1.92926,-0.605804 -1.37949,0.268539 1.17901,1.875088 4.17517,2.493378 17.77381,3.667848 11.51152,0.99422 16.09515,1.21068 15.62223,0.73775 z m -20.07988,-6.567178 c -0.29946,-1.008658 -0.0161,-2.042756 0.80615,-2.941963 0.77987,-0.852868 0.54058,-2.675233 -0.56527,-4.304792 -0.64225,-0.946409 -0.67428,-1.097172 -0.21425,-1.008581 0.64903,0.124992 1.93981,2.296267 1.94697,3.275066 0.003,0.432912 0.19466,0.697206 0.50518,0.697206 0.64239,0 2.90847,1.267864 2.90847,1.627287 0,0.308599 -1.23765,-0.0012 -1.68878,-0.422636 -1.06117,-0.99147 -3.11482,0.746561 -3.33642,2.823648 -0.11369,1.065547 -0.12003,1.07001 -0.36205,0.254765 z m 6.40586,-2.582307 c -0.53784,-0.376723 -0.63486,-0.676394 -0.49602,-1.53203 0.23983,-1.477884 -0.10476,-3.034679 -0.84838,-3.832868 -0.6498,-0.697481 -1.53342,-0.907325 -1.53342,-0.364158 0,0.170428 0.19209,0.309869 0.42686,0.309869 0.49146,0 1.29471,0.860671 1.0405,1.114878 -0.29643,0.296434 -1.88728,-0.731533 -3.15892,-2.041207 -2.04935,-2.110649 -3.10554,-2.061848 -3.43856,0.158879 -0.17787,1.186077 -0.31258,1.387188 -0.92923,1.387188 -1.11789,0 -1.21839,0.583419 -0.27084,1.572441 0.86449,0.902339 0.86449,0.902339 0.14374,1.66955 -0.82634,0.879598 -1.41861,0.749986 -0.91059,-0.199274 0.27567,-0.515089 0.21413,-0.810385 -0.31925,-1.531813 -0.80947,-1.09487 -0.43758,-2.130642 0.765,-2.130642 0.65957,0 0.76377,-0.141424 0.76377,-1.036515 0,-2.20714 1.83785,-2.662167 3.90637,-0.967173 1.17149,0.959949 1.4134,1.046865 1.96132,0.704679 0.97656,-0.609866 3.05231,1.533084 3.1805,3.283461 0.0928,1.267386 0.0946,1.269029 1.27047,1.166629 0.64763,-0.0564 1.37078,0.05786 1.607,0.253907 0.31427,0.26082 0.59917,0.265639 1.06197,0.01797 0.47758,-0.255593 0.8998,-0.226788 1.72408,0.11762 1.45338,0.60726 1.37722,0.745365 -0.38026,0.689474 -1.17325,-0.03731 -1.69785,0.12608 -2.58567,0.805331 -1.26054,0.964422 -2.01313,1.061336 -2.98044,0.383814 z m 2.38995,-0.794575 c 0,-0.146847 -0.20916,-0.186731 -0.4648,-0.08863 -0.25564,0.0981 -0.4648,0.298509 -0.4648,0.445353 0,0.146847 0.20916,0.18673 0.4648,0.08863 0.25564,-0.0981 0.4648,-0.29851 0.4648,-0.445353 z m 46.94519,9.35646 c 2.53066,-1.16209 2.8356,-2.40737 1.40613,-5.74219 -0.73337,-1.710887 -0.99282,-1.755932 -1.84033,-0.319506 -0.79493,1.347302 -0.79603,1.376699 -0.0517,1.376699 0.61945,0 2.09404,1.748787 1.75797,2.084857 -0.10448,0.10448 -0.5277,-0.12732 -0.94048,-0.51511 -0.79498,-0.746843 -1.41613,-0.643405 -1.41613,0.23582 0,0.29124 -0.3553,1.05241 -0.78957,1.69148 -1.22277,1.79947 -0.48121,2.26952 1.87412,1.18795 z m -15.95923,-1.48796 c 0.001,-0.4646 0.53772,-0.62729 3.39093,-1.02828 2.75352,-0.38698 2.66691,-0.32268 2.04764,-1.520222 -0.60608,-1.172018 -0.39947,-1.206879 2.15612,-0.363784 1.80242,0.594621 1.80242,0.594621 3.99893,-0.199599 3.94707,-1.427183 4.01467,-2.397238 0.18601,-2.669002 -4.26369,-0.302646 -5.15328,-2.798277 -1.33873,-3.755667 0.92279,-0.231606 0.79114,-0.860002 -0.2307,-1.101226 -0.40985,-0.09675 -1.10711,-0.70885 -1.54948,-1.360217 -1.01985,-1.501697 -1.64447,-1.86245 -2.46467,-1.423492 -0.34664,0.185512 -0.75966,0.257321 -0.91782,0.15957 -0.77654,-0.479929 -3.29044,0.611679 -4.73471,2.055951 -2.48844,2.488448 -6.5524,2.989831 -9.48863,1.170648 -3.95641,-2.45126 -5.0756,-2.607874 -7.39385,-1.034668 -0.8399,0.56997 -2.25245,2.446138 -2.25219,2.99139 2e-5,0.04322 2.33566,0.07859 5.19031,0.07859 5.77747,0 5.93739,0.05451 5.95509,2.029643 0.0152,1.701665 0.17666,1.749159 5.52193,1.624647 4.09877,-0.09547 4.97207,-0.03548 5.49097,0.377241 0.5928,0.471491 0.58052,0.483963 -0.31256,0.317399 -0.51128,-0.09536 -2.39374,0.128897 -4.18323,0.498344 -1.7895,0.369445 -3.75793,0.700047 -4.37429,0.734669 -1.5016,0.08435 -1.8231,0.331349 -1.8231,1.400655 0,0.8335 0.0703,0.88952 0.90611,0.72235 0.57722,-0.11544 1.15678,-0.006 1.59675,0.30253 0.8393,0.58787 4.62163,0.58176 4.62317,-0.007 z M 190.89,87.959211 c 0,-0.176483 0.63132,-0.5915 1.40295,-0.922254 1.55694,-0.667387 2.45403,-1.540673 4.03366,-3.926659 1.06603,-1.610214 1.60422,-2.146638 1.87852,-1.872345 0.19335,0.193356 -1.01246,2.267821 -2.10808,3.626712 -1.03186,1.279819 -1.07611,1.556213 -0.24915,1.556213 1.18207,0 0.61261,0.550439 -0.78652,0.760255 -0.77345,0.115984 -1.8845,0.410697 -2.469,0.654921 -1.26042,0.526638 -1.70238,0.55861 -1.70238,0.123157 z m -20.67545,4.443373 c -4.17359,-2.056035 -7.09374,-2.271131 -6.15369,-0.45327 0.62867,1.2157 2.02464,1.77242 3.31577,1.32233 1.33665,-0.46596 3.05383,-0.42489 3.99161,0.0955 0.42607,0.23642 0.98383,0.43289 1.23947,0.43662 0.25565,0.004 -0.82128,-0.6268 -2.39316,-1.40116 z m 29.35178,-0.71393 c -0.60076,-0.388241 -0.9296,-0.388241 -0.9296,0 0,0.17043 0.31374,0.30773 0.6972,0.30513 0.56379,-0.004 0.60826,-0.0622 0.2324,-0.30513 z m 7.36929,-5.254281 c 1.56107,-0.05303 -0.56472,-1.655476 -2.30914,-1.740662 -2.30508,-0.112564 -4.5449,1.17053 -2.73613,1.567405 0.51129,0.112185 1.20159,0.30963 1.534,0.438768 0.33242,0.129138 1.16907,0.125265 1.85922,-0.0086 0.69015,-0.133876 1.43357,-0.249482 1.65205,-0.256903 z m -66.5543,-11.459895 c -0.42607,-0.126132 4.25396,-0.338501 10.40006,-0.471931 11.17474,-0.242599 11.17474,-0.242599 11.19601,-8.183716 0.0213,-7.941113 0.0213,-7.941113 1.02256,-10.575001 1.33685,-3.51656 1.48587,-4.957005 0.65798,-6.36017 -0.72076,-1.221604 -4.37459,-9.652391 -4.37459,-10.093865 0,-0.155192 2.50847,0.973538 5.57439,2.508289 5.57438,2.790455 5.57438,2.790455 12.48036,2.790455 3.79829,0 8.04982,0.143426 9.44785,0.318726 3.46687,0.434706 10.76578,-1.269677 15.49326,-3.617869 1.66084,-0.824955 3.12429,-1.547279 3.25212,-1.605162 1.53047,-0.693091 -1.12754,6.16556 -4.81331,12.420099 -1.49471,2.536434 -2.07819,3.806637 -1.9216,4.183233 0.20955,0.503975 0.54764,5.142983 0.96533,13.245442 0.26119,5.066758 -0.19905,4.802972 8.38001,4.802972 5.94279,0 6.91804,0.06553 6.91804,0.464804 0,0.504851 -72.98641,0.67461 -74.67847,0.173694 z m 38.44087,-1.47723 c 1.12503,-1.002411 3.44207,-2.56664 3.80463,-2.568503 0.55094,-0.0028 -0.0211,0.643617 -1.76739,1.997228 -1.81903,1.410007 -1.81903,1.410007 8.34302,1.410007 10.16204,0 10.16204,0 9.43369,-0.775299 -0.72835,-0.775295 -0.72835,-0.775295 -0.32277,-4.185812 0.3685,-3.098701 0.35633,-3.539487 -0.13315,-4.821174 -0.29631,-0.775862 -0.45425,-1.495146 -0.35099,-1.59841 0.10327,-0.103264 0.18776,-0.01686 0.18776,0.192047 0,0.208893 0.11084,0.311298 0.24632,0.227568 0.23105,-0.142797 0.1256,-1.845962 -0.38612,-6.236659 -0.21668,-1.859215 -0.21668,-1.859215 1.98613,-5.267776 2.24039,-3.466699 3.47062,-5.794721 4.65282,-8.804731 0.65894,-1.67774 0.65894,-1.67774 -0.98342,-0.283955 -2.29084,1.944116 -5.65324,4.333183 -7.76229,5.515296 -1.91059,1.07088 -1.90329,1.025677 -0.46438,2.875992 1.53749,1.977086 0.7761,1.938901 -1.17182,-0.05877 -1.0174,-1.043383 -1.88247,-1.99729 -1.92238,-2.119794 -0.0399,-0.122503 1.41151,-0.98966 3.22536,-1.927014 2.77148,-1.432231 7.48713,-4.52383 8.62223,-5.652764 0.17042,-0.169504 -0.74762,0.26598 -2.0401,0.967737 -2.74631,1.491128 -9.98126,3.48332 -12.67869,3.491163 -14.78054,0.04298 -19.29282,-0.486786 -23.70499,-2.78309 -2.38599,-1.241782 -4.19873,-2.125216 -4.0283,-1.963186 1.28791,1.224461 6.63957,5.23973 6.78706,5.092236 0.70742,-0.707416 -0.11365,1.089596 -1.37847,3.016988 -2.21466,3.37476 -2.37254,3.700439 -3.23245,6.667818 -0.88706,3.061055 -1.13636,10.187228 -0.41201,11.777008 0.25257,0.554338 0.26748,0.878049 0.047,1.021654 -0.47109,0.306901 -0.78123,2.733257 -0.54808,4.287967 0.26192,1.746627 14.06788,2.184754 15.95174,0.506224 z m -10.20332,-1.326404 c -0.49555,-0.881708 -0.61119,-1.38422 -0.40383,-1.754755 0.25395,-0.453798 0.31987,-0.425008 0.52306,0.228454 0.12787,0.411224 0.49308,1.117809 0.81158,1.570187 0.68621,0.974663 0.7174,1.191643 0.17134,1.191643 -0.22426,0 -0.72023,-0.555989 -1.10215,-1.235529 z m 5.60337,-3.455943 c -0.88085,-0.564027 -1.36542,-0.634566 -3.56583,-0.519075 -2.54646,0.133656 -2.54646,0.133656 -3.25337,-0.931005 -0.83931,-1.264074 -0.71246,-1.511117 0.51488,-1.002736 2.43594,1.008999 3.62433,-1.271409 1.74604,-3.350461 -0.5965,-0.66025 -1.08454,-1.340785 -1.08454,-1.512298 0,-0.521984 0.84638,-1.08294 1.07524,-0.712637 0.11044,0.178705 0.5995,0.324917 1.08678,0.324917 1.03861,0 1.86627,0.275074 1.86627,0.620259 0,0.134244 -0.45318,0.142211 -1.00707,0.01769 -1.38991,-0.312441 -1.8572,-0.118466 -1.46774,0.609253 0.30088,0.562198 0.35545,0.561517 2.06252,-0.02581 0.9644,-0.331801 1.82017,-0.536566 1.90171,-0.45503 0.26499,0.265 -0.62088,1.092834 -1.16946,1.092834 -1.73748,0 -1.9074,2.458366 -0.21553,3.118242 0.53906,0.210249 1.65638,0.803373 2.48293,1.318053 1.7116,1.065795 3.34291,1.177224 5.88667,0.402092 1.44363,-0.439899 2.3714,-0.393434 2.3714,0.11877 0,0.133551 -0.45319,0.316888 -1.00708,0.407422 -0.55389,0.09054 -1.76953,0.384672 -2.70142,0.653641 -2.3604,0.681276 -4.28109,0.620712 -5.5224,-0.17414 z m -4.40335,-8.759621 c 0,-0.059 0.20916,-0.280856 0.46481,-0.49302 0.26791,-0.222347 0.4648,-0.252463 0.4648,-0.07109 0,0.173061 -0.20916,0.394918 -0.4648,0.49302 -0.25565,0.0981 -0.46481,0.130089 -0.46481,0.07109 z m 7.97913,-1.63623 c -0.74673,-0.19514 -0.65949,-0.42668 0.53383,-1.416815 1.60397,-1.330854 4.78302,-1.641278 6.45706,-0.630509 0.24596,0.148508 -0.80778,0.818749 -2.7977,1.779504 -0.93878,0.453255 -2.98379,0.583871 -4.19319,0.26782 z m 4.19761,-1.987591 c -0.24509,-0.245091 -0.50408,-0.247762 -0.91412,-0.0094 -0.50156,0.291535 -0.45937,0.333717 0.34198,0.341978 0.66663,0.0069 0.82153,-0.08316 0.57214,-0.332554 z m -14.6863,0.309206 c -1.51393,-1.620656 -0.94012,-2.597434 1.016,-1.729513 0.56581,0.25105 1.2512,0.528451 1.52307,0.616442 0.30223,0.09781 0.5049,0.532163 0.52155,1.117716 0.0398,1.400535 -1.75053,1.39782 -3.06062,-0.0046 z m 0.96022,-0.896835 c 0,-0.170428 -0.2174,-0.309869 -0.4831,-0.309869 -0.2657,0 -0.39691,0.139441 -0.29158,0.309869 0.10533,0.170428 0.32273,0.309869 0.4831,0.309869 0.16036,0 0.29158,-0.139441 0.29158,-0.309869 z m -1.46718,-7.349257 c 0.62655,-0.68707 0.62655,-0.68707 -1.81943,-3.206647 -5.08202,-5.234936 -5.27023,-5.189256 -2.27866,0.553073 2.59,4.971525 2.62054,5.013472 3.04389,4.181275 0.23521,-0.462346 0.7096,-1.149813 1.0542,-1.527701 z M 64.312122,73.920291 c -0.3957,-0.603917 -0.48132,-1.12305 -0.32374,-1.962991 0.22514,-1.20012 0.77029,-0.934556 0.78011,0.380024 0.002,0.349377 0.15864,0.789122 0.34673,0.97721 0.23062,0.230626 0.24313,0.5186 0.0384,0.884394 -0.27491,0.49123 -0.35432,0.464934 -0.84153,-0.278637 z"
       id="path75"
       clip-path="url(#clipPath90)"
       transform="matrix(0.85982397,0,0,0.85982397,0.32768729,3.2881264)" />
  </g>
</svg>
